<svg xmlns="http://www.w3.org/2000/svg" width="36" height="37" viewBox="0 0 36 37">
  <g id="Group_205" data-name="Group 205" transform="translate(-192 -5455.66)">
    <g id="instagram" transform="translate(3 1157.66)">
      <rect id="Rectangle_31" data-name="Rectangle 31" width="36" height="37" rx="6" transform="translate(189 4298)" fill="#e73697"/>
    </g>
    <g id="book-saved-svgrepo-com" transform="translate(201.41 5465.346)">
      <path id="Path_814" data-name="Path 814" d="M15.18,3.985V11.94a1.354,1.354,0,0,1-1.147,1.3l-.217.026A16.779,16.779,0,0,0,8.9,14.892a.712.712,0,0,1-.633,0l-.026-.013a16.932,16.932,0,0,0-4.9-1.608l-.191-.026A1.354,1.354,0,0,1,2,11.94V3.979A1.3,1.3,0,0,1,3.423,2.667,12.361,12.361,0,0,1,8.076,4.209l.165.1a.73.73,0,0,0,.7,0l.112-.072a10.162,10.162,0,0,1,1.516-.745V6.18L11.885,5.3,13.2,6.18V2.74a5.115,5.115,0,0,1,.507-.066h.04A1.3,1.3,0,0,1,15.18,3.985Z" transform="translate(0 0)" fill="none" stroke="#fff" stroke-linecap="round" stroke-linejoin="round" stroke-width="1.5"/>
      <path id="Path_815" data-name="Path 815" d="M12,5.49v9.885" transform="translate(-3.41 -0.964)" fill="none" stroke="#fff" stroke-linecap="round" stroke-linejoin="round" stroke-width="1.5"/>
      <path id="Path_816" data-name="Path 816" d="M17.636,2.78V6.22l-1.318-.877L15,6.22V3.531A13.319,13.319,0,0,1,17.636,2.78Z" transform="translate(-4.433 -0.04)" fill="none" stroke="#fff" stroke-linecap="round" stroke-linejoin="round" stroke-width="1.5"/>
    </g>
  </g>
</svg>
