<?xml version="1.0" encoding="utf-8"?>
<svg xmlns="http://www.w3.org/2000/svg" xml:space="preserve" width="679.709" height="850.333" viewBox="0 -8.443 679.709 850.333">
  <path d="M194.523 678.458s6.614 15.487 26.823 25.989c-36.209-3.752-36.209-3.752-108.809-57.715 0 0-3.961 43.834-65.931 114.523 32.53-106.561 28.947-121.478 4.214-173.299-8.773-17.362-20.153 19.926-18.515 36.945-61.835-203.957 153.916-280.679 153.916-280.679l-44.287-31.509c52.702 17.23 440.202-29.77 182.561-116.462 0 0 21.142 21.526 18.437 35.256-4.628-11.563-19.559-15.572-19.559-15.572s10.431 34.842 2.871 51.798c-2.607-20.123-35.243-51.926-35.243-51.926s10.803 53.804-84.81 50.951c-49.721-2.147-71.897 6.645-88.816 23.42-13.35 13.235-16.599 15.452-22.648 15.452-6.99 0-14.588-4.41-23.823-13.827-3.623-3.694-4.508-6.947-4.458-16.388.054-10.16 1.11-13.324 7.682-23.017 7.146-10.539 8.701-11.632 25.032-17.595 9.577-3.498 22.517-8.674 28.755-11.504 10.032-4.55 11.571-6.067 13.315-13.132 2.102-8.513 3.367-9.416 28.241-20.158 9.034-3.902 16.433-9.726 30.484-23.992 16.791-17.049 16.305-21.761 16.742-23.997 2.126-28.576-56.083-.082-56.083-.082s12.359-17.964 23.429-25.727c30.092-21.101 69.778-1.523 69.778-1.523S322.135 37.11 419.591 4.526c-4.705 3.168-69.582 68.005-68.519 75.294 13.397.29 20.538 7.561 20.538 7.561-28.037-1.063-44.774 25.584-44.774 25.584 12.987-7.459 87.718-18.98 87.718-18.98s-10.271 6.69-9.931 9.762c75.18-21.638 232.268-17.322 232.268-17.322-55.755 7.685-163.767 48.154-163.767 48.154s79.679-5.803 125.542 10.257c-44.863-2.393-75.326 7.56-90.639 15.867 58.441 31.073 98.813 129.557 98.813 129.557s-88.53-96.203-122.055-86.197c0 0 122.684 184.38 14.609 257.953 5.074-24.572 17.675-115.897-19.125-135.901 0 0-140.134 120.996-226.448 118.965 21.981-7.636 29.573-21.449 29.573-21.449-86.925-18.187-113.925 82.813-96.56 121.846-25.033-9.032-61.144-53.433-61.144-53.433s5.718 99.022 126.081 85.045c-18.226 10.896-44.637 22.022-73.802 20.233 6.416 18.872 131.705-2.4 139.458-17.396 3.752-7.254 21.614-42.998-22.813-57.439 26.645-14.168 68.57 39.254 68.57 39.254s7.797-5.299 44.998-11.798-26.332-18.948-26.332-18.948c55.408-.583 81.521 9.249 81.521 9.249 9.138-23.55-103.337-82.377-103.337-82.377s496.679 151.096 222.056 350.67c26.711-67.76 26.813-84.333 14.947-119.558-4.281-12.708-9.398-22.516-13.124-25.152-1.022-.723 3.722 8.785-14.721 22.387-24.225-82.769-127.818-82.081-138.267-76.945-57.126 22.426.696 58.563 26.624 44.009-15.011 21.304-58.09 21.02-58.09 21.02s54.674 46.147 102.717 25.392c-31.543 77.256-170.705-49.23-170.938-49.651S283.03 666.04 283.03 666.04s62.426 51.938 92.265 155.797c-68.157-100.392-180.772-143.379-180.772-143.379zm36.6-486.846c20.22-21.393 18.625-24.149-6.431-11.109-14.519 7.557-39.887 21.442-37.445 28.562 16.727.651 26.759.657 26.759.657l17.117-18.11z"/>
</svg>