<svg xmlns="http://www.w3.org/2000/svg" viewBox="0 0 253.17 253.17">
    <defs>
        <linearGradient id="c" x1="39.79" y1="214.1" x2="218.06" y2="34.35" gradientUnits="userSpaceOnUse">
            <stop offset="0" stop-color="#fccf00" />
            <stop offset="1" stop-color="#f16147" />
        </linearGradient>
        <linearGradient id="g" x1="95.56" y1="211.93" x2="174.46" y2="46.06" gradientUnits="userSpaceOnUse">
            <stop offset="0" stop-color="#68402a" />
            <stop offset=".28" stop-color="#8d5d2c" />
            <stop offset=".52" stop-color="#f19b23" />
            <stop offset=".57" stop-color="#da8d1f" />
            <stop offset=".61" stop-color="#e8941e" />
            <stop offset=".67" stop-color="#ee961e" />
            <stop offset=".81" stop-color="#f2c322" />
            <stop offset=".89" stop-color="#ffcc3a" />
            <stop offset=".93" stop-color="#ffe747" />
            <stop offset=".96" stop-color="#fff64e" />
            <stop offset=".97" stop-color="#ffec4a" />
            <stop offset="1" stop-color="#ffd742" />
        </linearGradient>
    </defs>
    <circle cx="126.58" cy="126.58" r="126.58" opacity=".3" fill="url(#c)" />
    <path d="M217.89 189.27c-.37-4.24-2.06-8.13-3.36-12.12a2.68 2.68 0 01-1.1.33 2.48 2.48 0 01-.38 0 2.48 2.48 0 00.38 0 2.68 2.68 0 001.1-.33 118.76 118.76 0 00-3.71-12.41 3.57 3.57 0 000-.47c-1.53-5.06-3.09-10.1-4.56-15.18a1.68 1.68 0 00-1.82-1.43 9.62 9.62 0 00-3 .44c-7.72 2.23-15.41 4.57-23.12 6.86l-19.06 5.66c-1.05.31-1.58 0-1.8-1.13-.41-2.23-1-4.43-1.44-6.65-1-4.43-1.9-8.87-2.89-13.3s-2.1-9-3.15-13.55c-.08-.49-.15-1-.26-1.46q-1.56-6.89-3.14-13.76c-.31-1.58-.58-3.17-.93-4.73q-2.88-12.62-5.8-25.23a1.51 1.51 0 01.87-1.88q12.21-6.72 24.39-13.52c3.56-2 7.08-4.06 10.62-6.1a46.41 46.41 0 00-4.78-1.07 46.41 46.41 0 014.78 1.07 2.51 2.51 0 00.2-2.48c-2-5-4-10-6-14.94q-4.51-11.64-9.06-23.29c-.7-1.8-1-1.88-2.83-1-6.44 3.21-12.82 6.54-19.33 9.62-5.55 2.62-11 5.45-16.5 8.13-.39.19-.92.22-1.08.75-.45-.11-.78.19-1.14.36-3.55 1.7-7.11 3.4-10.65 5.14q-11 5.43-21.94 10.89c-1 .46-1.91.91-2.86 1.39-5.45 2.72-10.8 5.52-16.25 8.12q-8.58 4-17 8.45c-.37 0-.66.13-.68.57a16.56 16.56 0 00.59 3.64q5.44 20.78 10.87 41.55c.39 1.49 1 1.74 2.42 1.19.8-.3 1.44-1.05 2.41-.86 0-.43.3-.42.6-.35 0-.54.42-.66.77-.85l22.78-12c3.18-1.67 6.25-3.55 9.56-5a1.43 1.43 0 01.29 0 1.81 1.81 0 011.2.38 1.8 1.8 0 00-1.2-.38c.42 1.37.89 2.73 1.25 4.11q3.14 12.21 6.22 24.41a53.33 53.33 0 016.92-.29 53.33 53.33 0 00-6.92.29l1.5 6.57a7.41 7.41 0 01.31.86q2.5 9.8 5 19.58c1.89 7.47 3.75 14.94 5.68 22.39.21.81.17 1.33-.64 1.59a67.67 67.67 0 01-7.64 2.4 6.87 6.87 0 01-2.21.9c-4.61 1.52-9.3 2.81-13.81 4.64a5.86 5.86 0 00.32 4.37c.3 3.52 1.1 7 1.69 10.46 1.07 6.31 2.19 12.61 3.29 18.92.3 1.72.59 3.44 1 5.14.29 1.34 1.82 1.9 3.56 1.35l16.32-5.23 34.84-11.2 23.42-7.46 35.72-11.49a6.76 6.76 0 01.9-.15c.56-.29.31-.83.27-1.23zm-67-24.42zm54 19.06a17.58 17.58 0 01-4.69 1.31l-17.48 5.57-11.37 3.59c-11.52 3.63-23 7.36-34.58 10.87-6.59 2-13.11 4.19-19.7 6.17-1.7.51-3.41 1-5.08 1.64a1.31 1.31 0 01-2-1.16c-.7-4.58-1.7-9.1-2.55-13.66a10 10 0 010-1.23c-.63-2.68-.9-2.66 1.5-3.7 2.11-.92 4.2-1.88 6.3-2.81a.65.65 0 000-.22.65.65 0 010 .22c2.61-.6 4.9-2 7.37-2.93s4.9-2.27 7.54-2.94l.37-.27c2.67-1.08 2.52-3.39 2.46-5.66-1.17-3.15-1.93-6.42-2.88-9.63-1.47-5-2.33-10.2-4.06-15.15-1.24-.06-2.48 0-3.72 0h-2.48 2.48c1.24 0 2.48-.05 3.72 0a79.4 79.4 0 01-2.15-9c-1-2.06-1.18-4.37-1.81-6.54-1.17-4-2.27-8.06-3.39-12.1a34.48 34.48 0 00-1.27-5.31 6.34 6.34 0 01-.34-2.11 1.23 1.23 0 01-.25-.36q-1.56-5.56-3.1-11.15c-1.57-6.19-3.09-12.35-4.73-18.55-.56-2.09-3.3-3.11-5.31-2.18q-12.75 5.89-25.5 11.79c-2.72 1.25-5.49 2.41-8.2 3.69-1.33.63-1.64-.44-1.79-1.16-1-4.75-1.94-9.53-2.9-14.3a39 39 0 01-1.18-6.26 9 9 0 01-.7-3.1c-.34-.92-.82-1.83 0-2.73-.06-1.18.73-1.77 1.63-2.2q8.42-4 16.87-8c5.58-2.64 11.18-5.26 16.75-7.91.53-.25 1.25-.33 1.38-1.1 1.36 0 2.46-.75 3.6-1.28 7.46-3.5 14.88-7.08 22.32-10.62 3.07-1.46 6.16-2.87 9.23-4.33a3.49 3.49 0 001.44-.86 1 1 0 00-.65-.6 1 1 0 01.65.6c4.65-1.92 9.21-4.05 13.69-6.34a19.4 19.4 0 013.43-1.35c1.63-.46 2.76.15 3.51 2 1.17 2.8 2.2 5.65 3.28 8.48q1.89 4.93 3.77 9.88a4.13 4.13 0 01.38 3.11 2.12 2.12 0 01-2.31 1.62 6.34 6.34 0 01-1.89.61l-.33.59a16.25 16.25 0 004.35.83 16.25 16.25 0 01-4.35-.83l-1.8.68a2.1 2.1 0 01-1.57 1L137.84 69c-2.82 1.64-5.91 2.84-8.3 5.17a.77.77 0 000 .3.68.68 0 01.25.09.68.68 0 00-.25-.09v4c1.2 4.82 2.29 9.67 3.1 14.57a79 79 0 012.36 10.77c1.2 6.74 3 13.35 4.29 20.08.15.8.31 1.6.47 2.4.72-.08 1.43-.24 2.16-.3-.73.06-1.44.22-2.16.3.69 5.17 1.94 10.24 3.12 15.3.61 2.65 1.1 5.3 1.55 8 1.11 3.72 1.59 7.58 2.45 11.35a17.73 17.73 0 001 3.86c.46 2.3.91 4.6 1.41 6.9a4.28 4.28 0 005.83 3c4.71-1.89 9.49-3.61 14.27-5.32 5.06-1.82 10.08-3.73 15-5.81a3.89 3.89 0 001.64-.34c3.45-1.34 6.92-2.61 10.36-4a1.42 1.42 0 012.15.93l1.71 4.62a19.49 19.49 0 012.64-.16 19.49 19.49 0 00-2.64.16l4.35 12.73a15.18 15.18 0 001.26 4.23 1.51 1.51 0 01-.94 2.17zm3.15-6.43h3.45-3.42z"
        fill="url(#g)" />
</svg>