<svg xmlns="http://www.w3.org/2000/svg" width="36" height="37" viewBox="0 0 36 37">
  <g id="Group_153" data-name="Group 153" transform="translate(-304 -5455.66)">
    <g id="Group_204" data-name="Group 204">
      <g id="Twitter" transform="translate(47 1157.66)">
        <g id="Group_203" data-name="Group 203">
          <rect id="Rectangle_32" data-name="Rectangle 32" width="36" height="37" rx="6" transform="translate(257 4298)" fill="#e73697"/>
        </g>
      </g>
      <g id="opensea-seeklogo.com" transform="translate(209.321 5295.079)">
        <path id="Path_831" data-name="Path 831" d="M107.644,187.415l.062-.093,4.015-6.27a.136.136,0,0,1,.247.031,8.734,8.734,0,0,1,.988,4.54,6.548,6.548,0,0,1-.8,1.73.672.672,0,0,1-.154.247.16.16,0,0,1-.124.062h-4.139A.171.171,0,0,1,107.644,187.415Z" transform="translate(-2.571 -7.524)" fill="#fff"/>
        <path id="Path_832" data-name="Path 832" d="M122.957,181.065v.988c0,.062-.031.093-.093.124a4.742,4.742,0,0,0-1.822,1.235c-1.143,1.575-2.008,3.83-3.923,3.83h-8.061a5.174,5.174,0,0,1-5.158-5.189v-.093a.133.133,0,0,1,.124-.124h4.54a.165.165,0,0,1,.154.154,1.72,1.72,0,0,0,.154.865,1.57,1.57,0,0,0,1.421.865h2.224v-1.73h-2.193a.139.139,0,0,1-.124-.216.427.427,0,0,0,.093-.124c.216-.309.494-.741.8-1.266a7.471,7.471,0,0,0,.556-1.112,1.505,1.505,0,0,0,.093-.216c.031-.124.093-.247.124-.34l.093-.278a5.206,5.206,0,0,0,.093-1.019,2.188,2.188,0,0,0-.031-.432c0-.154-.031-.309-.031-.463a1.808,1.808,0,0,0-.062-.4,4.374,4.374,0,0,0-.124-.618l-.031-.062a2,2,0,0,0-.124-.4,11.522,11.522,0,0,0-.432-1.235l-.185-.463c-.093-.216-.185-.432-.278-.618-.031-.093-.093-.154-.124-.247s-.093-.185-.124-.278l-.093-.185-.278-.494c-.031-.062.031-.154.093-.124l1.7.463h0l.216.062.247.062.093.031V171a.89.89,0,0,1,.865-.9.844.844,0,0,1,.865.865v1.483l.185.062a.03.03,0,0,1,.031.031,1.176,1.176,0,0,0,.185.154,1.344,1.344,0,0,0,.216.185c.154.124.371.309.587.494.062.062.124.093.154.154a12.221,12.221,0,0,1,.9.9c.093.093.154.185.247.278s.154.216.247.309c.093.124.216.278.309.4a1.34,1.34,0,0,1,.124.216c.124.185.216.371.34.556.031.093.093.185.124.278a2.262,2.262,0,0,1,.247.772.336.336,0,0,1,.031.154h0a.6.6,0,0,1,.031.247,3.5,3.5,0,0,1-.031.8c-.031.124-.062.216-.093.34a2.349,2.349,0,0,1-.124.34,6.534,6.534,0,0,1-.34.649,2.848,2.848,0,0,1-.154.247,1.084,1.084,0,0,0-.154.247c-.062.093-.154.185-.216.278a1.7,1.7,0,0,1-.216.278c-.093.124-.216.247-.309.371a8664.041,8664.041,0,0,0-.432.432,2,2,0,0,1-.278.247l-.185.154a.114.114,0,0,1-.093.031h-1.359v1.73h1.7a1.535,1.535,0,0,0,1.019-.371c.093-.093.525-.463,1.05-1.019.031-.031.031-.031.062-.031L122.71,181C122.895,180.91,122.957,180.972,122.957,181.065Z" fill="#fff"/>
      </g>
    </g>
  </g>
</svg>
