<svg xmlns="http://www.w3.org/2000/svg" width="18" height="18" viewBox="0 0 18 18">
  <g id="Group_61" data-name="Group 61" transform="translate(-281 -39)">
    <path id="Path_611" data-name="Path 611" d="M281.327,40.638A7.453,7.453,0,0,0,281,43.8v6.4a7.453,7.453,0,0,0,.327,3.162,3,3,0,0,0,1.311,1.311,3.377,3.377,0,0,0,1.362.3V56a1,1,0,0,0,2,0V55h8v1a1,1,0,0,0,2,0V54.971a3.377,3.377,0,0,0,1.362-.3,3,3,0,0,0,1.311-1.311A7.453,7.453,0,0,0,299,50.2V43.8a7.453,7.453,0,0,0-.327-3.162,3,3,0,0,0-1.311-1.311A7.454,7.454,0,0,0,294.2,39h-8.4a7.454,7.454,0,0,0-3.162.327A3,3,0,0,0,281.327,40.638Z" fill="rgba(97,90,158,0.25)" fill-rule="evenodd"/>
    <path id="Path_641" data-name="Path 641" d="M289,43a1,1,0,0,1,2,0v1.171A3.008,3.008,0,0,1,292.829,46H294a1,1,0,0,1,0,2h-1.171A3.008,3.008,0,0,1,291,49.829V51a1,1,0,0,1-2,0V49.829A3.008,3.008,0,0,1,287.171,48H286a1,1,0,0,1,0-2h1.171A3.008,3.008,0,0,1,289,44.171Zm0,4a1,1,0,1,0,1-1A1,1,0,0,0,289,47Z" fill="#7080ec" fill-rule="evenodd"/>
  </g>
</svg>
