<svg xmlns="http://www.w3.org/2000/svg" width="36" height="37" viewBox="0 0 36 37">
  <g id="Group_208" data-name="Group 208" transform="translate(8960 -3024)">
    <rect id="Rectangle_182" data-name="Rectangle 182" width="36" height="37" rx="6" transform="translate(-8960 3024)" fill="#e73697"/>
    <path id="icons8-twitter" d="M17.742,4a10.357,10.357,0,0,1-2.57,1c-.021.006-.039.013-.059.018a3.54,3.54,0,0,0-6.029,2.52c0,.1-.009.293,0,.394A7.781,7.781,0,0,1,3,4.786a4.793,4.793,0,0,0-.225,1.6,3.494,3.494,0,0,0,2.2,2.857,3.226,3.226,0,0,1-.8.109,2.114,2.114,0,0,1-1.385-.486v.04c0,1.541,1.636,2.59,3.09,2.882A2.82,2.82,0,0,1,4.7,11.98c-.2,0-.929-.094-1.122-.13a3.386,3.386,0,0,0,3.255,2c-1.088.853-1.843,1.17-4.07,1.17H2a9.541,9.541,0,0,0,5,1.575,8.793,8.793,0,0,0,9.172-8.659c0-.068,0-.209,0-.352,0-.014,0-.028,0-.042s-.006-.042-.006-.063c0-.107,0-.207-.007-.259a6.468,6.468,0,0,0,1.588-1.646,6.352,6.352,0,0,1-1.826.5A4.768,4.768,0,0,0,17.742,4Z" transform="translate(-8951.871 3032.204)" fill="#fff"/>
  </g>
</svg>
