<svg height="227" viewBox="0 0 227 227" width="227" xmlns="http://www.w3.org/2000/svg">
    <path fill="#FF1256" d="m49.795 77.044v72.556l63.48 36.278 63.346-36.278v-72.556l-63.346-36.233zm57.955 74.114-11.816 10.95h-9.973l-25.023-43.088 18.329-13.531 16.219 10.238v18.339l12.265 11.661v5.431zm-8.087-18.206 1.842-17.226-5.975-15.446h35.491l-5.841 15.446 1.707 17.182zm40.882 29.023h-9.839l-11.815-10.772-.045-5.519 12.221-11.618v-18.339l16.037-10.373 18.285 13.666zm6.559-65.879-67.612-.045 6.289-27.598h54.72z"/>
    <path d="m113.5 0c-62.684 0-113.5 50.816-113.5 113.5s50.816 113.5 113.5 113.5 113.5-50.816 113.5-113.5-50.816-113.5-113.5-113.5zm69.5 153.25-69.725 39.75-69.275-39.75v-79.5l69.275-39.75 69.725 39.75z" fill="#FF1256"/>
</svg>