<?xml version="1.0" encoding="UTF-8"?><svg id="Layer_1" xmlns="http://www.w3.org/2000/svg" viewBox="0 0 1280 1280"><defs><style>.cls-1{fill:#0092cf;}.cls-2{fill:#ff5417;}.cls-3{fill:#ffbc00;}.cls-4{fill:#ff9a00;}.cls-5{fill:#fbec0d;}.cls-6{fill:#ff2f1d;}.cls-7{fill:#8f3396;}.cls-8{fill:#c2174b;}.cls-9{fill:#c8dd14;}.cls-10{fill:#16af39;}.cls-11{fill:#4c2a93;}.cls-12{fill:#275cad;}</style></defs><path class="cls-10" d="m206.92,389.96c43.9-75.87,107.17-139.14,183.04-183.04l250.04,433.09-433.08-250.04Z"/><path class="cls-1" d="m140,640c0-91.09,24.36-176.49,66.92-250.04l433.08,250.04H140Z"/><path class="cls-12" d="m206.92,890.04c-42.56-73.55-66.92-158.95-66.92-250.04h500l-433.08,250.04Z"/><path class="cls-11" d="m389.96,1073.08c-75.87-43.9-139.14-107.17-183.04-183.04l433.08-250.04-250.04,433.08Z"/><path class="cls-7" d="m640,1140c-91.09,0-176.49-24.36-250.04-66.92l250.04-433.08v500Z"/><path class="cls-8" d="m890.04,1073.09c-73.55,42.56-158.95,66.91-250.04,66.91v-500s250.04,433.09,250.04,433.09Z"/><path class="cls-6" d="m890.04,1073.09c75.88-43.9,139.15-107.17,183.05-183.05l-433.08-250.04,250.04,433.09Z"/><path class="cls-2" d="m1073.08,890.04c42.56-73.55,66.92-158.95,66.92-250.04h-500l433.08,250.04Z"/><path class="cls-4" d="m1140,640c0-91.09-24.36-176.49-66.92-250.04l-433.08,250.04h500Z"/><path class="cls-3" d="m1073.08,389.96c-43.9-75.87-107.17-139.14-183.04-183.04l-250.04,433.08,433.08-250.04Z"/><path class="cls-5" d="m890.04,206.92c-73.55-42.56-158.95-66.92-250.04-66.92v500s250.04-433.08,250.04-433.08Z"/><path class="cls-9" d="m389.96,206.91c73.55-42.56,158.95-66.91,250.04-66.91v500s-250.04-433.09-250.04-433.09Z"/></svg>