<svg width="33" height="32" viewBox="0 0 33 32" fill="none" xmlns="http://www.w3.org/2000/svg">
<path d="M29.7957 12.6221L29.8206 12.5499C29.9606 12.1514 29.763 11.8466 29.5327 11.6931C29.3024 11.5407 28.9457 11.4786 28.6341 11.7619L17.4603 21.9005C17.0788 22.2471 16.5854 22.4379 16.0695 22.4379C15.5028 22.4379 14.9553 22.2019 14.5659 21.791L8.42807 15.3089L11.4343 12.463L16.179 17.473L30.7508 4.25141C31.7442 3.34942 32.2714 2.06361 32.1969 0.724749V0.701042C32.1721 0.414303 31.8074 0.0485424 31.5105 0.0248356C26.9656 -0.230294 21.8766 1.60077 17.7877 3.07284C17.2842 3.25347 16.7988 3.42844 16.3326 3.59326L16.2208 3.63277L16.109 3.59326C15.6439 3.42957 15.1585 3.2546 14.6562 3.07397C10.8292 1.69447 6.12513 0 1.80147 0C1.50683 0 1.21445 0.00790224 0.923196 0.0248356C0.635328 0.0474135 0.270696 0.413174 0.245861 0.708944C-0.0103977 5.25499 1.82179 10.344 3.29387 14.4318C3.47449 14.9352 3.64947 15.4207 3.81429 15.8869L3.8538 15.9987L3.81429 16.1104C3.6506 16.5755 3.47562 17.0609 3.295 17.5633C1.82292 21.6533 -0.00926884 26.7423 0.24699 31.2985C0.270696 31.5864 0.635328 31.951 0.931098 31.9759C5.4794 32.2321 10.5673 30.3999 14.6562 28.9279C15.1585 28.7472 15.6439 28.5723 16.1102 28.4086L16.2219 28.3691L16.3337 28.4086C16.7999 28.5734 17.2865 28.7484 17.7888 28.929C21.8777 30.4011 26.9645 32.2332 31.5207 31.9759C31.8086 31.9522 32.1732 31.5875 32.198 31.2906C32.4148 27.4422 31.1053 23.1062 29.7946 19.374C29.0315 17.1987 29.0315 14.8009 29.7946 12.6233L29.7957 12.6221Z" fill="#FF1156"/>
</svg>
