<svg xmlns="http://www.w3.org/2000/svg" xmlns:xlink="http://www.w3.org/1999/xlink" width="60" height="60" viewBox="0 0 60 60">
  <defs>
    <radialGradient id="radial-gradient" cx="-1.08" cy="-0.08" r="1.882" gradientTransform="translate(-0.528) scale(2.056 1)" gradientUnits="objectBoundingBox">
      <stop offset="0" stop-color="#fff"/>
      <stop offset="0.5" stop-color="#e73697"/>
      <stop offset="1" stop-color="#ff008c"/>
    </radialGradient>
    <radialGradient id="radial-gradient-2" cx="0.054" cy="-0.76" r="1.448" gradientTransform="translate(-1.021) scale(3.041 1)" gradientUnits="objectBoundingBox">
      <stop offset="0" stop-color="#fff"/>
      <stop offset="0.5" stop-color="#c52a80"/>
      <stop offset="1" stop-color="#45267e"/>
    </radialGradient>
    <radialGradient id="radial-gradient-3" cx="0.012" cy="-0.025" r="0.84" gradientTransform="translate(-0.194) scale(1.387 1)" xlink:href="#radial-gradient-2"/>
    <radialGradient id="radial-gradient-4" cx="0.182" cy="-1.905" r="2.5" gradientTransform="translate(-0.426) scale(1.853 1)" xlink:href="#radial-gradient-2"/>
    <radialGradient id="radial-gradient-5" cx="0.466" cy="-0.64" r="1.096" gradientTransform="translate(-0.314) scale(1.628 1)" xlink:href="#radial-gradient-2"/>
    <linearGradient id="linear-gradient" x1="0.5" y1="-0.628" x2="0.5" y2="1.173" gradientUnits="objectBoundingBox">
      <stop offset="0" stop-color="#ffb521"/>
      <stop offset="0.1" stop-color="#ffb521"/>
      <stop offset="0.4" stop-color="#e73697"/>
      <stop offset="0.6" stop-color="#e73697"/>
      <stop offset="0.9" stop-color="#463689"/>
      <stop offset="1" stop-color="#463689"/>
    </linearGradient>
    <radialGradient id="radial-gradient-6" cx="-0.33" cy="0.616" r="1.068" gradientTransform="translate(-0.339) scale(1.678 1)" gradientUnits="objectBoundingBox">
      <stop offset="0" stop-color="#fff"/>
      <stop offset="0.5" stop-color="#e73697"/>
      <stop offset="1" stop-color="#bd297f"/>
    </radialGradient>
    <radialGradient id="radial-gradient-7" cx="-0.299" cy="-0.144" r="0.868" gradientTransform="translate(-0.248) scale(1.496 1)" xlink:href="#radial-gradient-2"/>
    <radialGradient id="radial-gradient-8" cx="0.998" cy="1.174" r="1.603" gradientTransform="translate(0.056) scale(0.887 1)" xlink:href="#radial-gradient-2"/>
    <radialGradient id="radial-gradient-9" cx="0.809" cy="0.394" r="0.795" gradientTransform="translate(-0.147) scale(1.295 1)" gradientUnits="objectBoundingBox">
      <stop offset="0" stop-color="#fff"/>
      <stop offset="0.5" stop-color="#e93196"/>
      <stop offset="1" stop-color="#e73697"/>
    </radialGradient>
    <radialGradient id="radial-gradient-10" cx="0.685" cy="0.908" r="1.053" gradientTransform="translate(0.16) scale(0.679 1)" gradientUnits="objectBoundingBox">
      <stop offset="0" stop-color="#fff"/>
      <stop offset="0.33" stop-color="#fff"/>
      <stop offset="0.66" stop-color="#fff" stop-opacity="0"/>
      <stop offset="1" stop-color="#fff" stop-opacity="0"/>
    </radialGradient>
    <radialGradient id="radial-gradient-11" cx="0.762" cy="0.492" r="0.716" gradientTransform="translate(-0.045) scale(1.089 1)" xlink:href="#radial-gradient-10"/>
    <radialGradient id="radial-gradient-12" cx="0.127" cy="0.413" r="0.709" gradientTransform="translate(-0.546) scale(2.091 1)" xlink:href="#radial-gradient-10"/>
  </defs>
  <g id="Group_154" data-name="Group 154" transform="translate(-10412 -176)">
    <g id="bsc" transform="translate(10412 176)">
      <path id="Path_802" data-name="Path 802" d="M30,0A30,30,0,1,1,0,30,30,30,0,0,1,30,0Z" fill="#fff"/>
    </g>
    <g id="Group_103" data-name="Group 103" transform="translate(10167.314 69.776)">
      <g id="Group_98" data-name="Group 98" transform="translate(274.241 122.328)">
        <path id="Path_788" data-name="Path 788" d="M312.715,143.669c1.923-3.036,3.427-6.287,2.679-9.989,0,6.4-6.078,10.245-9.727,14.434a9.557,9.557,0,0,1,8.528,9.73,8.908,8.908,0,0,0,2.322-10.808A10.656,10.656,0,0,0,312.715,143.669Z" transform="translate(-305.666 -133.68)" fill-rule="evenodd" fill="url(#radial-gradient)"/>
        <path id="Path_789" data-name="Path 789" d="M335.389,190.327a10.137,10.137,0,0,1,.327,2.571,8.908,8.908,0,0,0,2.322-10.808A6.779,6.779,0,0,1,335.389,190.327Z" transform="translate(-327.189 -168.734)" fill-rule="evenodd" fill="url(#radial-gradient-2)"/>
      </g>
      <g id="Group_99" data-name="Group 99" transform="translate(262.268 118.003)">
        <path id="Path_790" data-name="Path 790" d="M277.427,118c-10.842,0-15.159,13.44-15.159,24.247,0-5.833,4.032-9.206,8.27-12.35,1.36-5.747,5.421-7.933,8.317-7.626C280.257,120.085,280.17,118.346,277.427,118Z" transform="translate(-262.268 -118.003)" fill-rule="evenodd" fill="url(#radial-gradient-3)"/>
        <path id="Path_791" data-name="Path 791" d="M317.215,118c2.112.316,1.72,2.25.082,4.3a5.463,5.463,0,0,1,1.345-.03C320.045,120.085,319.958,118.346,317.215,118Z" transform="translate(-302.056 -118.003)" fill-rule="evenodd" fill="url(#radial-gradient-4)"/>
        <path id="Path_792" data-name="Path 792" d="M262.98,159.234a41.925,41.925,0,0,0-.712,7.682c0-5.833,4.032-9.206,8.27-12.35a13.321,13.321,0,0,1,.849-2.5C268.426,154.308,265.163,156.428,262.98,159.234Z" transform="translate(-262.268 -142.669)" fill-rule="evenodd" fill="url(#radial-gradient-5)"/>
      </g>
      <g id="Group_100" data-name="Group 100" transform="translate(262.268 118.003)">
        <path id="Path_793" data-name="Path 793" d="M280.561,147.772c-4.665,1.819-9.926-1.194-9.926-5.2,0-7.7,12.411-11.591,12.411-20.239,0-2.441-1.856-4.325-5.618-4.325,4.948.619,1.253,5.778-4.234,9.931-5.027,3.805-10.925,7.26-10.925,14.316a12,12,0,0,0,12.3,12.195c5.951,0,12.538-4.217,12.538-12.251a11.454,11.454,0,0,0-2.012-6.509A8.808,8.808,0,0,1,280.561,147.772Z" transform="translate(-262.268 -118.003)" fill="#e73697" fill-rule="evenodd"/>
        <path id="Path_794" data-name="Path 794" d="M289.571,172.516c-4.665,1.818-9.926-1.194-9.926-5.2,0-6.008,7.556-9.7,10.877-15.137-5.077,7-15.8,7.917-15.811,17.983a8.839,8.839,0,0,0,8.864,9.031c5.951,0,12.538-4.217,12.538-12.251a11.453,11.453,0,0,0-2.012-6.509A8.808,8.808,0,0,1,289.571,172.516Z" transform="translate(-271.278 -142.747)" fill-rule="evenodd" fill="url(#linear-gradient)"/>
        <path id="Path_795" data-name="Path 795" d="M317.215,118c2.743.343,2.83,2.082,1.427,4.271,2.363.251,3.95,2.163,2.657,5.157a9.636,9.636,0,0,0,1.534-5.1C322.833,119.887,320.978,118,317.215,118Z" transform="translate(-302.056 -118.003)" fill-rule="evenodd" fill="url(#radial-gradient-6)"/>
        <path id="Path_796" data-name="Path 796" d="M315.044,192.9c-.039,4.069-2.652,7.877-8.2,7.952,5.951,0,12.538-4.217,12.538-12.251a11.453,11.453,0,0,0-2.012-6.509A8.907,8.907,0,0,1,315.044,192.9Z" transform="translate(-294.544 -164.409)" fill-rule="evenodd" fill="url(#radial-gradient-7)"/>
        <path id="Path_797" data-name="Path 797" d="M301.382,194.178c-4.665,1.819-9.926-1.194-9.926-5.2a9.282,9.282,0,0,1,2.458-5.864c-7.82,9.227,2.119,15.094,7.414,13.031a9.755,9.755,0,0,0,4.584-14.05A8.808,8.808,0,0,1,301.382,194.178Z" transform="translate(-283.089 -164.409)" fill-rule="evenodd" fill="url(#radial-gradient-8)"/>
        <path id="Path_798" data-name="Path 798" d="M277.427,118c4.948.619,1.253,5.778-4.234,9.931-5.027,3.805-10.925,7.26-10.925,14.316.188-7.056,6.812-10.188,11.839-13.993C279.594,124.1,284.62,118.487,277.427,118Z" transform="translate(-262.268 -118.003)" fill-rule="evenodd" fill="url(#radial-gradient-9)"/>
        <path id="Path_799" data-name="Path 799" d="M301.22,204.555c-4.047,1.577-10.457-1.155-10.17-6.642-.529,5.647,6.231,8.7,10.277,7.125a9.732,9.732,0,0,0,5.834-10.659A9.493,9.493,0,0,1,301.22,204.555Z" transform="translate(-283.088 -173.308)" fill-rule="evenodd" fill="url(#radial-gradient-10)"/>
        <path id="Path_800" data-name="Path 800" d="M294.5,119.686c2.718,1.658-1.354,6.307-5.72,9.668-1.972,1.518-4.233,2.979-6.087,4.594,1.988-1.575,4.22-2.971,6.2-4.473C293.638,125.886,298.036,121.2,294.5,119.686Z" transform="translate(-277.057 -119.222)" fill-rule="evenodd" fill="url(#radial-gradient-11)"/>
        <path id="Path_801" data-name="Path 801" d="M284.759,170.822c-4.862,3.269-10.037,5.846-10.048,12.838a8.945,8.945,0,0,0,5.021,8.176,9.511,9.511,0,0,1-4.4-8.176C275.339,176.668,280.085,174.494,284.759,170.822Z" transform="translate(-271.278 -156.25)" fill-rule="evenodd" fill="url(#radial-gradient-12)"/>
      </g>
    </g>
  </g>
</svg>
