<?xml version="1.0" encoding="UTF-8" standalone="no"?>
<!DOCTYPE svg PUBLIC "-//W3C//DTD SVG 1.1//EN" "http://www.w3.org/Graphics/SVG/1.1/DTD/svg11.dtd">
<svg xmlns="http://www.w3.org/2000/svg" version="1.1" viewBox="0.00 0.00 64.00 64.00">
<g stroke-width="2.00" fill="none" stroke-linecap="butt">
<path stroke="#fe88ab" vector-effect="non-scaling-stroke" d="
  M 23.23 29.76
  L 26.65 33.61"
/>
<path stroke="#ff0a45" vector-effect="non-scaling-stroke" d="
  M 26.65 33.61
  Q 25.53 34.18 27.06 35.60
  A 1.80 1.72 -76.8 0 1 27.55 36.43
  Q 28.18 38.78 27.59 40.94
  Q 27.09 42.81 26.90 44.33
  Q 26.70 45.87 26.17 47.39
  Q 25.68 48.78 26.40 49.97
  Q 27.16 51.23 28.30 51.80
  Q 29.56 52.44 31.28 51.76
  Q 34.65 50.42 35.24 49.63
  Q 36.34 48.13 37.97 46.60
  Q 40.28 44.41 41.69 39.49
  Q 42.25 37.55 41.42 35.88
  Q 41.15 35.34 41.39 34.79
  Q 42.15 33.02 41.49 31.22
  Q 39.45 25.69 35.82 22.12
  Q 30.86 17.24 26.29 12.60
  Q 25.97 12.28 25.52 12.18
  Q 23.52 11.74 22.57 14.13
  Q 22.38 14.59 22.62 15.02
  L 23.89 17.27
  Q 24.13 17.70 23.70 17.93
  Q 21.64 19.07 22.11 21.82
  Q 22.20 22.32 22.62 22.61
  Q 22.94 22.82 23.04 23.18
  Q 23.18 23.68 22.93 24.13
  Q 20.80 27.92 23.23 29.76"
/>
<path stroke="#ff819a" vector-effect="non-scaling-stroke" d="
  M 26.65 33.61
  Q 29.73 36.30 29.16 39.41
  Q 28.30 44.06 27.21 48.43
  A 2.03 2.02 22.3 0 0 28.16 50.67
  Q 29.42 51.40 30.66 50.85
  Q 39.81 46.75 40.98 37.05
  C 41.76 30.55 36.81 23.89 31.99 19.89
  Q 31.59 19.56 31.14 19.80
  Q 26.38 22.37 24.38 24.14
  Q 22.54 25.77 23.23 29.76"
/>
<path stroke="#ff819a" vector-effect="non-scaling-stroke" d="
  M 25.85 17.21
  A 0.57 0.57 0.0 0 1 25.76 18.11
  L 23.17 19.70
  A 0.57 0.57 0.0 0 0 22.90 20.28
  L 23.16 21.87
  A 0.57 0.57 0.0 0 0 24.03 22.26
  L 29.86 18.59
  A 0.57 0.57 0.0 0 0 29.95 17.70
  L 25.15 12.99
  A 0.57 0.57 0.0 0 0 24.26 13.11
  L 23.51 14.36
  A 0.57 0.57 0.0 0 0 23.60 15.07
  L 25.85 17.21"
/>
<path stroke="#fe88ab" vector-effect="non-scaling-stroke" d="
  M 35.10 42.78
  C 40.11 35.99 37.46 29.05 31.81 23.86
  Q 30.86 23.00 29.80 23.72
  L 26.25 26.14
  A 1.15 1.15 0.0 0 0 26.01 27.81
  C 29.83 32.59 33.84 35.53 31.87 42.48
  Q 30.82 46.18 33.93 43.93
  Q 34.62 43.43 35.10 42.78"
/>
</g>
<path fill="#fe1156" d="
  M 29.12 0.00
  L 35.00 0.00
  Q 59.75 4.19 64.00 28.86
  L 64.00 35.25
  Q 59.69 59.81 35.14 64.00
  L 28.75 64.00
  Q 4.06 59.60 0.00 34.89
  L 0.00 29.00
  Q 4.23 4.14 29.12 0.00
  Z
  M 23.23 29.76
  L 26.65 33.61
  Q 25.53 34.18 27.06 35.60
  A 1.80 1.72 -76.8 0 1 27.55 36.43
  Q 28.18 38.78 27.59 40.94
  Q 27.09 42.81 26.90 44.33
  Q 26.70 45.87 26.17 47.39
  Q 25.68 48.78 26.40 49.97
  Q 27.16 51.23 28.30 51.80
  Q 29.56 52.44 31.28 51.76
  Q 34.65 50.42 35.24 49.63
  Q 36.34 48.13 37.97 46.60
  Q 40.28 44.41 41.69 39.49
  Q 42.25 37.55 41.42 35.88
  Q 41.15 35.34 41.39 34.79
  Q 42.15 33.02 41.49 31.22
  Q 39.45 25.69 35.82 22.12
  Q 30.86 17.24 26.29 12.60
  Q 25.97 12.28 25.52 12.18
  Q 23.52 11.74 22.57 14.13
  Q 22.38 14.59 22.62 15.02
  L 23.89 17.27
  Q 24.13 17.70 23.70 17.93
  Q 21.64 19.07 22.11 21.82
  Q 22.20 22.32 22.62 22.61
  Q 22.94 22.82 23.04 23.18
  Q 23.18 23.68 22.93 24.13
  Q 20.80 27.92 23.23 29.76
  Z"
/>
<path fill="#ff0334" d="
  M 26.65 33.61
  Q 29.73 36.30 29.16 39.41
  Q 28.30 44.06 27.21 48.43
  A 2.03 2.02 22.3 0 0 28.16 50.67
  Q 29.42 51.40 30.66 50.85
  Q 39.81 46.75 40.98 37.05
  C 41.76 30.55 36.81 23.89 31.99 19.89
  Q 31.59 19.56 31.14 19.80
  Q 26.38 22.37 24.38 24.14
  Q 22.54 25.77 23.23 29.76
  Q 20.80 27.92 22.93 24.13
  Q 23.18 23.68 23.04 23.18
  Q 22.94 22.82 22.62 22.61
  Q 22.20 22.32 22.11 21.82
  Q 21.64 19.07 23.70 17.93
  Q 24.13 17.70 23.89 17.27
  L 22.62 15.02
  Q 22.38 14.59 22.57 14.13
  Q 23.52 11.74 25.52 12.18
  Q 25.97 12.28 26.29 12.60
  Q 30.86 17.24 35.82 22.12
  Q 39.45 25.69 41.49 31.22
  Q 42.15 33.02 41.39 34.79
  Q 41.15 35.34 41.42 35.88
  Q 42.25 37.55 41.69 39.49
  Q 40.28 44.41 37.97 46.60
  Q 36.34 48.13 35.24 49.63
  Q 34.65 50.42 31.28 51.76
  Q 29.56 52.44 28.30 51.80
  Q 27.16 51.23 26.40 49.97
  Q 25.68 48.78 26.17 47.39
  Q 26.70 45.87 26.90 44.33
  Q 27.09 42.81 27.59 40.94
  Q 28.18 38.78 27.55 36.43
  A 1.80 1.72 -76.8 0 0 27.06 35.60
  Q 25.53 34.18 26.65 33.61
  Z
  M 25.85 17.21
  A 0.57 0.57 0.0 0 1 25.76 18.11
  L 23.17 19.70
  A 0.57 0.57 0.0 0 0 22.90 20.28
  L 23.16 21.87
  A 0.57 0.57 0.0 0 0 24.03 22.26
  L 29.86 18.59
  A 0.57 0.57 0.0 0 0 29.95 17.70
  L 25.15 12.99
  A 0.57 0.57 0.0 0 0 24.26 13.11
  L 23.51 14.36
  A 0.57 0.57 0.0 0 0 23.60 15.07
  L 25.85 17.21
  Z"
/>
<path fill="#feffff" d="
  M 25.85 17.21
  L 23.60 15.07
  A 0.57 0.57 0.0 0 1 23.51 14.36
  L 24.26 13.11
  A 0.57 0.57 0.0 0 1 25.15 12.99
  L 29.95 17.70
  A 0.57 0.57 0.0 0 1 29.86 18.59
  L 24.03 22.26
  A 0.57 0.57 0.0 0 1 23.16 21.87
  L 22.90 20.28
  A 0.57 0.57 0.0 0 1 23.17 19.70
  L 25.76 18.11
  A 0.57 0.57 0.0 0 0 25.85 17.21
  Z"
/>
<path fill="#feffff" d="
  M 26.65 33.61
  L 23.23 29.76
  Q 22.54 25.77 24.38 24.14
  Q 26.38 22.37 31.14 19.80
  Q 31.59 19.56 31.99 19.89
  C 36.81 23.89 41.76 30.55 40.98 37.05
  Q 39.81 46.75 30.66 50.85
  Q 29.42 51.40 28.16 50.67
  A 2.03 2.02 22.3 0 1 27.21 48.43
  Q 28.30 44.06 29.16 39.41
  Q 29.73 36.30 26.65 33.61
  Z
  M 35.10 42.78
  C 40.11 35.99 37.46 29.05 31.81 23.86
  Q 30.86 23.00 29.80 23.72
  L 26.25 26.14
  A 1.15 1.15 0.0 0 0 26.01 27.81
  C 29.83 32.59 33.84 35.53 31.87 42.48
  Q 30.82 46.18 33.93 43.93
  Q 34.62 43.43 35.10 42.78
  Z"
/>
<path fill="#fe1156" d="
  M 35.10 42.78
  Q 34.62 43.43 33.93 43.93
  Q 30.82 46.18 31.87 42.48
  C 33.84 35.53 29.83 32.59 26.01 27.81
  A 1.15 1.15 0.0 0 1 26.25 26.14
  L 29.80 23.72
  Q 30.86 23.00 31.81 23.86
  C 37.46 29.05 40.11 35.99 35.10 42.78
  Z"
/>
</svg>
