<svg xmlns="http://www.w3.org/2000/svg" width="490.163" height="490.038" viewBox="0 0 490.163 490.038">
  <g id="rgK5Rq" transform="translate(-60.911 -150.981)">
    <g id="Group_16" data-name="Group 16">
      <path id="Path_27" data-name="Path 27" d="M60.911,395.86A244.776,244.776,0,0,0,305.96,641.019c135.374.033,245.11-109.464,245.114-244.579A244.755,244.755,0,0,0,306.287,150.981C170.758,150.744,60.918,260.361,60.911,395.86Z" fill="#fdfdfd"/>
      <path id="Path_28" data-name="Path 28" d="M60.911,395.86c.007-135.5,109.847-245.116,245.376-244.879A244.755,244.755,0,0,1,551.074,396.44c0,135.115-109.74,244.612-245.114,244.579A244.776,244.776,0,0,1,60.911,395.86Zm281.736-36.938q56.19,0,112.382-.006c6.477,0,8.61-2.033,8.45-8.168-.784-29.932-10.931-56.234-30.913-78.58-33.642-37.621-88.174-50.444-136.424-30.661-42.532,17.439-73.729,62.435-73.948,108.387-.035,7.418,1.558,9.023,9.069,9.025Q286.955,358.929,342.647,358.922Zm-.2,36.118H478.383a28.233,28.233,0,0,0,4.491-.07c3.67-.6,6.094-2.649,6.416-6.53.334-4.022-1.43-6.807-5.418-7.8a20.605,20.605,0,0,0-4.949-.388q-135.932-.025-271.862,0a22.243,22.243,0,0,0-4.959.331c-3.935.909-6.029,3.587-5.8,7.58.214,3.767,2.578,6.056,6.235,6.784a23.278,23.278,0,0,0,4.487.1Q274.737,395.042,342.452,395.04Zm-16.144,66.648q59.674,0,119.349-.015a21.044,21.044,0,0,0,5.443-.393c3.842-1.046,5.981-3.884,5.62-7.766-.355-3.829-2.693-6.374-6.869-6.593-1.162-.061-2.33-.027-3.5-.027q-119.848,0-239.7,0c-1.332,0-2.669-.039-3.993.065-2.995.235-4.8,2.067-5.921,4.68-1.1,2.569-.385,4.829,1.206,6.992,2.315,3.147,5.632,3.067,9.007,3.065Q266.632,461.673,326.308,461.688Zm63.561,18.369q-49.231,0-98.462,0a25.021,25.021,0,0,0-4.488.106c-3.426.635-5.738,2.572-6.189,6.221-.446,3.605,1.21,6.048,4.335,7.672,1.875.975,3.883.791,5.872.791q98.712.008,197.424-.019a17.132,17.132,0,0,0,5.4-.585c3.524-1.193,5.536-3.885,5.112-7.636-.417-3.69-2.794-5.967-6.55-6.477a33.631,33.631,0,0,0-4.493-.073Q438.85,480.055,389.869,480.057Zm-141.357-51.92q49.212,0,98.424,0a40.5,40.5,0,0,0,4.492-.079c4.137-.462,6.257-3.056,6.4-7.012.149-4.046-2.062-6.6-6.072-7.275a33.211,33.211,0,0,0-5.48-.2q-97.425-.012-194.85,0a40.069,40.069,0,0,0-5.484.172,6.823,6.823,0,0,0-6.111,7.715c.365,4.669,3.085,6.673,9.256,6.676Q198.8,428.152,248.512,428.137Zm142.9,85.049q-30.447,0-60.893.008c-5.949.007-9.29,2.652-9.377,7.288-.086,4.567,3.4,7.425,9.206,7.548.665.014,1.331,0,2,0q58.9,0,117.792,0a23.173,23.173,0,0,0,4.479-.148c4.029-.8,6.692-3.1,6.554-7.478-.135-4.3-2.712-6.613-6.873-7.163a30.642,30.642,0,0,0-3.989-.056Q420.864,513.183,391.416,513.186Zm-76.828,33.5H293.619c-13.813,0-27.626-.058-41.438.046-4.922.036-7.759,2.91-7.685,7.251.066,3.952,3.063,6.842,7.473,7.183.662.051,1.33.016,2,.016q60.411,0,120.822-.008c6.507,0,9.638-2.5,9.559-7.466-.078-4.867-2.858-7-9.346-7.01Q344.795,546.661,314.588,546.685ZM210.133,480.056q-23.23,0-46.46.006c-6.087.006-9.447,2.492-9.622,7.033-.177,4.575,3.637,7.735,9.64,7.741q46.461.051,92.921,0c5.885-.008,9.278-2.873,9.272-7.5-.007-4.745-3.182-7.266-9.29-7.274Q233.363,480.033,210.133,480.056Zm99.584,40.688a8.072,8.072,0,0,0-7.273-7.556,7.439,7.439,0,0,0-7.488,7.638,7.086,7.086,0,0,0,7.329,7.166A7.594,7.594,0,0,0,309.717,520.744ZM177.2,461.642a7.605,7.605,0,0,0,7.5-7.191,7.362,7.362,0,1,0-14.721-.267A7.6,7.6,0,0,0,177.2,461.642Zm-56.53-48.148a7.5,7.5,0,0,0-7.326,7.3,6.961,6.961,0,0,0,7.1,7.341,7.217,7.217,0,0,0,7.65-7.361A7.706,7.706,0,0,0,120.673,413.494Zm64.047-25.822a7.368,7.368,0,1,0-7.242,7.366A7.471,7.471,0,0,0,184.72,387.672Zm48.259,166.267a7.4,7.4,0,0,0-7.338-7.214,7.025,7.025,0,0,0-7.476,6.951,7.158,7.158,0,0,0,7.464,7.5A7.541,7.541,0,0,0,232.979,553.939Zm-90.656-66.525c-.015-4.277-2.893-7.283-7.038-7.348a7.38,7.38,0,0,0,.036,14.76A7.055,7.055,0,0,0,142.323,487.414Z" fill="#0a1736"/>
      <path id="Path_29" data-name="Path 29" d="M342.647,358.922q-55.692,0-111.384,0c-7.511,0-9.1-1.607-9.069-9.025.219-45.952,31.416-90.948,73.948-108.387,48.25-19.783,102.782-6.96,136.424,30.661,19.982,22.346,30.129,48.648,30.913,78.58.16,6.135-1.973,8.166-8.45,8.168Q398.837,358.935,342.647,358.922Z" fill="#2ab1b1"/>
      <path id="Path_30" data-name="Path 30" d="M342.452,395.04q-67.715,0-135.431,0a23.278,23.278,0,0,1-4.487-.1c-3.657-.728-6.021-3.017-6.235-6.784-.226-3.993,1.868-6.671,5.8-7.58a22.243,22.243,0,0,1,4.959-.331q135.932-.021,271.862,0a20.605,20.605,0,0,1,4.949.388c3.988,1,5.752,3.782,5.418,7.8-.322,3.881-2.746,5.931-6.416,6.53a28.233,28.233,0,0,1-4.491.07Z" fill="#d9006b"/>
      <path id="Path_31" data-name="Path 31" d="M326.308,461.688q-59.675,0-119.35.01c-3.375,0-6.692.082-9.007-3.065-1.591-2.163-2.305-4.423-1.206-6.992,1.119-2.613,2.926-4.445,5.921-4.68,1.324-.1,2.661-.065,3.993-.065q119.849,0,239.7,0c1.165,0,2.333-.034,3.5.027,4.176.219,6.514,2.764,6.869,6.593.361,3.882-1.778,6.72-5.62,7.766a21.044,21.044,0,0,1-5.443.393Q385.982,461.7,326.308,461.688Z" fill="#d6006a"/>
      <path id="Path_32" data-name="Path 32" d="M389.869,480.057q48.981,0,97.962,0a33.631,33.631,0,0,1,4.493.073c3.756.51,6.133,2.787,6.55,6.477.424,3.751-1.588,6.443-5.112,7.636a17.132,17.132,0,0,1-5.4.585q-98.712.041-197.424.019c-1.989,0-4,.184-5.872-.791-3.125-1.624-4.781-4.067-4.335-7.672.451-3.649,2.763-5.586,6.189-6.221a25.021,25.021,0,0,1,4.488-.106Q340.637,480.055,389.869,480.057Z" fill="#d9006b"/>
      <path id="Path_33" data-name="Path 33" d="M248.512,428.137q-49.711,0-99.423-.007c-6.171,0-8.891-2.007-9.256-6.676a6.823,6.823,0,0,1,6.111-7.715,40.069,40.069,0,0,1,5.484-.172q97.425-.01,194.85,0a33.211,33.211,0,0,1,5.48.2c4.01.678,6.221,3.229,6.072,7.275-.145,3.956-2.265,6.55-6.4,7.012a40.5,40.5,0,0,1-4.492.079Q297.724,428.139,248.512,428.137Z" fill="#e0006c"/>
      <path id="Path_34" data-name="Path 34" d="M391.416,513.185q29.448,0,58.9,0a30.642,30.642,0,0,1,3.989.056c4.161.55,6.738,2.861,6.873,7.163.138,4.379-2.525,6.673-6.554,7.478a23.173,23.173,0,0,1-4.479.148q-58.9.009-117.792,0c-.666,0-1.332.009-2,0-5.809-.123-9.292-2.981-9.206-7.548.087-4.636,3.428-7.281,9.377-7.288Q360.97,513.161,391.416,513.185Z" fill="#d7006a"/>
      <path id="Path_35" data-name="Path 35" d="M314.588,546.687q30.205,0,60.412.01c6.488.008,9.268,2.143,9.346,7.01.079,4.969-3.052,7.463-9.559,7.466q-60.411.023-120.822.008c-.666,0-1.334.035-2-.016-4.41-.341-7.407-3.231-7.473-7.183-.074-4.341,2.763-7.215,7.685-7.251,13.812-.1,27.625-.043,41.438-.046Q304.1,546.684,314.588,546.687Z" fill="#e0006c"/>
      <path id="Path_36" data-name="Path 36" d="M210.133,480.056q23.23,0,46.461.006c6.108.008,9.283,2.529,9.29,7.274.006,4.626-3.387,7.491-9.272,7.5q-46.459.06-92.921,0c-6-.006-9.817-3.166-9.64-7.741.175-4.541,3.535-7.027,9.622-7.033Q186.9,480.037,210.133,480.056Z" fill="#d9006b"/>
      <path id="Path_37" data-name="Path 37" d="M309.717,520.744a7.594,7.594,0,0,1-7.432,7.248,7.086,7.086,0,0,1-7.329-7.166,7.439,7.439,0,0,1,7.488-7.638A8.072,8.072,0,0,1,309.717,520.744Z" fill="#d4006a"/>
      <path id="Path_38" data-name="Path 38" d="M177.2,461.642a7.6,7.6,0,0,1-7.216-7.458,7.362,7.362,0,1,1,14.721.267A7.605,7.605,0,0,1,177.2,461.642Z" fill="#d5006a"/>
      <path id="Path_39" data-name="Path 39" d="M120.673,413.494a7.706,7.706,0,0,1,7.421,7.277,7.217,7.217,0,0,1-7.65,7.361,6.961,6.961,0,0,1-7.1-7.341A7.5,7.5,0,0,1,120.673,413.494Z" fill="#d6006a"/>
      <path id="Path_40" data-name="Path 40" d="M184.72,387.672a7.368,7.368,0,1,1-7.246-7.4A7.433,7.433,0,0,1,184.72,387.672Z" fill="#d5006a"/>
      <path id="Path_41" data-name="Path 41" d="M232.979,553.939a7.541,7.541,0,0,1-7.35,7.236,7.158,7.158,0,0,1-7.464-7.5,7.025,7.025,0,0,1,7.476-6.951A7.4,7.4,0,0,1,232.979,553.939Z" fill="#d8006b"/>
      <path id="Path_42" data-name="Path 42" d="M142.323,487.414a7.055,7.055,0,0,1-7,7.412,7.38,7.38,0,0,1-.036-14.76C139.43,480.131,142.308,483.137,142.323,487.414Z" fill="#d7006a"/>
    </g>
  </g>
</svg>
