<svg xmlns="http://www.w3.org/2000/svg" width="486" height="486" viewBox="0 0 486 486">
  <g id="Group_13" data-name="Group 13" transform="translate(694 69)">
    <circle id="Ellipse_5" data-name="Ellipse 5" cx="243" cy="243" r="243" transform="translate(-694 -69)" fill="#f9efe8"/>
    <g id="Group_12" data-name="Group 12" transform="translate(-1062.843 -524.881)">
      <path id="Path_21" data-name="Path 21" d="M609.665,380.06q9.535,18.009,9.533,40.87,0,22.458-9.533,40.238a70.982,70.982,0,0,1-25.83,27.74,70.851,70.851,0,0,1-72.425,0,70.971,70.971,0,0,1-25.839-27.74q-9.522-17.789-9.529-40.238c0-.189.013-.379.013-.568-12.5-12.515-25.716-26.617-32.759-42.056a126.463,126.463,0,0,0-7.488,42.624q0,33.04,14.825,59.3a107.576,107.576,0,0,0,40.445,41.08q25.62,14.823,56.54,14.821t56.544-14.821a107.692,107.692,0,0,0,40.445-41.08q14.823-26.257,14.825-59.3c0-22.019-7.265-41.454-17.147-59.241" transform="translate(64.034 341.535)" fill="#d95548"/>
      <g id="Path_22" data-name="Path 22" transform="translate(69.742 333.484)" fill="#5e2d36">
        <path d="M 536.1675415039062 468.3703002929688 C 524.7549438476562 468.3703002929688 513.4345703125 466.379638671875 502.5207824707031 462.4535827636719 C 491.8613891601562 458.6190185546875 481.9385070800781 453.0696105957031 473.0276794433594 445.95947265625 C 464.0602111816406 438.8041076660156 456.4454040527344 430.3274841308594 450.3948059082031 420.76513671875 C 444.1305236816406 410.8650512695312 439.7366638183594 400.0918884277344 437.3353271484375 388.7448120117188 C 437.2531127929688 388.3595275878906 437.2227783203125 387.9734802246094 437.1807556152344 387.4391174316406 C 437.15771484375 387.1460266113281 437.131591796875 386.8138427734375 437.0913696289062 386.4061279296875 L 437.0331115722656 385.81591796875 L 437.6246643066406 385.8583068847656 C 439.3777465820312 385.98388671875 441.1417846679688 386.07763671875 442.8477783203125 386.1682434082031 C 446.6396789550781 386.3696899414062 450.2213134765625 386.5599975585938 453.8471374511719 387.073486328125 C 469.114501953125 389.2325744628906 487.1802368164062 391.4642639160156 505.4124755859375 391.6456298828125 C 505.8713989257812 391.6500854492188 506.3357543945312 391.6523742675781 506.7925720214844 391.6523742675781 C 513.3614501953125 391.6523742675781 519.7915649414062 391.1828918457031 525.9044189453125 390.2570190429688 C 532.1524047851562 389.3106384277344 538.2515869140625 387.8597717285156 544.0325927734375 385.9447021484375 C 549.935791015625 383.9891052246094 555.679443359375 381.492431640625 561.1038818359375 378.5239868164062 C 566.6390991210938 375.4949340820312 572.0029907226562 371.8866271972656 577.0465698242188 367.7991943359375 C 580.8584594726562 364.7077026367188 584.9186401367188 362.3749389648438 589.1141967773438 360.8658142089844 C 593.1494140625 359.4143371582031 597.4395141601562 358.6783752441406 601.865234375 358.6783752441406 C 606.69384765625 358.6783752441406 611.8652954101562 359.5563354492188 617.2360229492188 361.287841796875 C 621.2472534179688 362.5786437988281 625.200439453125 364.240234375 629.0234375 365.8471069335938 C 631.1285400390625 366.7318420410156 633.3052368164062 367.6467590332031 635.462890625 368.4874877929688 C 637.362548828125 369.2258605957031 638.0847778320312 370.3922119140625 637.9554443359375 372.5132141113281 C 637.46435546875 380.3876342773438 636.1766967773438 387.9912109375 634.1281127929688 395.1134643554688 C 632.0017700195312 402.5061340332031 628.994140625 409.5943603515625 625.1888427734375 416.1812438964844 C 621.1102294921875 423.2443542480469 616.468994140625 429.6915283203125 611.3941040039062 435.3435974121094 C 606.3095092773438 441.0065002441406 600.6533203125 446.0230102539062 594.5826416015625 450.2537536621094 C 588.4993286132812 454.4933471679688 581.8369750976562 458.0573425292969 574.78076171875 460.8468017578125 C 567.708740234375 463.6424865722656 560.0513916015625 465.7350463867188 552.0213623046875 467.06640625 C 546.7987060546875 467.9316101074219 541.4647216796875 468.3703002929688 536.1675415039062 468.3703002929688 Z" stroke="none"/>
        <path d="M 601.865234375 359.1783752441406 C 593.2694091796875 359.1785278320312 585.07763671875 361.9296875 577.3613891601562 368.1876525878906 C 556.436767578125 385.1453857421875 532.1513061523438 392.40771484375 505.407470703125 392.1455993652344 C 488.0753173828125 391.9731750488281 470.9114990234375 389.9916687011719 453.7770385742188 387.5685119628906 C 448.4888305664062 386.8196411132812 443.1082763671875 386.7524108886719 437.5889282226562 386.3570251464844 C 437.70263671875 387.5096435546875 437.7069091796875 388.0901184082031 437.824462890625 388.6412963867188 C 447.5947875976562 434.8088989257812 489.97998046875 467.8703002929688 536.1675415039062 467.8703002929688 C 541.3887329101562 467.8703002929688 546.6629638671875 467.447265625 551.9395751953125 466.5731201171875 C 584.113525390625 461.2388000488281 608.446044921875 444.1758728027344 624.755859375 415.9311218261719 C 632.4965209960938 402.5323791503906 636.4929809570312 387.9303283691406 637.4563598632812 372.4827880859375 C 637.5700073242188 370.6192626953125 637.0018920898438 369.6221008300781 635.2813720703125 368.9533386230469 C 629.202392578125 366.5847473144531 623.2791137695312 363.7577514648438 617.0825805664062 361.7637329101562 C 611.8848876953125 360.0879821777344 606.8084716796875 359.1782836914062 601.865234375 359.1783752441406 M 601.8651123046875 358.1783752441406 C 606.7457275390625 358.1782836914062 611.9688720703125 359.0643615722656 617.389404296875 360.8119812011719 C 621.4208984375 362.1093139648438 625.38427734375 363.7751159667969 629.217041015625 365.3861083984375 C 631.3191528320312 366.2696228027344 633.4927978515625 367.1832275390625 635.6444091796875 368.0215759277344 C 636.7320556640625 368.4443359375 637.4528198242188 368.9942016601562 637.911865234375 369.7517700195312 C 638.353759765625 370.4809265136719 638.5261840820312 371.3680725097656 638.4545288085938 372.5436401367188 C 637.9611206054688 380.4549865722656 636.667236328125 388.0946044921875 634.608642578125 395.2516784667969 C 632.4710693359375 402.6834106445312 629.4473876953125 409.8092956542969 625.6217651367188 416.4313659667969 C 621.5259399414062 423.5243530273438 616.8641967773438 429.9998168945312 611.76611328125 435.6776428222656 C 606.6558837890625 441.3691101074219 600.970703125 446.4112243652344 594.8685302734375 450.6639404296875 C 588.75341796875 454.9256896972656 582.0567626953125 458.5081176757812 574.964599609375 461.311767578125 C 567.8597412109375 464.1204528808594 560.1680297851562 466.2225341796875 552.1031494140625 467.5596618652344 C 546.8534545898438 468.4293518066406 541.4920043945312 468.8703002929688 536.1675415039062 468.8703002929688 C 524.6970825195312 468.8703002929688 513.3197021484375 466.8696899414062 502.3515014648438 462.924072265625 C 491.6404418945312 459.0709533691406 481.6696166992188 453.4947204589844 472.7158203125 446.3503112792969 C 463.7047119140625 439.16015625 456.052734375 430.6419982910156 449.9722290039062 421.0325012207031 C 443.6760864257812 411.08203125 439.2598266601562 400.2537231445312 436.8461303710938 388.8483581542969 C 436.7572021484375 388.4315185546875 436.7257690429688 388.0315856933594 436.6822509765625 387.4780578613281 C 436.6593627929688 387.1873474121094 436.6334838867188 386.8578491210938 436.59375 386.4552001953125 L 436.477294921875 385.2748413085938 L 437.6603393554688 385.3595581054688 C 439.4088134765625 385.4848327636719 441.1705322265625 385.5784301757812 442.8742065429688 385.6689453125 C 446.5100708007812 385.8621215820312 450.2697143554688 386.0618591308594 453.917236328125 386.5783996582031 C 469.1685180664062 388.7352294921875 487.2139892578125 390.9645690917969 505.4174194335938 391.1456604003906 C 505.8746337890625 391.1500854492188 506.3373413085938 391.1523742675781 506.79248046875 391.1523742675781 C 513.3363647460938 391.1523742675781 519.7413330078125 390.6847839355469 525.8294677734375 389.7626647949219 C 532.0496215820312 388.8204956054688 538.12109375 387.3762512207031 543.8753051757812 385.4700317382812 C 549.75 383.52392578125 555.4657592773438 381.0393371582031 560.8638305664062 378.0853576660156 C 566.3727416992188 375.0707397460938 571.7114868164062 371.479248046875 576.7318115234375 367.4107666015625 C 580.5872192382812 364.283935546875 584.6964111328125 361.9235534667969 588.9450073242188 360.3953552246094 C 593.0345458984375 358.9243469238281 597.3815307617188 358.178466796875 601.8651123046875 358.1783752441406 Z" stroke="none" fill="#707070"/>
      </g>
      <g id="Path_23" data-name="Path 23" transform="translate(147.228 201.774)" fill="#5e2d36">
        <path d="M 473.9891967773438 506.2647399902344 L 473.3892822265625 505.4956665039062 C 474.5335388183594 504.0975036621094 475.7322387695312 502.6997985839844 476.8914794921875 501.34814453125 C 479.4215393066406 498.3980407714844 482.0377807617188 495.3475036621094 484.2460327148438 492.1067199707031 C 486.9707336425781 488.1061401367188 489.2701721191406 483.9516906738281 491.0804138183594 479.7588806152344 C 492.8922119140625 475.5624084472656 494.2631530761719 471.213623046875 495.1550598144531 466.8333435058594 C 496.0487976074219 462.4443054199219 496.4859008789062 457.9042053222656 496.4543151855469 453.3391723632812 C 496.422607421875 448.7598266601562 495.9183654785156 444.0308227539062 494.9555969238281 439.2835693359375 C 494.1148681640625 435.1296997070312 492.4574584960938 431.2020568847656 489.888671875 427.2760314941406 C 487.8147583007812 424.1063537597656 485.1276245117188 420.9043273925781 481.4320678710938 417.1990356445312 C 478.3511047363281 414.1133422851562 475.4140014648438 411.0505981445312 472.9472351074219 408.4616088867188 C 468.9206848144531 404.2388610839844 465.8699035644531 399.3604736328125 463.8797302246094 393.962158203125 C 461.9888610839844 388.8331298828125 461.1106567382812 383.4039306640625 461.2695617675781 377.8252868652344 C 461.4251098632812 372.3639526367188 462.5641784667969 367.013671875 464.6550598144531 361.9231567382812 C 466.7774658203125 356.755859375 469.7795104980469 352.1087646484375 473.5778198242188 348.1109008789062 C 476.7024841308594 344.8234558105469 480.2200012207031 341.8268127441406 483.6217041015625 338.9288330078125 C 485.2528686523438 337.5392456054688 486.9395141601562 336.1023559570312 488.5580444335938 334.6542663574219 C 489.3351135253906 333.9590759277344 490.140625 333.267578125 490.9196166992188 332.5988464355469 C 492.9799499511719 330.8301086425781 495.1104431152344 329.0011596679688 496.8851623535156 326.9545288085938 C 498.37353515625 325.2388000488281 499.5927429199219 323.210205078125 500.8835144042969 321.0625 C 501.5081787109375 320.0231628417969 502.1540832519531 318.9483947753906 502.8713073730469 317.8360290527344 L 503.7798767089844 318.2142639160156 C 503.5634155273438 319.1996154785156 503.4070129394531 320.17529296875 503.2557678222656 321.1188659667969 C 502.9276733398438 323.16552734375 502.6177673339844 325.0986633300781 501.7550354003906 326.7823181152344 C 499.7681884765625 330.6696472167969 497.2890319824219 334.5833129882812 494.1760864257812 338.7464294433594 C 492.3441162109375 341.1986694335938 490.3414306640625 343.5764465332031 488.4047241210938 345.8759155273438 C 486.4058837890625 348.2491455078125 484.3390197753906 350.703125 482.4698486328125 353.2287292480469 C 478.8171997070312 358.1620483398438 476.3947143554688 363.3453674316406 475.2696533203125 368.634765625 C 474.1067199707031 374.1022644042969 474.3004455566406 379.8256225585938 475.8454895019531 385.6458129882812 C 476.5652465820312 388.3490905761719 477.7821655273438 390.93505859375 479.5657348632812 393.5511474609375 C 480.99462890625 395.6470031738281 482.7500610351562 397.7312927246094 485.2575378417969 400.3092956542969 C 486.328857421875 401.4107360839844 487.4259948730469 402.5248718261719 488.4869995117188 403.6023559570312 C 490.6847839355469 405.8341674804688 492.9573669433594 408.1419982910156 495.1338195800781 410.4719848632812 C 499.7515869140625 415.4119262695312 503.27783203125 420.87060546875 505.614501953125 426.6962585449219 C 507.9672241210938 432.56201171875 509.174072265625 438.9496765136719 509.2014770507812 445.6818237304688 C 509.2196044921875 449.963134765625 508.9229736328125 454.1466979980469 508.3199157714844 458.1162109375 C 507.7021789550781 462.1820983886719 506.7448425292969 466.142578125 505.4744873046875 469.8876953125 C 504.1754455566406 473.7173767089844 502.5113220214844 477.4333190917969 500.5282592773438 480.9323120117188 C 498.5038452148438 484.5042419433594 496.0884704589844 487.95361328125 493.3492431640625 491.1845397949219 C 487.7594299316406 497.7749328613281 481.2457885742188 502.8486022949219 473.9891967773438 506.2647399902344 Z" stroke="none"/>
        <path d="M 473.7762451171875 505.8123474121094 C 481.2560729980469 502.2911376953125 487.6084289550781 497.1799621582031 492.9678649902344 490.8612060546875 C 504.006591796875 477.8410339355469 508.7729797363281 462.5828247070312 508.7014770507812 445.683837890625 C 508.6467590332031 432.23876953125 503.9310607910156 420.6152038574219 494.7684631347656 410.8132934570312 C 491.5461120605469 407.3636779785156 488.18896484375 404.0402526855469 484.8991088867188 400.6579284667969 C 480.7049560546875 396.3457946777344 476.9482727050781 391.7310180664062 475.3622131347656 385.7740783691406 C 472.1649780273438 373.7299499511719 474.773193359375 362.7836303710938 482.0679626464844 352.9312744140625 C 485.7574157714844 347.9461364746094 490.0608825683594 343.4194946289062 493.775634765625 338.447021484375 C 496.5815734863281 334.6944580078125 499.181396484375 330.7190856933594 501.31005859375 326.5542907714844 C 502.5258483886719 324.1815795898438 502.6058654785156 321.2284240722656 503.2915344238281 318.1069946289062 C 501.0619201660156 321.56494140625 499.4927368164062 324.711669921875 497.262939453125 327.2821044921875 C 494.7895812988281 330.1343688964844 491.7269592285156 332.4902038574219 488.8914184570312 335.0268859863281 C 483.8978881835938 339.4945983886719 478.5426330566406 343.6131896972656 473.9403076171875 348.4552612304688 C 458.7283020019531 364.4665222167969 456.9067993164062 390.9149475097656 473.3092346191406 408.11669921875 C 476.1069030761719 411.0530090332031 478.9213256835938 413.9767761230469 481.7861022949219 416.845947265625 C 488.1300354003906 423.2066040039062 493.6116027832031 430.1227722167969 495.4456176757812 439.1841735839844 C 499.3454284667969 458.4137573242188 495.6729736328125 476.2170715332031 484.6592407226562 492.3882751464844 C 481.4201049804688 497.1419677734375 477.4151916503906 501.36572265625 473.7762451171875 505.8123474121094 M 474.2021789550781 506.7171020507812 L 473.0023498535156 505.1790161132812 C 474.1502380371094 503.7763366699219 475.3508605957031 502.3764343261719 476.5119323730469 501.0226440429688 C 479.0331420898438 498.0828857421875 481.6401977539062 495.0430603027344 483.8328552246094 491.8251647949219 C 486.5396423339844 487.8508605957031 488.8236694335938 483.7244262695312 490.6213684082031 479.5606689453125 C 492.4195251464844 475.3958129882812 493.7800598144531 471.0801696777344 494.6651306152344 466.7335815429688 C 495.5519409179688 462.3784484863281 495.9856567382812 457.8730773925781 495.9543151855469 453.3426513671875 C 495.9228210449219 448.7954406738281 495.4219665527344 444.0986938476562 494.465576171875 439.3829345703125 C 493.6376342773438 435.292236328125 492.003662109375 431.4217224121094 489.4702758789062 427.5498046875 C 487.4155578613281 424.4094543457031 484.7488708496094 421.2326049804688 481.0780334472656 417.5520935058594 C 477.99365234375 414.4629516601562 475.0539855957031 411.3976135253906 472.5852355957031 408.8065185546875 C 468.5114135742188 404.5341491699219 465.424560546875 399.597900390625 463.4106140136719 394.1351013183594 C 461.49755859375 388.9459533691406 460.6090393066406 383.4537658691406 460.769775390625 377.8110656738281 C 460.9270324707031 372.2891235351562 462.07861328125 366.8797607421875 464.1925354003906 361.7331848144531 C 466.3385620117188 356.5084533691406 469.374267578125 351.8093872070312 473.21533203125 347.7664794921875 C 476.3581848144531 344.4599304199219 479.8858947753906 341.4546203613281 483.2974548339844 338.5482482910156 C 484.9263305664062 337.1605834960938 486.6106567382812 335.7256774902344 488.2246398925781 334.2816467285156 C 489.0055541992188 333.5830383300781 489.8130187988281 332.8898315429688 490.5939331054688 332.2194519042969 C 492.6405334472656 330.4625244140625 494.7568054199219 328.6457824707031 496.5074157714844 326.626953125 C 497.9673767089844 324.9440002441406 499.1756896972656 322.9335021972656 500.4549560546875 320.804931640625 C 501.0816040039062 319.7622375488281 501.7295837402344 318.68408203125 502.4510803222656 317.5650939941406 L 504.2682495117188 318.321533203125 C 504.0548706054688 319.2929077148438 503.8995971679688 320.2613830566406 503.7494506835938 321.197998046875 C 503.4149169921875 323.284912109375 503.0989074707031 325.256103515625 502.2000122070312 327.0103149414062 C 500.2004089355469 330.9226684570312 497.7065734863281 334.8598327636719 494.5765075683594 339.0458374023438 C 492.7359313964844 341.5095825195312 490.7284851074219 343.8930358886719 488.7871398925781 346.197998046875 C 486.7932739257812 348.5653076171875 484.7315673828125 351.0132141113281 482.8717651367188 353.5261535644531 C 479.2619018554688 358.4016418457031 476.8687744140625 363.5198669433594 475.7586975097656 368.7388000488281 C 474.6122741699219 374.1287536621094 474.8040466308594 379.77392578125 476.3287353515625 385.5175170898438 C 477.9057922363281 391.4406433105469 481.7243957519531 395.9596557617188 485.615966796875 399.960693359375 C 486.6861877441406 401.0610046386719 487.7827758789062 402.1745910644531 488.84326171875 403.2515258789062 C 491.0433349609375 405.4856872558594 493.3182983398438 407.7958984375 495.4992065429688 410.1306762695312 C 500.1592712402344 415.1158752441406 503.71875 420.6268005371094 506.0785522460938 426.5101013183594 C 508.4548950195312 432.4346923828125 509.6737976074219 438.8843078613281 509.7014770507812 445.6797790527344 C 509.7196960449219 449.9867858886719 509.4212036132812 454.1963195800781 508.8142395019531 458.1912841796875 C 508.1921081542969 462.2861633300781 507.227783203125 466.2754516601562 505.947998046875 470.0483093261719 C 504.6388854980469 473.90771484375 502.9617614746094 477.6525573730469 500.9632263183594 481.1788330078125 C 498.9234619140625 484.7779541015625 496.4900512695312 488.2531433105469 493.7306213378906 491.5079040527344 C 488.0941772460938 498.1532592773438 481.5238952636719 503.2703247070312 474.2021789550781 506.7171020507812 Z" stroke="none" fill="#707070"/>
      </g>
      <g id="Path_24" data-name="Path 24" transform="translate(139.536 251.987)" fill="#5e2d36">
        <path d="M 465.5633850097656 460.2991638183594 L 465.0138854980469 459.4798583984375 C 471.7135314941406 453.1751098632812 476.7522277832031 446.9190063476562 480.4179382324219 440.3539733886719 C 482.7072143554688 436.2520141601562 484.6080322265625 432.069580078125 486.0675354003906 427.9229125976562 C 487.5512084960938 423.7076416015625 488.6208801269531 419.4098205566406 489.2468566894531 415.1488647460938 C 489.8831787109375 410.8174133300781 490.0791015625 406.4009704589844 489.8291015625 402.0221862792969 C 489.5749206542969 397.5700988769531 488.8525695800781 393.0303955078125 487.68212890625 388.5292053222656 C 486.795654296875 385.1125183105469 485.268310546875 381.7814025878906 483.0127868652344 378.3452453613281 C 480.8157958984375 374.9982299804688 478.2084655761719 371.9742736816406 475.9476928710938 369.4576110839844 C 475.2623291015625 368.6945495605469 474.5589294433594 367.9226684570312 473.8786926269531 367.1761779785156 C 469.4948425292969 362.365478515625 464.9617614746094 357.3910217285156 462.0445556640625 351.265869140625 C 459.4660949707031 345.8394470214844 458.4655456542969 340.1016540527344 458.9855346679688 333.7242736816406 L 459.0987854003906 332.3355407714844 L 459.8943786621094 333.4794006347656 C 459.9820251464844 333.6054382324219 460.0652770996094 333.7091979980469 460.1387023925781 333.8007507324219 C 460.299560546875 334.0012512207031 460.4515075683594 334.190673828125 460.4944152832031 334.4483337402344 C 461.25830078125 339.1021728515625 462.9119567871094 343.3682861328125 465.550048828125 347.4915771484375 C 467.836181640625 351.0647888183594 470.8708801269531 354.5249633789062 474.8274841308594 358.0698547363281 C 479.533203125 362.2886047363281 483.4031677246094 365.9020080566406 486.9951782226562 369.8248291015625 C 489.3939514160156 372.44775390625 491.4569702148438 375.3003540039062 493.1271057128906 378.3036499023438 C 494.7283630371094 381.18310546875 496.0167541503906 384.2880859375 496.9564819335938 387.5323486328125 C 497.8517150878906 390.6229858398438 498.4582824707031 393.9364318847656 498.7593078613281 397.380615234375 C 499.0439758300781 400.6377868652344 499.0645141601562 404.1183471679688 498.8203735351562 407.7256469726562 C 498.2949829101562 415.4660949707031 496.6559143066406 422.7321472167969 493.9486694335938 429.3220825195312 C 491.1507873535156 436.132568359375 487.1324462890625 442.4151000976562 482.0052490234375 447.9951477050781 C 476.87646484375 453.5776062011719 471.498291015625 457.602294921875 465.5633850097656 460.2991638183594 Z" stroke="none"/>
        <path d="M 465.3565368652344 459.8439636230469 C 471.6793823242188 456.9707946777344 476.9758911132812 452.7303466796875 481.6370544433594 447.6568603515625 C 492.01953125 436.3573913574219 497.2907409667969 422.8785400390625 498.3215026855469 407.69189453125 C 499.2680053710938 393.7083129882812 496.3526306152344 380.7974853515625 486.6264038085938 370.1625061035156 C 482.8360290527344 366.0230102539062 478.6795959472656 362.19482421875 474.4938354492188 358.4422607421875 C 467.2158508300781 351.921630859375 461.6294555664062 344.4502563476562 460.0011901855469 334.5304260253906 C 459.9675903320312 334.3285827636719 459.7530517578125 334.1518859863281 459.48388671875 333.764892578125 C 458.9789733886719 339.9573364257812 459.9212951660156 345.6323852539062 462.4959716796875 351.0508728027344 C 465.8319396972656 358.0552673339844 471.2377624511719 363.4652099609375 476.3196411132812 369.1234741210938 C 481.4478149414062 374.8320617675781 486.2057189941406 380.8479614257812 488.1660461425781 388.4033813476562 C 492.9409484863281 406.7662963867188 490.0296936035156 424.157470703125 480.8544921875 440.5977478027344 C 476.7907409667969 447.8756103515625 471.4227294921875 454.1353454589844 465.3565368652344 459.8439636230469 M 465.7702331542969 460.7543640136719 L 464.6712341308594 459.11572265625 C 471.3330078125 452.8465881347656 476.3410034179688 446.6298522949219 479.9813842773438 440.1102294921875 C 482.2567749023438 436.0331420898438 484.1458129882812 431.8768310546875 485.5959167480469 427.7568969726562 C 487.0689392089844 423.5718383789062 488.130859375 419.305419921875 488.7521667480469 415.0762023925781 C 489.3836059570312 410.7781372070312 489.5779724121094 406.3957214355469 489.3298950195312 402.0506896972656 C 489.0776062011719 397.6313781738281 488.3604125976562 393.1244201660156 487.1982116699219 388.655029296875 C 485.4040832519531 381.7400817871094 481.2544250488281 376.1131896972656 475.5757141113281 369.791748046875 C 474.8915710449219 369.0299987792969 474.1887817382812 368.2587890625 473.5091247558594 367.5129699707031 C 469.1007385253906 362.6753234863281 464.542236328125 357.6729736328125 461.5931396484375 351.4808654785156 C 458.9756774902344 345.9723815917969 457.9598693847656 340.151123046875 458.4871826171875 333.6836242675781 L 458.7136840820312 330.9061584472656 L 460.3048400878906 333.1938781738281 C 460.3827514648438 333.305908203125 460.4569702148438 333.3984069824219 460.5287170410156 333.4878540039062 C 460.7136535644531 333.7183837890625 460.9232788085938 333.9797058105469 460.9876098632812 334.3662414550781 C 461.7404479980469 338.9527587890625 463.3704833984375 343.1572265625 465.9712219238281 347.2221069335938 C 468.2326354980469 350.7566833496094 471.2386779785156 354.1831970214844 475.1611328125 357.6974487304688 C 479.8779907226562 361.9261779785156 483.7581176757812 365.5492553710938 487.3639221191406 369.4871826171875 C 489.7891540527344 372.1390075683594 491.8750305175781 375.0234069824219 493.5640869140625 378.0606689453125 C 495.18359375 380.9729309082031 496.486572265625 384.1128845214844 497.4367370605469 387.3932495117188 C 498.3410034179688 390.5150146484375 498.9535522460938 393.860595703125 499.2574157714844 397.3370666503906 C 499.5443115234375 400.619873046875 499.5651245117188 404.1264343261719 499.3192138671875 407.7594299316406 C 498.7902221679688 415.5537109375 497.1388854980469 422.8722839355469 494.4111633300781 429.5120849609375 C 491.5907592773438 436.3773498535156 487.5406799316406 442.7098083496094 482.3734130859375 448.3334655761719 C 477.1983642578125 453.9662475585938 471.7674255371094 458.0292053222656 465.7702331542969 460.7543640136719 Z" stroke="none" fill="#707070"/>
      </g>
    </g>
  </g>
</svg>
