<?xml version="1.0" encoding="utf-8"?>
<!-- Generator: Adobe Illustrator 26.0.2, svg Export Plug-In . svg Version: 6.00 Build 0)  -->
<svg version="1.1" id="Layer_1" xmlns="http://www.w3.org/2000/svg" xmlns:xlink="http://www.w3.org/1999/xlink" x="0px" y="0px"
	 viewBox="0 0 146.2 149" style="enable-background:new 0 0 146.2 149;" xml:space="preserve">
<style type="text/css">
	.st0{fill:#41E6AF;}
</style>
<g id="Layer_00000121996851256678364250000001295176294258530977_">
	<path id="Layer" class="st0" d="M145,64.7l-4-6.7l0,0l-21.9-36.8H119l-0.7-1.3h-8L79.2,74.6l31.6,54.4h8l0.2-0.3L145.1,84H129
		l-13.9,24.7L95.3,74.5l19.4-34.2l14.1,24.3L145,64.7z"/>
	<path id="Layer_00000127012137445405466420000001704573706898624640_" class="st0" d="M23.3,55.8l14.6-24.9L33,23l0,0l-3.4-5.6
		l-25,44.1l0,0l-0.7,1.2l4,7h62.9l31.7-54.3l-4.4-7.6l-44,0.1h-0.7l-7-0.1l3.7,7l0,0l3.7,7l28.8-0.1L62.8,55.8H23.3z"/>
	<path id="Layer_00000180367320945477736050000002573131453881055647_" class="st0" d="M54.4,27c-1.1,0-2.3,0.2-3.5,0.6
		c-1.3,0.4-2.6,1-3.8,1.7c-3.4,2.1-5.8,5.1-6.2,7.9c-0.2,1.3,0.1,2.4,0.8,3.2l0,0c0.1,0.2,0.3,0.3,0.4,0.5c0.1,0.1,0.2,0.1,0.3,0.2
		c0.1,0.1,0.1,0.1,0.2,0.2c0.2,0.1,0.3,0.2,0.5,0.3l0,0c2.1,1,5.4,0.8,8.6-0.7l0.1-0.1c0.3-0.1,0.6-0.3,0.9-0.4
		c0.3-0.1,0.5-0.3,0.8-0.5c0.3-0.2,0.6-0.4,0.9-0.6s0.5-0.4,0.8-0.6l0.2-0.1c0.2-0.2,0.4-0.3,0.6-0.5c0.1-0.1,0.1-0.1,0.2-0.2
		c0.2-0.1,0.3-0.3,0.4-0.4c0.1-0.1,0.2-0.2,0.3-0.4c0.1-0.2,0.3-0.3,0.4-0.5c0.1-0.1,0.1-0.1,0.2-0.2c0.1-0.2,0.3-0.3,0.4-0.5
		l0.2-0.2c0.1-0.2,0.2-0.3,0.3-0.5c0,0,0,0,0-0.1l0.1-0.2c0.2-0.2,0.3-0.5,0.4-0.7s0.2-0.5,0.3-0.7l0.1-0.1c0-0.1,0.1-0.2,0.1-0.2
		l0,0c0-0.1,0-0.1,0.1-0.2c0-0.2,0.1-0.3,0.1-0.5s0.1-0.2,0.1-0.3c0-0.1,0-0.2,0-0.2c0-0.2,0-0.3,0-0.4v-0.2c0-0.2,0-0.3,0-0.5
		c0-0.1,0-0.1,0-0.2c0-0.1,0-0.2,0-0.2c0-0.1,0-0.1,0-0.2v-0.1c0-0.2-0.1-0.3-0.2-0.5c-0.1-0.2-0.2-0.3-0.3-0.5l0,0
		C58.5,27.7,56.6,27,54.4,27z"/>
	<path id="Layer_00000031896854898414287730000000010087177411558811_" class="st0" d="M61.7,34.3c0,0.2-0.1,0.3-0.2,0.5l0,0
		c0,0.1,0,0.1-0.1,0.2l0,0c-0.1,0.3-0.2,0.5-0.4,0.8l0,0l0,0c-1.1,2.1-2.9,4.1-5.1,5.7c-0.3,0.2-0.6,0.4-0.9,0.6
		c-0.3,0.2-0.6,0.4-0.9,0.5H54l0,0c-0.1,0.1-0.2,0.1-0.3,0.2c-0.2,0.1-0.3,0.2-0.5,0.3h-0.1c-0.1,0-0.2,0.1-0.3,0.1
		c-0.2,0.1-0.4,0.2-0.6,0.2L52,43.5c0,0,0,0-0.1,0s-0.2,0.1-0.3,0.1c-0.2,0.1-0.4,0.1-0.6,0.2l-0.2,0.1h-0.1
		c-0.2,0.1-0.4,0.1-0.6,0.2c-0.1,0-0.2,0.1-0.4,0.1l0,0l0,0h-0.1c-0.2,0-0.4,0.1-0.5,0.1c-0.1,0-0.3,0-0.4,0.1h-0.1
		c-0.1,0-0.2,0-0.3,0.1c-0.1,0-0.2,0-0.3,0c-0.3,0-0.7,0.1-1,0.1h-0.1c-0.3,0-0.6,0-0.9,0c-0.1,0-0.2,0-0.2,0h-0.1
		c-0.2,0-0.4,0-0.6-0.1c-0.1,0-0.2,0-0.3-0.1c-0.2,0-0.4-0.1-0.6-0.1c-0.1,0-0.2-0.1-0.3-0.1l5.5,8.9L61.2,53l6.1-10.8l-5.5-9
		c0,0.1,0,0.2-0.1,0.3c0,0.1,0,0.1,0,0.2c0,0.1-0.1,0.2-0.1,0.4C61.7,34.2,61.7,34.3,61.7,34.3z"/>
	<path id="Layer_00000096753207493379353610000010720795864406103941_" class="st0" d="M124.4,66.8c0.6,0.9,1,2,1.3,3.3
		c0.3,1.3,0.5,2.7,0.5,4.1c0,4-1.3,7.6-3.5,9.4c-1,0.8-2.1,1.2-3.2,1l0,0c-0.2,0-0.4-0.1-0.6-0.1c-0.1,0-0.2-0.1-0.3-0.1
		c-0.1,0-0.2-0.1-0.3-0.1c-0.2-0.1-0.4-0.2-0.5-0.3l0,0c-2-1.3-3.5-4.2-3.9-7.7v-0.1c0-0.3-0.1-0.6-0.1-1c0-0.3,0-0.6,0-0.9
		c0-0.4,0-0.7,0-1.1c0-0.3,0-0.6,0.1-0.9v-0.2c0-0.2,0.1-0.5,0.1-0.7c0-0.1,0-0.2,0-0.3c0-0.2,0.1-0.4,0.1-0.6s0.1-0.3,0.1-0.5
		c0.1-0.2,0.1-0.4,0.2-0.6c0-0.1,0.1-0.2,0.1-0.3c0.1-0.2,0.1-0.4,0.2-0.6l0.1-0.3c0.1-0.2,0.2-0.3,0.2-0.5c0,0,0,0,0-0.1l0.1-0.2
		c0.1-0.3,0.3-0.5,0.4-0.7c0.1-0.2,0.3-0.4,0.4-0.6L116,66c0.1-0.1,0.1-0.1,0.2-0.2l0,0c0.1-0.1,0.1-0.1,0.1-0.2
		c0.1-0.1,0.2-0.2,0.3-0.3c0.1-0.1,0.2-0.2,0.2-0.2c0.1-0.1,0.1-0.1,0.2-0.2s0.2-0.2,0.3-0.3l0.2-0.1c0.1-0.1,0.3-0.2,0.4-0.3
		c0.1,0,0.1,0,0.2-0.1c0.1,0,0.2-0.1,0.2-0.1s0.1,0,0.1-0.1h0.1c0.2,0,0.3-0.1,0.5-0.1c0.2,0,0.4,0,0.6,0l0,0
		C121.7,63.7,123.2,64.9,124.4,66.8z"/>
	<path id="Layer_00000145040274075392574810000016959420952644429997_" class="st0" d="M114.3,64.4c-0.1,0.1-0.2,0.3-0.3,0.4l0,0
		c0,0.1-0.1,0.1-0.1,0.2l0,0c-0.2,0.2-0.3,0.5-0.5,0.7l0,0l0,0c-1.3,2-2,4.6-2.2,7.3c0,0.4,0,0.7,0,1.1c0,0.3,0,0.7,0,1v0.1l0,0
		c0,0.1,0,0.3,0,0.4c0,0.2,0,0.4,0.1,0.6v0.1c0,0.1,0,0.2,0,0.3c0,0.2,0.1,0.4,0.1,0.6v0.2c0,0,0,0,0,0.1s0,0.2,0.1,0.3
		c0,0.2,0.1,0.4,0.1,0.6l0.1,0.2v0.1c0,0.2,0.1,0.4,0.2,0.6c0,0.1,0.1,0.2,0.1,0.3l0,0l0,0v0.1c0.1,0.2,0.1,0.3,0.2,0.5
		c0,0.1,0.1,0.2,0.2,0.4v0.1c0,0.1,0.1,0.2,0.1,0.3c0.1,0.1,0.1,0.2,0.1,0.2c0.1,0.3,0.3,0.6,0.5,0.9l0.1,0.1
		c0.2,0.3,0.3,0.5,0.5,0.7c0,0.1,0.1,0.1,0.1,0.2l0.1,0.1c0.1,0.2,0.3,0.3,0.4,0.5c0.1,0.1,0.1,0.2,0.2,0.2c0.2,0.2,0.3,0.3,0.4,0.5
		c0.1,0.1,0.2,0.1,0.2,0.2h-10.5l-6.1-10.1l6-10.8H115c-0.1,0.1-0.1,0.1-0.2,0.2l-0.1,0.1C114.6,64.1,114.5,64.2,114.3,64.4
		C114.4,64.4,114.3,64.4,114.3,64.4z"/>
	<path id="Layer_00000145759551390382279410000014271292572208010163_" class="st0" d="M54.4,121.9c-1.1,0-2.3-0.2-3.5-0.6
		c-1.3-0.4-2.6-1-3.8-1.7c-3.4-2.1-5.8-5.1-6.2-7.9c-0.2-1.3,0.1-2.4,0.8-3.2l0,0c0.1-0.2,0.3-0.3,0.4-0.5c0.1-0.1,0.2-0.1,0.3-0.2
		c0.1-0.1,0.1-0.1,0.2-0.2c0.2-0.1,0.3-0.2,0.5-0.3l0,0c2.1-1,5.4-0.8,8.6,0.7l0.1,0.1c0.3,0.1,0.6,0.3,0.9,0.4s0.5,0.3,0.8,0.5
		c0.3,0.2,0.6,0.4,0.9,0.6c0.3,0.2,0.5,0.4,0.8,0.6l0.2,0.1c0.2,0.2,0.4,0.3,0.6,0.5c0.1,0.1,0.1,0.1,0.2,0.2
		c0.2,0.1,0.3,0.3,0.4,0.4c0.1,0.1,0.2,0.2,0.3,0.4c0.1,0.2,0.3,0.3,0.4,0.5c0.1,0.1,0.1,0.1,0.2,0.2c0.1,0.2,0.3,0.3,0.4,0.5
		l0.2,0.2c0.1,0.2,0.2,0.3,0.3,0.5v0.1l0.1,0.2c0.2,0.2,0.3,0.5,0.4,0.7c0.1,0.2,0.2,0.5,0.3,0.7l0.1,0.1c0,0.1,0.1,0.2,0.1,0.2l0,0
		c0,0.1,0,0.1,0.1,0.2c0,0.2,0.1,0.3,0.1,0.5c0,0.2,0.1,0.2,0.1,0.3c0,0.1,0,0.2,0,0.2c0,0.2,0,0.3,0,0.4v0.2c0,0.2,0,0.3,0,0.5
		c0,0.1,0,0.1,0,0.2c0,0.1,0,0.2,0,0.2c0,0.1,0,0.1,0,0.2v0.1c0,0.2-0.1,0.3-0.2,0.5c-0.1,0.2-0.2,0.3-0.3,0.5l0,0
		C58.5,121.2,56.6,122,54.4,121.9z"/>
	<path id="Layer_00000128447075079978428540000002536941840556041369_" class="st0" d="M61.7,114.6c0-0.2-0.1-0.3-0.2-0.5l0,0
		c0-0.1,0-0.1-0.1-0.2l0,0c-0.1-0.3-0.2-0.5-0.4-0.8l0,0c-1.1-2.1-2.9-4.1-5.1-5.7c-0.3-0.2-0.6-0.4-0.9-0.6
		c-0.3-0.2-0.6-0.4-0.9-0.5H54l0,0c-0.1-0.1-0.2-0.1-0.3-0.2c-0.2-0.1-0.3-0.2-0.5-0.3h-0.1c-0.1,0-0.2-0.1-0.3-0.1
		c-0.2-0.1-0.4-0.2-0.6-0.2l-0.2-0.1c0,0,0,0-0.1,0s-0.2-0.1-0.3-0.1c-0.2-0.1-0.4-0.1-0.6-0.2l-0.2-0.1h-0.1
		c-0.2-0.1-0.4-0.1-0.6-0.2c-0.1,0-0.2-0.1-0.4-0.1l0,0l0,0h-0.1c-0.2,0-0.4-0.1-0.5-0.1c-0.1,0-0.3,0-0.4-0.1h-0.1
		c-0.1,0-0.2,0-0.3-0.1c-0.1,0-0.2,0-0.3,0c-0.3,0-0.7-0.1-1-0.1h-0.1c-0.3,0-0.6,0-0.9,0c-0.1,0-0.2,0-0.2,0h-0.1
		c-0.2,0-0.4,0-0.6,0.1c-0.1,0-0.2,0-0.3,0.1c-0.2,0-0.4,0.1-0.6,0.1c-0.1,0-0.2,0.1-0.3,0.1l5.5-8.9l11.8,0.1l6.1,10.8l-5.5,9
		c0-0.1,0-0.2-0.1-0.3c0-0.1,0-0.1,0-0.2c0-0.1-0.1-0.2-0.1-0.4C61.7,114.7,61.7,114.6,61.7,114.6z"/>
	<path id="Layer_00000154398990362041350110000007153573747008749499_" class="st0" d="M82.6,127.2l-28.8-0.1l-4.4,8.3l-3,5.7
		l7.7-0.1v0.1l44,0.1l4.4-7.6L70.8,79.3L7.9,79.2l-4,7l0.8,1.3H4.6l25,44l8.3-13.5L23.3,93.2h39.5L82.6,127.2z"/>
</g>
</svg>
