<?xml version="1.0" encoding="iso-8859-1"?>
<!-- Uploaded to: SVG Repo, www.svgrepo.com, Generator: SVG Repo Mixer Tools -->
<svg height="800px" width="800px" version="1.1" id="Layer_1" xmlns="http://www.w3.org/2000/svg" xmlns:xlink="http://www.w3.org/1999/xlink" 
	 viewBox="0 0 512.002 512.002" xml:space="preserve">
<circle style="fill:#E84F4F;" cx="256.001" cy="256.001" r="256.001"/>
<path style="fill:#D14747;" d="M511.199,276.3L338.146,103.247L224.9,428.998l78.585,78.585
	c112.208-21.047,198.616-115.305,207.714-231.292V276.3z"/>
<path style="fill:#ECECEC;" d="M145.139,188.771c3.115,14.125,14.344,30.482,9.899,51.027c-1.011,4.645-3.397,31.146-6.493,41.164
	c-3.798,12.258,0.027,25.227,7.277,37.63c14.653,25.09,14.107-3.205,31.119,26.046c5.947,10.227,9.845,20.919,12.978,30.836
	c-0.984,3.46-1.23,22.458-0.501,24.898c1.968,6.639,18.442,24.516,25.5,28.633c9.909,5.783,19.826,5.336,31.01,3.843
	c11.184,1.494,21.056,1.968,31.01-3.843c7.523-4.39,23.46-21.174,25.672-28.633c0.619-2.113,0.61-20.181-0.064-23.187
	c3.515-10.391,7.723-21.729,14.025-32.549c17.012-29.252,16.465-0.957,31.119-26.046c9.016-15.436,11.766-35.235,6.639-48.814
	c-2.359-6.248-6.721-26.72-7.422-29.972c-4.453-20.546,6.794-36.911,9.899-51.027c2.431-11.037-3.715-38.978-5.482-48.04
	c-16.22-83.302-192.47-83.403-209.062-0.291c-1.821,9.134-9.563,37.175-7.103,48.34L145.139,188.771z"/>
<g>
	<path style="fill:#CCCCCC;" d="M194.281,359.684c2.194,5.355,4.016,10.674,5.629,15.792c-0.437,1.539-0.729,6.175-0.856,11.047
		c0.81-0.555,1.539-1.193,2.067-1.93c2.395-3.324,2.632-6.985,2.632-11.967c0-4.972,4.972-31.091,13.989-34.507
		c9.016-3.424,10.109-24.871,12.586-34.816c-20.783-4.417-24.27,6.749-30.017,14.917c-8.952,7.595-19.334,8.042-28.195,11.793
		l22.158,29.68L194.281,359.684z M313.038,386.66c-0.054-4.28-0.219-8.214-0.501-9.471c3.515-10.391,7.723-21.729,14.025-32.549
		c6.584-11.329,10.546-14.025,13.77-14.535c-9.207-1.275-13.206-0.984-22.285-5.747c-11.584-6.074-9.326-26.729-36.373-20.982
		c2.487,9.945,3.579,31.401,12.586,34.816c9.016,3.415,13.989,29.534,13.989,34.507c0,4.972,0.246,8.642,2.632,11.967
		C311.435,385.439,312.191,386.085,313.038,386.66z"/>
	<path style="fill:#CCCCCC;" d="M145.139,188.771c2.996,13.579,13.488,29.225,10.346,48.669c2.477-3.142,4.882-7.167,6.493-11.866
		c4.044-11.812,16.475-22.385,16.475-22.385s11.193-9.016,8.397-34.507c-1.703-15.509-19.754-26.311-33.624-32.376
		c-0.364,1.357-0.702,2.732-0.984,4.135c-1.821,9.134-9.563,37.175-7.103,48.34L145.139,188.771L145.139,188.771z M356.415,237.312
		c-3.087-19.38,7.386-34.998,10.364-48.541c2.431-11.037-3.715-38.978-5.482-48.04c-0.328-1.704-0.756-3.361-1.221-4.991
		c-14.016,5.956-33.177,16.939-34.926,32.94c-2.796,25.491,8.397,34.507,8.397,34.507s12.441,10.574,16.475,22.385
		c1.585,4.645,3.943,8.615,6.384,11.739h0.008V237.312z"/>
</g>
<path style="fill:#4D4D4D;" d="M246.92,287.128c0,0-16.621,23.943-13.816,32.958c2.796,9.016,8.087,5.282,12.432,6.53
	c4.354,1.239,7.778,1.239,7.778,1.239s1.12-5.591,2.331-13.806c1.212,8.215,3.042,13.806,3.042,13.806s3.415,0,7.778-1.239
	c4.354-1.239,9.635,2.487,12.432-6.53c2.796-9.016-13.816-32.958-13.816-32.958c-2.932-2.158-7.641,5.701-9.08,8.479
	C254.561,292.82,249.852,284.97,246.92,287.128z"/>
<path style="fill:#B3B3B3;" d="M213.524,353.838c5.893,0.036,6.184,1.63,6.184,1.63s1.93-2.878,6.758-2.568
	c4.817,0.309,4.745,2.959,4.745,2.959s6.375-3.734,9.171-2.022c2.796,1.713,1.63,1.939,1.63,1.939s5.674-4.126,10.883-1.32
	c1.758,0.948,2.769,1.53,3.333,1.894c0.564-0.364,1.575-0.948,3.333-1.894c5.209-2.796,10.883,1.32,10.883,1.32
	s-1.165-0.237,1.63-1.939c2.796-1.713,9.171,2.022,9.171,2.022s-0.082-2.641,4.745-2.959c4.817-0.309,6.758,2.568,6.758,2.568
	s0.282-1.594,6.184-1.63c5.893-0.036,5.638,10.564,7.176,14.908c0.856,2.404-1.684,5.119-1.684,5.119s-0.118,1.831-0.656,4.627
	c-0.546,2.796-4.043,9.044-5.837,12.777c-1.785,3.734-5.365,2.104-5.365,2.104s-1.867,1.63-3.734,4.117
	c-1.867,2.487-8.861,1.084-8.861,1.084c-5.173,5.3-7.058,6.329-14.699,4.972c-0.975,1.43-6.284,3.361-8.543,4.135v0.337l-0.51-0.164
	l-0.51,0.164v-0.337c-2.259-0.774-7.568-2.704-8.543-4.135c-7.641,1.357-9.527,0.337-14.699-4.972c0,0-6.994,1.402-8.861-1.084
	s-3.734-4.117-3.734-4.117s-3.579,1.63-5.365-2.104c-1.785-3.734-5.291-9.981-5.828-12.777c-0.546-2.796-0.665-4.627-0.665-4.627
	s-2.532-2.713-1.684-5.119c1.539-4.344,1.284-14.944,7.176-14.908H213.524z"/>
<g>
	<path style="fill:#FFFFFF;" d="M260.882,356.087c0,0-4.526,2.923-4.49,8.46s0.192,15.928,0.192,15.928s1.448,2.268,8.251,1.411
		c6.803-0.865,7.013-1.621,7.013-1.621s-1.575-19.161-1.612-19.881C270.197,359.664,271.565,353.664,260.882,356.087z
		 M251.118,356.087c0,0,4.526,2.923,4.49,8.46s-0.192,15.928-0.192,15.928s-1.448,2.277-8.251,1.411
		c-6.803-0.865-7.013-1.612-7.013-1.612s1.575-19.161,1.612-19.881c0.037-0.72-1.33-6.712,9.353-4.289L251.118,356.087
		L251.118,356.087z M238.187,356.059c0,0,3.233,1.821,2.996,7.049c-0.237,5.236-1.42,15.992-1.42,15.992
		c-2.004,2.959-12.177,0.373-12.285-3.214c0,0,2.04-14.262,2.104-14.935C229.644,360.268,231.438,353.574,238.187,356.059z
		 M226.493,355.786c0,0,2.842,1.821,2.431,6.512c-0.41,4.69-1.894,14.316-1.894,14.316c-1.912,2.55-10.974-0.337-10.929-3.588
		c0,0,2.386-12.714,2.458-13.315C218.643,359.101,220.519,353.172,226.493,355.786z M273.804,356.059c0,0-3.233,1.821-2.996,7.049
		c0.228,5.236,1.42,15.992,1.42,15.992c2.004,2.959,12.177,0.373,12.285-3.214c0,0-2.04-14.262-2.104-14.935
		C282.347,360.268,280.553,353.574,273.804,356.059z M285.498,355.786c0,0-2.842,1.821-2.431,6.512
		c0.41,4.69,1.894,14.316,1.894,14.316c1.912,2.55,10.974-0.337,10.929-3.588c0,0-2.386-12.714-2.468-13.315
		c-0.082-0.61-1.948-6.53-7.932-3.925L285.498,355.786L285.498,355.786z M295.971,356.068c0,0-2.268,1.63-1.767,5.455
		c0.492,3.825,2.031,11.63,2.031,11.63c1.657,1.995,8.979-0.81,8.834-3.47c0,0-2.377-10.3-2.468-10.792
		C302.519,358.391,300.78,353.637,295.971,356.068z M216.02,356.068c0,0,2.268,1.63,1.767,5.455
		c-0.492,3.825-2.031,11.63-2.031,11.63c-1.657,1.995-8.979-0.819-8.834-3.47c0,0,2.377-10.3,2.468-10.792
		C209.472,358.391,211.211,353.628,216.02,356.068z"/>
	<path style="fill:#FFFFFF;" d="M256.637,399.792l-0.21-12.604c-0.064-3.934,12.622-5.719,14.307-2.286
		c1.02,2.058-3.952,14.508-4.344,15.1C266.008,400.593,259.215,407.351,256.637,399.792z M255.363,399.792l0.21-12.604
		c0.064-3.934-12.622-5.719-14.307-2.286c-1.02,2.058,3.952,14.508,4.344,15.1C245.992,400.593,252.786,407.351,255.363,399.792z
		 M220.492,388.481l-4.016-10.136c-0.738-1.858-5.355-4.262-6.876-2.35c-1.275,1.594,4.308,11.238,4.553,11.676
		c0.246,0.438,6.375,6.994,6.347,0.801L220.492,388.481z M230.8,393.226l-1.921-5.455l-1.894-4.663l-0.692-1.458
		c-0.993-2.086-6.685-5.2-8.46-2.969c-1.485,1.858,5.837,13.924,6.12,14.443C224.234,393.644,230.518,399.063,230.8,393.226z
		 M234.481,397.788c0.392,0.583,9.29,7.459,9.162-0.528l-3.943-11.912c-0.819-2.505-9.608-6.056-11.976-3.652
		c-0.173,0.182-0.273,0.456-0.291,0.801c0.501,2.95,5.109,12.331,7.049,15.3v-0.009H234.481z M291.5,388.481l4.016-10.136
		c0.738-1.858,5.355-4.262,6.875-2.35c1.275,1.594-4.307,11.238-4.553,11.676c-0.246,0.437-6.375,6.994-6.347,0.801L291.5,388.481z
		 M281.191,393.226l1.921-5.455l1.894-4.663l0.692-1.458c0.993-2.086,6.685-5.2,8.46-2.969c1.485,1.858-5.837,13.924-6.12,14.443
		C287.757,393.644,281.473,399.063,281.191,393.226z M277.511,397.788c-0.392,0.583-9.29,7.459-9.162-0.528l3.943-11.912
		c0.819-2.505,9.608-6.056,11.976-3.652c0.173,0.182,0.273,0.456,0.291,0.801c-0.501,2.95-5.109,12.331-7.049,15.3v-0.009H277.511z"
		/>
</g>
<path style="fill:#4D4D4D;" d="M228.979,216.047c-8.633-1.612-40.891-4.699-53.058,8.36c-3.77,4.043-16.037,25.555-3.361,37.958
	c12.45,12.195,42.995,8.233,53.021,3.205c7.486-3.752,13.206-14.316,13.378-24.771C239.088,233.378,241.911,218.47,228.979,216.047z
	"/>
<path style="fill:#E6E6E6;" d="M231.721,206.549c7.978,3.033,12.933,10.346,12.058,14.608c-0.874,4.262-3.889,11.12-4.471,11.748
	c0.091-7.158-1.156-15.145-10.328-16.867l-0.419-0.082l-0.456-0.073l-0.492-0.082l-0.519-0.082l-0.555-0.082l-0.583-0.082
	l-0.61-0.082l0,0l-0.637-0.082l-0.665-0.082l-0.692-0.082l-0.711-0.073l-0.738-0.073l0,0l-0.756-0.073l0,0l-0.774-0.073l0,0
	l-0.801-0.063l0,0l-0.819-0.054l-0.838-0.054l-0.856-0.054l0,0l-0.874-0.045l0,0l-0.883-0.036l0,0l-0.901-0.036l0,0l-0.91-0.027l0,0
	l-0.929-0.018l0,0l-0.938-0.018l0,0l-0.957-0.009l-1.93,0.009l0,0l-0.975,0.018l0,0l-0.984,0.027l0,0l-0.993,0.036l0,0l-0.993,0.045
	l-1.002,0.054l0,0l-1.002,0.063l-1.002,0.073l0,0l-1.002,0.082l0,0l-1.002,0.1l-1.002,0.109l0,0l-1.002,0.127l0,0
	c-0.665,0.091-1.33,0.182-1.986,0.291l-0.984,0.164l0,0l-0.975,0.182l-0.975,0.192l0,0l-0.966,0.21l0,0
	c-0.637,0.146-1.275,0.3-1.894,0.474l0,0l-0.929,0.255l0,0l-0.92,0.273l-0.901,0.291l0,0l-0.892,0.309l0,0l-0.874,0.328
	l-0.856,0.346l-0.847,0.364l-0.819,0.382l0,0l-0.801,0.401l0,0l-0.783,0.428l-0.765,0.447l-0.738,0.465l-0.72,0.492l-0.692,0.51
	l-0.665,0.528l-0.637,0.555c-0.21,0.182-0.41,0.373-0.61,0.574l0,0l-0.583,0.601c-2.386,2.559-8.169,12.112-8.888,21.921
	c-2.395-6.238,1.129-28.031,10.801-32.348c4.435-1.977,30.755-13.005,53.877-7.431L231.721,206.549z"/>
<path style="fill:#4D4D4D;" d="M283.021,216.047c8.633-1.612,40.891-4.699,53.058,8.36c3.77,4.043,16.037,25.555,3.361,37.958
	c-12.45,12.195-42.995,8.233-53.021,3.205c-7.486-3.752-13.206-14.316-13.378-24.771
	C272.912,233.378,270.089,218.47,283.021,216.047z"/>
<path style="fill:#E6E6E6;" d="M280.28,206.549c-7.978,3.033-12.933,10.346-12.058,14.608c0.874,4.262,3.889,11.12,4.471,11.748
	c-0.091-7.158,1.156-15.145,10.328-16.867l0.419-0.082l0.456-0.073l0.492-0.082l0.519-0.082l0.555-0.082l0.583-0.082l0.61-0.082l0,0
	l0.637-0.082l0.665-0.082l0.692-0.082l0.711-0.073l0.738-0.073l0,0l0.756-0.073l0,0l0.774-0.073l0,0l0.801-0.063l0,0l0.819-0.054
	l0.838-0.054l0.856-0.054l0,0l0.874-0.045l0,0l0.883-0.036l0,0l0.901-0.036l0,0l0.91-0.027l0,0l0.929-0.018l0,0l0.938-0.018l0,0
	l0.957-0.009l1.93,0.009l0,0l0.975,0.018l0,0l0.984,0.027l0,0l0.993,0.036l0,0l0.993,0.045l1.002,0.054l0,0l1.002,0.063l1.002,0.073
	l0,0l1.002,0.082l0,0l1.002,0.1l1.002,0.109l0,0l1.002,0.127l0,0c0.665,0.091,1.33,0.182,1.986,0.291l0.984,0.164l0,0l0.975,0.182
	l0.975,0.192l0,0l0.966,0.21l0,0c0.637,0.146,1.275,0.3,1.894,0.474l0,0l0.929,0.255l0,0l0.92,0.273l0.901,0.291l0,0l0.892,0.309
	l0,0l0.874,0.328l0.856,0.346l0.847,0.364l0.819,0.382l0,0l0.801,0.401l0,0l0.783,0.428l0.765,0.447l0.738,0.465l0.72,0.492
	l0.692,0.51l0.665,0.528l0.637,0.555c0.21,0.182,0.41,0.373,0.61,0.574l0,0l0.583,0.601c2.386,2.559,8.169,12.112,8.888,21.921
	c2.395-6.238-1.129-28.031-10.801-32.348c-4.435-1.977-30.755-13.005-53.877-7.431L280.28,206.549z"/>
</svg>