<?xml version="1.0" encoding="UTF-8"?>
<!DOCTYPE svg PUBLIC "-//W3C//DTD SVG 1.0//EN" "http://www.w3.org/TR/2001/REC-SVG-20010904/DTD/svg10.dtd">
<!-- Creator: CorelDRAW -->
<svg xmlns="http://www.w3.org/2000/svg" xml:space="preserve" width="74.3932mm" height="73.8752mm" version="1.0" style="shape-rendering:geometricPrecision; text-rendering:geometricPrecision; image-rendering:optimizeQuality; fill-rule:evenodd; clip-rule:evenodd"
viewBox="0 0 957.45 950.79"
 xmlns:xlink="http://www.w3.org/1999/xlink"
 xmlns:xodm="http://www.corel.com/coreldraw/odm/2003">
 <defs>
  <style type="text/css">
   <![CDATA[
    .fil0 {fill:#FF1256}
    .fil1 {fill:white;fill-rule:nonzero}
   ]]>
  </style>
 </defs>
 <g id="Layer_x0020_1">
  <metadata id="CorelCorpID_0Corel-Layer"/>
  <ellipse class="fil0" cx="478.73" cy="475.39" rx="478.73" ry="475.39"/>
  <path class="fil1" d="M773.33 706.16c-0.39,-4.44 -35.9,-124.01 -40.58,-140.2 -0.42,-2.88 -2.89,-5.02 -5.8,-5.02 -0.18,0 -0.37,0.01 -0.55,0.03 -0.14,0 -0.28,-0 -0.42,-0 -3.41,0 -6.8,0.52 -10.04,1.54 -26.94,7.78 -53.77,15.95 -80.67,23.94l-66.51 19.75c-3.66,1.08 -5.51,0 -6.28,-3.94 -1.43,-7.78 -3.49,-15.46 -5.02,-23.2 -3.49,-15.46 -6.63,-30.95 -10.08,-46.41 -3.45,-15.46 -7.33,-31.4 -10.99,-47.28 -0.28,-1.71 -0.52,-3.49 -0.91,-5.1 -3.63,-16.02 -7.28,-32.03 -10.96,-48.01 -1.08,-5.51 -2.02,-11.06 -3.25,-16.5 -6.7,-29.36 -13.44,-58.7 -20.24,-88.03 -0.18,-0.54 -0.27,-1.1 -0.27,-1.67 0,-2.15 1.31,-4.09 3.31,-4.89 28.4,-15.63 56.77,-31.36 85.11,-47.18 12.42,-6.98 24.71,-14.17 37.06,-21.29 -5.47,-1.53 -11.08,-2.79 -16.68,-3.72 5.59,0.93 11.21,2.19 16.69,3.72 0.98,-1.45 1.52,-3.17 1.52,-4.93 0,-1.28 -0.28,-2.55 -0.83,-3.72 -6.98,-17.45 -13.96,-34.89 -20.94,-52.13 -10.49,-27.08 -21.03,-54.17 -31.61,-81.27 -2.44,-6.28 -3.49,-6.56 -9.88,-3.49 -22.47,11.2 -44.73,22.82 -67.45,33.57 -19.37,9.14 -38.38,19.02 -57.57,28.37 -1.36,0.66 -3.21,0.77 -3.77,2.62 -1.57,-0.38 -2.72,0.66 -3.98,1.26 -12.39,5.93 -24.81,11.86 -37.16,17.94 -25.59,12.63 -51.11,25.3 -76.56,38 -3.49,1.6 -6.66,3.18 -9.98,4.85 -19.02,9.49 -37.69,19.26 -56.7,28.33 -19.96,9.3 -39.73,19.13 -59.32,29.48 -1.29,0 -2.3,0.45 -2.37,1.99 0.21,4.29 0.91,8.57 2.06,12.7 12.65,48.34 25.3,96.66 37.93,144.98 1.36,5.2 3.49,6.07 8.45,4.15 2.79,-1.05 5.02,-3.66 8.41,-3l0 0c0,-1.5 1.05,-1.46 2.09,-1.22l0 0c0,-1.89 1.47,-2.3 2.69,-2.97l79.49 -41.87c11.1,-5.83 21.81,-12.39 33.36,-17.45 0.17,-0.02 0.34,-0.03 0.51,-0.03 0.17,0 0.34,0.01 0.51,0.02 0.1,-0 0.2,-0.01 0.31,-0.01 1.41,0 2.77,0.47 3.88,1.33 -1.11,-0.86 -2.47,-1.33 -3.87,-1.33 -0.11,0 -0.21,0 -0.32,0.01 1.46,4.78 3.11,9.53 4.36,14.34 7.31,28.4 14.54,56.79 21.7,85.18 6.56,-0.7 13.24,-1.06 19.85,-1.06 1.43,0 2.89,0.02 4.29,0.05 -1.41,-0.02 -2.86,-0.05 -4.29,-0.05 -6.61,0 -13.29,0.36 -19.85,1.07l5.23 22.92c0.43,0.97 0.79,1.97 1.09,2.99 5.81,22.8 11.63,45.57 17.45,68.32 6.59,26.06 13.09,52.13 19.82,78.13 0.73,2.83 0.59,4.64 -2.23,5.55 -8.67,3.3 -17.64,6.12 -26.66,8.37 -2.36,1.49 -4.98,2.55 -7.71,3.14 -16.09,5.3 -32.45,9.81 -48.19,16.19 -0.64,2.02 -0.98,4.12 -0.98,6.24 0,9.86 6.11,34.48 7.99,45.51 3.73,22.02 7.64,44 11.48,66.02 1.05,6 2.06,12 3.49,17.94 1.01,4.68 6.35,6.63 12.42,4.71l56.95 -18.25 121.57 -39.08 81.72 -26.03 124.64 -40.09c1.03,-0.24 2.09,-0.42 3.14,-0.53 1.95,-1.01 1.08,-2.89 0.94,-4.29zm-233.79 -85.21l0 0zm188.42 66.51c-5.2,2.27 -10.73,3.81 -16.36,4.57l-60.99 19.44 -39.67 12.53c-40.2,12.67 -80.25,25.68 -120.66,37.93 -22.99,6.98 -45.74,14.62 -68.74,21.53 -5.93,1.78 -11.9,3.49 -17.73,5.72 -0.72,0.45 -1.56,0.69 -2.41,0.69 -2.52,0 -4.57,-2.05 -4.57,-4.57 0,-0.05 0,-0.11 0,-0.16 -2.44,-15.98 -5.93,-31.75 -8.9,-47.66 -0.04,-0.71 -0.06,-1.43 -0.06,-2.15 0,-0.72 0.02,-1.44 0.07,-2.15 -2.2,-9.35 -3.14,-9.28 5.23,-12.91 20.06,-8.74 26.73,-12.14 47.7,-20.03 18.96,-7.14 36.78,-8.37 36.18,-30.95 -4.08,-10.99 -6.73,-22.4 -10.05,-33.6 -5.13,-17.45 -8.13,-35.59 -14.17,-52.86 -4.33,-0.21 -8.65,0 -12.98,0 -2.86,0 -5.76,0 -8.65,0 2.9,0 5.79,0 8.65,0 4.33,0 8.65,-0.17 12.98,0 -3.06,-10.29 -5.63,-20.81 -7.49,-31.4 -3.49,-7.19 -4.12,-15.25 -6.32,-22.82 -10.52,-35.97 -19.17,-72.08 -29.14,-108.28 -5.48,-21.6 -10.78,-43.09 -16.5,-64.73 -1.95,-7.29 -11.51,-10.85 -18.53,-7.61 -29.66,13.7 -59.32,27.42 -88.98,41.14 -9.49,4.36 -19.16,8.41 -28.61,12.88 -4.64,2.2 -5.72,-1.54 -6.25,-4.05 -3.49,-16.57 -6.77,-33.25 -10.12,-49.9 -1.95,-7.14 -3.35,-14.48 -4.11,-21.84 -1.45,-3.43 -2.28,-7.1 -2.45,-10.82 -1.19,-3.21 -2.86,-6.38 0,-9.53 -0.21,-4.12 2.55,-6.18 5.69,-7.68 19.59,-9.3 39.21,-18.61 58.86,-27.91 51.67,-24.44 101.69,-48.21 153.71,-72.96 30.22,-14.37 55.57,-25.19 85,-40.23 3.82,-1.94 7.85,-3.52 11.97,-4.71 5.69,-1.6 9.63,0.52 12.25,6.98 4.08,9.77 7.68,19.71 11.44,29.59 4.4,11.46 8.78,22.96 13.15,34.47 1.2,2.15 1.84,4.58 1.84,7.04 0,1.29 -0.17,2.57 -0.51,3.81 -0.79,3.34 -3.77,5.7 -7.2,5.7 -6.06,0 -55.38,29.33 -86.52,46.53 -9.84,5.72 -20.62,9.91 -28.96,18.04 -0.03,0.17 -0.05,0.35 -0.05,0.52 0,0.18 0.02,0.35 0.05,0.52 0.31,0.05 0.6,0.15 0.87,0.31 -0.27,-0.16 -0.56,-0.27 -0.87,-0.31l0 13.96c4.19,16.82 7.99,33.74 10.82,50.84 3.59,12.29 6.38,24.92 8.24,37.57 7.16,40.24 19.31,96.72 27.5,131.83 2.13,9.25 3.84,18.49 5.41,27.92 3.87,12.98 5.55,26.45 8.55,39.6 0.65,4.61 1.83,9.15 3.49,13.48l0 0c1.6,8.02 3.18,16.05 4.92,24.08 1.54,6.8 7.59,11.63 14.56,11.63 1.98,0 3.95,-0.4 5.78,-1.16 16.44,-6.6 33.11,-12.6 49.79,-18.56 17.66,-6.35 35.17,-13.02 52.34,-20.27 0.06,0 0.11,0 0.17,0 1.91,0 3.81,-0.41 5.55,-1.19 12.04,-4.67 24.15,-9.11 36.15,-13.96 0.79,-0.5 1.71,-0.76 2.64,-0.76 2.37,0 4.41,1.68 4.86,4.01 8.36,22.57 16.24,55.28 25.54,75.3 0.41,0.76 0.62,1.62 0.62,2.48 0,2.38 -1.6,4.47 -3.9,5.09l-0.1 0zm10.99 -22.44c9.2,0 18.88,0 0.11,0l-0.11 0z"/>
 </g>
</svg>
