<svg xmlns="http://www.w3.org/2000/svg" xmlns:xlink="http://www.w3.org/1999/xlink" viewBox="0 0 253.17 253.17"><defs><style>.cls-1{fill:url(#Adsız_degrade_84);}.cls-2{fill:#93775a;}.cls-3{fill:#5b423a;}.cls-4{fill:url(#Adsız_degrade_35);}.cls-5{fill:#967a5d;}.cls-6{fill:#c28223;}.cls-7{fill:#dec092;}.cls-8{fill:url(#Adsız_degrade_70);}.cls-9{fill:url(#Adsız_degrade_59);}.cls-10{fill:url(#Adsız_degrade_56);}</style><linearGradient id="Adsız_degrade_84" x1="32.97" y1="224.21" x2="208.19" y2="41.48" gradientUnits="userSpaceOnUse"><stop offset="0" stop-color="#021f3e"/><stop offset="0.11" stop-color="#01416c"/><stop offset="0.22" stop-color="#016095"/><stop offset="0.31" stop-color="#0073af"/><stop offset="0.36" stop-color="#007ab8"/><stop offset="0.47" stop-color="#006ea8"/><stop offset="0.69" stop-color="#004f7e"/><stop offset="0.77" stop-color="#00436d"/><stop offset="0.86" stop-color="#00416b"/><stop offset="0.92" stop-color="#013b62"/><stop offset="0.96" stop-color="#013154"/><stop offset="1" stop-color="#022443"/></linearGradient><linearGradient id="Adsız_degrade_35" x1="96.59" y1="168.08" x2="90.93" y2="114.92" gradientUnits="userSpaceOnUse"><stop offset="0" stop-color="#6d5345"/><stop offset="1" stop-color="#8e7257"/></linearGradient><linearGradient id="Adsız_degrade_70" x1="95.56" y1="211.93" x2="174.46" y2="46.06" gradientUnits="userSpaceOnUse"><stop offset="0" stop-color="#68402a"/><stop offset="0.28" stop-color="#8d5d2c"/><stop offset="0.52" stop-color="#f19b23"/><stop offset="0.57" stop-color="#da8d1f"/><stop offset="0.61" stop-color="#e8941e"/><stop offset="0.67" stop-color="#ee961e"/><stop offset="0.81" stop-color="#f2c322"/><stop offset="0.89" stop-color="#ffcc3a"/><stop offset="0.93" stop-color="#ffe747"/><stop offset="0.96" stop-color="#fff64e"/><stop offset="0.97" stop-color="#ffec4a"/><stop offset="1" stop-color="#ffd742"/></linearGradient><linearGradient id="Adsız_degrade_59" x1="158.46" y1="176.69" x2="169.42" y2="102.76" gradientUnits="userSpaceOnUse"><stop offset="0" stop-color="#9e8873"/><stop offset="0.77" stop-color="#e5c594"/></linearGradient><linearGradient id="Adsız_degrade_56" x1="124.69" y1="158.23" x2="156.18" y2="39.18" gradientUnits="userSpaceOnUse"><stop offset="0" stop-color="#cfb198"/><stop offset="0.45" stop-color="#ffffcd"/><stop offset="0.57" stop-color="#fffffe"/><stop offset="0.62" stop-color="#fff"/><stop offset="0.69" stop-color="#fff"/><stop offset="0.75" stop-color="#ffd"/><stop offset="0.81" stop-color="#fffffe"/><stop offset="0.9" stop-color="#ffffe3"/><stop offset="0.95" stop-color="#fff"/><stop offset="1" stop-color="#ffffda"/></linearGradient></defs><g id="katman_2" data-name="katman 2"><g id="Layer_1" data-name="Layer 1"><circle class="cls-1" cx="126.58" cy="126.58" r="126.58"/><path class="cls-2" d="M66.94,116.51a115.49,115.49,0,0,1-10.5,5.54c-1.56.76-2.55.07-3-1.61Q48,99,42.47,77.48c-.38-1.46-.31-2.47,1.37-3.16,2.33-.94,4.54-2.2,6.81-3.33a16.56,16.56,0,0,0,.59,3.64q5.44,20.78,10.87,41.55c.39,1.49,1,1.74,2.42,1.19C65.33,117.07,66,116.32,66.94,116.51Z"/><path class="cls-3" d="M216.69,190.65,181,202.14l-23.38,7.49-34.84,11.2-16.32,5.23c-1.74.55-3.27,0-3.56-1.35-.36-1.7-.65-3.42-1-5.14-1.1-6.31-2.22-12.61-3.29-18.92-.59-3.48-1.39-6.94-1.69-10.46a5.86,5.86,0,0,1-.32-4.37l-6.76,3c-2.15,1-2.42,1.42-2,3.75.51,3.11,1.06,6.21,1.59,9.32,1.49,8.71,2.83,17.45,4.53,26.12.66,3.35.9,4,4.65,2.88,5.07-1.58,10.13-3.21,15.19-4.83q44.55-14.25,89.12-28.5c5.25-1.67,10.34-3.61,14.69-7.1A6.76,6.76,0,0,0,216.69,190.65Z"/><path class="cls-4" d="M93,104.77q1.92,7.73,4,15.42c1.22,4.51,2.2,9.09,3.64,13.55q3.08,12,6.15,24,2.9,11.3,5.82,22.58a67.67,67.67,0,0,0,7.64-2.4c.81-.26.85-.78.64-1.59-1.93-7.45-3.79-14.92-5.68-22.39q-2.49-9.78-5-19.58a7.41,7.41,0,0,0-.31-.86h0l-1.5-6.57q-3.1-12.19-6.22-24.41c-.36-1.38-.83-2.74-1.25-4.11a1.43,1.43,0,0,0-.29,0c-3.31,1.42-6.38,3.3-9.56,5l-22.78,12c-.35.19-.79.31-.77.85a4.28,4.28,0,0,0,1.69-.7c7.39-3.8,14.77-7.58,22.13-11.42C92.4,103.52,92.74,103.64,93,104.77Z"/><path class="cls-5" d="M66.94,116.49c0-.43.3-.42.6-.35A.51.51,0,0,1,66.94,116.49Z"/><path class="cls-5" d="M132.27,183.05c-1.16,2.51-5.31,6-8.12,7-5.62,2.16-11.14,4.59-16.7,6.91-.63-2.68-.9-2.66,1.5-3.7,2.11-.92,4.2-1.88,6.3-2.81,2.61-.6,4.9-2,7.37-2.93S129.63,183.72,132.27,183.05Z"/><path class="cls-6" d="M160.58,41q1.89,4.93,3.77,9.88a4.13,4.13,0,0,1,.38,3.11,2.12,2.12,0,0,1-2.31,1.62c.28-.63,1.73-.69.91-1.86a4.59,4.59,0,0,0-.21-1.36c-1.14-3-2.22-6.06-3.33-9.09q-1.93-5.35-3.9-10.69c-.53-1.45-1-1.6-2.39-.92L146.56,35c-3.75,1.78-7.55,3.48-11.25,5.36s-7.33,3.21-10.76,5.29c-1.26.54-2.56,1-3.75,1.65-2.09,1.14-4.47,1.68-6.37,3.18-3.88,1.78-7.81,3.46-11.63,5.36-5.14,2.54-10.47,4.72-15.49,7.52a62.13,62.13,0,0,0-8,3.79,35,35,0,0,0-5,2.4c-3.81,1.26-7.14,3.56-10.84,5-.06-1.18.73-1.77,1.63-2.2q8.42-4,16.87-8c5.58-2.64,11.18-5.26,16.75-7.91.53-.25,1.25-.33,1.38-1.1,1.36,0,2.46-.75,3.6-1.28,7.46-3.5,14.88-7.08,22.32-10.62,3.07-1.46,6.16-2.87,9.23-4.33a3.49,3.49,0,0,0,1.44-.86c4.65-1.92,9.21-4.05,13.69-6.34a19.4,19.4,0,0,1,3.43-1.35c1.63-.46,2.76.15,3.51,2C158.47,35.28,159.5,38.13,160.58,41Z"/><path class="cls-7" d="M63.45,74.55c3.7-1.48,7-3.78,10.84-5-.1.93-.21,1.85-.31,2.78l-10.56,5C63.08,76.36,62.6,75.45,63.45,74.55Z"/><path class="cls-8" d="M217.89,189.27c-.37-4.24-2.06-8.13-3.36-12.12a2.68,2.68,0,0,1-1.1.33,2.48,2.48,0,0,1-.38,0,2.48,2.48,0,0,0,.38,0,2.68,2.68,0,0,0,1.1-.33,118.76,118.76,0,0,0-3.71-12.41,3.57,3.57,0,0,0,0-.47c-1.53-5.06-3.09-10.1-4.56-15.18a1.68,1.68,0,0,0-1.82-1.43,9.62,9.62,0,0,0-3,.44c-7.72,2.23-15.41,4.57-23.12,6.86l-19.06,5.66c-1.05.31-1.58,0-1.8-1.13-.41-2.23-1-4.43-1.44-6.65-1-4.43-1.9-8.87-2.89-13.3s-2.1-9-3.15-13.55c-.08-.49-.15-1-.26-1.46q-1.56-6.89-3.14-13.76c-.31-1.58-.58-3.17-.93-4.73q-2.88-12.62-5.8-25.23a1.51,1.51,0,0,1,.87-1.88q12.21-6.72,24.39-13.52c3.56-2,7.08-4.06,10.62-6.1a46.41,46.41,0,0,0-4.78-1.07,46.41,46.41,0,0,1,4.78,1.07,2.51,2.51,0,0,0,.2-2.48c-2-5-4-10-6-14.94q-4.51-11.64-9.06-23.29c-.7-1.8-1-1.88-2.83-1-6.44,3.21-12.82,6.54-19.33,9.62-5.55,2.62-11,5.45-16.5,8.13-.39.19-.92.22-1.08.75-.45-.11-.78.19-1.14.36-3.55,1.7-7.11,3.4-10.65,5.14q-11,5.43-21.94,10.89c-1,.46-1.91.91-2.86,1.39C79.09,56.6,73.74,59.4,68.29,62q-8.58,4-17,8.45c-.37,0-.66.13-.68.57a16.56,16.56,0,0,0,.59,3.64q5.44,20.78,10.87,41.55c.39,1.49,1,1.74,2.42,1.19.8-.3,1.44-1.05,2.41-.86v0c0-.43.3-.42.6-.35l0,0c0-.54.42-.66.77-.85l22.78-12c3.18-1.67,6.25-3.55,9.56-5a1.43,1.43,0,0,1,.29,0,1.81,1.81,0,0,1,1.2.38,1.8,1.8,0,0,0-1.2-.38c.42,1.37.89,2.73,1.25,4.11q3.14,12.21,6.22,24.41a53.33,53.33,0,0,1,6.92-.29,53.33,53.33,0,0,0-6.92.29l1.5,6.57a7.41,7.41,0,0,1,.31.86q2.5,9.8,5,19.58c1.89,7.47,3.75,14.94,5.68,22.39.21.81.17,1.33-.64,1.59a67.67,67.67,0,0,1-7.64,2.4,6.87,6.87,0,0,1-2.21.9c-4.61,1.52-9.3,2.81-13.81,4.64a5.86,5.86,0,0,0,.32,4.37c.3,3.52,1.1,7,1.69,10.46,1.07,6.31,2.19,12.61,3.29,18.92.3,1.72.59,3.44,1,5.14.29,1.34,1.82,1.9,3.56,1.35l16.32-5.23,34.84-11.2L181,202.14l35.72-11.49a6.76,6.76,0,0,1,.9-.15C218.18,190.21,217.93,189.67,217.89,189.27Zm-67-24.42h0Zm54,19.06a17.58,17.58,0,0,1-4.69,1.31l-17.48,5.57-11.37,3.59c-11.52,3.63-23,7.36-34.58,10.87-6.59,2-13.11,4.19-19.7,6.17-1.7.51-3.41,1-5.08,1.64a1.31,1.31,0,0,1-2-1.16c-.7-4.58-1.7-9.1-2.55-13.66a10,10,0,0,1,0-1.23c-.63-2.68-.9-2.66,1.5-3.7,2.11-.92,4.2-1.88,6.3-2.81a.65.65,0,0,0,0-.22.65.65,0,0,1,0,.22c2.61-.6,4.9-2,7.37-2.93s4.9-2.27,7.54-2.94h0l.37-.27c2.67-1.08,2.52-3.39,2.46-5.66-1.17-3.15-1.93-6.42-2.88-9.63-1.47-5-2.33-10.2-4.06-15.15-1.24-.06-2.48,0-3.72,0-.82,0-1.65,0-2.48,0,.83,0,1.66,0,2.48,0,1.24,0,2.48-.05,3.72,0a79.4,79.4,0,0,1-2.15-9c-1-2.06-1.18-4.37-1.81-6.54-1.17-4-2.27-8.06-3.39-12.1h0a34.48,34.48,0,0,0-1.27-5.31,6.34,6.34,0,0,1-.34-2.11,1.23,1.23,0,0,1-.25-.36q-1.56-5.56-3.1-11.15C112.16,101.16,110.64,95,109,88.8c-.56-2.09-3.3-3.11-5.31-2.18q-12.75,5.89-25.5,11.79c-2.72,1.25-5.49,2.41-8.2,3.69-1.33.63-1.64-.44-1.79-1.16-1-4.75-1.94-9.53-2.9-14.3a39,39,0,0,1-1.18-6.26,9,9,0,0,1-.7-3.1c-.34-.92-.82-1.83,0-2.73-.06-1.18.73-1.77,1.63-2.2q8.42-4,16.87-8c5.58-2.64,11.18-5.26,16.75-7.91.53-.25,1.25-.33,1.38-1.1h0c1.36,0,2.46-.75,3.6-1.28,7.46-3.5,14.88-7.08,22.32-10.62,3.07-1.46,6.16-2.87,9.23-4.33a3.49,3.49,0,0,0,1.44-.86,1,1,0,0,0-.65-.6,1,1,0,0,1,.65.6c4.65-1.92,9.21-4.05,13.69-6.34a19.4,19.4,0,0,1,3.43-1.35c1.63-.46,2.76.15,3.51,2,1.17,2.8,2.2,5.65,3.28,8.48q1.89,4.93,3.77,9.88a4.13,4.13,0,0,1,.38,3.11,2.12,2.12,0,0,1-2.31,1.62,6.34,6.34,0,0,1-1.89.61l-.33.59a16.25,16.25,0,0,0,4.35.83,16.25,16.25,0,0,1-4.35-.83l-1.8.68a2.1,2.1,0,0,1-1.57,1L137.84,69c-2.82,1.64-5.91,2.84-8.3,5.17a.77.77,0,0,0,0,.3.68.68,0,0,1,.25.09.68.68,0,0,0-.25-.09l0,4c1.2,4.82,2.29,9.67,3.1,14.57A79,79,0,0,1,135,103.81c1.2,6.74,3,13.35,4.29,20.08.15.8.31,1.6.47,2.4.72-.08,1.43-.24,2.16-.3-.73.06-1.44.22-2.16.3.69,5.17,1.94,10.24,3.12,15.3.61,2.65,1.1,5.3,1.55,8,1.11,3.72,1.59,7.58,2.45,11.35a17.73,17.73,0,0,0,1,3.86h0c.46,2.3.91,4.6,1.41,6.9a4.28,4.28,0,0,0,5.83,3c4.71-1.89,9.49-3.61,14.27-5.32,5.06-1.82,10.08-3.73,15-5.81a3.89,3.89,0,0,0,1.64-.34c3.45-1.34,6.92-2.61,10.36-4a1.42,1.42,0,0,1,2.15.93l1.71,4.62a19.49,19.49,0,0,1,2.64-.16,19.49,19.49,0,0,0-2.64.16l4.35,12.73h0a15.18,15.18,0,0,0,1.26,4.23A1.51,1.51,0,0,1,204.92,183.91Zm3.15-6.43c1.15,0,2.3,0,3.45,0C210.37,177.48,209.22,177.48,208.07,177.48Z"/><path class="cls-5" d="M130.52,184.35l-.37.27Z"/><path class="cls-9" d="M205.88,181.71a15.18,15.18,0,0,1-1.26-4.23l-4.35-12.73-1.71-4.62a1.42,1.42,0,0,0-2.15-.93c-3.44,1.36-6.91,2.63-10.36,4a3.89,3.89,0,0,1-1.64.34c-5,2.08-10,4-15,5.81-4.78,1.71-9.56,3.43-14.27,5.32a4.28,4.28,0,0,1-5.83-3c-.5-2.3-1-4.6-1.41-6.9a17.73,17.73,0,0,1-1-3.86c-.86-3.77-1.34-7.63-2.45-11.35a11.88,11.88,0,0,1-2.26.34,11.88,11.88,0,0,0,2.26-.34c-.45-2.66-.94-5.31-1.55-8-1.18-5.06-2.43-10.13-3.12-15.3-.16-.8-.32-1.6-.47-2.4-1.28-6.73-3.09-13.34-4.29-20.08a79,79,0,0,0-2.39-10.72,3.2,3.2,0,0,0-.22,1,3.2,3.2,0,0,1,.22-1c-.81-4.9-1.9-9.75-3.1-14.57,0-1.33,0-2.67,0-4a.77.77,0,0,1,0-.3c-1.64,1.25-2.95,2.85-4.46,4.23a1.82,1.82,0,0,0-.63,2,30.15,30.15,0,0,1,.58,4,3.56,3.56,0,0,1,.11,1.17c0,.2,0,.41,0,.61.15.77.32,1.09.64,2.24a13.23,13.23,0,0,0,.22,2.06c1.24,5.53,2.36,11.09,3.61,16.61.28,1.21.12,2.58,1,3.62.07,2.75,1,5.35,1.35,8,1.07,3.75,1.63,7.61,2.46,11.42,1.07,4.86,2.06,9.74,3.08,14.61.34,1.37.69,2.74,1,4.11a6,6,0,0,0,3.62.9,6,6,0,0,1-3.62-.9c.71,3.51,1.39,7,2.11,10.52,1.12,5.47,2.27,10.93,3.4,16.4,1,3.15,3.1,4.56,6.18,4,6.25-2.38,12.5-4.77,18.77-7.12,7.57-2.83,15.16-5.61,22.72-8.48,1.19-.45,1.71-.34,2,1s.94,2.28,1.15,3.51c.64,1.82,1.32,3.62,1.93,5.45a100.48,100.48,0,0,1,3.38,11,17.58,17.58,0,0,0,4.69-1.31A1.51,1.51,0,0,0,205.88,181.71ZM132.4,94.09a6.29,6.29,0,0,0,0,1A6.29,6.29,0,0,1,132.4,94.09Z"/><path class="cls-10" d="M196.85,174.22c-.61-1.83-1.29-3.63-1.93-5.45h0c-.21-1.23-.87-2.32-1.15-3.51s-.83-1.42-2-1c-7.56,2.87-15.15,5.65-22.72,8.48-6.27,2.35-12.52,4.74-18.77,7.12-3.69.14-5.18-.83-6.18-4h0c-1.13-5.47-2.28-10.93-3.4-16.4-.72-3.5-1.4-7-2.11-10.52-.34-1.37-.69-2.74-1-4.11h0c-1-4.87-2-9.75-3.08-14.61-.83-3.81-1.39-7.67-2.46-11.42-.36-2.7-1.28-5.3-1.35-8-.9-1-.74-2.41-1-3.62-1.25-5.52-2.37-11.08-3.61-16.61a15.16,15.16,0,0,1-.18-2.12,15.11,15.11,0,0,1-.68-2.18l0-.61c0-.41.31-.53-.08-1a33,33,0,0,0-.61-4.22,1.82,1.82,0,0,1,.63-2c1.51-1.38,2.82-3,4.46-4.23,2.39-2.33,5.48-3.53,8.3-5.17l19-10.63c.64-.14,7-3.19,7.31-3.82-1.09-2.09-2.76-3.47-3.59-5.66-1.62-4.31-3.15-8-4.7-12.34-.22-.6-2.19-1.61-2.41-2.22-.67-.1-4.06,2-4.61,2.27l-17.14,8.09L120.83,50a47.85,47.85,0,0,1-5.11,2.44,4.26,4.26,0,0,0-1.72,1,.41.41,0,0,0,.3.19.41.41,0,0,1-.3-.19c-2.42,1.11-4.85,2.2-7.26,3.34-3.07,1.45-6.11,2.94-9.16,4.41h0c-2.84,1.07-5.43,2.63-8.16,3.92a11.37,11.37,0,0,1-2.7,1A85.07,85.07,0,0,1,79,69.86l-5,2.43-10.56,5a9,9,0,0,0,.7,3.1,39,39,0,0,0,1.18,6.26c1,4.77,1.87,9.55,2.9,14.3.15.72.46,1.79,1.79,1.16,2.71-1.28,5.48-2.44,8.2-3.69Q91,92.53,103.69,86.62c2-.93,4.75.09,5.31,2.18,1.64,6.17,3.16,12.36,4.73,18.55q1.55,5.58,3.1,11.15a1.23,1.23,0,0,0,.25.36,6.34,6.34,0,0,0,.34,2.11,34.48,34.48,0,0,1,1.27,5.31c1.12,4,2.22,8.08,3.39,12.1.63,2.17.79,4.48,1.81,6.54a79.4,79.4,0,0,0,2.15,9c1.73,5,2.59,10.13,4.06,15.15,1,3.21,1.71,6.48,2.88,9.63.06,2.27.21,4.58-2.46,5.66l-.37.27h0c-1.56,2.31-3.2,4.39-6,5.47-5.62,2.16-11.14,4.59-16.7,6.91a10,10,0,0,0,0,1.23c.85,4.56,1.85,9.08,2.55,13.66a1.31,1.31,0,0,0,2,1.16c1.67-.61,3.38-1.13,5.08-1.64,6.59-2,13.11-4.17,19.7-6.17,11.56-3.51,23.06-7.24,34.58-10.87l11.37-3.59,17.48-5.57A100.48,100.48,0,0,0,196.85,174.22Z"/><path class="cls-7" d="M120.83,50a47.85,47.85,0,0,1-5.11,2.44,4.26,4.26,0,0,0-1.72,1c-2.42,1.11-4.85,2.2-7.26,3.34-3.07,1.45-6.11,2.94-9.16,4.41-2.84,1.07-5.43,2.63-8.16,3.92a11.37,11.37,0,0,1-2.7,1c-.34-1.06.68-1.82.59-2.81,5-2.8,10.35-5,15.49-7.52,3.82-1.9,7.75-3.58,11.63-5.36,1.83.27,3.48-.6,5.23-.84C120.16,49.53,120.67,49.13,120.83,50Z"/><path class="cls-7" d="M87.31,63.32c.09,1-.93,1.75-.59,2.81A85.07,85.07,0,0,1,79,69.86l.3-2.75A62.13,62.13,0,0,1,87.31,63.32Z"/><path class="cls-7" d="M79.26,67.11,79,69.86l-5,2.43c.1-.93.21-1.85.31-2.78A35,35,0,0,1,79.26,67.11Z"/><path class="cls-7" d="M164.14,54.63c-1.39.18-2.83-1.71-3.41-2.7a33.73,33.73,0,0,1-2.61-6.56,28.15,28.15,0,0,0-3.22-6.89c-1-1.49-2.31-2.65-4.34-2.41a3.06,3.06,0,0,0-1.73.57l-17.14,8.09c-1.13-.67-2.14.12-3.2.28-1.32.2-2.55.9-3.94.6,3.43-2.08,7.19-3.48,10.76-5.29s7.5-3.58,11.25-5.36l6.94-3.31c1.42-.68,1.86-.53,2.39.92q2,5.34,3.9,10.69c1.11,3,2.19,6.07,3.33,9.09A16.29,16.29,0,0,1,164.14,54.63Z"/><path class="cls-7" d="M124.55,45.61c1.39.3,2.62-.4,3.94-.6,1.06-.16,2.07-.95,3.2-.28L120.83,50c-.16-.85-.67-.45-1.17-.38-1.75.24-3.4,1.11-5.23.84,1.9-1.5,4.28-2,6.37-3.18C122,46.61,123.29,46.15,124.55,45.61Z"/></g></g></svg>