<svg xmlns="http://www.w3.org/2000/svg" width="36" height="37" viewBox="0 0 36 37">
  <g id="Group_152" data-name="Group 152" transform="translate(-148.5 -5743)">
    <rect id="Rectangle_30" data-name="Rectangle 30" width="36" height="37" rx="6" transform="translate(148.5 5743)" fill="#e73697"/>
    <g id="Group_112" data-name="Group 112" transform="translate(108.185 5687.171)">
      <path id="Path_809" data-name="Path 809" d="M81.229,87.065l1.681,4.652s.21.435.435.435,3.572-3.482,3.572-3.482l3.722-7.188-9.349,4.382Z" transform="translate(-27.892 -12.044)" fill="#c8daea"/>
      <path id="Path_810" data-name="Path 810" d="M97.653,138.878l-.323,3.429s-.135,1.051.915,0,2.056-1.861,2.056-1.861" transform="translate(-42.088 -62.663)" fill="#a9c6d8"/>
      <path id="Path_811" data-name="Path 811" d="M53.367,75.188,49.91,74.061s-.413-.168-.28-.548c.027-.078.083-.145.248-.26.766-.534,14.178-5.355,14.178-5.355a1.143,1.143,0,0,1,.6-.043.327.327,0,0,1,.223.243,1.1,1.1,0,0,1,.03.305c0,.089-.012.171-.02.3-.082,1.318-2.526,11.155-2.526,11.155s-.146.576-.67.6a.96.96,0,0,1-.7-.271c-1.028-.885-4.583-3.273-5.368-3.8a.15.15,0,0,1-.064-.106c-.011-.055.049-.124.049-.124s6.189-5.5,6.354-6.079c.013-.045-.035-.067-.1-.047-.411.151-7.537,4.651-8.323,5.148A.379.379,0,0,1,53.367,75.188Z" transform="translate(0)" fill="#fff"/>
    </g>
  </g>
</svg>
