<?xml version="1.0" encoding="iso-8859-1"?>
<!-- Uploaded to: svg Repo, www.svgrepo.com, Generator: svg Repo Mixer Tools -->
<svg height="800px" width="800px" version="1.1" id="Layer_1" xmlns="http://www.w3.org/2000/svg" xmlns:xlink="http://www.w3.org/1999/xlink" 
	 viewBox="0 0 512 512" xml:space="preserve">
<circle style="fill:#6B7F9E;" cx="256" cy="256" r="256"/>
<polygon style="fill:#FFFFFF;" points="132.828,154.147 251.445,248.712 251.445,96.934 260.737,96.934 260.737,248.712 
	379.536,154.511 385.367,161.617 266.386,256 414.155,290.073 412.151,299.001 264.382,264.928 329.794,401.765 321.594,405.591 
	256,268.754 190.041,405.409 181.842,401.401 247.801,264.746 99.849,298.454 97.845,289.526 245.796,255.818 127.18,161.253 "/>
<path style="fill:#FF7069;" d="M256,53.751c20.043,0,36.441,16.216,36.441,36.441c0,20.043-16.216,36.441-36.441,36.441
	c-20.043,0-36.441-16.216-36.441-36.441C219.559,70.149,235.775,53.751,256,53.751z"/>
<path style="fill:#FFE356;" d="M123.172,117.705c20.043,0,36.441,16.216,36.441,36.441c0,20.043-16.216,36.441-36.441,36.441
	c-20.043,0-36.441-16.216-36.441-36.441C86.73,134.104,102.947,117.705,123.172,117.705z"/>
<path style="fill:#FF7069;" d="M90.374,261.466c20.043,0,36.441,16.216,36.441,36.441c0,20.043-16.216,36.441-36.441,36.441
	c-20.043,0-36.441-16.216-36.441-36.441C53.933,277.865,70.149,261.466,90.374,261.466z"/>
<path style="fill:#FFE356;" d="M182.389,376.621c20.043,0,36.441,16.216,36.441,36.441c0,20.043-16.216,36.441-36.441,36.441
	c-20.043,0-36.441-16.216-36.441-36.441C145.947,393.019,162.164,376.621,182.389,376.621z"/>
<path style="fill:#83CF8F;" d="M329.794,376.621c20.043,0,36.441,16.216,36.441,36.441c0,20.043-16.216,36.441-36.441,36.441
	c-20.043,0-36.441-16.216-36.441-36.441C293.352,393.019,309.569,376.621,329.794,376.621z"/>
<path style="fill:#FF7069;" d="M421.626,261.466c20.043,0,36.441,16.216,36.441,36.441c0,20.043-16.216,36.441-36.441,36.441
	c-20.043,0-36.441-16.216-36.441-36.441C385.184,277.865,401.401,261.466,421.626,261.466z"/>
<path style="fill:#83CF8F;" d="M388.828,117.705c20.043,0,36.441,16.216,36.441,36.441c0,20.043-16.216,36.441-36.441,36.441
	c-20.043,0-36.441-16.216-36.441-36.441C352.387,134.104,368.604,117.705,388.828,117.705z"/>
<path style="fill:#E4E7ED;" d="M256,195.872c35.348,0,63.954,28.606,63.954,63.954S291.348,323.781,256,323.781
	s-63.954-28.606-63.954-63.954S220.652,195.872,256,195.872z"/>
<path style="fill:#FF9B96;" d="M246.707,63.043c4.191,0,7.653,3.462,7.653,7.653c0,4.191-3.462,7.653-7.653,7.653
	s-7.653-3.462-7.653-7.653C239.055,66.505,242.517,63.043,246.707,63.043z"/>
<path style="fill:#A3E0AC;" d="M380.629,127.362c4.191,0,7.653,3.462,7.653,7.653c0,4.191-3.462,7.653-7.653,7.653
	c-4.191,0-7.653-3.462-7.653-7.653C372.977,130.824,376.438,127.362,380.629,127.362z"/>
<path style="fill:#FFEF9C;" d="M107.684,130.642c4.191,0,7.653,3.462,7.653,7.653s-3.462,7.653-7.653,7.653
	c-4.191,0-7.653-3.462-7.653-7.653S103.493,130.642,107.684,130.642z"/>
<g>
	<path style="fill:#FF9B96;" d="M410.147,271.305c4.191,0,7.653,3.462,7.653,7.653s-3.462,7.653-7.653,7.653
		c-4.191,0-7.653-3.462-7.653-7.653S405.956,271.305,410.147,271.305z"/>
	<path style="fill:#FF9B96;" d="M82.54,271.305c4.191,0,7.653,3.462,7.653,7.653s-3.462,7.653-7.653,7.653
		c-4.191,0-7.653-3.462-7.653-7.653S78.349,271.305,82.54,271.305z"/>
</g>
<path style="fill:#A3E0AC;" d="M318.132,390.104c4.191,0,7.653,3.462,7.653,7.653c0,4.191-3.462,7.653-7.653,7.653
	s-7.653-3.462-7.653-7.653C310.48,393.566,313.942,390.104,318.132,390.104z"/>
<path style="fill:#FFEF9C;" d="M170.545,390.833c4.191,0,7.653,3.462,7.653,7.653s-3.462,7.653-7.653,7.653
	s-7.653-3.462-7.653-7.653S166.354,390.833,170.545,390.833z"/>
<path style="fill:#F2F4F7;" d="M234.5,224.661c6.195,0,11.297,5.102,11.297,11.297c0,6.195-5.102,11.297-11.297,11.297
	c-6.195,0-11.297-5.102-11.297-11.297C223.203,229.762,228.305,224.661,234.5,224.661z"/>
</svg>