<svg xmlns="http://www.w3.org/2000/svg" width="40" height="40" viewBox="0 0 40 40">
  <g id="ido.802696b8_1_" data-name="ido.802696b8 (1)" transform="translate(-10 -10)">
    <path id="Path_78059" data-name="Path 78059" d="M19.2,19.947h7.03C32.4,9.715,42.006,9.324,47.786,10.417a2.155,2.155,0,0,1,1.8,1.8c1.093,5.78.7,15.388-9.529,21.558V40.8a5.709,5.709,0,0,1-2.812,4.843l-6.874,4.062a1.645,1.645,0,0,1-1.875,0,1.754,1.754,0,0,1-.937-1.64v-8.9a6.668,6.668,0,0,0-6.718-6.718h-8.9a1.754,1.754,0,0,1-1.64-.937,1.645,1.645,0,0,1,0-1.875l4.062-6.874A5.709,5.709,0,0,1,19.2,19.947Zm23.98,0a3.134,3.134,0,0,0-3.124-3.124,3.084,3.084,0,0,0-3.124,3.124,3.038,3.038,0,0,0,3.124,3.124A3.084,3.084,0,0,0,43.177,19.947ZM23.025,46.661c-3.827,3.905-12.966,3.281-12.966,3.281S9.434,40.8,13.339,36.975a6.849,6.849,0,1,1,9.686,9.686Zm-3.671-2.812a2.265,2.265,0,1,0-3.2-3.2c-1.328,1.25-1.094,4.3-1.094,4.3S18.1,45.177,19.354,43.849Z" fill="#FF1256"/>
  </g>
</svg>
