<svg xmlns="http://www.w3.org/2000/svg" width="52" height="28.516" viewBox="0 0 52 28.516">
  <g id="dmission.74c5d322" transform="translate(0 -14.953)">
    <path id="Path_78070" data-name="Path 78070" d="M10.531,43.464H1.743A1.637,1.637,0,0,1,.082,41.37L8.7,16.081a1.733,1.733,0,0,1,1.661-1.128h8.792a1.636,1.636,0,0,1,1.661,2.094L12.2,42.341a1.733,1.733,0,0,1-1.661,1.128Z" fill="#FF1256"/>
    <path id="Path_78071" data-name="Path 78071" d="M18.324,43.464H13.7a1.637,1.637,0,0,1-1.661-2.094l8.618-25.289a1.731,1.731,0,0,1,1.661-1.128h5.441a3.944,3.944,0,0,1,4,5.052L25.411,38.655A7.393,7.393,0,0,1,18.324,43.464Z" transform="translate(3.588)" fill="#FF1256"/>
    <path id="Path_78072" data-name="Path 78072" d="M34.458,43.464H25.665A1.636,1.636,0,0,1,24,41.37l8.622-25.289a1.733,1.733,0,0,1,1.661-1.128H43.08a1.636,1.636,0,0,1,1.661,2.094L36.124,42.341a1.733,1.733,0,0,1-1.661,1.128Z" transform="translate(7.177)" fill="#FF1256"/>
  </g>
</svg>
