<svg xmlns="http://www.w3.org/2000/svg" xmlns:xlink="http://www.w3.org/1999/xlink" width="40" height="40" viewBox="0 0 40 40">
  <defs>
    <clipPath id="clip-path">
      <rect id="Rectangle_3353" data-name="Rectangle 3353" width="40" height="40" transform="translate(0 0.976)" fill="#FF1256"/>
    </clipPath>
  </defs>
  <g id="c-add_1" data-name="c-add 1" transform="translate(0 -0.976)" clip-path="url(#clip-path)">
    <g id="Group">
      <path id="î_" data-name="î" d="M23.163,46.386a6.394,6.394,0,0,1-6.414,0L3.207,38.6A6.3,6.3,0,0,1,0,33.032V17.466a6.3,6.3,0,0,1,3.207-5.572L16.748,4.111a6.4,6.4,0,0,1,6.414,0l13.63,7.783A6.3,6.3,0,0,1,40,17.466V33.032A6.3,6.3,0,0,1,36.793,38.6ZM8.463,17.643a1.436,1.436,0,0,0-1.6-.884A1.515,1.515,0,0,0,5.7,18.173V32.324a1.46,1.46,0,0,0,1.425,1.415,1.4,1.4,0,0,0,1.425-1.415v-6.81l3.029,7.341a1.383,1.383,0,0,0,1.515.884,1.422,1.422,0,0,0,1.158-1.415V18.173a1.4,1.4,0,0,0-1.425-1.415A1.46,1.46,0,0,0,11.4,18.173v6.81Zm8.641.531V32.324a1.46,1.46,0,0,0,1.425,1.415,1.4,1.4,0,0,0,1.425-1.415v-5.66h2.851a1.415,1.415,0,1,0,0-2.83H19.955V19.588h2.851a1.415,1.415,0,1,0,0-2.83H18.53A1.46,1.46,0,0,0,17.1,18.173Zm9.978-1.415a1.415,1.415,0,1,0,0,2.83h1.425V32.324a1.46,1.46,0,0,0,1.425,1.415,1.4,1.4,0,0,0,1.425-1.415V19.588h1.425a1.415,1.415,0,1,0,0-2.83Z" fill="#FF1256"/>
    </g>
  </g>
</svg>
