<svg xmlns="http://www.w3.org/2000/svg" width="40" height="44" viewBox="0 0 40 44">
  <g id="hub.c69f1bd3" transform="translate(-10 -10)">
    <path id="Path_78058" data-name="Path 78058" d="M31,28.219,16.855,18.336a4.395,4.395,0,0,1-2.343.688A4.46,4.46,0,0,1,10,14.555a4.512,4.512,0,1,1,9.024,0,2.516,2.516,0,0,1-.174,1.117c4.512,3.438,12.321,8.938,14.664,10.742A11.044,11.044,0,0,1,37.245,25.3V19.969a3.723,3.723,0,0,1-2.429-3.609,4.036,4.036,0,1,1,8.069,0,3.723,3.723,0,0,1-2.429,3.609V25.3A11.19,11.19,0,0,1,38.72,47.555a11.354,11.354,0,0,1-6.855-2.32l-4.338,4.3a4.276,4.276,0,0,1,.174,1.031,3.425,3.425,0,0,1-1.041,2.492A3.219,3.219,0,0,1,24.23,54a3.8,3.8,0,0,1-2.516-.945,3.809,3.809,0,0,1-1.041-2.492,3.6,3.6,0,0,1,1.041-2.406,3.492,3.492,0,0,1,2.516-1.031,5.908,5.908,0,0,1,1.215.172L29.7,43.086a11.34,11.34,0,0,1-2.256-6.7A11.165,11.165,0,0,1,31,28.219ZM38.72,42.313a5.93,5.93,0,1,0-5.987-5.93A5.916,5.916,0,0,0,38.72,42.313Z" fill="#FF1256"/>
  </g>
</svg>
