<?xml version="1.0" encoding="utf-8"?>
<svg viewBox="48.65 49.3859 52.137 56.5492" width="52.137" height="56.5492" xmlns="http://www.w3.org/2000/svg">
  <defs>
    <linearGradient id="linear-gradient" x1="0.012" x2="0.988" y2="1" gradientUnits="objectBoundingBox" spreadMethod="pad">
      <stop offset="0" stop-color="#9400D3"/>
      <stop offset="1" stop-color="#4B0082"/>
    </linearGradient>
  </defs>
  <g id="Group_39744" data-name="Group 39744" transform="matrix(1, 0, 0, 1, -121.416015625, -1052.9716796875)">
    <g id="Group_39740" data-name="Group 39740" transform="translate(-401 18.664)">
      <path id="Layer" d="M-13.3,867.086l-14.538,8.24a13.172,13.172,0,0,0-6.262,10.7L-34.235,903a10.753,10.753,0,0,0,5.138,8.913l15.859,9.325a10.654,10.654,0,0,0,10.182-.193l16.723-9.479a8.73,8.73,0,0,0,4.079-7.41l.156-19.67a9.6,9.6,0,0,0-4.671-8l-15.1-8.878C-5.375,865.546-10.153,865.3-13.3,867.086Z" transform="translate(605.301 217.804)" fill="url(#linear-gradient)"/>
    </g>
  </g>
  <g id="Group_39753" data-name="Group 39753" transform="matrix(0.12139800935983658, 0, 0, 0.12139800935983658, 58.31640625, 59.85644531249997)" style="">
    <path d="M282.16,114.3C282.16,50,182.63,0.1,93.86,0.1c-56,0-93.77,16.08-93.77,16.08l1.42,6.36 c0,0,24.2-2.34,42.9-2.34c72.02,0,172.48,45.63,172.48,100.67c0,34.97-41.42,53.2-62.68,60.25V60.3 c-26.44-22.15-66.75-22.84-66.75-22.84v212.83c0,34.1-12.4,39.07-18.67,43.35v6.47h104.08v-6.47c-6.25-4.28-18.66-9.25-18.66-43.35 v-50.44C197.42,196.47,282.16,174.35,282.16,114.3z" style="fill: rgb(255, 255, 255);"/>
  </g>
</svg>