<svg width="64" height="64" viewBox="0 0 64 64" fill="none" xmlns="http://www.w3.org/2000/svg">
<g clip-path="url(#clip0_40_26431)">
<path d="M32 64C49.6731 64 64 49.6731 64 32C64 14.3269 49.6731 0 32 0C14.3269 0 0 14.3269 0 32C0 49.6731 14.3269 64 32 64Z" fill="#EA5615"/>
<path d="M40.224 30.8271C41.2425 30.1329 42.0686 29.1921 42.6254 28.0924C43.1821 26.9927 43.4514 25.7699 43.408 24.5381C43.408 19.9071 40.634 16.8201 35.841 15.9651V14.2051H31.011V15.7251H26.69V14.2051H21.861V15.7251H17.902L23.85 23.7371H20.227V40.2641H23.85L17.902 48.2771H21.861V49.7951H26.691V48.2771H31.011V49.7951H35.841V48.2601C41.613 48.0141 46.098 44.6371 46.098 38.7981C46.098 34.2811 43.588 31.9781 40.224 30.8271ZM27.042 21.8811H32.064C34.889 21.8811 36.547 23.2091 36.547 25.4241C36.547 27.5941 34.847 29.0121 32.247 29.0121H27.042V21.8811ZM34.302 42.1201H27.042V34.3701H34.127C37.31 34.3701 39.147 35.7431 39.147 38.2701C39.147 40.7971 37.265 42.1201 34.302 42.1201Z" fill="white"/>
</g>
<defs>
<clipPath id="clip0_40_26431">
<rect width="64" height="64" fill="white"/>
</clipPath>
</defs>
</svg>
