<?xml version="1.0" encoding="UTF-8" standalone="no"?>
<!-- Created with Inkscape (http://www.inkscape.org/) -->
<svg
   xmlns:dc="http://purl.org/dc/elements/1.1/"
   xmlns:cc="http://web.resource.org/cc/"
   xmlns:rdf="http://www.w3.org/1999/02/22-rdf-syntax-ns#"
   xmlns:svg="http://www.w3.org/2000/svg"
   xmlns="http://www.w3.org/2000/svg"
   xmlns:xlink="http://www.w3.org/1999/xlink"
   xmlns:sodipodi="http://sodipodi.sourceforge.net/DTD/sodipodi-0.dtd"
   xmlns:inkscape="http://www.inkscape.org/namespaces/inkscape"
   version="1.0"
   width="250pt"
   height="250pt"
   id="svg636"
   sodipodi:version="0.32"
   inkscape:version="0.44.1"
   sodipodi:docname="Soccerball Brazil.svg"
   sodipodi:docbase="C:\Documents and Settings\Administrator\Desktop">
  <metadata
     id="metadata54">
    <rdf:RDF>
      <cc:Work
         rdf:about="">
        <dc:format>image/svg+xml</dc:format>
        <dc:type
           rdf:resource="http://purl.org/dc/dcmitype/StillImage" />
      </cc:Work>
    </rdf:RDF>
  </metadata>
  <sodipodi:namedview
     inkscape:window-height="699"
     inkscape:window-width="1024"
     inkscape:pageshadow="2"
     inkscape:pageopacity="0.0"
     guidetolerance="10.0"
     gridtolerance="10.0"
     objecttolerance="10.0"
     borderopacity="1.0"
     bordercolor="#666666"
     pagecolor="#ffffff"
     id="base"
     inkscape:zoom="1"
     inkscape:cx="465.25"
     inkscape:cy="65.25"
     inkscape:window-x="86"
     inkscape:window-y="55"
     inkscape:current-layer="svg636" />
  <defs
     id="defs638">
    <linearGradient
       id="linearGradient2807">
      <stop
         style="stop-color:#002;stop-opacity:0;"
         offset="0"
         id="stop2809" />
      <stop
         style="stop-color:#002;stop-opacity:0.38999999;"
         offset="1"
         id="stop2811" />
    </linearGradient>
    <linearGradient
       id="linearGradient684">
      <stop
         style="stop-color:#ffe51a;stop-opacity:1"
         offset="0"
         id="stop685" />
      <stop
         style="stop-color:#e60000;stop-opacity:0"
         offset="1"
         id="stop686" />
    </linearGradient>
    <linearGradient
       id="linearGradient649">
      <stop
         style="stop-color:white;stop-opacity:1"
         offset="0"
         id="stop650" />
      <stop
         style="stop-color:black;stop-opacity:0.47839999"
         offset="1"
         id="stop651" />
    </linearGradient>
    <linearGradient
       x1="0.39680198"
       y1="0.57735848"
       x2="1.0363363"
       y2="-0.29056594"
       id="linearGradient652"
       xlink:href="#linearGradient684"
       gradientUnits="objectBoundingBox"
       spreadMethod="pad" />
    <radialGradient
       cx="314.36707"
       cy="622.33319"
       r="129.41486"
       fx="314.36707"
       fy="622.33319"
       id="radialGradient653"
       xlink:href="#linearGradient649"
       gradientUnits="userSpaceOnUse"
       gradientTransform="matrix(1.199174,0,0,0.833907,115.0647,295.6275)" />
    <radialGradient
       cx="77.703499"
       cy="2006.7791"
       r="25.94915"
       fx="77.703499"
       fy="2006.7791"
       id="radialGradient654"
       xlink:href="#linearGradient649"
       gradientUnits="userSpaceOnUse"
       gradientTransform="matrix(3.005688,0,0,0.332703,115.0647,295.6275)" />
    <radialGradient
       cx="636.95264"
       cy="873.31403"
       r="84.825462"
       fx="636.95264"
       fy="873.31403"
       id="radialGradient875"
       xlink:href="#linearGradient649"
       gradientUnits="userSpaceOnUse"
       gradientTransform="matrix(0.928657,0,0,1.076824,115.0647,295.6275)" />
    <radialGradient
       cx="248.86224"
       cy="353.91174"
       r="82.692696"
       fx="248.86224"
       fy="353.91174"
       id="radialGradient877"
       xlink:href="#linearGradient649"
       gradientUnits="userSpaceOnUse"
       gradientTransform="matrix(0.551858,0,0,1.812061,115.0647,295.6275)" />
    <radialGradient
       cx="0.17181525"
       cy="0.10937142"
       r="1.6589482"
       fx="0.17181525"
       fy="0.10937142"
       id="radialGradient683"
       xlink:href="#linearGradient684" />
    <radialGradient
       id="radialGradient687"
       xlink:href="#linearGradient684" />
    <radialGradient
       cx="254.25938"
       cy="1441.0841"
       r="42.647346"
       fx="254.25938"
       fy="1441.0841"
       id="radialGradient1363"
       xlink:href="#linearGradient649"
       gradientUnits="userSpaceOnUse"
       gradientTransform="matrix(2.012624,0,0,0.496864,115.0647,295.6275)" />
    <radialGradient
       cx="769.30896"
       cy="373.53033"
       r="57.68771"
       fx="769.30896"
       fy="373.53033"
       id="radialGradient1365"
       xlink:href="#linearGradient649"
       gradientUnits="userSpaceOnUse"
       gradientTransform="matrix(0.598213,0,0,1.671646,115.0647,295.6275)" />
    <radialGradient
       cx="310.91577"
       cy="585.31793"
       r="75.703461"
       fx="310.91577"
       fy="585.31793"
       id="radialGradient1367"
       xlink:href="#linearGradient649"
       gradientUnits="userSpaceOnUse"
       gradientTransform="matrix(0.974096,0,0,1.026593,115.0647,295.6275)" />
    <radialGradient
       cx="314.36707"
       cy="622.33319"
       r="129.41486"
       fx="314.36707"
       fy="622.33319"
       id="radialGradient1413"
       xlink:href="#linearGradient649"
       gradientUnits="userSpaceOnUse"
       gradientTransform="matrix(1.199174,0,0,0.833907,104.0303,285.4069)" />
    <radialGradient
       cx="254.25938"
       cy="1441.0841"
       r="42.647346"
       fx="254.25938"
       fy="1441.0841"
       id="radialGradient1415"
       xlink:href="#linearGradient649"
       gradientUnits="userSpaceOnUse"
       gradientTransform="matrix(2.012624,0,0,0.496864,104.0303,285.4069)" />
    <radialGradient
       cx="769.30896"
       cy="373.53033"
       r="57.68771"
       fx="769.30896"
       fy="373.53033"
       id="radialGradient1417"
       xlink:href="#linearGradient649"
       gradientUnits="userSpaceOnUse"
       gradientTransform="matrix(0.598213,0,0,1.671646,104.0303,285.4069)" />
    <radialGradient
       cx="310.91577"
       cy="585.31793"
       r="75.703461"
       fx="310.91577"
       fy="585.31793"
       id="radialGradient1419"
       xlink:href="#linearGradient649"
       gradientUnits="userSpaceOnUse"
       gradientTransform="matrix(0.974096,0,0,1.026593,104.0303,285.4069)" />
    <radialGradient
       cx="77.703499"
       cy="2006.7791"
       r="25.94915"
       fx="77.703499"
       fy="2006.7791"
       id="radialGradient1421"
       xlink:href="#linearGradient649"
       gradientUnits="userSpaceOnUse"
       gradientTransform="matrix(3.005688,0,0,0.332703,104.0303,285.4069)" />
    <radialGradient
       cx="636.95264"
       cy="873.31403"
       r="84.825462"
       fx="636.95264"
       fy="873.31403"
       id="radialGradient1423"
       xlink:href="#linearGradient649"
       gradientUnits="userSpaceOnUse"
       gradientTransform="matrix(0.928657,0,0,1.076824,104.0303,285.4069)" />
    <radialGradient
       cx="248.86224"
       cy="353.91174"
       r="82.692696"
       fx="248.86224"
       fy="353.91174"
       id="radialGradient1425"
       xlink:href="#linearGradient649"
       gradientUnits="userSpaceOnUse"
       gradientTransform="matrix(0.551858,0,0,1.812061,104.0303,285.4069)" />
    <mask
       id="mask2920">
      <path
         d="M 304 156.5 A 149 149 0 1 1  6,156.5 A 149 149 0 1 1  304 156.5 z"
         transform="matrix(0.996644,0,0,0.996644,2.02013,0.525168)"
         style="opacity:1;fill:white;fill-opacity:1;fill-rule:evenodd;stroke:none;stroke-width:1.5050509;stroke-linecap:round;stroke-linejoin:round;stroke-miterlimit:4;stroke-dasharray:none;stroke-dashoffset:0;stroke-opacity:1"
         id="path2918" />
    </mask>
    <radialGradient
       inkscape:collect="always"
       xlink:href="#linearGradient2807"
       id="radialGradient2815"
       cx="105.2298"
       cy="100.92327"
       fx="105.2298"
       fy="100.92327"
       r="149"
       gradientUnits="userSpaceOnUse"
       gradientTransform="matrix(2.573416,0,0,2.573416,-163.9033,-160.6078)" />
  </defs>
  <g
     id="shadow">
    <path
       id="shadow1"
       style="opacity:1;fill:black;fill-opacity:0.17948716;fill-rule:evenodd;stroke:none;stroke-width:1.5050509;stroke-linecap:round;stroke-linejoin:round;stroke-miterlimit:4;stroke-dasharray:none;stroke-dashoffset:0;stroke-opacity:1"
       d="M 304.17319,301.80221 C 304.17319,306.88196 243.79471,310.99991 169.3141,310.99991 C 94.833494,310.99991 34.45502,306.88196 34.45502,301.80221 C 34.45502,296.72245 94.833494,292.6045 169.3141,292.6045 C 243.79471,292.6045 304.17319,296.72245 304.17319,301.80221 z " />
    <path
       id="shadow2"
       style="opacity:1;fill:black;fill-opacity:0.17948716;fill-rule:evenodd;stroke:none;stroke-width:1.5050509;stroke-linecap:round;stroke-linejoin:round;stroke-miterlimit:4;stroke-dasharray:none;stroke-dashoffset:0;stroke-opacity:1"
       d="M 281.85176,301.6118 C 281.85176,305.74511 232.7624,309.09582 172.20762,309.09582 C 111.65284,309.09582 62.563486,305.74511 62.563486,301.6118 C 62.563486,297.47848 111.65284,294.12777 172.20762,294.12777 C 232.7624,294.12777 281.85176,297.47848 281.85176,301.6118 z " />
    <path
       id="shadow3"
       style="opacity:1;fill:black;fill-opacity:0.17948716;fill-rule:evenodd;stroke:none;stroke-width:1.5050509;stroke-linecap:round;stroke-linejoin:round;stroke-miterlimit:4;stroke-dasharray:none;stroke-dashoffset:0;stroke-opacity:1"
       d="M 263.66393,301.38885 C 263.66393,304.41397 224.19808,306.86631 175.5145,306.86631 C 126.83092,306.86631 87.365073,304.41397 87.365073,301.38885 C 87.365073,298.36372 126.83092,295.91138 175.5145,295.91138 C 224.19808,295.91138 263.66393,298.36372 263.66393,301.38885 z " />
  </g>
  <path
     d="M 304.99991,154.49995 C 304.99991,236.51422 238.51421,302.99991 156.49995,302.99991 C 74.485689,302.99991 7.999994,236.51422 7.999994,154.49995 C 7.999994,72.485693 74.485689,5.999998 156.49995,5.999998 C 238.51421,5.999998 304.99991,72.485693 304.99991,154.49995 z "
     style="opacity:1;fill:#00923f;fill-opacity:1;fill-rule:evenodd;stroke:none;stroke-width:1.5050509;stroke-linecap:round;stroke-linejoin:round;stroke-miterlimit:4;stroke-dasharray:none;stroke-dashoffset:0;stroke-opacity:1"
     id="whitefill" />
  <path
     d="M 157.5,73.36145 C 114.83334,90.14645 64.32738,121.5743 32.5,153.18073 C 62.51488,185.18894 115.83334,218.22394 157.5,233 C 200.16666,216.01858 250.27084,182.18894 282.5,153.18073 C 246.86013,123.5743 201.76487,90.74466 157.5,73.36145 z "
     id="path6035"
     style="fill:#f8c300"
     sodipodi:nodetypes="ccccc" />
  <circle
     transform="matrix(3.292487e-3,0,0,3.292487e-3,-7.2164,37.04612)"
     cx="49963"
     cy="35000"
     r="17464"
     id="circle6037"
     sodipodi:cx="49963"
     sodipodi:cy="35000"
     sodipodi:rx="17464"
     sodipodi:ry="17464"
     style="fill:#28166f" />
  <path
     d="M 163.11383,164.68594 L 163.80854,166.44084 L 165.68855,166.55936 L 164.23986,167.76442 L 164.7041,169.59175 L 163.11383,168.58095 L 161.52027,169.59175 L 161.9878,167.76442 L 160.53581,166.55936 L 162.41581,166.44084 L 163.11383,164.68594 z M 206.10052,170.82313 L 206.69318,172.31793 L 208.29661,172.41999 L 207.05865,173.44724 L 207.45704,175.00129 L 206.10052,174.14196 L 204.74073,175.00129 L 205.13912,173.44724 L 203.90445,172.41999 L 205.50788,172.31793 L 206.10052,170.82313 z M 199.94687,175.58736 L 200.64487,177.33897 L 202.52489,177.46078 L 201.07291,178.66254 L 201.54044,180.48988 L 199.94687,179.48237 L 198.35332,180.48988 L 198.82084,178.66254 L 197.36886,177.46078 L 199.25217,177.33897 L 199.94687,175.58736 z M 197.66518,169.42054 L 198.4916,171.4981 L 200.72061,171.64296 L 199.00192,173.06862 L 199.55507,175.23178 L 197.66518,174.0366 L 195.77859,175.23178 L 196.33173,173.06862 L 194.61305,171.64296 L 196.84206,171.4981 L 197.66518,169.42054 z M 197.22399,180.16063 L 197.9187,181.91224 L 199.80201,182.03076 L 198.35003,183.23581 L 198.81754,185.06315 L 197.22399,184.05235 L 195.63042,185.06315 L 196.09796,183.23581 L 194.64596,182.03076 L 196.52599,181.91224 L 197.22399,180.16063 z M 191.84077,182.99217 L 192.43341,184.48366 L 194.03686,184.58902 L 192.80217,185.61299 L 193.20056,187.17034 L 191.84077,186.31099 L 190.48427,187.17034 L 190.88266,185.61299 L 189.64468,184.58902 L 191.24813,184.48366 L 191.84077,182.99217 z M 186.30611,188.13831 L 187.00411,189.88993 L 188.88411,190.01175 L 187.43212,191.2135 L 187.89967,193.04083 L 186.30611,192.03003 L 184.71582,193.04083 L 185.18008,191.2135 L 183.73137,190.01175 L 185.61138,189.88993 L 186.30611,188.13831 z M 186.24025,194.57843 L 186.83291,196.07321 L 188.43634,196.17528 L 187.20166,197.20254 L 187.60006,198.75989 L 186.24025,197.90054 L 184.88375,198.75989 L 185.28214,197.20254 L 184.04417,196.17528 L 185.64761,196.07321 L 186.24025,194.57843 z M 186.15134,182.93619 L 186.744,184.42769 L 188.34744,184.52976 L 187.10947,185.55702 L 187.50787,187.11436 L 186.15134,186.25502 L 184.79155,187.11436 L 185.18995,185.55702 L 183.95198,184.52976 L 185.55871,184.42769 L 186.15134,182.93619 z M 179.36883,184.26965 L 179.96477,185.76444 L 181.56821,185.8665 L 180.33024,186.89377 L 180.72863,188.45112 L 179.36883,187.59176 L 178.01233,188.45112 L 178.41071,186.89377 L 177.17274,185.8665 L 178.77618,185.76444 L 179.36883,184.26965 z M 175.01946,129.08429 L 175.84588,131.16185 L 178.07489,131.30342 L 176.35621,132.72906 L 176.90934,134.89224 L 175.01946,133.69706 L 173.13286,134.89224 L 173.68599,132.72906 L 171.96733,131.30342 L 174.19634,131.16185 L 175.01946,129.08429 z M 174.11074,189.53434 L 174.80544,191.28923 L 176.68874,191.40776 L 175.23676,192.61281 L 175.70429,194.43685 L 174.11074,193.42935 L 172.51717,194.43685 L 172.9847,192.61281 L 171.53272,191.40776 L 173.41272,191.28923 L 174.11074,189.53434 z M 170.91044,146.56081 L 171.50637,148.0523 L 173.10982,148.15766 L 171.87183,149.18162 L 172.27024,150.73898 L 170.91044,149.87962 L 169.55394,150.73898 L 169.95232,149.18162 L 168.71434,148.15766 L 170.31779,148.0523 L 170.91044,146.56081 z M 169.38602,182.82096 L 169.97866,184.31575 L 171.58209,184.41781 L 170.34742,185.44178 L 170.74581,186.99912 L 169.38602,186.13978 L 168.0295,186.99912 L 168.42789,185.44178 L 167.18993,184.41781 L 168.79336,184.31575 L 169.38602,182.82096 z M 157.84256,159.7571 L 158.53728,161.5087 L 160.42058,161.6305 L 158.96859,162.83226 L 159.43613,164.6596 L 157.84256,163.65209 L 156.24899,164.6596 L 156.71654,162.83226 L 155.26454,161.6305 L 157.14455,161.5087 L 157.84256,159.7571 z M 157.50672,176.06807 L 158.32984,178.14562 L 160.56215,178.2872 L 158.84018,179.71285 L 159.39331,181.87931 L 157.50672,180.68413 L 155.62013,181.87931 L 156.17327,179.71285 L 154.45128,178.2872 L 156.6836,178.14562 L 157.50672,176.06807 z M 157.6944,196.8667 L 158.01047,197.66349 L 158.86652,197.71946 L 158.20801,198.26601 L 158.41874,199.09901 L 157.6944,198.63806 L 156.97005,199.09901 L 157.18076,198.26601 L 156.52227,197.71946 L 157.37831,197.66349 L 157.6944,196.8667 z M 154.06278,169.37774 L 154.50727,170.49719 L 155.70573,170.57291 L 154.78055,171.34006 L 155.08017,172.5056 L 154.06278,171.86027 L 153.0487,172.5056 L 153.34503,171.34006 L 152.41983,170.57291 L 153.62159,170.49719 L 154.06278,169.37774 z M 149.86157,165.74612 L 150.45421,167.24091 L 152.05766,167.34299 L 150.81968,168.36694 L 151.21807,169.92429 L 149.86157,169.06496 L 148.50177,169.92429 L 148.90015,168.36694 L 147.66219,167.34299 L 149.26891,167.24091 L 149.86157,165.74612 z M 134.92686,152.01646 L 135.62157,153.77134 L 137.50158,153.88987 L 136.05287,155.09492 L 136.51712,156.92226 L 134.92686,155.91146 L 133.33328,156.92226 L 133.80081,155.09492 L 132.34883,153.88987 L 134.22883,153.77134 L 134.92686,152.01646 z M 133.24439,181.05948 L 134.06751,183.13704 L 136.29982,183.28191 L 134.57785,184.70755 L 135.13099,186.87072 L 133.24439,185.67554 L 131.3545,186.87072 L 131.91093,184.70755 L 130.18896,183.28191 L 132.41797,183.13704 L 133.24439,181.05948 z M 126.92941,169.59505 L 127.62741,171.34665 L 129.50741,171.46845 L 128.05543,172.67021 L 128.52296,174.49755 L 126.92941,173.48675 L 125.33913,174.49755 L 125.80337,172.67021 L 124.35468,171.46845 L 126.23468,171.34665 L 126.92941,169.59505 z M 124.84854,176.0549 L 125.44119,177.54968 L 127.04464,177.65175 L 125.80666,178.67571 L 126.20506,180.23306 L 124.84854,179.37372 L 123.48875,180.23306 L 123.88715,178.67571 L 122.64917,177.65175 L 124.25261,177.54968 L 124.84854,176.0549 z M 120.55844,161.36053 L 121.00293,162.47668 L 122.20138,162.5557 L 121.27621,163.32286 L 121.57582,164.48511 L 120.55844,163.84306 L 119.54436,164.48511 L 119.84067,163.32286 L 118.91549,162.5557 L 120.11724,162.47668 L 120.55844,161.36053 z M 115.28058,163.67845 L 116.1037,165.75599 L 118.33602,165.89757 L 116.61405,167.32322 L 117.16718,169.48968 L 115.28058,168.2945 L 113.39399,169.48968 L 113.94712,167.32322 L 112.22515,165.89757 L 114.45747,165.75599 L 115.28058,163.67845 z M 110.54269,139.75523 L 111.3691,141.8328 L 113.59813,141.97437 L 111.87945,143.40001 L 112.43258,145.56648 L 110.54269,144.3713 L 108.6561,145.56648 L 109.20924,143.40001 L 107.49056,141.97437 L 109.71958,141.8328 L 110.54269,139.75523 z M 109.24546,169.14398 L 109.94346,170.89886 L 111.82347,171.0174 L 110.37149,172.22245 L 110.83902,174.04648 L 109.24546,173.03897 L 107.65188,174.04648 L 108.11943,172.22245 L 106.66743,171.0174 L 108.55073,170.89886 L 109.24546,169.14398 z "
     id="path6039"
     style="fill:white" />
  <path
     d="M 122.95866,134.52019 C 157.16102,134.52019 188.51537,147.10077 212.63941,167.8632 C 213.4362,165.06458 214.02553,162.18036 214.391,159.2303 C 189.37799,138.94198 157.54623,126.75978 122.95866,126.75978 C 116.96304,126.75978 111.04974,127.13513 105.2385,127.84631 C 103.99723,130.49676 102.95023,133.25258 102.11723,136.10057 C 108.9162,135.06015 115.87653,134.52019 122.95866,134.52019 z "
     id="path6041"
     style="fill:white" />
  <path
     d="M 108.16552,131.5339 C 108.21161,132.0969 108.37624,132.52164 108.65281,132.81139 C 108.92937,133.10111 109.29154,133.22623 109.74262,133.19001 C 110.19369,133.1505 110.53612,132.96613 110.76,132.63029 C 110.98719,132.29775 111.07279,131.84997 111.02669,131.28696 C 110.97731,130.72395 110.81269,130.29921 110.53612,130.00946 C 110.25625,129.71974 109.89079,129.59462 109.43642,129.63413 C 108.98535,129.67035 108.64951,129.85802 108.42563,130.19056 C 108.20503,130.51981 108.11614,130.96759 108.16552,131.5339 z M 107.09217,131.62609 C 107.01973,130.79967 107.19094,130.12471 107.59922,129.60121 C 108.00748,129.0777 108.59354,128.78467 109.35739,128.71882 C 110.12125,128.65296 110.75012,128.84393 111.244,129.28842 C 111.73787,129.73619 112.02101,130.37164 112.09015,131.19476 C 112.1626,132.02118 111.99139,132.69614 111.57983,133.21964 C 111.17156,133.74315 110.5822,134.03947 109.82163,134.10532 C 109.05449,134.17118 108.42892,133.98021 107.93504,133.53243 C 107.44446,133.08465 107.16132,132.44921 107.09217,131.62609 z M 115.44192,130.67126 L 116.68318,130.62847 C 116.95316,130.61859 117.14743,130.55931 117.27255,130.44408 C 117.39435,130.33214 117.45034,130.15764 117.44375,129.92386 C 117.43717,129.69998 117.36803,129.53206 117.24291,129.42341 C 117.11449,129.31146 116.93012,129.2588 116.68648,129.26866 L 115.39581,129.31146 L 115.44192,130.67126 z M 114.48379,133.59169 L 114.31259,128.462 L 116.80171,128.37969 C 117.35815,128.35994 117.77628,128.46529 118.05286,128.69577 C 118.33272,128.92624 118.47758,129.28842 118.49405,129.77901 C 118.50393,130.09178 118.44796,130.35519 118.32283,130.56919 C 118.20101,130.78321 118.01663,130.93137 117.77299,131.01697 C 117.99689,131.0894 118.16151,131.20464 118.26029,131.36267 C 118.35906,131.52402 118.42162,131.77425 118.44796,132.11666 L 118.49076,132.72249 C 118.49076,132.72578 118.49076,132.73236 118.49076,132.74223 C 118.50722,133.04844 118.57965,133.23281 118.70807,133.29207 L 118.71136,133.45012 L 117.55568,133.48963 C 117.51619,133.4172 117.48654,133.33159 117.46351,133.22623 C 117.44046,133.12087 117.4207,132.99576 117.41411,132.84759 L 117.38118,132.30762 C 117.35815,131.99156 117.29229,131.77754 117.18035,131.67218 C 117.06841,131.56352 116.87085,131.51415 116.59099,131.52402 L 115.47154,131.56023 L 115.54069,133.55548 L 114.48379,133.59169 z M 122.05652,132.43933 L 122.90269,132.45578 C 123.39326,132.46566 123.75215,132.34385 123.97604,132.09033 C 124.19994,131.84009 124.31845,131.42195 124.32833,130.84906 C 124.33822,130.27286 124.24602,129.85143 124.04518,129.57816 C 123.84433,129.30488 123.52827,129.16331 123.09366,129.15672 L 122.11907,129.13697 L 122.05652,132.43933 z M 121.00293,133.34476 L 121.1017,128.21507 L 123.11012,128.25129 C 123.90032,128.26774 124.48307,128.49163 124.86171,128.92295 C 125.24036,129.35427 125.42144,130.00288 125.40498,130.86881 C 125.3951,131.33635 125.31607,131.7479 125.16793,132.10349 C 125.01648,132.45908 124.80246,132.74223 124.52918,132.95625 C 124.32174,133.11428 124.08799,133.22623 123.82459,133.29207 C 123.56448,133.35794 123.19902,133.38757 122.72819,133.37768 L 121.00293,133.34476 z M 127.51546,133.45999 L 127.79204,128.33689 L 131.51583,128.53774 L 131.46645,129.42671 L 128.78307,129.28183 L 128.7271,130.37493 L 131.17671,130.50664 L 131.13061,131.38244 L 128.6777,131.25074 L 128.60856,132.56774 L 131.41377,132.7192 L 131.36438,133.66742 L 127.51546,133.45999 z M 133.55718,133.81888 L 134.10043,128.71553 L 135.65449,128.88016 L 136.25372,132.87394 L 137.66949,129.09745 L 139.22685,129.26209 L 138.68359,134.36544 L 137.69912,134.26007 L 138.13703,130.14446 L 136.662,134.15142 L 135.58864,134.03618 L 134.97952,129.80864 L 134.53833,133.92424 L 133.55718,133.81888 z M 147.15515,135.57048 L 148.2285,130.55273 L 151.87328,131.33305 L 151.68561,132.20556 L 149.0615,131.64254 L 148.83102,132.71261 L 151.23454,133.22623 L 151.05016,134.08558 L 148.64664,133.56865 L 148.37006,134.8593 L 151.1193,135.44867 L 150.92174,136.37713 L 147.15515,135.57048 z M 160.73664,135.88657 L 161.7244,136.15325 C 161.99109,136.22239 162.1985,136.2191 162.34998,136.14008 C 162.50143,136.05777 162.61337,135.89315 162.67922,135.63964 C 162.74506,135.40585 162.73191,135.2116 162.64628,135.05686 C 162.56068,134.90541 162.39935,134.79675 162.1623,134.73418 L 161.12516,134.45434 L 160.73664,135.88657 z M 160.48972,136.78212 L 160.01559,138.5436 L 158.99493,138.27033 L 160.32839,133.31513 L 162.53435,133.90779 C 163.05456,134.04935 163.41015,134.293 163.6077,134.63213 C 163.80196,134.97455 163.8283,135.40914 163.68671,135.93265 C 163.55174,136.44299 163.31466,136.80188 162.97555,137.00602 C 162.63971,137.21342 162.22485,137.24965 161.74085,137.12124 L 160.48972,136.78212 z M 166.65983,137.58877 L 167.84513,137.95424 C 168.10195,138.03326 168.30937,138.03984 168.46083,137.97071 C 168.61557,137.90486 168.72422,137.75669 168.79336,137.53281 C 168.85921,137.32208 168.84933,137.14099 168.76702,136.99614 C 168.68471,136.84797 168.52339,136.73931 168.29292,136.66688 L 167.05822,136.28824 L 166.65983,137.58877 z M 164.80287,140.03838 L 166.30753,135.13258 L 168.68801,135.86351 C 169.22139,136.02814 169.58356,136.2652 169.77123,136.5714 C 169.9589,136.88089 169.97866,137.26941 169.8338,137.74022 C 169.74161,138.03984 169.60331,138.27033 169.41565,138.43166 C 169.22797,138.59299 169.00738,138.67529 168.75056,138.67529 C 168.93823,138.81688 169.05676,138.97821 169.09957,139.16258 C 169.13907,139.34697 169.11603,139.60377 169.03041,139.93632 L 168.87238,140.52239 C 168.87238,140.52568 168.86909,140.53227 168.86579,140.54214 C 168.78349,140.83518 168.79007,141.03271 168.89215,141.13149 L 168.84604,141.28295 L 167.73977,140.94052 C 167.7266,140.8615 167.72331,140.76932 167.73648,140.66066 C 167.74964,140.55531 167.77269,140.43019 167.81221,140.28862 L 167.95707,139.76839 C 168.03938,139.4622 168.04596,139.23831 167.97684,139.10333 C 167.9044,138.96504 167.73648,138.85309 167.4665,138.77077 L 166.39643,138.44154 L 165.81038,140.34788 L 164.80287,140.03838 z M 172.61594,140.02192 C 172.42169,140.55202 172.39206,141.00638 172.52046,141.3883 C 172.64558,141.76694 172.92214,142.03363 173.34687,142.18839 C 173.7749,142.34313 174.16012,142.32007 174.50582,142.11265 C 174.85155,141.90523 175.12154,141.53647 175.31577,141.00638 C 175.50675,140.47628 175.53967,140.02192 175.41126,139.6433 C 175.27957,139.26137 174.9997,138.99138 174.57168,138.83662 C 174.15024,138.68188 173.76501,138.70822 173.4226,138.91236 C 173.08018,139.11978 172.8102,139.48854 172.61594,140.02192 z M 171.60515,139.64988 C 171.8916,138.87285 172.32949,138.33288 172.91885,138.02996 C 173.51149,137.73035 174.1667,137.7106 174.88775,137.974 C 175.60552,138.23739 176.09611,138.67529 176.35621,139.28769 C 176.61632,139.9034 176.60314,140.5981 176.31669,141.37514 C 176.03355,142.15216 175.59564,142.69213 174.9997,142.99175 C 174.40705,143.29466 173.74856,143.31441 173.03079,143.05101 C 172.30973,142.78761 171.82246,142.34971 171.56564,141.73732 C 171.30882,141.12491 171.32199,140.4269 171.60515,139.64988 z M 181.10068,145.67841 C 180.82412,145.83975 180.55084,145.92864 180.27756,145.94511 C 180.00758,145.96157 179.72113,145.9056 179.42151,145.77718 C 178.76302,145.49404 178.32511,145.03967 178.1111,144.40751 C 177.89708,143.77207 177.94976,143.08394 178.26584,142.33984 C 178.58851,141.58586 179.04946,141.07223 179.6487,140.79566 C 180.24793,140.51579 180.88995,140.52239 181.56821,140.81212 C 182.16085,141.06565 182.58231,141.41135 182.83582,141.85583 C 183.08934,142.29703 183.1453,142.78103 183.00374,143.30783 L 182.0127,142.88639 C 182.05879,142.6164 182.01599,142.37606 181.88429,142.16862 C 181.75589,141.9612 181.54187,141.79657 181.24555,141.66817 C 180.85046,141.50024 180.47841,141.51342 180.1294,141.70767 C 179.78039,141.89865 179.49725,142.25093 179.27994,142.76127 C 179.05934,143.2749 179.00666,143.72597 179.11861,144.11777 C 179.23054,144.50959 179.49066,144.79273 179.89892,144.96724 C 180.20842,145.09565 180.50473,145.11541 180.78789,145.02321 C 181.07434,144.92773 181.30811,144.73348 181.49249,144.44044 L 180.42242,143.98279 L 180.76486,143.17613 L 182.72058,144.00913 L 181.63077,146.5641 L 180.98215,146.28753 L 181.10068,145.67841 z M 185.98014,145.54342 L 187.09301,146.08998 C 187.33664,146.20851 187.53749,146.24473 187.69882,146.20193 C 187.86016,146.15912 187.99185,146.034 188.09721,145.81999 C 188.1927,145.62244 188.21246,145.44465 188.15318,145.28662 C 188.09392,145.12857 187.95234,144.99687 187.73503,144.88822 L 186.57609,144.32191 L 185.98014,145.54342 z M 183.76102,147.67037 L 186.01637,143.06418 L 188.25195,144.15729 C 188.75571,144.40422 189.07508,144.69396 189.21007,145.02649 C 189.34836,145.35905 189.30886,145.74756 189.09155,146.18876 C 188.95327,146.47191 188.77876,146.67603 188.57134,146.80774 C 188.36061,146.93615 188.12685,146.98223 187.87333,146.94273 C 188.03796,147.11394 188.12685,147.28845 188.14332,147.47941 C 188.15318,147.66709 188.09063,147.91731 187.95234,148.23009 L 187.7054,148.78653 C 187.7054,148.78982 187.70211,148.7964 187.69554,148.80299 C 187.56712,149.07955 187.54408,149.27711 187.62968,149.39235 L 187.56054,149.53062 L 186.5201,149.02359 C 186.5201,148.94128 186.53329,148.84908 186.56292,148.74702 C 186.59255,148.64166 186.63535,148.52312 186.6979,148.39143 L 186.9218,147.90085 C 187.05022,147.61111 187.08971,147.39052 187.04362,147.24235 C 186.99423,147.09419 186.84278,146.95919 186.59255,146.83738 L 185.58835,146.3435 L 184.70924,148.13461 L 183.76102,147.67037 z M 189.49653,150.61714 L 191.99222,146.13277 L 195.24851,147.94364 L 194.81389,148.72397 L 192.46635,147.41684 L 191.93625,148.37496 L 194.08295,149.56685 L 193.65493,150.33399 L 191.50824,149.1421 L 190.8662,150.29449 L 193.32569,151.66087 L 192.86474,152.49058 L 189.49653,150.61714 z M 195.288,152.20742 L 196.18027,152.74409 C 196.06834,153.0042 196.05845,153.24455 196.15064,153.45856 C 196.24283,153.67258 196.44366,153.87341 196.75316,154.05779 C 197.01656,154.21913 197.24045,154.29157 197.43142,154.2751 C 197.62238,154.26523 197.77054,154.16644 197.88249,153.98207 C 198.04053,153.71537 197.79029,153.2643 197.1318,152.62886 C 197.12191,152.61898 197.11533,152.61238 197.10875,152.6058 C 197.09228,152.58934 197.06596,152.56301 197.02973,152.53007 C 196.67086,152.19096 196.44039,151.91438 196.33502,151.69708 C 196.23625,151.50612 196.20002,151.2987 196.21979,151.08138 C 196.23954,150.86407 196.31856,150.64349 196.45684,150.41301 C 196.71366,149.98498 197.05608,149.74793 197.48409,149.69196 C 197.91211,149.64257 198.4027,149.78085 198.94925,150.1101 C 199.46288,150.41959 199.79213,150.78506 199.9337,151.19992 C 200.07858,151.61806 200.0226,152.05267 199.77567,152.50373 L 198.90644,151.98023 C 199.01839,151.75635 199.03485,151.54562 198.95255,151.34808 C 198.87353,151.14723 198.69573,150.96285 198.42575,150.80152 C 198.18869,150.65665 197.97797,150.5941 197.79359,150.60727 C 197.60921,150.62373 197.46763,150.71592 197.36227,150.88712 C 197.2207,151.12091 197.36886,151.44356 197.79689,151.8617 C 197.91211,151.97365 198.0043,152.06254 198.06687,152.12511 C 198.34015,152.40168 198.52782,152.60251 198.63646,152.72763 C 198.74182,152.85605 198.82742,152.97456 198.89328,153.0931 C 199.01181,153.30053 199.06778,153.51123 199.0579,153.72854 C 199.04803,153.94914 198.97559,154.17303 198.8373,154.40022 C 198.56074,154.85787 198.19527,155.11798 197.73432,155.18383 C 197.27338,155.24968 196.76304,155.11469 196.20331,154.77555 C 195.65018,154.44302 195.2913,154.0545 195.13326,153.60672 C 194.97523,153.16224 195.02461,152.69471 195.288,152.20742 z M 200.69427,155.58881 L 201.55689,156.17486 C 201.43179,156.42838 201.41204,156.66544 201.49434,156.88603 C 201.57336,157.10334 201.76432,157.31407 202.06394,157.5149 C 202.31747,157.68612 202.53807,157.77172 202.72902,157.76843 C 202.91999,157.76514 203.07474,157.67624 203.19326,157.49845 C 203.36777,157.23833 203.14059,156.77738 202.51501,156.10572 C 202.50843,156.09914 202.49855,156.08926 202.49526,156.08267 C 202.4755,156.0662 202.45247,156.03988 202.41953,156.00036 C 202.08042,155.64477 201.86311,155.35833 201.76761,155.13444 C 201.68201,154.94018 201.65567,154.72947 201.68531,154.51545 C 201.71824,154.29815 201.80714,154.08084 201.95858,153.86025 C 202.23845,153.4454 202.59403,153.22479 203.02205,153.19516 C 203.45338,153.16553 203.93407,153.33015 204.46416,153.68903 C 204.96133,154.02487 205.26754,154.40351 205.38936,154.82824 C 205.51118,155.25297 205.43545,155.68099 205.16218,156.11889 L 204.31929,155.55259 C 204.44442,155.33528 204.47074,155.12457 204.4016,154.92043 C 204.33246,154.71628 204.16455,154.52532 203.90445,154.34754 C 203.67397,154.19278 203.46654,154.11707 203.28215,154.12365 C 203.09778,154.13024 202.94962,154.21584 202.83768,154.38046 C 202.68623,154.60434 202.81463,154.93689 203.21961,155.37479 C 203.33155,155.49332 203.41715,155.58881 203.47642,155.65465 C 203.73322,155.9411 203.91102,156.15511 204.01309,156.28351 C 204.11187,156.41521 204.19089,156.54362 204.25015,156.66215 C 204.35881,156.87616 204.4016,157.09017 204.38185,157.30748 C 204.36211,157.52478 204.27649,157.74538 204.12504,157.96597 C 203.82871,158.40718 203.4468,158.65082 202.98255,158.69031 C 202.51831,158.73312 202.01785,158.5718 201.47458,158.20304 C 200.9412,157.84086 200.60538,157.43259 200.47037,156.98152 C 200.3321,156.52716 200.40782,156.06291 200.69427,155.58881 z M 207.21668,159.04921 C 206.87426,159.50028 206.70964,159.9283 206.72281,160.32669 C 206.73269,160.72836 206.92035,161.0642 207.27925,161.33748 C 207.64143,161.61075 208.02005,161.69964 208.41186,161.60418 C 208.80037,161.5087 209.16584,161.23213 209.50825,160.78105 C 209.84738,160.33326 210.01201,159.90525 209.99884,159.50357 C 209.98238,159.10189 209.7947,158.76276 209.43253,158.48949 C 209.07365,158.21621 208.69831,158.13061 208.30978,158.22938 C 207.92127,158.32487 207.5558,158.59814 207.21668,159.04921 z M 206.35736,158.40059 C 206.8578,157.74209 207.43399,157.35358 208.0859,157.23504 C 208.7411,157.11982 209.37327,157.29431 209.98567,157.75526 C 210.59807,158.2195 210.93719,158.77923 211.00634,159.44429 C 211.07219,160.10609 210.85817,160.76788 210.36101,161.42638 C 209.86055,162.08817 209.28108,162.47668 208.62587,162.58863 C 207.97067,162.70386 207.33521,162.53266 206.72611,162.0717 C 206.1137,161.60746 205.77458,161.04446 205.70873,160.38266 C 205.64287,159.72416 205.85689,159.06236 206.35736,158.40059 z "
     id="path6043"
     style="fill:#00923f" />
  <path
     d="M 304.99991,154.49995 C 304.99991,236.51422 238.51421,302.99991 156.49995,302.99991 C 74.485689,302.99991 7.999994,236.51422 7.999994,154.49995 C 7.999994,72.485693 74.485689,5.999998 156.49995,5.999998 C 238.51421,5.999998 304.99991,72.485693 304.99991,154.49995 z "
     style="opacity:1;fill:url(#radialGradient2815);fill-opacity:1;fill-rule:evenodd;stroke:none;stroke-width:1.5050509;stroke-linecap:round;stroke-linejoin:round;stroke-miterlimit:4;stroke-dasharray:none;stroke-dashoffset:0;stroke-opacity:1"
     id="shading" />
  <g
     mask="url(#mask2920)"
     id="patches"
     transform="translate(0,-2)"
     style="opacity:1">
    <g
       id="g2878">
      <path
         d="M 592.8171,448.4119 C 586.062,437.8911 579.5442,433.0327 566.6813,429.7978"
         transform="matrix(0.650569,0,0,0.650569,-87.30901,-182.4046)"
         style="font-size:12px;fill:none;fill-rule:evenodd;stroke:black;stroke-width:2.30567408;stroke-miterlimit:4;stroke-dasharray:none;stroke-dashoffset:0"
         id="path623" />
      <path
         d="M 50,45.375 L 63.5,59.125"
         transform="translate(1.573495e-5,-2.01112e-6)"
         style="font-size:12px;fill:none;fill-opacity:0.75;fill-rule:evenodd;stroke:black;stroke-width:1.5;stroke-linecap:butt;stroke-linejoin:miter;stroke-miterlimit:4;stroke-dasharray:none;stroke-opacity:1"
         id="path1939" />
      <path
         d="M 48,92 C 17.343031,113.95613 9.8749323,158.5057 11,158.25"
         transform="translate(1.573495e-5,-2.01112e-6)"
         style="font-size:12px;fill:none;fill-opacity:0.75;fill-rule:evenodd;stroke:black;stroke-width:1.5;stroke-linecap:butt;stroke-linejoin:miter;stroke-miterlimit:4;stroke-dasharray:none;stroke-opacity:1"
         id="path1941" />
      <path
         d="M 87,95.25 C 83.838739,118.58707 92.251479,144.16426 109.75,171.5"
         transform="translate(1.573495e-5,-2.01112e-6)"
         style="font-size:12px;fill:none;fill-opacity:0.75;fill-rule:evenodd;stroke:black;stroke-width:1.5;stroke-linecap:butt;stroke-linejoin:miter;stroke-miterlimit:4;stroke-dasharray:none;stroke-opacity:1"
         id="path1943" />
      <path
         d="M 29.125,206.875 C 43.551728,221.29884 62.727088,219.08451 80.75,219.5"
         transform="translate(1.573495e-5,-2.01112e-6)"
         style="font-size:12px;fill:none;fill-opacity:0.75;fill-rule:evenodd;stroke:black;stroke-width:1.5;stroke-linecap:butt;stroke-linejoin:miter;stroke-miterlimit:4;stroke-dasharray:none;stroke-opacity:1"
         id="path1945" />
      <path
         d="M 124.62757,264.85868 C 121.50526,273.11027 122.3124,284.54283 124.09724,296.76687"
         transform="translate(1.573495e-5,-2.01112e-6)"
         style="font-size:12px;fill:none;fill-opacity:0.75;fill-rule:evenodd;stroke:black;stroke-width:1.5;stroke-linecap:butt;stroke-linejoin:miter;stroke-miterlimit:4;stroke-dasharray:none;stroke-opacity:1"
         id="path1947" />
      <path
         d="M 103.06081,28.41985 C 114.53778,16.928747 139.15577,9.5121461 171.29662,6.1459867"
         transform="translate(1.573495e-5,-2.01112e-6)"
         style="font-size:12px;fill:none;fill-opacity:0.75;fill-rule:evenodd;stroke:black;stroke-width:1.5;stroke-linecap:butt;stroke-linejoin:miter;stroke-miterlimit:4;stroke-dasharray:none;stroke-opacity:1"
         id="path1949" />
      <path
         d="M 237.32271,50.074995 C 229.33556,35.199221 215.26475,23.510127 200.375,12.25"
         transform="translate(1.573495e-5,-2.01112e-6)"
         style="font-size:12px;fill:none;fill-opacity:0.75;fill-rule:evenodd;stroke:black;stroke-width:1.5;stroke-linecap:butt;stroke-linejoin:miter;stroke-miterlimit:4;stroke-dasharray:none;stroke-opacity:1"
         id="path1951" />
      <path
         d="M 127.98633,54.052471 C 145.62914,56.03967 177.47341,58.653561 202.76287,72.967578"
         transform="translate(1.573495e-5,-2.01112e-6)"
         style="font-size:12px;fill:none;fill-opacity:0.75;fill-rule:evenodd;stroke:black;stroke-width:1.5;stroke-linecap:butt;stroke-linejoin:miter;stroke-miterlimit:4;stroke-dasharray:none;stroke-opacity:1"
         id="path1953" />
      <path
         d="M 222.5,124 C 207.37759,144.853 189.12214,164.31354 168,182.5"
         style="fill:none;fill-opacity:0.75;fill-rule:evenodd;stroke:black;stroke-width:1.5;stroke-linecap:butt;stroke-linejoin:miter;stroke-miterlimit:4;stroke-dasharray:none;stroke-opacity:1"
         id="path1964" />
      <path
         d="M 177.5,238.25 C 196.85774,249.05051 218.06069,253.69485 243.75,249.5"
         style="fill:none;fill-opacity:0.75;fill-rule:evenodd;stroke:black;stroke-width:1.5;stroke-linecap:butt;stroke-linejoin:miter;stroke-miterlimit:4;stroke-dasharray:none;stroke-opacity:1"
         id="path1966" />
      <path
         d="M 268.5,136.5 C 278.38101,155.05214 279.83112,181.38666 281.25,207.75"
         style="fill:none;fill-opacity:0.75;fill-rule:evenodd;stroke:black;stroke-width:1.5;stroke-linecap:butt;stroke-linejoin:miter;stroke-miterlimit:4;stroke-dasharray:none;stroke-opacity:1"
         id="path1968" />
      <path
         d="M 277.75,96.75 C 285.88915,97.023647 293.7766,101.32442 301.25,112.25"
         style="fill:none;fill-opacity:0.75;fill-rule:evenodd;stroke:black;stroke-width:1.5;stroke-linecap:butt;stroke-linejoin:miter;stroke-miterlimit:4;stroke-dasharray:none;stroke-opacity:1"
         id="path1970" />
    </g>
    <g
       id="g2870">
      <path
         d="M 40.25,98 C 60.903975,101.61865 69.402891,100.15978 86.5,101.75 C 96.606779,88.488277 113.76236,71.702154 131.75,54.5 C 124.32626,42.915274 117.31948,31.058924 108.5,23.75 C 86.109731,31.340533 70.164818,40.68889 55,50.25 C 45.481745,66.824036 40.435292,82.759244 40.25,98 z "
         style="fill:black;fill-opacity:1;fill-rule:evenodd;stroke:none;stroke-width:1px;stroke-linecap:butt;stroke-linejoin:miter;stroke-opacity:1"
         id="path1972" />
      <path
         d="M 198,70.75 C 204.79286,89.419048 210.6345,106.18567 219.25,128.5 C 236.97598,133.18078 255.87577,138.80061 270.5,141 C 275.20076,131.56252 278.31084,113.3763 281.75,97 C 270.06966,78.881835 253.409,63.253834 236.5,47.75 C 224.06436,52.235122 211.09638,60.978984 198,70.75 z "
         style="fill:black;fill-opacity:1;fill-rule:evenodd;stroke:none;stroke-width:1px;stroke-linecap:butt;stroke-linejoin:miter;stroke-opacity:1"
         id="path2860" />
      <path
         d="M 106.75,167 C 129.54472,170.75 151.53732,174.5 173,178.25 C 179.63556,199.08333 180.4943,219.91667 182.75,240.75 C 166.34045,254.38568 143.71147,258.69221 123.75,267 C 100.52365,251.98663 91.0668,235.25207 77.75,219 C 85.396852,201.41419 93.83235,183.92696 106.75,167 z "
         style="fill:black;fill-opacity:1;fill-rule:evenodd;stroke:none;stroke-width:1px;stroke-linecap:butt;stroke-linejoin:miter;stroke-opacity:1"
         id="path2862" />
      <path
         d="M 1.0606602,148.80478 C 1.092887,149.85255 9.1074446,151.03079 12.020815,149.86544 C 15.367163,171.28334 19.749509,192.01057 31.466252,207.8482 C 29.172257,219.07147 31.331804,228.06796 34.648232,236.48602 C 14.329863,242.18069 16.096074,245.25998 8.131728,248.86039"
         style="fill:black;fill-opacity:1;fill-rule:evenodd;stroke:none;stroke-width:1px;stroke-linecap:butt;stroke-linejoin:miter;stroke-opacity:1"
         id="path2864" />
      <path
         d="M 75.660426,284.39251 C 94.971098,289.50503 109.03904,299.42925 123.92046,294.292 C 128.29729,300.49191 140.40684,304.97555 172.00372,306.31282 L 86.090251,313.91421"
         style="fill:black;fill-opacity:1;fill-rule:evenodd;stroke:none;stroke-width:1px;stroke-linecap:butt;stroke-linejoin:miter;stroke-opacity:1"
         id="path2866" />
      <path
         d="M 299.625,212.625 C 293.98764,208.47069 288.15579,204.51087 280.875,202 C 266.375,221.3174 251.875,243.30773 237.375,250.25 C 237.10774,262.15911 235.25184,272.79731 230,280.71875 C 240.95118,281.45727 252.38887,281.41739 265,279.5"
         style="fill:black;fill-opacity:1;fill-rule:evenodd;stroke:none;stroke-width:1px;stroke-linecap:butt;stroke-linejoin:miter;stroke-opacity:1"
         id="path2868" />
    </g>
  </g>
  <path
     d="M 304.99991,154.49995 C 304.99991,236.51422 238.51421,302.99991 156.49995,302.99991 C 74.485689,302.99991 7.999994,236.51422 7.999994,154.49995 C 7.999994,72.485693 74.485689,5.999998 156.49995,5.999998 C 238.51421,5.999998 304.99991,72.485693 304.99991,154.49995 z "
     style="opacity:1;fill:none;fill-opacity:1;fill-rule:evenodd;stroke:black;stroke-width:1.5;stroke-linecap:round;stroke-linejoin:round;stroke-miterlimit:4;stroke-dasharray:none;stroke-dashoffset:0;stroke-opacity:1"
     id="outline" />
</svg>
