<?xml version="1.0" encoding="iso-8859-1"?>
<!-- Uploaded to: SVG Repo, www.svgrepo.com, Generator: SVG Repo Mixer Tools -->
<svg height="800px" width="800px" version="1.1" id="Layer_1" xmlns="http://www.w3.org/2000/svg" xmlns:xlink="http://www.w3.org/1999/xlink" 
	 viewBox="0 0 512 512" xml:space="preserve">
<g transform="translate(1 1)">
	<path style="fill:#E2E3E5;" d="M456.461,110.304H332.913v111.304h123.548c30.052,0,54.539-25.6,54.539-55.652
		S486.513,110.304,456.461,110.304"/>
	<path style="fill:#FFFFFF;" d="M64.67,221.609h123.548V110.304H64.67c-30.052,0-54.539,25.6-54.539,55.652
		S34.617,221.609,64.67,221.609"/>
	<path style="fill:#CCCCCC;" d="M423.07,110.304H299.522v111.304H423.07c30.052,0,54.539-25.6,54.539-55.652
		S453.122,110.304,423.07,110.304"/>
	<g>
		<path style="fill:#E2E3E5;" d="M389.678,110.304H266.13h-44.522H98.061c-30.052,0-54.539,25.6-54.539,55.652
			s24.487,55.652,54.539,55.652h123.548h44.522h123.548c30.052,0,54.539-25.6,54.539-55.652S419.73,110.304,389.678,110.304"/>
		<path style="fill:#E2E3E5;" d="M456.461,288.391H332.913v111.304h123.548c30.052,0,54.539-25.6,54.539-55.652
			S486.513,288.391,456.461,288.391"/>
	</g>
	<path style="fill:#FFFFFF;" d="M64.67,399.696h123.548V288.391H64.67c-30.052,0-54.539,25.6-54.539,55.652
		S34.617,399.696,64.67,399.696"/>
	<path style="fill:#CCCCCC;" d="M423.07,288.391H299.522v111.304H423.07c30.052,0,54.539-25.6,54.539-55.652
		S453.122,288.391,423.07,288.391"/>
	<path style="fill:#E2E3E5;" d="M389.678,288.391H266.13h-44.522H98.061c-30.052,0-54.539,25.6-54.539,55.652
		s24.487,55.652,54.539,55.652h123.548h44.522h123.548c30.052,0,54.539-25.6,54.539-55.652S419.73,288.391,389.678,288.391"/>
	<g>
		<path style="fill:#B6B6B6;" d="M423.07,232.739H64.67C29.052,232.739-1,202.687-1,165.957s30.052-66.783,65.67-66.783h357.287
			c36.73,0,66.783,30.052,66.783,66.783S458.687,232.739,423.07,232.739z M64.67,121.435c-23.374,0-43.409,20.035-43.409,44.522
			s20.035,44.522,43.409,44.522h357.287c24.487,0,44.522-20.035,44.522-44.522s-20.035-44.522-43.409-44.522H64.67z"/>
		<path style="fill:#B6B6B6;" d="M423.07,410.826H64.67C29.052,410.826-1,380.774-1,344.043s30.052-66.783,65.67-66.783h357.287
			c36.73,0,65.67,30.052,65.67,66.783S458.687,410.826,423.07,410.826z M64.67,299.522c-23.374,0-43.409,20.035-43.409,44.522
			s20.035,44.522,43.409,44.522h357.287c23.374,0,43.409-20.035,43.409-44.522s-20.035-44.522-43.409-44.522H64.67z"/>
	</g>
</g>
</svg>