<svg clip-rule="evenodd" fill-rule="evenodd" height="316.227766" image-rendering="optimizeQuality" shape-rendering="geometricPrecision" text-rendering="geometricPrecision" viewBox="0 0 1607 1607" width="316.227766" xmlns="http://www.w3.org/2000/svg"><path d="m777.5 19.5c227.9-3.7313 422.4 73.9354 583.5 233 157.42 164.008 232.09 360.341 224 589-10.37 184.29-76.03 345.29-197 483-167.86 181.46-376.03 268.29-624.5 260.5-215.152-13.34-395.652-98.51-541.5-255.5-144.1696-163.47-211.1696-354.806-201-574 17.9595-235.292 118.46-426.125 301.5-572.5 134.136-102.1102 285.803-156.6102 455-163.5z" fill="#1e1e1c" opacity=".953"/><path d="m1046.5 1525.5c-4.66.56-9 1.89-13 4-202.359 60.36-397.692 43.19-586-51.5-152.827-83.15-265.994-203.32-339.5-360.5-39.6196-89.48-61.7862-183.148-66.5-281-.7164-18.991-1.0498-37.991-1-57 14.6564-260.893 128.656-465.393 342-613.5 180.705-114.7994 376.372-150.466 587-107 206.55 49.261 367.05 163.094 481.5 341.5 74.58 122.621 112.42 255.954 113.5 400-3.95 246.04-100.61 446.54-290 601.5-68.89 53.84-144.89 95-228 123.5z" fill="#fdfdfd"/><path d="m850.5 92.5c2.814-.6647 5.814-.998 9-1 5.245-.1083 10.245.5583 15 2-7.983-.6655-15.983-.9988-24-1z" fill="#acacab"/><path d="m850.5 92.5c8.017.0012 16.017.3345 24 1 13.175 2.6494 24.341 8.983 33.5 19 4.772 8.358 6.939 17.358 6.5 27-6 0-12 0-18 0-.524-20.023-10.857-30.19-31-30.5-8.799-1.445-17.132-.111-25 4-2.947 2.436-5.28 5.269-7 8.5-1.491 2.686-2.157 5.686-2 9 .005 2.196.338 4.196 1 6 2.153 4.317 5.486 7.484 10 9.5 13.454 5.263 27.121 9.929 41 14 25.931 8.695 34.765 26.195 26.5 52.5-4.298 10.296-11.798 17.129-22.5 20.5-23.066 7.252-45.066 4.918-66-7-9.304-7.788-14.97-17.622-17-29.5 0-4 0-8 0-12h4c4.369-.033 8.702.3 13 1-1.153 11.719 2.847 21.219 12 28.5 17.038 9.123 34.371 9.789 52 2 10.013-9.298 11.513-19.798 4.5-31.5-4.258-2.88-8.758-5.38-13.5-7.5-17.497-5.164-34.497-11.497-51-19-5.576-4.344-9.243-9.844-11-16.5-.123-7.029.21-14.029 1-21 3.069-10.259 9.403-18.093 19-23.5 5.456-1.5268 10.789-3.0268 16-4.5z" fill="#20201e"/><path d="m598.5 210.5c.09-2.652-.576-4.985-2-7-1.727-6.22-3.394-12.553-5-19 .09-2.652-.576-4.985-2-7-3.954-16.226-7.954-32.559-12-49 31.522-7.819 63.022-16.153 94.5-25 .945.405 1.612 1.072 2 2 1.012 4.383 2.179 8.716 3.5 13-26.223 7.472-52.556 14.472-79 21 2.888 13.886 6.555 27.552 11 41 24-6.667 48-13.333 72-20 2.126 4.834 3.793 9.834 5 15-23.906 6.977-47.906 13.643-72 20-.333.667-.667 1.333-1 2 3.829 14.316 7.496 28.649 11 43 27.404-6.684 54.737-13.684 82-21 .863 5.117 2.196 10.117 4 15-32.557 9.307-65.224 18.307-98 27-5.445-16.779-10.112-33.779-14-51z" fill="#1f1f1d"/><path d="m963.5 110.5c20.831 6.665 41.83 12.832 63 18.5 24.83 12.163 31.67 30.997 20.5 56.5-9.36 17.761-23.86 24.261-43.5 19.5-14.702-4.401-29.369-8.901-44-13.5-6.317 17.785-12.15 35.785-17.5 54-6.322-.121-12.489-1.621-18.5-4.5 13.564-43.421 26.897-86.921 40-130.5z" fill="#1f1f1d"/><path d="m833.5 121.5c-.754 4.963-1.087 9.963-1 15-.662-1.804-.995-3.804-1-6-.157-3.314.509-6.314 2-9z" fill="#aeaeae"/><path d="m815.5 120.5c-.79 6.971-1.123 13.971-1 21-.665-2.814-.998-5.814-1-9-.222-4.297.445-8.297 2-12z" fill="#6e6e6d"/><path d="m977.5 130.5c13.346 4.059 26.68 8.226 40 12.5 17.05 8.169 20.88 20.669 11.5 37.5-4.64 5.946-10.81 8.946-18.5 9-16.066-3.468-31.733-8.135-47-14 4.677-15.028 9.343-30.028 14-45z" fill="#fbfbfb"/><path d="m519.5 156.5c-5.322.48-10.655.813-16 1 5.255-2.024 10.589-2.357 16-1z" fill="#60605e"/><path d="m519.5 156.5c7.069.578 13.736 2.578 20 6 6.349 4.685 12.016 10.018 17 16-4.947 3.057-10.114 5.724-15.5 8-2.784-1.78-5.284-3.947-7.5-6.5-11.232-8.19-23.232-9.523-36-4-22.386 9.605-31.553 26.438-27.5 50.5 4.151 21.835 14.985 39.335 32.5 52.5 21.394 9.195 39.894 5.029 55.5-12.5 2.072-3.471 3.572-7.138 4.5-11 2.05-5.59 2.383-11.256 1-17-.094-3.636-.761-7.136-2-10.5 5.175-3.088 10.508-5.921 16-8.5 8.41 25.525 3.077 47.692-16 66.5-3.748 2.624-7.581 5.124-11.5 7.5-1.318 2.906-1.652 5.906-1 9 8.923-6.067 16.923-5.067 24 3 2.761 8.738.928 16.238-5.5 22.5-4.949 4.141-10.616 6.641-17 7.5-2.779-.221-5.446.112-8 1 0-2.667 0-5.333 0-8 1.915.284 3.581-.049 5-1 6.632-.822 11.298-4.322 14-10.5-1.146-4.637-4.146-6.804-9-6.5-1.667.167-3.333.333-5 .5-1.554 1.892-3.388 3.392-5.5 4.5-1.882-.188-3.048-1.188-3.5-3 1.271-4.615 1.771-9.281 1.5-14-17.748 6.639-34.581 4.805-50.5-5.5-32.138-25.744-43.638-58.578-34.5-98.5 9.942-20.398 26.108-32.732 48.5-37 5.345-.187 10.678-.52 16-1z" fill="#20201e"/><path d="m1111.5 171.5c33.22-1.311 58.06 12.356 74.5 41 6.39 17.902 5.73 35.568-2 53-9.95 23.613-26.78 40.113-50.5 49.5-30.05 5.65-54.55-3.516-73.5-27.5-10.11-14.463-13.44-30.463-10-48 6.26-27.367 21.43-48.2 45.5-62.5 5.35-2.17 10.68-4.003 16-5.5z" fill="#20201e"/><path d="m589.5 177.5c1.424 2.015 2.09 4.348 2 7-1.663-1.938-2.329-4.272-2-7z" fill="#939393"/><path d="m808.5 184.5c-1.333 0-2.667 0-4 0v12c-.985-4.134-1.318-8.468-1-13 1.915-.284 3.581.049 5 1z" fill="#8f8f8e"/><path d="m1068.5 262.5c-.18-8.082.48-16.082 2-24 5.78-20.723 18.11-36.223 37-46.5 25.54-6.474 45.38 1.359 59.5 23.5 5.88 13.633 5.88 27.299 0 41-8.07 19.407-21.57 33.573-40.5 42.5-25.34 3.414-44.17-6.086-56.5-28.5-1.08-2.563-1.58-5.229-1.5-8z" fill="#fdfdfc"/><path d="m596.5 203.5c1.424 2.015 2.09 4.348 2 7-1.663-1.938-2.329-4.272-2-7z" fill="#939392"/><path d="m392.5 219.5c29.853 34.698 58.853 70.198 87 106.5-4.789 3.786-9.289 7.953-13.5 12.5-13.289-16.957-26.955-33.624-41-50-18.474 14.483-36.641 29.316-54.5 44.5 13.116 16.391 26.116 32.891 39 49.5-4.051 4.218-8.551 7.885-13.5 11-3.207-2.701-6.207-5.701-9-9-25.454-32.456-51.287-64.622-77.5-96.5 4.664-4.462 9.664-8.128 15-11 11.508 14.337 23.174 28.504 35 42.5 18.7-14.354 37.033-29.187 55-44.5-11.856-14.355-23.523-28.855-35-43.5 4.354-4.022 8.687-8.022 13-12z" fill="#20201e"/><path d="m563.5 238.5c1.383 5.744 1.05 11.41-1 17 .634-5.645.968-11.311 1-17z" fill="#828281"/><path d="m1269.5 365.5c.15 4.714-.19 9.381-1 14-7.67 10.628-15.83 20.961-24.5 31-2.76 4.205-4.26 8.872-4.5 14-6.36-4.362-11.7-9.696-16-16 .86-3.027 2.36-5.694 4.5-8 7.33-8.667 14.67-17.333 22-26 3.8-7.451 3.13-14.451-2-21-12.68-12.183-25.52-24.183-38.5-36-12.88 13.887-25.88 27.72-39 41.5-5.58-2.383-10.25-6.217-14-11.5 31.03-33.359 62.03-66.693 93-100 16.96 16.127 34.13 32.127 51.5 48 20.01 24.311 16.84 45.145-9.5 62.5-7.96 2.125-15.96 2.959-24 2.5.67 1.695 1.34 3.362 2 5z" fill="#1f1f1d"/><path d="m1070.5 238.5c-1.52 7.918-2.18 15.918-2 24-1.66-8.173-.99-16.173 2-24z" fill="#a7a7a6"/><path d="m1250.5 272.5c2.28.108 4.28.941 6 2.5 12.19 11.192 24.02 22.692 35.5 34.5 6.19 14.093 2.69 25.259-10.5 33.5-9.55 4.223-18.22 2.89-26-4-11.84-11.012-23.51-22.179-35-33.5 10.02-11.02 20.02-22.02 30-33z" fill="#fbfbfb"/><path d="m1316.5 779.5c-.04 19.673-.37 39.34-1 59-10.27 121.826-56.44 227.49-138.5 317-84.57 86.87-187.07 139.2-307.5 157-6.537.09-12.87.75-19 2-4.202-.32-8.202.02-12 1-18.661.6-37.327.93-56 1-5.297-.77-10.63-1.11-16-1-7.146-1.12-14.48-1.78-22-2-161.327-22.05-286.827-100.72-376.5-236-84.096-140.614-100.763-288.948-50-445 47.527-129.852 132.693-226.686 255.5-290.5 131.904-62.008 266.904-69.342 405-22 136.25 51.919 234.75 144.086 295.5 276.5 24.7 58.681 38.87 119.681 42.5 183z" fill="#1f1e1c"/><path d="m382.5 588.5c-9.727.639-19.06-.028-28-2 60.334-120.837 153.667-205.004 280-252.5 48.663-16.5 98.663-26 150-28.5 1.333.333 2.667.667 4 1-62.601 78.4-134.601 146.566-216 204.5-42.442 29.553-88.442 52.22-138 68-17.01 5.001-34.343 8.168-52 9.5z" fill="#b90c2e"/><path d="m1250.5 585.5v3c-9.33 0-18.67 0-28 0-32.4-3.436-63.74-11.602-94-24.5-36.88-16.096-71.54-35.762-104-59-78.019-57.014-147.353-123.348-208-199 144.24 5.378 264.41 61.545 360.5 168.5 29.49 33.625 53.99 70.625 73.5 111z" fill="#b90c2e"/><path d="m1166.5 588.5c-242 1.333-484 1.333-726 0 45.293-14.811 87.959-35.311 128-61.5 72.502-50.142 138.002-108.642 196.5-175.5 12.51-15.04 25.01-30.04 37.5-45 56.527 69.694 119.86 132.527 190 188.5 39.7 30.779 82.54 56.612 128.5 77.5 15.32 5.271 30.49 10.604 45.5 16z" fill="#002c70"/><path d="m547.5 327.5c-1.419.951-3.085 1.284-5 1v8c-.977-2.787-1.31-5.787-1-9z" fill="#838382"/><path d="m550.5 335.5c-2.184.766-4.518 1.433-7 2-.607-.124-.94-.457-1-1 2.554-.888 5.221-1.221 8-1z" fill="#7e7e7d"/><path d="m252.5 352.5c7.474 2.655 15.14 4.822 23 6.5 38.136 13.657 76.469 26.823 115 39.5-1.965 3.897-4.465 7.563-7.5 11-1.765 2.274-3.932 3.941-6.5 5-12.667-4.667-25.333-9.333-38-14-12.005 13.177-23.505 26.844-34.5 41 6.792 13.061 14.292 25.894 22.5 38.5-4.137 4.808-8.304 9.641-12.5 14.5-24.333-41.333-48.667-82.667-73-124-.667-1.333-.667-2.667 0-4 4.046-4.54 7.879-9.207 11.5-14z" fill="#20201e"/><path d="m1269.5 365.5c1.15 4.146 1.31 8.48.5 13-.38.556-.88.889-1.5 1 .81-4.619 1.15-9.286 1-14z" fill="#8c8c8b"/><path d="m262.5 373.5c19.566 7.283 39.232 14.283 59 21-8.195 11.711-17.028 23.045-26.5 34-11.087-18.238-21.921-36.571-32.5-55z" fill="#f8f8f7"/><path d="m1414.5 435.5c2.97 5.271 5.97 10.604 9 16-19.17 10.754-38.51 21.254-58 31.5 29.16 9.718 58.49 19.051 88 28 .92.374 1.75.874 2.5 1.5 3.25 6.824 6.75 13.491 10.5 20-.5.333-1 .667-1.5 1-24.4-7.799-48.73-15.799-73-24-15.67 29.335-30.84 59.002-45.5 89-4.91-6.82-8.41-14.153-10.5-22 12.37-24.245 24.87-48.412 37.5-72.5-9.37-3.566-18.87-6.733-28.5-9.5-14.5 6.667-28.67 14-42.5 22-3.31-4.819-5.98-9.985-8-15.5.77-1.221 1.77-2.221 3-3 39.38-20.353 78.38-41.186 117-62.5z" fill="#1f1f1d"/><path d="m198.5 451.5c22.09.272 34.59 11.272 37.5 33 15.393-13.753 31.56-14.586 48.5-2.5 13.062 11.861 17.229 26.361 12.5 43.5-9.205 21.578-19.371 42.744-30.5 63.5-1 .667-2 .667-3 0-40.214-19.813-80.548-39.479-121-59 10.101-21.035 20.601-41.869 31.5-62.5 6.015-8.75 14.182-14.083 24.5-16z" fill="#20201e"/><path d="m198.5 470.5c21.586 2.167 28.753 13.5 21.5 34-5.545 11.767-11.545 23.1-18 34-11.962-5.377-23.796-11.044-35.5-17-.333-.667-.667-1.333-1-2 6.584-15.673 14.584-30.507 24-44.5 2.824-2.079 5.824-3.579 9-4.5z" fill="#fbfbfb"/><path d="m252.5 491.5c13.294-1.273 22.794 4.06 28.5 16 1.836 7.182 1.169 14.182-2 21-6.272 12.211-12.272 24.544-18 37-.561.522-1.228.855-2 1-13.106-6.47-26.272-12.803-39.5-19-.915-.828-1.581-1.828-2-3 5.894-12.789 12.061-25.456 18.5-38 3.822-6.996 9.322-11.996 16.5-15z" fill="#fbfbfb"/><path d="m1477.5 571.5c2.28.256 3.44 1.59 3.5 4 1.01 4.383 2.18 8.716 3.5 13-28.41 8.107-57.08 15.94-86 23.5-27.77 10.65-34.61 29.15-20.5 55.5 10.05 13.349 23.22 17.516 39.5 12.5 28.56-8.022 57.23-15.522 86-22.5.45 5.586 1.45 11.086 3 16.5-.14.772-.48 1.439-1 2-27.62 7.489-55.29 14.823-83 22-39.46 7.55-61.96-8.617-67.5-48.5-2.89-21.056 4.61-37.222 22.5-48.5 7.91-3.33 15.91-6.496 24-9.5 25.69-5.859 51.02-12.526 76-20z" fill="#1f1f1d"/><path d="m142.5 577.5c5.819-1.153 11.819-1.319 18-.5 2.352.24 4.352 1.073 6 2.5-7.887-1.719-15.887-2.386-24-2z" fill="#7d7d7c"/><path d="m142.5 577.5c8.113-.386 16.113.281 24 2 12.113 4.117 19.779 12.451 23 25 2.817-2.317 5.484-4.817 8-7.5 1.525-1.009 3.192-1.509 5-1.5 7.748-.148 15.415.519 23 2 7.792 1.573 15.625 2.906 23.5 4 3.527-.022 6.694-1.022 9.5-3 1.381.5 2.047 1.5 2 3-1.357 6.094-3.023 12.094-5 18-2 .333-4 .667-6 1-9.694-1.539-19.36-3.206-29-5-2.882-1.413-6.049-2.079-9.5-2-2.033.006-3.866.339-5.5 1-6.219 1.717-10.386 5.717-12.5 12-5.127 16.511-9.627 33.178-13.5 50 19.25 4.395 38.25 9.562 57 15.5-1.598 5.886-3.431 11.72-5.5 17.5-43.406-12.06-86.906-23.894-130.5-35.5-.457-.414-.7907-.914-1-1.5 5.472-18.89 10.472-37.89 15-57 1.663-1.938 2.329-4.272 2-7 2.934-11.684 9.267-21.184 19-28.5 2.604-.39 4.938-1.224 7-2.5z" fill="#1f1f1d"/><path d="m354.5 586.5c8.94 1.972 18.273 2.639 28 2-8.812 1.189-17.812 1.855-27 2v18c-.827-5.151-1.327-10.484-1.5-16-.77-1.098-1.603-1.098-2.5 0 .492-2.319 1.492-4.319 3-6z" fill="#611723"/><path d="m440.5 588.5c242 1.333 484 1.333 726 0 1.48-.262 2.81.071 4 1-244.667 1.333-489.333 1.333-734 0 1.189-.929 2.522-1.262 4-1z" fill="#102340"/><path d="m355.5 608.5c3.442 56.307 13.275 111.641 29.5 166 36.448 117.891 90.114 226.89 161 327 32.283 45.23 66.949 88.56 104 130 19.812 20.48 40.312 40.31 61.5 59.5-75.529-12.83-143.862-42.17-205-88-130.465-101.32-197.465-234.989-201-401 .478-73.234 15.811-143.067 46-209.5.897-1.098 1.73-1.098 2.5 0 .173 5.516.673 10.849 1.5 16z" fill="#b90c2e"/><path d="m202.5 595.5c7.829-1.559 15.496-.893 23 2-7.585-1.481-15.252-2.148-23-2z" fill="#7f7f7e"/><path d="m1250.5 585.5c1.37 1.75 2.37 3.75 3 6-.74 9.689-1.74 19.356-3 29 .56-9.991.89-19.991 1-30-9.86.032-19.53-.635-29-2h28c0-1 0-2 0-3z" fill="#631623"/><path d="m1253.5 591.5c15.76 32.431 27.26 66.431 34.5 102 4.49 21.317 7.99 42.651 10.5 64 .82 24.658 1.15 49.324 1 74-.99 4.805-1.32 9.805-1 15-1.31 5.788-1.98 11.788-2 18-16.91 122.665-70.91 225.83-162 309.5-68.6 60.85-148.099 100.01-238.5 117.5-.5-.33-1-.67-1.5-1 57.055-51.02 107.56-107.36 151.5-169 58.56-79.75 106.9-165.749 145-258 26.78-66.451 45.45-135.118 56-206 1.83-12.277 2.99-24.61 3.5-37 1.26-9.644 2.26-19.311 3-29z" fill="#b90c2e"/><path d="m146.5 595.5c11.571-1.316 21.071 2.351 28.5 11 2.901 6.874 3.234 13.874 1 21-3.838 14.686-7.671 29.352-11.5 44-14.995-3.457-29.829-7.457-44.5-12 3.213-17.182 7.546-34.182 13-51 3.101-5.937 7.601-10.27 13.5-13z" fill="#fbfbfb"/><path d="m1240.5 606.5c0-1.667 0-3.333 0-5-291.333 0-582.667 0-874 0v6c-.968-2.107-1.302-4.441-1-7h876c.29 2.235-.04 4.235-1 6z" fill="#9b900b"/><path d="m1240.5 606.5c-8.15 85.613-27.49 168.613-58 249-38.67 0-77.33 0-116 0 .29-2.235-.04-4.235-1-6-4.18-8.007-10.51-13.84-19-17.5-7.77-1.537-13.93.963-18.5 7.5-3.77 5.227-7.27 10.561-10.5 16-51.503.332-102.836-.001-154-1 4.46-8.394 8.127-17.061 11-26 1.522-5.248 2.189-10.748 2-16.5.219-5.432-.448-10.599-2-15.5-3.367-10.734-8.367-20.734-15-30 12.654-16.993 13.154-34.326 1.5-52-4.401-5.903-9.568-10.903-15.5-15 .166-6.009-.001-12.009-.5-18-.279-2.957-1.113-5.623-2.5-8-2.506-10.173-7.506-19.006-15-26.5-1.245-.791-2.578-1.291-4-1.5-4.315-2.561-8.648-2.561-13 0-5.448 1.934-9.948 5.267-13.5 10-6.756 13.18-13.256 26.513-19.5 40-18.847 13.188-26.18 31.188-22 54 .499 6.99.832 13.99 1 21-1.302 5.255-4.136 9.588-8.5 13-5.105 6.981-7.605 14.815-7.5 23.5 1.536 16.557 6.869 31.724 16 45.5-.086.996.248 1.829 1 2.5-23.167.167-46.333.333-69.5.5-23.715-.01-47.215-.677-70.5-2-4.495-7.493-10.828-12.826-19-16-1.49-1.78-3.49-2.446-6-2-4.421-1.412-9.088-2.079-14-2-2.855.003-5.522.336-8 1-2.846.052-5.18 1.052-7 3-2.216.703-4.049 2.036-5.5 4-1.047 3.359-2.547 6.359-4.5 9-.951 1.419-1.284 3.085-1 5-42.667 0-85.333 0-128 0-18.035-46.805-32.035-94.805-42-144 .08-3.281-.587-6.281-2-9-.951-1.419-1.284-3.085-1-5 .07-3.925-.597-7.591-2-11-3.286-14.051-5.619-28.385-7-43 .056-5.231-.611-10.231-2-15 .042-7.211-.625-14.211-2-21 0-2 0-4 0-6h874z" fill="#fdec01"/><path d="m366.5 607.5c1.375 6.789 2.042 13.789 2 21-1.483-6.779-2.15-13.779-2-21z" fill="#978d0d"/><path d="m205.5 614.5c1.634-.661 3.467-.994 5.5-1 3.451-.079 6.618.587 9.5 2-4.973-.664-9.973-.997-15-1z" fill="#a3a3a2"/><path d="m116.5 608.5c.329 2.728-.337 5.062-2 7-.09-2.652.576-4.985 2-7z" fill="#7b7b79"/><path d="m368.5 628.5c1.389 4.769 2.056 9.769 2 15-1.531-4.75-2.198-9.75-2-15z" fill="#988e0d"/><path d="m823.5 645.5c-4.333 0-8.667 0-13 0 4.352-2.561 8.685-2.561 13 0z" fill="#4a4618"/><path d="m812.5 649.5c6.592-.86 12.092 1.14 16.5 6 8.173 14.184 11.34 29.351 9.5 45.5 10.356 6.684 18.189 15.517 23.5 26.5 4.154 14.719.987 27.719-9.5 39 18.39 21.46 22.557 45.46 12.5 72-6.004 12.686-13.504 24.353-22.5 35 18.073 31.366 13.573 59.032-13.5 83-8.892 14.78-11.725 30.78-8.5 48 10.849 3.38 21.182 2.22 31-3.5 8.301-7.48 16.967-14.48 26-21 24.331-15.834 48.998-31.168 74-46 2.672-7.685 5.172-15.518 7.5-23.5 3.166-10.528 9.333-18.695 18.5-24.5 7.979-1.094 15.979-2.094 24-3 6.3-1.963 11.13-5.797 14.5-11.5 3.7-8.129 7.7-16.129 12-24 3.17-3.167 6.33-6.333 9.5-9.5 2.25-1.15 4.59-1.484 7-1 5.28 2.888 10.11 6.388 14.5 10.5.89 6.172.23 12.172-2 18-9.34 15.358-14.67 32.025-16 50-5.77 12.162-15.27 19.996-28.5 23.5-28.995 2.332-56.328 10.332-82 24-28.538 15.428-55.538 33.095-81 53-6.802 5.8-13.302 11.97-19.5 18.5-3.796 4.62-6.962 9.62-9.5 15-1.333 31.33-1.333 62.67 0 94 17.872 2.31 31.372-4.35 40.5-20 7.341-16.03 14.674-32.03 22-48 2.205-2.54 4.705-4.71 7.5-6.5 5.919-1.2 11.919-1.86 18-2 7.783-4.12 13.95-9.95 18.5-17.5 3.59-6.85 6.923-13.85 10-21 1.167-1.83 2.667-3.33 4.5-4.5 7.945-1.12 15.945-2.12 24-3 8.188-4.85 15.188-11.18 21-19 6.667-4.667 13.333-9.333 20-14 3.96-1.843 8.13-2.677 12.5-2.5 10.22 1.421 20.38 1.254 30.5-.5 10.47-6.069 20.8-12.403 31-19 5.03-3.015 10.36-5.182 16-6.5.31 4.871-.53 9.537-2.5 14-6.06 13.505-11.72 27.17-17 41-1.07 10.96-1.91 21.96-2.5 33-2.08 4.91-5.41 8.75-10 11.5-10.65 5.16-21.65 9.49-33 13-7.74 3.46-11.74 9.46-12 18 5.99 21.7-1.68 36.03-23 43-8.624 1.13-17.29 1.8-26 2-6.878 1.88-12.378 5.72-16.5 11.5-3.106 5.88-5.94 11.88-8.5 18-6.118 1.29-12.118.79-18-1.5-12.011-4-24.011-8-36-12-14.957-5.24-29.957-5.57-45-1-13.244 7.09-21.91 17.92-26 32.5-1 40.99-1.333 81.99-1 123-5 0-10 0-15 0 .167-41 0-82-.5-123-7.046-12.38-16.213-22.88-27.5-31.5-6.794-4.17-14.127-5.5-22-4-19.121 9.6-39.288 15.76-60.5 18.5-4.988-.53-9.822-1.7-14.5-3.5-7-5.67-14-11.33-21-17-2.667-1.33-5.333-2.67-8-4-10.649-1.71-21.316-3.38-32-5-23.677-8.02-31.677-24.02-24-48-.226-3.01-1.059-5.85-2.5-8.5-3.552-3.22-7.385-6.05-11.5-8.5-10.667-5.33-21.333-10.67-32-16-6.875-5.21-12.708-11.37-17.5-18.5-1.037-2.78-1.87-5.61-2.5-8.5 2.557-8.4 4.724-16.9 6.5-25.5 1.538-8.248.204-15.915-4-23-11.189-9.755-14.023-21.421-8.5-35 3.142-2.421 6.475-2.588 10-.5 3.161 1.413 6.161 3.08 9 5 8.108 9.114 17.108 17.114 27 24 13.309 1.095 26.642 2.095 40 3 7.862 1.014 14.362 4.514 19.5 10.5 2.485 9.127 6.318 17.63 11.5 25.5 9.252 1.12 18.585 1.95 28 2.5 5.196 1.34 10.196 3.18 15 5.5 4.349 5.02 7.182 10.85 8.5 17.5 5.828 15.5 16.995 23.66 33.5 24.5 1.833 1.83 3.667 3.67 5.5 5.5 6.712 14.43 13.712 28.76 21 43 7.166 13.49 16.999 24.65 29.5 33.5 7.334 4.63 15.334 6.8 24 6.5.167-34 0-68-.5-102-8.999-14.34-20.165-26.84-33.5-37.5-32.273-25.228-66.94-46.895-104-65-16.514-5.725-33.514-8.058-51-7-12.575-2.204-23.408-7.704-32.5-16.5-1.403-3.138-3.07-6.138-5-9-.667-3-.667-6 0-9 1.927-3.522 3.593-7.189 5-11 1.466-5.235-.034-9.401-4.5-12.5-9.007-3.221-15.507-9.054-19.5-17.5-1.755-18.576 6.745-26.743 25.5-24.5 11.04 1.184 20.04 6.018 27 14.5 2.005 7.682 4.171 15.349 6.5 23 5.798 6.275 12.965 10.109 21.5 11.5 4.175 1.584 7.841 3.918 11 7 4.893 6.562 9.393 13.396 13.5 20.5l7.5 7.5c32.387 24.054 65.054 47.72 98 71 2.537 2.872 5.37 5.372 8.5 7.5 1.886 3.94 4.386 7.44 7.5 10.5 6.081 1.86 10.581.02 13.5-5.5 4.253-20.336.253-39.002-12-56-10.05-12.382-19.717-25.049-29-38-4.773-6.646-6.439-13.979-5-22 3.843-6.353 8.177-12.353 13-18 1.944-5.307 1.944-10.64 0-16-9.008-12.018-15.341-25.351-19-40-1.066-8.494-.399-16.828 2-25 4.161-5.495 8.327-10.995 12.5-16.5 1.852-4.69 2.352-9.523 1.5-14.5-7.998-24.827-1.831-45.16 18.5-61 5.655-12.335 11.155-24.668 16.5-37 3.785-5.625 8.618-9.958 14.5-13z" fill="#007852"/><path d="m842.5 673.5c1.387 2.377 2.221 5.043 2.5 8 .499 5.991.666 11.991.5 18-.688-8.566-1.688-17.232-3-26z" fill="#aba00a"/><path d="m377.5 686.5c1.403 3.409 2.07 7.075 2 11-1.403-3.409-2.07-7.075-2-11z" fill="#a69c0c"/><path d="m380.5 702.5c1.413 2.719 2.08 5.719 2 9-1.413-2.719-2.08-5.719-2-9z" fill="#a59a0b"/><path d="m813.5 872.5c.991-6.479 1.324-13.146 1-20-3.667 0-7.333 0-11 0-7.319-3.916-12.319-9.916-15-18 1.091-1.388 2.424-1.888 4-1.5 2.849 4.694 6.182 9.027 10 13 3.226 1.199 6.559 1.699 10 1.5.166-5.011-.001-10.011-.5-15-4.859-26.155-8.526-52.488-11-79-4.167-5.667-8.333-11.333-12.5-17 1.194-1.931 2.861-2.764 5-2.5 2.793 3.756 5.46 7.589 8 11.5 1.7-7.801 3.867-15.468 6.5-23 1.674-4.343 4.508-7.176 8.5-8.5.857.689 1.523 1.522 2 2.5-9.352 12.564-13.352 26.731-12 42.5.167 5.167.333 10.333.5 15.5 4.695 23.168 8.195 46.502 10.5 70 1.052.149 2.052-.017 3-.5l12-12c1.891-.309 3.225.525 4 2.5-4.407 6.908-10.241 12.241-17.5 16 .045 13.427-.955 26.76-3 40-1.215 5.434-3.715 10.101-7.5 14-1.333-.667-2.333-1.667-3-3 5.925-8.692 8.591-18.358 8-29z" fill="#1c1f1c"/><path d="m1509.5 719.5h4c-.31 3.871.02 7.538 1 11v7c-39.99 2.761-79.99 5.428-120 8 1.43 23.328 2.76 46.661 4 70-5.33 0-10.67 0-16 0-1.76-29.017-3.76-58.017-6-87 44.31-3.357 88.64-6.357 133-9z" fill="#1f1f1d"/><path d="m91.5 722.5h16c-.805 10.312-1.138 20.646-1 31 .327 9.848-.006 19.514-1 29-.992 7.482-1.325 15.148-1 23 14.166.893 28.166.893 42 0 1.35-18.818 2.017-37.818 2-57 0-6 0-12 0-18h16c-.333 14.667-.667 29.333-1 44-.995 10.821-1.328 21.821-1 33h24c7.482.992 15.148 1.325 23 1 0-2 0-4 0-6 1.542-25.488 2.542-51.155 3-77h15c-.546 33.681-1.546 67.348-3 101-45.662-1.486-91.328-2.819-137-4 1.1177-22.649 1.7844-45.316 2-68 1.0597-10.49 1.7264-21.156 2-32z" fill="#1e1e1c"/><path d="m1509.5 719.5c1.42-.951 3.09-1.284 5-1v12c-.98-3.462-1.31-7.129-1-11-1.33 0-2.67 0-4 0z" fill="#9b9b9a"/><path d="m107.5 722.5c.656 1.122.989 2.455 1 4-.553 9.162-1.22 18.162-2 27-.138-10.354.195-20.688 1-31z" fill="#838382"/><path d="m91.5 722.5c-.2736 10.844-.9403 21.51-2 32-.1664-8.673.0002-17.34.5-26 .1909-2.208.6909-4.208 1.5-6z" fill="#a6a6a6"/><path d="m212.5 725.5c-.458 25.845-1.458 51.512-3 77 0-.333 0-.667 0-1 .135-25.524 1.135-50.857 3-76z" fill="#454544"/><path d="m755.5 749.5c1.996 6.943 2.33 13.943 1 21-.168-7.01-.501-14.01-1-21z" fill="#bdb009"/><path d="m148.5 748.5c.017 19.182-.65 38.182-2 57-.102-19.185.565-38.185 2-57z" fill="#7a7a79"/><path d="m163.5 774.5v32c7.852-.325 15.518.008 23 1-8 0-16 0-24 0-.328-11.179.005-22.179 1-33z" fill="#a4a4a4"/><path d="m1316.5 779.5c.67 6.992 1 14.159 1 21.5.09 12.696-.58 25.196-2 37.5.63-19.66.96-39.327 1-59z" fill="#b6b6b6"/><path d="m40.5 779.5c-.0498 19.009.2836 38.009 1 57-1.4705-11.465-2.1371-23.132-2-35 .0003-7.508.3336-14.841 1-22z" fill="#3d3d3b"/><path d="m874.5 796.5c1.552 4.901 2.219 10.068 2 15.5.189 5.752-.478 11.252-2 16.5 1.302-10.67 1.302-21.336 0-32z" fill="#c8bb07"/><path d="m105.5 782.5v22c13.672.139 27.339.472 41 1-13.834.893-27.834.893-42 0-.325-7.852.008-15.518 1-23z" fill="#878786"/><path d="m209.5 801.5v1 6c-7.852.325-15.518-.008-23-1h22c-.295-2.235.039-4.235 1-6z" fill="#8e8e8d"/><path d="m1298.5 757.5c1.54 14.133 2.21 28.466 2 43 0 10.505-.33 20.839-1 31 .15-24.676-.18-49.342-1-74z" fill="#5c1622"/><path d="m1478.5 836.5c5.12 1.306 10.45 1.973 16 2 5.9-.179 11.57.488 17 2 1.76.961 3.76 1.295 6 1v6c-.98 3.798-1.32 7.798-1 12-7.66-.749-15.33-1.416-23-2-4.77-1.389-9.77-2.056-15-2-18.58-2.655-37.24-4.989-56-7-22.23 1.394-33.89 13.228-35 35.5.14 18.957 9.47 30.29 28 34 30.3 4.097 60.64 7.93 91 11.5-.4 6.329-.73 12.662-1 19-28.7-3.171-57.36-6.671-86-10.5-35.93-5.592-51.76-26.425-47.5-62.5 4.15-30.657 21.65-45.657 52.5-45 18.26.868 36.26 2.868 54 6z" fill="#1f1f1d"/><path d="m592.5 835.5c2.51-.446 4.51.22 6 2-2.286-.095-4.286-.762-6-2z" fill="#9f9511"/><path d="m570.5 834.5c-2.009 1.565-4.343 2.565-7 3 1.82-1.948 4.154-2.948 7-3z" fill="#534e17"/><path d="m1478.5 836.5c5.58-.245 10.92.422 16 2-5.55-.027-10.88-.694-16-2z" fill="#70706f"/><path d="m1511.5 840.5h7c.3 2.559-.03 4.893-1 7 0-2 0-4 0-6-2.24.295-4.24-.039-6-1z" fill="#8a8a89"/><path d="m106.5 974.5c.062-4.576-.605-8.909-2-13 .208-2.42-.126-4.753-1-7 32.012-28.677 64.345-57.01 97-85-1-.333-2-.667-3-1-34.904 5.512-69.737 11.179-104.5 17-1.2546-5.948-2.0879-11.948-2.5-18 44.928-7.466 89.928-14.466 135-21 1.06 7.016 1.893 14.016 2.5 21-32.34 28.176-64.507 56.51-96.5 85 .833.333 1.667.667 2.5 1 34.859-5.615 69.692-11.282 104.5-17 .692.525 1.192 1.192 1.5 2 .727 5.363 1.561 10.697 2.5 16-44.367 6.719-88.7 13.719-133 21-1.226-.02-2.226-.353-3-1z" fill="#20201e"/><path d="m1298.5 846.5c.22 6.239-.44 12.239-2 18 .02-6.212.69-12.212 2-18z" fill="#5a1622"/><path d="m553.5 850.5v6c-43.17.332-86.17-.001-129-1h128c-.284-1.915.049-3.581 1-5z" fill="#c2b407"/><path d="m756.5 852.5c1.406.473 2.073 1.473 2 3-46.83.999-93.83 1.332-141 1 0-1 0-2 0-3 23.285 1.323 46.785 1.99 70.5 2 23.167-.167 46.333-.333 69.5-.5-.752-.671-1.086-1.504-1-2.5z" fill="#c2b407"/><path d="m863.5 854.5c51.164.999 102.497 1.332 154 1-51.502 1.331-103.168 1.331-155 0 .124-.607.457-.94 1-1z" fill="#c3b507"/><path d="m1065.5 849.5c.96 1.765 1.29 3.765 1 6h116c-38.83.999-77.83 1.332-117 1 0-2.333 0-4.667 0-7z" fill="#c2b407"/><path d="m758.5 855.5c.543.06.876.393 1 1-47.498 1.331-94.832 1.331-142 0 47.17.332 94.17-.001 141-1z" fill="#484415"/><path d="m1478.5 855.5c5.23-.056 10.23.611 15 2-5.23.056-10.23-.611-15-2z" fill="#b3b3b2"/><path d="m803.5 852.5h11c.324 6.854-.009 13.521-1 20 0-6.333 0-12.667 0-19-3.542.313-6.875-.021-10-1z" fill="#114432"/><path d="m555.5 867.5c-42.17-.332-84.17.001-126 1-.543-.06-.876-.393-1-1 42.498-1.331 84.831-1.331 127 0z" fill="#142132"/><path d="m761.5 867.5c-47.012-.662-93.679.005-140 2-.904-.709-1.237-1.709-1-3 47.17-.332 94.17.001 141 1z" fill="#142133"/><path d="m854.5 867.5c52.164-.999 104.497-1.332 157-1 .24 1.291-.1 2.291-1 3-51.656-1.996-103.656-2.662-156-2z" fill="#132233"/><g fill="#002c70"><path d="m555.5 867.5c2.377 4.217 5.377 8.051 9 11.5 4.25 2.374 8.416 4.874 12.5 7.5.601 1.637 1.101 3.303 1.5 5-1.395 3.789-3.061 7.456-5 11-1.161 4.295-1.328 8.629-.5 13 7.696 14.347 19.529 23.513 35.5 27.5 4.746 1.349 9.58 2.183 14.5 2.5 13.936-1.595 27.436.238 40.5 5.5 34.102 16.154 66.102 35.487 96 58 10.102 8.1 19.602 16.93 28.5 26.5 3.434 4.55 6.601 9.22 9.5 14 .985 31.62 1.319 63.29 1 95-5.805-.4-11.138-2.23-16-5.5-11.629-8.76-20.796-19.6-27.5-32.5-6.822-14.98-14.155-29.64-22-44-5.802-5.16-12.635-7.66-20.5-7.5-5.119-2.79-9.286-6.62-12.5-11.5-3.453-6.36-6.119-13.03-8-20-6.389-9.11-15.222-13.95-26.5-14.5-7.333-.33-14.667-.67-22-1-1.549-1.21-2.715-2.71-3.5-4.5-2.199-10.903-7.365-20.07-15.5-27.5-3.781-2.225-7.781-3.891-12-5-12.305-1.118-24.638-1.785-37-2-2.378-.511-4.712-1.178-7-2-7.303-6.302-14.303-12.968-21-20-5.782-5.451-12.615-8.618-20.5-9.5-5.96.283-9.96 3.283-12 9-3.424 14.727.576 27.061 12 37 2.913 4.982 3.913 10.315 3 16-1.386 7.83-3.386 15.49-6 23-1.514 9.12.819 17.12 7 24 5.334 6.24 11.501 11.4 18.5 15.5 10.298 4.99 20.632 9.99 31 15 6.042 2.75 8.708 7.42 8 14-5.916 19.27-.583 34.27 16 45 4.761 2.59 9.761 4.59 15 6 9.727.98 19.394 2.31 29 4 9.845 5.51 18.845 12.18 27 20 10.059 5.72 20.725 7.05 32 4 13.118-5.89 26.451-11.23 40-16 18.894-2.97 33.728 3.53 44.5 19.5 2.421 3.57 4.587 7.24 6.5 11v118c-12.674-.1-25.341-.44-38-1-7.879-.99-15.879-2.15-24-3.5-118.738-99.43-211.238-219.26-277.5-359.5-10.673-23.009-20.506-46.342-29.5-70 41.83-.999 83.83-1.332 126-1z"/><path d="m761.5 867.5c.149 1.052-.017 2.052-.5 3-4.769 4.768-8.769 10.101-12 16-1.872 5.975-1.872 11.975 0 18 6.401 18.063 17.068 33.063 32 45 12.002 15.67 16.668 33.337 14 53-.87 3.56-3.037 5.06-6.5 4.5-5.293-7.627-11.626-14.294-19-20-29.278-20.278-58.278-40.945-87-62-5.468-4.467-10.635-9.3-15.5-14.5-4.493-8.815-10.327-16.648-17.5-23.5-7.092-3.586-14.425-6.586-22-9-3.023-2.177-5.023-5.011-6-8.5 46.321-1.995 92.988-2.662 140-2z"/><path d="m854.5 867.5c52.344-.662 104.344.004 156 2-3.61 5.974-8.94 9.14-16 9.5-13.981-2.752-24.814 1.748-32.5 13.5-6.8 11.731-11.633 24.231-14.5 37.5-26.674 15.333-52.674 31.666-78 49-7.333 6-14.667 12-22 18-7.551 3.54-15.385 4.38-23.5 2.5-1.54-12.759.793-24.759 7-36 7.088-7.084 13.422-14.751 19-23 12.74-22.226 12.573-44.392-.5-66.5 1.077-2.669 2.743-4.836 5-6.5z"/><path d="m842.5 1301.5c-5.667 0-11.333 0-17 0 0-38.67 0-77.33 0-116 7.194-25.94 24.194-36.78 51-32.5 17.582 4.53 34.915 9.86 52 16 5.193 1.97 10.526 2.63 16 2 1.921-.36 3.588-1.19 5-2.5 3.43-9.5 8.43-18 15-25.5 1.333-.67 2.667-1.33 4-2 10.08-.25 20.08-1.25 30-3 12.51-3.18 21.34-10.68 26.5-22.5.43-10.71 1.09-21.37 2-32 2.99-3.99 6.82-6.82 11.5-8.5 11.4-3.13 22.06-7.79 32-14 9.35-8.22 12.35-18.39 9-30.5 1.28-10.44 4.11-20.44 8.5-30 6.4-12.287 11.23-25.121 14.5-38.5-.42-7.058-4.09-9.391-11-7-5.12 2.06-10.12 4.393-15 7-9.42 6.427-19.09 12.427-29 18-3.43.956-6.93 1.456-10.5 1.5-9.16-.96-18.32-1.127-27.5-.5-1.5.5-3 1-4.5 1.5-6.932 5.544-14.099 10.711-21.5 15.5-4.537 5.7-9.537 10.87-15 15.5-1.885 1.11-3.885 1.94-6 2.5-8.097.24-16.097 1.24-24 3-6.423 6.67-10.923 14.51-13.5 23.5-3.925 5.51-8.092 10.85-12.5 16-4.064 3.91-8.731 4.91-14 3-4.321.05-8.321 1.22-12 3.5-7.445 6.45-12.945 14.28-16.5 23.5-4.411 13.49-10.411 26.15-18 38-7.05 8.77-16.217 13.11-27.5 13-.167-29.34 0-58.67.5-88 2.084-3.84 4.417-7.5 7-11 18.21-18.68 38.376-34.84 60.5-48.5 15.004-9.504 30.338-18.504 46-27 24.331-11.833 49.998-18.833 77-21 22.56-8.235 33.72-24.402 33.5-48.5 3.22-9.598 7.38-18.765 12.5-27.5 38.67-.833 77.34-.667 116 .5-61.27 154.37-152.6 287.87-274 400.5-11.414 9.69-22.747 19.35-34 29-9.028 1.13-18.028 2.3-27 3.5z"/></g><path d="m1533.5 873.5c4.36.086 8.69.42 13 1-.18 5.407-.84 10.74-2 16-6.02.809-12.02.476-18-1 .5-5.359 1.17-10.693 2-16z" fill="#1f1f1d"/><path d="m1533.5 873.5c-1.67 0-3.33 0-5 0-.83 5.307-1.5 10.641-2 16-.65-.949-.99-2.115-1-3.5.54-3.828 1.04-7.661 1.5-11.5 1.97-2.168 4.14-2.502 6.5-1z" fill="#70706e"/><path d="m1523.5 902.5c5.97 1.145 11.97 2.145 18 3 .6 5.623.6 11.289 0 17-6.68-.502-13.35-1.169-20-2 .67-6 1.33-12 2-18z" fill="#232321"/><path d="m1365.5 949.5c42.71 14.458 85.37 29.125 128 44-.99 10.8-4.15 21.14-9.5 31-2.85 14.69-8.18 28.36-16 41-17.65 17.24-35.31 17.24-53 0-3.18-4.86-5.18-10.19-6-16-19.15 19.79-38.49 19.79-58 0-6.98-9.54-9.64-20.2-8-32 6.66-22.97 14.16-45.637 22.5-68z" fill="#20201e"/><path d="m104.5 961.5c1.395 4.091 2.062 8.424 2 13-1.395-4.091-2.062-8.424-2-13z" fill="#8d8d8c"/><path d="m244.5 967.5c1.29.558 2.123 1.558 2.5 3 11.6 29.97 23.1 59.97 34.5 90-.333.67-.667 1.33-1 2-41.039 15.74-82.039 31.57-123 47.5-1.333.67-2.667.67-4 0-12.153-30.29-23.82-60.79-35-91.5 4.658-2 9.325-4 14-6 10.607 24.24 20.441 48.9 29.5 74 .561.52 1.228.86 2 1 12.813-4.32 25.313-9.32 37.5-15-8.865-22.59-17.531-45.26-26-68 .333-.67.667-1.33 1-2 4.442-2.32 8.942-3.656 13.5-4 8.723 23.11 17.723 46.11 27 69 14.575-5.8 29.075-11.46 43.5-17-9.907-25.56-19.907-51.056-30-76.5 4.692-2.278 9.359-4.445 14-6.5z" fill="#20201e"/><path d="m1374.5 971.5c15.45 5.224 30.78 10.724 46 16.5-5.3 14.89-10.8 29.73-16.5 44.5-9.1 15.34-21.27 18.18-36.5 8.5-7.57-7.28-10.07-16.11-7.5-26.5 4.74-14.38 9.57-28.716 14.5-43z" fill="#fcfcfc"/><path d="m1434.5 992.5c11.42 3.54 22.75 7.373 34 11.5 1.97.5 3.97.66 6 .5-3.91 17.22-10.07 33.56-18.5 49-9.98 7.9-19.98 7.9-30 0-5.4-7.3-6.74-15.3-4-24 4.08-12.39 8.24-24.73 12.5-37z" fill="#fbfbfb"/><path d="m584.5 1011.5c1.175-.22 2.175.11 3 1 5.317 6.45 10.984 12.62 17 18.5 4.978 3.32 9.645 6.98 14 11 31.623 11.09 59.123 28.92 82.5 53.5.749 1.14.583 2.14-.5 3-1.391 1.14-2.724 1.14-4 0-18.607-18.43-39.607-33.6-63-45.5-7.644-1.65-14.644-4.65-21-9-11.148-8.65-21.148-18.48-30-29.5.693-1.02 1.359-2.02 2-3z" fill="#1c211d"/><path d="m1031.5 1018.5c3.22.52 4.22 2.19 3 5-13.67 12.51-28.34 23.68-44 33.5-13.951 6.53-27.951 12.87-42 19-12.222 8.72-22.222 19.56-30 32.5-1.248-.54-2.415-1.21-3.5-2 11.952-24.61 31.452-40.11 58.5-46.5 21.465-10.98 40.8-24.81 58-41.5z" fill="#1c221d"/><path d="m797.5 1049.5c.617.11 1.117.44 1.5 1 .831 31.5.664 62.84-.5 94 .319-31.71-.015-63.38-1-95z" fill="#0d254a"/><path d="m1341.5 1077.5c-6.03-.07-12.03.26-18 1 3.39-1.47 7.05-2.14 11-2 2.53 0 4.86.34 7 1z" fill="#686867"/><path d="m1341.5 1077.5c8.82 1.05 17.15 3.72 25 8 25.45 14.95 50.79 30.12 76 45.5-3.39 5.28-6.89 10.45-10.5 15.5-25.07-14.45-49.9-29.28-74.5-44.5-27.33-13.99-45.66-6.49-55 22.5-2.67 5.33-2.67 10.67 0 16 2.83 8.67 8.16 15.51 16 20.5 25.2 15.37 50.54 30.53 76 45.5 1.08.86 1.25 1.86.5 3-2.93 4.88-6.1 9.54-9.5 14-26.17-15.58-52.17-31.42-78-47.5-9.35-6.68-16.52-15.18-21.5-25.5-.98-2.24-1.48-4.57-1.5-7-.12-7.03.21-14.03 1-21 4.04-14.91 12.04-27.41 24-37.5 4.31-2.99 8.98-5.15 14-6.5 5.97-.74 11.97-1.07 18-1z" fill="#20201e"/><path d="m236.5 1112.5c1.322-.17 2.489.16 3.5 1 11.348 18.71 23.182 37.04 35.5 55 17.333-10.67 34.667-21.33 52-32 3.568 4.79 6.902 9.79 10 15-38.33 24.83-76.996 49.17-116 73-17.168-26.33-33.835-53-50-80 3.228-3.29 6.894-6.13 11-8.5 1.135-.75 2.135-.58 3 .5 13.012 21.37 26.512 42.37 40.5 63 11.914-6.76 23.414-14.09 34.5-22-11.5-18.33-23-36.67-34.5-55-.749-1.14-.583-2.14.5-3 3.75-1.86 7.083-4.2 10-7z" fill="#20201e"/><path d="m1285.5 1122.5c-.79 6.97-1.12 13.97-1 21-.66-2.81-1-5.81-1-9-.22-4.3.44-8.3 2-12z" fill="#737372"/><path d="m1302.5 1124.5v16c-2.67-5.33-2.67-10.67 0-16z" fill="#afafae"/><path d="m1437.5 1163.5c5.97 2.99 11.64 6.49 17 10.5-2.85 4.21-5.52 8.54-8 13-1.79.52-3.46.19-5-1-4.21-2.6-8.21-5.43-12-8.5 3.12-4.44 5.79-9.11 8-14z" fill="#222220"/><path d="m798.5 1184.5c.999 39.5 1.332 79.16 1 119-13.203.29-26.203-.38-39-2 12.659.56 25.326.9 38 1 0-39.33 0-78.67 0-118z" fill="#0e2547"/><path d="m825.5 1185.5v116h17c-5.81.99-11.81 1.32-18 1-.332-39.17.001-78.17 1-117z" fill="#0d254a"/><path d="m1421.5 1190.5c1.05-.15 2.05.02 3 .5 4.88 2.93 9.54 6.1 14 9.5-2.5 5.01-5.5 9.67-9 14-5.6-2.94-10.93-6.27-16-10 2.68-4.69 5.35-9.36 8-14z" fill="#232321"/><path d="m513.5 1340.5c-17 .67-34 1.33-51 2-6.098 16.12-11.932 32.45-17.5 49-5.068-16.7-10.234-33.37-15.5-50-17.343-.7-34.676-1.53-52-2.5 13.833-9.83 27.667-19.67 41.5-29.5-4.039-16.48-8.873-32.81-14.5-49 .333-.33.667-.67 1-1 13.531 11.07 27.364 21.4 41.5 31 12.881-9.86 26.048-19.36 39.5-28.5 1.259-.98 2.592-1.32 4-1-5.859 15.91-11.525 31.91-17 48 .259 1.26.926 2.26 2 3 12.827 9.33 25.493 18.83 38 28.5z" fill="#1f1f1d"/><path d="m1230.5 1340.5c-3.46.98-7.13 1.31-11 1-13.33 0-26.67 0-40 0-5.19 16.41-10.69 32.74-16.5 49-5.86-16.42-11.03-33.08-15.5-50-17.7.36-35.37-.14-53-1.5 14.72-9.69 29.06-19.85 43-30.5-4.92-15.85-9.92-31.68-15-47.5.33-.5.67-1 1-1.5 13.2 10.74 26.7 20.74 40.5 30 13.73-8.72 27.23-17.89 40.5-27.5 1.14-.75 2.14-.58 3 .5-6.1 15.8-11.27 31.8-15.5 48 12.73 10.25 25.57 20.25 38.5 30z" fill="#1f1f1d"/><path d="m869.5 1312.5c-6.094 1.59-12.428 2.26-19 2 6.13-1.25 12.463-1.91 19-2z" fill="#acacac"/><path d="m744.5 1313.5c7.52.22 14.854.88 22 2-7.571.34-14.904-.32-22-2z" fill="#ababaa"/><path d="m838.5 1315.5c-18.643 2.04-37.31 2.38-56 1 18.673-.07 37.339-.4 56-1z" fill="#b5b5b5"/><path d="m513.5 1340.5c.789.28 1.456.78 2 1.5-17.664.5-35.33.67-53 .5 17-.67 34-1.33 51-2z" fill="#c1c1c0"/><path d="m1230.5 1340.5c1.26-.04 2.26.46 3 1.5-4.85.82-9.52.65-14-.5 3.87.31 7.54-.02 11-1z" fill="#888887"/><path d="m985.5 1341.5c1.25.08 2.083.74 2.5 2 1.273 3.65 2.44 7.32 3.5 11-7.356 20.76-12.19 42.09-14.5 64-1.101 22.42-.268 44.75 2.5 67-5.125 1.43-10.292 2.76-15.5 4-.5-.33-1-.67-1.5-1-6.767-41.99-2.767-82.99 12-123-.865-1.08-1.865-1.25-3-.5-21.961 8.26-43.961 16.43-66 24.5-1.997-4.99-3.997-9.99-6-15 .59-1.3 1.59-2.13 3-2.5 27.804-10.1 55.47-20.26 83-30.5z" fill="#21211f"/><path d="m641.5 1347.5c3.549-.06 6.882.77 10 2.5 1.68.35 2.68 1.35 3 3-16.376 40.96-33.043 81.8-50 122.5-4.127-1.76-8.293-3.43-12.5-5-1.587-.84-2.42-2.17-2.5-4 11.029-28.4 22.362-56.73 34-85-8.727-4.36-17.727-8.36-27-12-.333-.67-.667-1.33-1-2 2.213-2.97 3.213-6.3 3-10 6.349 1 12.682 2.17 19 3.5 11.072.96 19.072-3.54 24-13.5z" fill="#21211f"/><path d="m725.5 1372.5c34.13-.37 51.797 16.46 53 50.5-.556 17.78-4.056 34.95-10.5 51.5-5.089 12.01-12.923 21.84-23.5 29.5-16.698 7.71-33.032 7.04-49-2-10.161-8.49-14.661-19.32-13.5-32.5 1.231-.61 2.564-.94 4-1 4.502.72 9.002 1.39 13.5 2 .121 19.94 10.121 28.1 30 24.5 5.387-2.72 10.22-6.22 14.5-10.5 6.691-9.94 10.857-20.61 12.5-32-4.717 3.36-9.717 6.19-15 8.5-31.436 4.3-49.103-9.2-53-40.5 1.299-24.92 13.632-40.92 37-48z" fill="#20201e"/><path d="m842.5 1377.5c22.068-1.05 37.234 8.61 45.5 29 7.084 20.44 9.417 41.44 7 63-3.091 32.77-20.924 47.6-53.5 44.5-10.625-2.28-18.791-8.11-24.5-17.5-12.243-24.25-16.41-49.92-12.5-77 2.643-23.3 15.309-37.3 38-42z" fill="#1f1f1d"/><path d="m727.5 1388.5c26.293-.41 36.793 12.26 31.5 38-4.606 15.73-15.106 22.56-31.5 20.5-11.732-1.43-18.565-7.93-20.5-19.5-2.15-13.55 1.683-25.05 11.5-34.5 3.092-1.55 6.092-3.05 9-4.5z" fill="#fcfcfb"/><path d="m856.5 1499.5c-4.357-.09-8.69-.42-13-1-3.832-1.32-6.999-3.65-9.5-7-7.179-10.87-11.179-22.87-12-36-.667-12-.667-24 0-36 4.205-23.51 17.372-31.01 39.5-22.5 3.946 3.39 6.78 7.55 8.5 12.5 7.101 20.77 9.435 42.1 7 64-.925 13.59-7.758 22.26-20.5 26z" fill="#fcfcfc"/><path d="m843.5 1498.5c4.31.58 8.643.91 13 1-1.464.66-3.131.99-5 1-2.986.12-5.652-.55-8-2z" fill="#8c8c8b"/><path d="m1046.5 1525.5c-4.01 2.16-8.34 3.49-13 4 4-2.11 8.34-3.44 13-4z" fill="#60605f"/></svg>