<?xml version="1.0"?>
<svg version="1.0" viewBox="0 0 300 300" xmlns="http://www.w3.org/2000/svg">
<rect x="0" y="0" width="300" height="300" fill="#FFF"/>
<path d="m0 0v300h100v-54.281c-34.46-18.048-58-54.146-58-95.719s23.54-77.671 58-95.719v-54.281h-100z" fill="#00F"/>
<path d="m200 0v54.281c34.46 18.048 58 54.146 58 95.719-1e-5 41.573-23.54 77.671-58 95.719v54.281h100v-300h-100z" fill="#F00"/>
<path d="m150 56.781c-51.451-1e-6 -93.219 41.767-93.219 93.219 1e-6 51.451 41.767 93.219 93.219 93.219 51.451 0 93.219-41.767 93.219-93.219 0-51.451-41.767-93.219-93.219-93.219zm0 6.125c12.292-1e-6 23.986 2.5537 34.594 7.1562l7.375 12-11.344 16.531-32.562 1.4688-15.781-18.844 11.656-18.094c2.0068-0.13852 4.0208-0.21875 6.0625-0.21875zm-23.25 21.844 16.156 19.312-8.25 32.719-25.438 13.25-19.5-18.938 12.031-33.312 25-13.031zm70.719 0.75 13.875 2.7188c11.786 11.703 20.258 26.752 23.844 43.594l-14.562 18.938-23.406-12.094-11.562-35.844 11.812-17.312zm-108.44 2.375 6.2812 8.6875-12.562 34.656 0.40625 0.15625-16.531 20.312-3.6875-0.15625c-0.008791-0.5091-0.03125-1.0201-0.03125-1.5312 1e-6 -24.326 10.021-46.317 26.125-62.125zm48.281 54.875 24 17.125-4.3125 31.031-25.969 13.562-25.062-18.719 4.7188-29.156 26.625-13.844zm56.094 1.25 24.719 12.75-0.28125 27.094-30.969 21.25-23.469-13.156 4.3125-31 25.688-16.938zm-130.12 14.062 2.1875 0.09375 13 35.406-0.09375 6c-8.3187-11.992-13.684-26.178-15.094-41.5zm157.03 31.969h7.0312c-10.092 19.438-27.296 34.602-48.156 42.031l-4.2812-3.0625 13-16.719 32.406-22.25zm-118.28 0.875 26 19.438 5.1562 17.312-12.812 4.25c-13.845-5.0147-26.056-13.46-35.625-24.281l0.1875-12.156 17.094-4.5625zm34.781 42.406 33.344 0.34375 1.125 0.8125c-6.8132 1.7141-13.939 2.625-21.281 2.625-6.3734 0-12.577-0.69769-18.562-2l5.375-1.7812z"/>
</svg>
