<?xml version="1.0" encoding="UTF-8" standalone="no"?>
<!-- Generator: Adobe Illustrator 14.0.0, SVG Export Plug-In . SVG Version: 6.00 Build 43363)  -->

<svg
   xmlns:dc="http://purl.org/dc/elements/1.1/"
   xmlns:cc="http://creativecommons.org/ns#"
   xmlns:rdf="http://www.w3.org/1999/02/22-rdf-syntax-ns#"
   xmlns:svg="http://www.w3.org/2000/svg"
   xmlns="http://www.w3.org/2000/svg"
   xmlns:sodipodi="http://sodipodi.sourceforge.net/DTD/sodipodi-0.dtd"
   xmlns:inkscape="http://www.inkscape.org/namespaces/inkscape"
   version="1.1"
   id="katman_1"
   x="0px"
   y="0px"
   width="600px"
   height="831.4px"
   viewBox="0 0 600 831.4"
   enable-background="new 0 0 600 831.4"
   xml:space="preserve"
   sodipodi:docname="Galatasaray_SK.svg"
   inkscape:version="0.92.3 (2405546, 2018-03-11)"><metadata
   id="metadata28"><rdf:RDF><cc:Work
       rdf:about=""><dc:format>image/svg+xml</dc:format><dc:type
         rdf:resource="http://purl.org/dc/dcmitype/StillImage" /></cc:Work></rdf:RDF></metadata><defs
   id="defs26" /><sodipodi:namedview
   pagecolor="#ffffff"
   bordercolor="#666666"
   borderopacity="1"
   objecttolerance="10"
   gridtolerance="10"
   guidetolerance="10"
   inkscape:pageopacity="0"
   inkscape:pageshadow="2"
   inkscape:window-width="1280"
   inkscape:window-height="737"
   id="namedview24"
   showgrid="false"
   inkscape:zoom="0.56771709"
   inkscape:cx="-90.670046"
   inkscape:cy="529.25316"
   inkscape:window-x="-8"
   inkscape:window-y="-8"
   inkscape:window-maximized="1"
   inkscape:current-layer="Ebene_x0020_1" />
<g
   id="Ebene_x0020_1">
	<path
   d="M127.78,532.108c0,47.514,19.258,90.529,50.389,121.658c31.13,31.13,74.145,50.389,121.657,50.389   c47.514-0.001,90.526-19.257,121.656-50.389c31.135-31.129,50.39-74.145,50.39-121.658l0.252-3.646   c0.022-0.206,9.139-71.921-53.651-118.832l38.479-51.557c84.574,63.188,80.677,158.507,79.296,175.146   c-0.297,64.837-26.701,123.523-69.246,166.068c-42.786,42.786-101.893,69.254-167.176,69.254   c-65.28,0-124.39-26.468-167.176-69.254C89.862,656.5,63.396,597.391,63.396,532.108H127.78L127.78,532.108z"
   id="path2"
   style="fill:#fdb813;fill-opacity:1"
   fill="#FFBC00" />
	<path
   fill="#FFBC00"
   d="M384.742,153.593c0-24.634-9.985-46.941-26.127-63.083c-16.138-16.142-38.443-26.125-63.081-26.125   c-24.636,0-46.942,9.983-63.085,26.125c-16.14,16.138-26.126,38.447-26.126,63.083h-64.383c0-42.409,17.195-80.807,44.991-108.603   S253.126,0,295.534,0c42.408-0.001,80.806,17.195,108.601,44.99c27.797,27.796,44.991,66.196,44.991,108.603H384.742   L384.742,153.593z"
   id="path4"
   style="fill:#fdb813;fill-opacity:1" />
	<path
   d="M 75.334,460.81525 C 62.727,495.6805 63.935,533.42183 63.935,533.42183 l 63.845,-0.0695 c 0,0 0.671,-42.12388 10.061,-72.60454 l -62.507,0.0674 z"
   id="path6"
   style="fill:#fdb813;fill-opacity:1;stroke-width:1.01061034"
   inkscape:connector-curvature="0" />
	<path
   fill="#BC2626"
   d="M463.87,362.149c-21.653-20.853-47.245-37.606-75.527-49.009c-27.159-10.95-56.968-16.98-88.338-16.98   C169.598,296.159,63.877,401.882,63.877,532.29c0,130.407,105.721,236.129,236.128,236.129   c130.41-0.002,236.13-105.722,236.13-236.129c0.002-7.325-0.357-21.714-1.056-35.656c-0.48-9.538-1.067-18.065-1.711-22.238   l63.627-9.558c1.108,7.196,1.92,17.854,2.467,28.779c0.699,13.939,1.059,29.831,1.059,38.673   c0,165.965-134.547,300.512-300.516,300.512C134.039,832.8-0.506,698.255-0.506,532.29c0-165.968,134.546-300.514,300.511-300.514   c39.539,0,77.429,7.727,112.23,21.759c36.065,14.54,68.644,35.853,96.147,62.343l-44.515,46.272H463.87z"
   id="path8"
   style="fill:#a80532;fill-opacity:1" />
	<polygon
   fill="#BC2626"
   points="441.29,464.326 595.094,464.506 595.094,528.892 441.29,528.71  "
   id="polygon10"
   style="fill:#a80532;fill-opacity:1" />
	<path
   fill="#3B342C"
   d="M190.872,473.83h1.931c13.037,0,16.519-6.775,16.809-11.903h11.129V530.5h-13.548v-47.281h-16.32V473.83   L190.872,473.83z"
   id="path12"
   style="fill:#363636;fill-opacity:1" />
	<path
   fill="#3B342C"
   d="M254.316,484.588c0-9.855,6.294-11.596,9.779-11.596c6.973,0,10.36,4.831,10.36,12.659   c0,8.115-5.229,11.5-9.973,11.5C259.352,497.151,254.316,494.929,254.316,484.588z M242.124,514.644   c1.159,10.894,9.579,17.686,21.294,17.686c12.389,0,24.944-8.636,24.944-35.178c0.001-9.665-0.386-35.225-24.169-35.225   c-13.459,0-23.426,7.795-23.426,24.596c0,11.501,7.646,21.494,20.81,21.494c4.649,0,9.973-1.162,13.071-5.821l0.194,0.195   c-0.097,14.366-5.713,19.071-11.328,19.071c-4.163-0.002-7.165-2.017-7.94-6.722v-0.097H242.124L242.124,514.644z"
   id="path14"
   style="fill:#363636;fill-opacity:1" />
	<path
   fill="#3B342C"
   d="M308.524,497.084c0-17.63,2.133-24.277,9.896-24.277c7.763,0,9.896,6.649,9.896,24.279   c0.002,17.63-2.135,24.376-9.896,24.376C310.659,521.46,308.524,514.718,308.524,497.084L308.524,497.084z M294.621,497.084   c0,23.992,7.625,35.243,23.8,35.243c16.175,0,23.803-11.251,23.803-35.241s-7.628-35.145-23.803-35.145   C302.245,461.941,294.62,473.098,294.621,497.084L294.621,497.084z"
   id="path16"
   style="fill:#363636;fill-opacity:1" />
	<path
   fill="#3B342C"
   d="M362.048,489.363c2.511-1.745,5.603-3.784,12.269-3.784c9.177,0,20.766,6.405,20.766,22.124   c0.001,9.331-4.731,24.624-24.919,24.624c-10.729,0-21.663-6.402-22.341-20.2h13.549c0.58,5.582,3.575,9.333,9.564,9.333   c6.474-0.002,10.241-5.481,10.241-12.795c0-6.062-2.898-12.218-10.047-12.218c-1.836-0.002-6.475,0.098-9.082,4.907l-12.097-0.578   l4.743-37.677h37.686v11.396h-27.918L362.048,489.363L362.048,489.363z"
   id="path18"
   style="fill:#363636;fill-opacity:1" />
	<path
   fill="#FFBC00"
   d="M206.002,152.92l-64.271,0.228c-4.472,71.533,59.914,111.774,59.914,111.774L419.27,410.453l39.233-51.306   L252.612,228.259C252.612,228.259,206.002,200.315,206.002,152.92L206.002,152.92z"
   id="path20"
   style="fill:#fdb813;fill-opacity:1" />
</g>
</svg>