<?xml version="1.0" encoding="UTF-8" standalone="no"?>
<svg xmlns="http://www.w3.org/2000/svg" xmlns:xlink="http://www.w3.org/1999/xlink" width="250pt" height="250pt" version="1.0">
  <defs>
    <radialGradient xlink:href="#a" id="c" cx="105.2298" cy="100.92327" r="149" fx="105.2298" fy="100.92327" gradientTransform="translate(-163.9033 -160.6078) scale(2.57342)" gradientUnits="userSpaceOnUse"/>
    <linearGradient id="a">
      <stop offset="0" stop-color="#002" stop-opacity="0"/>
      <stop offset="1" stop-color="#002" stop-opacity=".38999999"/>
    </linearGradient>
    <clipPath id="b">
      <path fill="none" stroke="#000" stroke-linecap="round" stroke-linejoin="round" stroke-width=".00917641" d="M3.2099996 1.5928129c0 .6138792-.3324285 1.1115266-.7424998 1.1115266-.4100714 0-.7424998-.4976474-.7424998-1.1115266 0-.61387919.3324284-1.11152661.7424998-1.11152661.4100713 0 .7424998.49764742.7424998 1.11152661z"/>
    </clipPath>
    <mask id="d">
      <path fill="#fff" fill-rule="evenodd" d="M304 156.5a149 149 0 1 1-298 0 149 149 0 1 1 298 0z" transform="translate(2.02013 .525168) scale(.99664)"/>
    </mask>
  </defs>
  <g fill-opacity=".17948716" fill-rule="evenodd">
    <path d="M304.17319 301.80221c0 5.07975-60.37848 9.1977-134.85909 9.1977-74.480606 0-134.85908-4.11795-134.85908-9.1977 0-5.07976 60.378474-9.19771 134.85908-9.19771 74.48061 0 134.85909 4.11795 134.85909 9.19771z"/>
    <path d="M263.66393 301.38885c0 3.02512-39.46585 5.47746-88.14943 5.47746-48.68358 0-88.149427-2.45234-88.149427-5.47746 0-3.02513 39.465847-5.47747 88.149427-5.47747 48.68358 0 88.14943 2.45234 88.14943 5.47747z"/>
    <path d="M281.85176 301.6118c0 4.13331-49.08936 7.48402-109.64414 7.48402-60.55478 0-109.644134-3.35071-109.644134-7.48402 0-4.13332 49.089354-7.48403 109.644134-7.48403 60.55478 0 109.64414 3.35071 109.64414 7.48403z"/>
  </g>
  <g clip-path="url(#b)" transform="matrix(200 0 0 133.6 -337 -58.29985)">
    <path d="M0 0h5v3H0z"/>
    <path fill="#d00" d="M0 1h5v2H0z"/>
    <path fill="#ffce00" d="M0 2h5v1H0z"/>
  </g>
  <path fill="#fff" fill-rule="evenodd" d="M304.99991 154.49995c0 82.01427-66.4857 148.49996-148.49996 148.49996-82.014261 0-148.499956-66.48569-148.499956-148.49996 0-82.014257 66.485695-148.499952 148.499956-148.499952 82.01426 0 148.49996 66.485695 148.49996 148.499952z" opacity=".35060006"/>
  <path fill="url(#c)" fill-rule="evenodd" d="M304.99991 154.49995c0 82.01427-66.4857 148.49996-148.49996 148.49996-82.014261 0-148.499956-66.48569-148.499956-148.49996 0-82.014257 66.485695-148.499952 148.499956-148.499952 82.01426 0 148.49996 66.485695 148.49996 148.499952z"/>
  <g mask="url(#d)" transform="translate(0 -2)">
    <g fill="none">
      <path stroke="#000" stroke-width="1.50000239" d="M298.35941793 109.31828137c-4.39465865-6.84450633-8.63493728-10.00523076-17.00314127-12.10975642" font-size="12"/>
      <path stroke="#fff" stroke-width="1.5" d="m50.00001573 45.37499799 13.5 13.75" font-size="12"/>
      <path stroke="#000" stroke-width="1.5" d="M48.00001573 91.99999799c-30.656969 21.95613-38.1250677 66.5057-37 66.25m76-63c-3.161261 23.33707 5.251479 48.91426 22.75 76.25m-80.625 35.375c14.426728 14.42384 33.602088 12.20951 51.625 12.625m43.87757 45.35868c-3.12231 8.25159-2.31517 19.68415-.53033 31.90819m-21.03643-268.34702c11.47697-11.491103 36.09496-18.9077039 68.23581-22.2738633m66.02609 43.9290083c-7.98715-14.875774-22.05796-26.564868-36.94771-37.824995m-72.38867 41.802471c17.64281 1.987199 49.48708 4.60109 74.77654 18.915107" font-size="12"/>
      <path stroke="#000" stroke-width="1.5" d="M222.5 124c-15.12241 20.853-33.37786 40.31354-54.5 58.5m9.5 55.75c19.35774 10.80051 40.56069 15.44485 66.25 11.25m24.75-113c9.88101 18.55214 11.33112 44.88666 12.75 71.25m-3.5-111c8.13915.273647 16.0266 4.57442 23.5 15.5"/>
    </g>
    <path fill-rule="evenodd" d="M40.25 98c20.653975 3.61865 29.152891 2.15978 46.25 3.75 10.106779-13.261723 27.26236-30.047846 45.25-47.25-7.42374-11.584726-14.43052-23.441076-23.25-30.75-22.390269 7.590533-38.335182 16.93889-53.5 26.5C45.481745 66.824036 40.435292 82.759244 40.25 98zM198 70.75c6.79286 18.669048 12.6345 35.43567 21.25 57.75 17.72598 4.68078 36.62577 10.30061 51.25 12.5 4.70076-9.43748 7.81084-27.6237 11.25-44-11.68034-18.118165-28.341-33.746166-45.25-49.25-12.43564 4.485122-25.40362 13.228984-38.5 23zM106.75 167c22.79472 3.75 44.78732 7.5 66.25 11.25 6.63556 20.83333 7.4943 41.66667 9.75 62.5-16.40955 13.63568-39.03853 17.94221-59 26.25-23.22635-15.01337-32.6832-31.74793-46-48 7.646852-17.58581 16.08235-35.07304 29-52zM1.0606602 148.80478c.032227 1.04777 8.0467844 2.22601 10.9601548 1.06066 3.346348 21.4179 7.728694 42.14513 19.445437 57.98276-2.293995 11.22327-.134448 20.21976 3.18198 28.63782-20.318369 5.69467-18.552158 8.77396-26.516504 12.37437m67.528698 35.53212c19.310672 5.11252 33.378614 15.03674 48.260034 9.89949 4.37683 6.19991 16.48638 10.68355 48.08326 12.02082l-85.913469 7.60139M299.625 212.625c-5.63736-4.15431-11.46921-8.11413-18.75-10.625-14.5 19.3174-29 41.30773-43.5 48.25-.26726 11.90911-2.12316 22.54731-7.375 30.46875 10.95118.73852 22.38887.69864 35-1.21875"/>
  </g>
</svg>