<?xml version="1.0" encoding="utf-8"?>
<!-- Generator: Adobe Illustrator 15.0.0, SVG Export Plug-In . SVG Version: 6.00 Build 0)  -->
<!DOCTYPE svg PUBLIC "-//W3C//DTD SVG 1.1//EN" "http://www.w3.org/Graphics/SVG/1.1/DTD/svg11.dtd">
<svg version="1.1" id="Laag_1" xmlns="http://www.w3.org/2000/svg" xmlns:xlink="http://www.w3.org/1999/xlink" x="0px" y="0px"
	 width="50px" height="50px" viewBox="0 0 50 50" enable-background="new 0 0 50 50" xml:space="preserve">
<g id="Romania">
	<path id="circle50_163_" fill="#F7D000" d="M25,0.505c13.531,0,21.23,10.966,21.23,24.495c0,13.529-7.699,24.495-21.23,24.495
		C11.473,49.495,3.772,38.529,3.772,25C3.772,11.471,11.473,0.505,25,0.505z"/>
	<path id="_127603600_42_" fill="#C50920" d="M33.74,47.889V2.112C42.951,5.631,49.49,14.555,49.49,25
		C49.494,35.448,42.949,44.366,33.74,47.889z"/>
	<path id="_127602832_42_" fill="#0F2C81" d="M16.261,2.112v45.775C7.05,44.366,0.509,35.448,0.509,24.99
		C0.505,14.555,7.05,5.631,16.261,2.112z"/>
</g>
<g>
	<g>
		<g>
			<g>
				<defs>
					<circle id="SVGID_1_" cx="25" cy="25" r="24.5"/>
				</defs>
				<clipPath id="SVGID_2_">
					<use xlink:href="#SVGID_1_"  overflow="visible"/>
				</clipPath>
				
					<radialGradient id="circle50_2_" cx="750.7598" cy="1657.9609" r="27.4688" gradientTransform="matrix(1 0 0 1 -725.7598 -1632.9609)" gradientUnits="userSpaceOnUse">
					<stop  offset="0" style="stop-color:#000000;stop-opacity:0"/>
					<stop  offset="0.7576" style="stop-color:#000000;stop-opacity:0"/>
					<stop  offset="1" style="stop-color:#000000"/>
				</radialGradient>
				
					<circle id="circle50_1_" opacity="0.4" clip-path="url(#SVGID_2_)" fill="url(#circle50_2_)" enable-background="new    " cx="25" cy="25" r="27.469"/>
			</g>
		</g>
	</g>
	<g>
		<g>
			<g>
				<defs>
					<circle id="SVGID_3_" cx="25" cy="25" r="24.5"/>
				</defs>
				<clipPath id="SVGID_4_">
					<use xlink:href="#SVGID_3_"  overflow="visible"/>
				</clipPath>
				
					<radialGradient id="circle50_3_" cx="750.7598" cy="1657.9609" r="31.6777" gradientTransform="matrix(1 0 0 1 -725.7598 -1632.9609)" gradientUnits="userSpaceOnUse">
					<stop  offset="0" style="stop-color:#000000;stop-opacity:0"/>
					<stop  offset="0.5758" style="stop-color:#000000;stop-opacity:0"/>
					<stop  offset="1" style="stop-color:#000000"/>
				</radialGradient>
				
					<circle id="circle50_7_" opacity="0.6" clip-path="url(#SVGID_4_)" fill="url(#circle50_3_)" enable-background="new    " cx="25" cy="25" r="31.678"/>
			</g>
		</g>
	</g>
</g>
<linearGradient id="SVGID_5_" gradientUnits="userSpaceOnUse" x1="750.4824" y1="1663.666" x2="750.4824" y2="1635.6641" gradientTransform="matrix(1 0 0 1 -725.7598 -1632.9609)">
	<stop  offset="0.0727" style="stop-color:#FFFFFF;stop-opacity:0.05"/>
	<stop  offset="0.897" style="stop-color:#FFFFFF;stop-opacity:0.75"/>
	<stop  offset="1" style="stop-color:#FFFFFF;stop-opacity:0.75"/>
</linearGradient>
<ellipse fill="url(#SVGID_5_)" cx="24.723" cy="16.704" rx="17.306" ry="14.001"/>
</svg>
