<?xml version="1.0" encoding="utf-8"?>
<!-- Generator: Adobe Illustrator 15.0.0, SVG Export Plug-In . SVG Version: 6.00 Build 0)  -->
<!DOCTYPE svg PUBLIC "-//W3C//DTD SVG 1.1//EN" "http://www.w3.org/Graphics/SVG/1.1/DTD/svg11.dtd">
<svg version="1.1" id="Laag_1" xmlns="http://www.w3.org/2000/svg" xmlns:xlink="http://www.w3.org/1999/xlink" x="0px" y="0px"
	 width="50px" height="50px" viewBox="0 0 50 50" enable-background="new 0 0 50 50" xml:space="preserve">
<g id="Serbia_and_Montenegro" transform="translate(428.87987,120.01433)">
	<path id="circle50_176_" fill="#FFFFFF" d="M-403.88-117.877c13.529,0,24.495,9.333,24.495,22.862
		c0,13.529-10.966,22.862-24.495,22.862c-13.526,0-24.495-9.333-24.495-22.862C-428.375-108.544-417.406-117.877-403.88-117.877z"/>
	<path fill="#DD0000" d="M-403.88-70.542c10.627,0,19.669-6.777,23.05-16.24h-46.1C-423.549-77.319-414.509-70.542-403.88-70.542z"
		/>
	<path fill="#003893" d="M-403.88-119.487c-10.627,0-19.669,6.774-23.05,16.24h46.1
		C-384.211-112.713-393.253-119.487-403.88-119.487z"/>
	<path fill="#DC0000" stroke="#000000" stroke-width="0.2009" d="M-417.726-109.73v20.681c0.274,3.023,1.096,5.278,2.376,6.766
		c1.478,1.574,2.718,2.124,4.357,2.566c0.497,0.145,2.149,0.269,3.014,0.283c1.706,0.1,2.887,0.954,3.85,2.105l0.393,0.501
		l0.387-0.501c0.967-1.151,2.147-2.006,3.852-2.105c0.865-0.016,2.518-0.14,3.016-0.283c1.641-0.442,2.883-0.992,4.357-2.566
		c1.28-1.486,2.1-3.741,2.374-6.766v-20.681C-398.685-109.717-408.115-109.74-417.726-109.73z"/>
	<path fill="#FFFFFF" stroke="#000000" stroke-width="0.1378" d="M-390.19-103.948c-0.221-0.02-0.813-0.163-1.396-1.228
		c-0.845-1.541-1.647-1.969-2.638-2.02c-1.566-0.131-2.537,0.89-2.748,3.305c-0.111,1.339-0.646,2.258-1.807,2.65
		c-0.964,0.325-1.546,0.679-1.556,1.081c-0.851-1.158-1.002-2.315-0.944-3.474c0.174,0.052,0.375,0.058,0.59,0.032
		c-0.946-0.94,0.112-2.376,1.185-2.345c-0.63-1.104,0.021-2.006,0.726-2.672c-0.35-0.087-0.703-0.153-1.07-0.153
		c-0.608,0-1.256,0.191-1.982,0.807c-0.809,0.852-1.501,1.726-1.892,2.65l-0.01,0.016l-0.014-0.016
		c-0.395-0.925-1.085-1.799-1.891-2.65c-0.729-0.615-1.377-0.807-1.986-0.807c-0.365,0-0.721,0.07-1.068,0.153
		c0.708,0.663,1.355,1.568,0.724,2.672c1.086,0,2.131,1.404,1.187,2.345c0.214,0.028,0.411,0.02,0.59-0.032
		c0.055,1.158-0.093,2.315-0.945,3.474c-0.01-0.402-0.592-0.756-1.555-1.081c-1.161-0.393-1.694-1.312-1.808-2.65
		c-0.21-2.415-1.185-3.436-2.751-3.305c-0.99,0.051-1.794,0.479-2.634,2.02c-0.582,1.064-1.174,1.208-1.396,1.228
		c0.247,0.229,0.666,0.224,1.141,0.144c-1.43,2.296-1.147,4.366-0.642,5.068c-0.481,1.693-0.472,3.419,0.141,5.183
		c-0.521,2.974-0.327,6.207,0.311,6.224c-0.388,1.544-0.07,2.743,0.856,3.834c0.008-0.878,0.268-1.655,0.861-2.31
		c0.967,0,1.457-0.598,1.33-2.022c0.488-0.688,1.018-1.317,1.726-1.623c0.708,0.093,1.205-0.246,1.474-1.054
		c0.53-0.104,0.952-0.748,1.333-1.453c-0.077,1.15-0.308,2.392-0.68,3.617c0.533,0.068,1.021-0.817,1.402-1.656
		c-0.455,1.451-0.065,3.193,0.805,4.191c1.073-0.91,1.748-2.132,2.156-3.267c-0.481,3.999-1.743,6.903-4.601,7.405
		c0.643,1.106,1.691,1.904,3.61,1.33c-0.02,0.363-0.046,0.729,0.058,1.053c0.333,0.063,0.729-0.121,1.14-0.37
		c0.259,0.663,0.539,1.292,0.959,1.786l0.167,0.188l0.166-0.188c0.417-0.494,0.695-1.123,0.957-1.786
		c0.408,0.249,0.805,0.435,1.137,0.37c0.107-0.322,0.082-0.688,0.057-1.053c1.92,0.574,2.97-0.224,3.613-1.33
		c-2.857-0.504-4.115-3.406-4.6-7.405c0.407,1.135,1.084,2.356,2.156,3.267c0.871-0.998,1.258-2.74,0.805-4.191
		c0.381,0.839,0.868,1.726,1.399,1.656c-0.37-1.227-0.603-2.467-0.681-3.617c0.384,0.705,0.804,1.349,1.338,1.453
		c0.268,0.808,0.762,1.146,1.47,1.054c0.712,0.306,1.237,0.935,1.726,1.623c-0.125,1.426,0.365,2.022,1.328,2.022
		c0.594,0.649,0.854,1.432,0.864,2.31c0.927-1.091,1.243-2.29,0.854-3.834c0.642-0.017,0.832-3.25,0.312-6.224
		c0.612-1.764,0.621-3.489,0.14-5.183c0.506-0.702,0.787-2.772-0.643-5.068C-390.856-103.728-390.438-103.718-390.19-103.948z"/>
	<path fill="#FFFFFF" stroke="#000000" stroke-width="0.1378" d="M-405.621-108.866c-0.445-0.022-0.808-0.073-1.146-0.198
		c-0.338-0.146-0.708-0.188-1.122-0.156c-0.695,0.055-1.024,0.39-0.831,0.642c0.753-0.201,1.301-0.1,1.69,0.227
		c0.253,0.22,0.771,0.424,1.204,0.396c0.625-0.074,1.081-0.431,1.374-1.063C-404.771-108.891-405.152-108.847-405.621-108.866z"/>
	<circle fill="#FFFFFF" stroke="#000000" stroke-width="0.1378" cx="-407.586" cy="-108.348" r="0.253"/>
	<path fill="#F5BD21" stroke="#000000" stroke-width="0.1378" stroke-miterlimit="40" d="M-408.626-108.553
		c-0.033,0-2.256,0.061-1.817,1.381c0,0,1.462-0.74,2.701,0.111C-407.806-107.657-408.188-108.127-408.626-108.553z"/>
	<path fill="#F5BD21" stroke="#000000" stroke-width="0.1378" stroke-miterlimit="40" d="M-409.037-107.054
		c-0.433,0-0.842,0.162-1.12,0.258c-0.494,0.173-1.046-0.025-1.046-0.025c0.321,0.594,1.332,0.581,1.866,0.386
		c0.443-0.162,1.013,0.01,1.164,0.042c0.267,0.115,0.354,0.128,0.354,0.128c0.031-0.064,0.077-0.256,0.09-0.37
		c-0.01-0.01-0.022-0.017-0.033-0.025C-408.192-106.959-408.609-107.057-409.037-107.054z"/>
	<path fill="#F5BD21" stroke="#000000" stroke-width="0.1378" stroke-miterlimit="40" d="M-409.483-105.948l1.515,0.003
		c0,0,0.146-0.309,0.148-0.321c-0.126-0.064-0.391-0.17-0.697-0.163C-408.827-106.42-409.171-106.311-409.483-105.948z"/>
	<path fill="#F5BD21" stroke="#000000" stroke-width="0.1378" d="M-408.198-88.233L-408.198-88.233c0,0-1.598,2.607-3.592,4.034
		c0,0-0.925-0.615-1.913-0.179c-0.99,0.434-1.171,1.023-0.657,2.102c0,0,0.282-1.46,1.403-1.229c0,0-1.575,1.668,0.194,2.559
		c0,0-0.232-1.419,0.657-1.671c0,0-0.249,2.228,1.625,2.2c0,0-0.799-1.122-0.683-2.144c0.116-1.015,0.686-1.021,0.872-0.96
		s0.557,0.396,0.645,0.864c0,0,0.638-1.254-0.405-1.81c0,0,1.075-1.467,2.38-2C-407.953-86.99-408.135-87.602-408.198-88.233
		L-408.198-88.233z"/>
	<circle fill="#FFFFFF" stroke="#000000" stroke-width="0.1378" cx="-399.888" cy="-108.348" r="0.253"/>
	<path fill="#F5BD21" stroke="#000000" stroke-width="0.1378" d="M-393.769-84.378c-0.988-0.438-1.914,0.179-1.914,0.179
		c-1.998-1.427-3.592-4.034-3.592-4.034h-0.002c-0.06,0.631-0.244,1.243-0.522,1.768c1.306,0.531,2.378,2.002,2.378,2.002
		c-1.043,0.556-0.404,1.807-0.404,1.807c0.092-0.466,0.46-0.801,0.646-0.861c0.185-0.061,0.759-0.055,0.869,0.961
		c0.117,1.018-0.679,2.144-0.679,2.144c1.87,0.024,1.62-2.204,1.62-2.204c0.891,0.255,0.657,1.674,0.657,1.674
		c1.771-0.893,0.194-2.559,0.194-2.559c1.121-0.231,1.402,1.229,1.402,1.229C-392.599-83.353-392.776-83.944-393.769-84.378z"/>
	<g id="g116" transform="matrix(0.48810866,0,0,0.48810866,-5.1189134e-4,-0.01083295)">
		<path id="path22" fill="none" stroke="#000000" stroke-width="0.2823" d="M-832.881-183.11c-0.809,1.306-1.463,4.288-1.385,7.417"
			/>
		<path id="path24" fill="none" stroke="#000000" stroke-width="0.2823" d="M-831.945-164.571c1.851-0.882,3.471-3.051,4.764-6.664"
			/>
		<path id="path26_1_" fill="none" stroke="#000000" stroke-width="0.2823" d="M-827.139-171.23v12.138"/>
		<path id="path28" fill="none" stroke="#000000" stroke-width="0.2823" d="M-827.165-215.637c-0.937,1.346-2.049,2.641-4.986,3.333
			"/>
		<path id="path30" fill="none" stroke="#000000" stroke-width="0.2823" d="M-828.33-214.225c-1.818,2.403-3.277,5.376-0.844,7.951"
			/>
		<path id="path32" fill="none" stroke="#000000" stroke-width="0.2823" d="M-845.326-212.338
			c-4.261,6.268-2.549,18.751,7.977,18.751"/>
		<path id="path34" fill="none" stroke="#000000" stroke-width="0.2823" d="M-852.574-212.658c0.828-0.214,1.638-0.853,2.379-1.915
			c1.184-1.895,2.542-2.795,4.647-2.815"/>
		<path id="path36" fill="none" stroke="#000000" stroke-width="0.2823" d="M-853.863-202.261c2.263-7.959,4.75-11.964,8.207-12.71"
			/>
		<path id="path38" fill="none" stroke="#000000" stroke-width="0.2823" d="M-853.587-191.605c0.431-0.96,0.745-1.927,1.045-3.423
			c1.09-5.594,2.901-10.03,5.374-12.879"/>
		<path id="path40" fill="none" stroke="#000000" stroke-width="0.2823" d="M-846.942-200.792
			c-3.698,6.058-4.666,20.375-2.461,25.027"/>
		<path id="path42" fill="none" stroke="#000000" stroke-width="0.2823" d="M-842.173-194.734c-1.528,2.921-2.068,8.187-0.952,11.5"
			/>
		<path id="path44" fill="none" stroke="#000000" stroke-width="0.2823" d="M-839.414-193.8c-1.06,2.705-1.339,5.56-0.764,8.417"/>
		<path id="path46" fill="none" stroke="#000000" stroke-width="0.2823" d="M-846.706-185.677c0.934-0.542,1.772-1.216,3.011-2.999"
			/>
		<path id="path48" fill="none" stroke="#000000" stroke-width="0.2823" d="M-844.764-196.753c-1.238,2.103-1.728,4.352-1.936,7.665
			"/>
		<path id="path50" fill="none" stroke="#000000" stroke-width="0.2823" d="M-846.7-189.088l0.01,9.167"/>
		<path id="path52" fill="none" stroke="#000000" stroke-width="0.2823" stroke-miterlimit="40" d="M-845.314-219.571
			c0,0-0.9,4.242,0.098,7.809c1.011,3.561,3.932,6.5,7.591,6.5"/>
		<path id="path54" fill="none" stroke="#000000" stroke-width="0.2823" stroke-miterlimit="40" d="M-852.944-178.888
			c0,0,0.494-1.07,1.14-1.713c0.664-0.658,1.14-1.843,1.222-2.475"/>
		<path id="path56" fill="none" stroke="#000000" stroke-width="0.2823" d="M-840.08-173.02c0,0-0.606,0.738-0.692,1.837"/>
		<path id="path58" fill="none" stroke="#000000" stroke-width="0.2823" d="M-843.963-166.852c0,0,0.246-0.654,0.846-0.758
			c0.604-0.104,0.97,0.426,0.97,0.426"/>
		<path id="path60" fill="none" stroke="#000000" stroke-width="0.2823" d="M-847.16-169.211c0,0,1.594-0.738,1.876,0.712"/>
		<path id="path62" fill="none" stroke="#000000" stroke-width="0.2823" d="M-848.815-172.08c0,0,0.852-0.098,1.038,0.308
			c0.186,0.404,0.092,1.096,0.092,1.096"/>
		<path id="path64" fill="none" stroke="#000000" stroke-width="0.2823" d="M-829.822-182.56c0,0,0.706,7.417,2.685,11.33
			c1.981-3.913,2.683-11.33,2.683-11.33"/>
		<path id="path66" fill="none" stroke="#000000" stroke-width="0.2823" d="M-839.29-167.29c0,0,8.189,3.411,10.934-7.089"/>
		<path id="path68" fill="none" stroke="#000000" stroke-width="0.2823" d="M-829.444-163.161c0,0-0.384-1.37-0.208-3.365"/>
		<path id="path70" fill="none" stroke="#000000" stroke-width="0.2823" d="M-833.858-205.294c0,0,4.984-0.058,6.859-2.783
			c1.875-2.725,0.954-6.488-0.138-7.562c-1.095,1.072-2.023,4.837-0.15,7.562c1.875,2.725,6.86,2.783,6.86,2.783"/>
		<path id="path72" fill="none" stroke="#000000" stroke-width="0.2823" d="M-821.399-183.11c0.81,1.306,1.456,4.288,1.384,7.417"/>
		<path id="path74" fill="none" stroke="#000000" stroke-width="0.2823" d="M-822.339-164.571c-1.845-0.882-3.469-3.051-4.768-6.664
			"/>
		<path id="path76" fill="none" stroke="#000000" stroke-width="0.2823" d="M-827.117-215.637c0.934,1.346,2.049,2.641,4.982,3.333"
			/>
		<path id="path78" fill="none" stroke="#000000" stroke-width="0.2823" d="M-825.944-214.225c1.817,2.403,3.273,5.376,0.84,7.951"
			/>
		<path id="path80" fill="none" stroke="#000000" stroke-width="0.2823" d="M-808.954-212.338
			c4.253,6.268,2.545,18.751-7.983,18.751"/>
		<path id="path82" fill="none" stroke="#000000" stroke-width="0.2823" d="M-801.712-212.658c-0.82-0.214-1.633-0.853-2.375-1.915
			c-1.186-1.895-2.539-2.795-4.646-2.815"/>
		<path id="path84" fill="none" stroke="#000000" stroke-width="0.2823" d="M-800.415-202.261
			c-2.269-7.959-4.746-11.964-8.207-12.71"/>
		<path id="path86" fill="none" stroke="#000000" stroke-width="0.2823" d="M-800.691-191.605c-0.436-0.96-0.752-1.927-1.044-3.423
			c-1.098-5.594-2.905-10.03-5.378-12.879"/>
		<path id="path88" fill="none" stroke="#000000" stroke-width="0.2823" d="M-807.344-200.792
			c3.699,6.058,4.668,20.375,2.471,25.027"/>
		<path id="path90" fill="none" stroke="#000000" stroke-width="0.2823" d="M-812.107-194.734c1.529,2.921,2.065,8.187,0.956,11.5"
			/>
		<path id="path92" fill="none" stroke="#000000" stroke-width="0.2823" d="M-814.864-193.8c1.06,2.705,1.332,5.56,0.76,8.417"/>
		<path id="path94" fill="none" stroke="#000000" stroke-width="0.2823" d="M-807.58-185.677c-0.934-0.542-1.767-1.216-3.011-2.999"
			/>
		<path id="path96" fill="none" stroke="#000000" stroke-width="0.2823" d="M-809.521-196.753c1.238,2.103,1.733,4.352,1.939,7.665"
			/>
		<path id="path98" fill="none" stroke="#000000" stroke-width="0.2823" d="M-807.582-189.088l-0.014,9.167"/>
		<path id="path100" fill="none" stroke="#000000" stroke-width="0.2823" stroke-miterlimit="40" d="M-808.966-219.571
			c0,0,0.904,4.242-0.1,7.809c-1.008,3.561-3.929,6.5-7.587,6.5"/>
		<path id="path102" fill="none" stroke="#000000" stroke-width="0.2823" stroke-miterlimit="40" d="M-801.34-178.888
			c0,0-0.49-1.07-1.136-1.713c-0.664-0.658-1.14-1.843-1.228-2.475"/>
		<path id="path104" fill="none" stroke="#000000" stroke-width="0.2823" d="M-814.204-173.02c0,0,0.612,0.738,0.694,1.837"/>
		<path id="path106" fill="none" stroke="#000000" stroke-width="0.2823" d="M-810.323-166.852c0,0-0.242-0.654-0.844-0.758
			c-0.6-0.104-0.972,0.426-0.972,0.426"/>
		<path id="path108" fill="none" stroke="#000000" stroke-width="0.2823" d="M-807.116-169.211c0,0-1.601-0.738-1.881,0.712"/>
		<path id="path110" fill="none" stroke="#000000" stroke-width="0.2823" d="M-805.461-172.08c0,0-0.848-0.098-1.04,0.308
			c-0.188,0.404-0.088,1.096-0.088,1.096"/>
		<path id="path112" fill="none" stroke="#000000" stroke-width="0.2823" d="M-814.988-167.29c0,0-8.195,3.411-10.932-7.089"/>
		<path id="path114" fill="none" stroke="#000000" stroke-width="0.2823" d="M-824.836-163.161c0,0,0.386-1.37,0.208-3.365"/>
	</g>
	<path fill="#DC0000" stroke="#000000" stroke-width="0.1378" d="M-408.855-100.201v7.646c0.042,1.104,0.086,1.627,0.784,2.498
		c0,0,0.642,0.75,1.858,0.75c1.28,0,2.145,0.551,2.479,1.266c0.332-0.715,1.191-1.266,2.471-1.266c1.223,0,1.859-0.75,1.859-0.75
		c0.7-0.871,0.748-1.395,0.785-2.498v-7.646C-402.005-100.197-405.328-100.204-408.855-100.201z"/>
	<path fill="#FFFFFF" stroke="#000000" stroke-width="0.0495" d="M-406.016-100.201c-0.187,0-0.374,0-0.563,0v2.564h-2.277v0.559
		h2.277v2.577h0.563v-2.577h2.279v-0.559h-2.279V-100.201z"/>
	<path fill="#FFFFFF" stroke="#000000" stroke-width="0.1012" d="M-407.795-99.438c-0.227,0.159-0.121,0.424,0.046,0.438
		c0,0-0.009-0.224,0.188-0.256c0.172-0.028,0.297,0.08,0.3,0.224c0.007,0.146-0.119,0.242-0.245,0.29
		c0.126,0.048,0.252,0.144,0.245,0.29c-0.003,0.144-0.128,0.252-0.3,0.224c-0.197-0.032-0.188-0.255-0.188-0.255
		c-0.167,0.013-0.272,0.277-0.046,0.437c0.225,0.159,0.537,0.07,0.655,0.01c0.118-0.06,0.249-0.083,0.249-0.083v-1.244
		c0,0-0.131-0.025-0.249-0.083C-407.258-99.508-407.57-99.597-407.795-99.438z"/>
	<g id="use125" transform="translate(0,69.2333)">
		<path fill="#FFFFFF" stroke="#000000" stroke-width="0.1012" d="M-407.795-165.788c-0.227,0.159-0.121,0.427,0.045,0.437
			c0,0-0.007-0.224,0.189-0.255c0.172-0.029,0.295,0.079,0.3,0.227c0.007,0.14-0.119,0.239-0.247,0.287
			c0.128,0.051,0.254,0.143,0.247,0.29c-0.005,0.144-0.128,0.252-0.3,0.223c-0.196-0.031-0.189-0.255-0.189-0.255
			c-0.166,0.013-0.271,0.277-0.045,0.438c0.224,0.159,0.536,0.069,0.655,0.009c0.118-0.061,0.249-0.083,0.249-0.083v-1.243
			c0,0-0.131-0.025-0.249-0.087C-407.259-165.855-407.571-165.948-407.795-165.788z"/>
	</g>
	<g id="c_5_" transform="matrix(0.48810866,0,0,0.48810866,-5.1189134e-4,-0.01083295)">
		<path fill="none" stroke="#000000" stroke-width="0.1012" d="M-821.611-203.693c-0.422-0.372-0.708-0.418-1.152-0.286
			c-0.444,0.13-0.296,0.404-0.296,0.404l0.792,0.752c1.014,0.802,1.521-0.398,1.521-0.398
			C-821.191-203.215-821.191-203.321-821.611-203.693z"/>
		<path fill="#F5BD21" stroke="#000000" stroke-width="0.1012" d="M-817.313-198.041c-0.432-0.142-0.464-0.718-0.464-0.718
			c-1.328-0.162-1.268-1.129-1.268-1.129c0.556-0.072,1.1-0.574,1.076-1.07c-0.02-0.498-0.596-0.921-1.228-1.195
			c-0.638-0.274-0.71-0.614-0.428-0.856c0.288-0.242,0.692,0.02,0.692,0.02l0.216-0.078l-0.04-0.216
			c-0.308-0.184-0.542-0.242-0.686-0.236c-0.15,0-0.222,0.014-0.294,0.026c-0.286,0.06-0.712,0.444-0.548,1s1.124,0.809,1.493,1.181
			c0.37,0.366,0.098,0.666-0.146,0.718c-0.254,0.054-0.494,0.204-0.494,0.204c-0.412-0.072-0.928,0.072-0.928,0.072
			c-0.596-0.02-1.34-0.472-1.328-0.576c0.648-0.196,0.708-0.456,0.764-0.542c0,0,0.14-0.104,0-0.357
			c-0.128-0.242-0.6-0.7-0.652-0.752c-0.418,0.026-0.522-0.314-0.882-0.32l-0.462,0.894l-0.622,0.086
			c-0.218,0.267-0.29,0.573-0.454,0.861c-0.17-0.078-0.972-0.602-0.972-0.602c0.044-1.369-0.768-1.451-0.768-1.451
			c0.152,0.21,0.132,0.49,0.132,0.49c-0.28-0.234-0.636-0.13-0.636-0.13c0.252,0.182,0.356,0.464,0.356,0.464
			c-0.344-0.138-0.687,0.038-0.687,0.038c0.475,0.17,0.555,0.633,0.555,0.633c-0.188,0.046-0.392-0.038-0.392-0.038
			c0.228,0.614,0.856,0.47,0.856,0.47c0.384,0.306,0.452,0.796,0.452,0.796c0.42-0.11,0.66,0.222,0.66,0.222
			c-0.128,0.184-0.628,0.732-0.628,0.732c0.224,0.372,0.484,0.659,0.824,0.985c-0.104,0.372-0.644,0.764-0.644,0.764
			s-0.704-0.15-1.28,0.276c0,0,0.128,0.15,0.516,0.156c-0.144,0.084-0.316,0.144-0.464,0.49c0,0,0.408,0.012,0.644-0.032
			c-0.116,0.098-0.264,0.208-0.316,0.476c0,0,0.776-0.078,1.12-0.444c0,0,0.016,0.228,0.072,0.306c0,0,0.346-0.09,0.398-0.698
			c0.056-0.608,0.61-0.66,0.8-0.548c0.128-0.478,0.32-0.7,0.32-0.7c0.424,0.19,1.831-0.02,1.831-0.02
			c-0.02,0.32,0.43,0.648,0.43,0.648l-0.26,0.34c0,0-0.542-0.406-1.078,0c0,0,0.268,0.096,0.384,0.196c0,0-0.372-0.028-0.56,0.286
			c0,0,0.332,0.118,0.58,0.124c-0.096,0.052-0.344,0.15-0.396,0.464c0,0,0.546,0.006,0.906-0.234c0,0-0.078,0.188-0.072,0.305
			c0,0,0.392-0.109,0.502-0.287c0.106-0.188,0.412-0.208,0.478-0.17c-0.118-0.574,0.392-0.678,0.392-0.678
			c-0.444-0.536,0.058-0.902,0.058-0.902c0.582,0.406,1.521,0.242,1.521,0.242l0.176,0.522c0,0-0.584-0.274-1.224,0.3
			c0,0,0.256,0.118,0.524,0.106c0,0-0.308,0.208-0.408,0.424c0,0,0.12,0.144,0.63-0.046c0,0-0.238,0.314-0.25,0.464
			c0,0,0.276-0.124,0.59-0.164c0.318-0.038,0.614-0.156,0.718-0.482c0,0,0.16,0.312,0.232,0.378c0,0,0.338-0.326,0.154-0.724
			C-817.401-197.667-817.413-197.825-817.313-198.041z"/>
		<path id="path135_3_" fill="none" stroke="#000000" stroke-width="0.1012" d="M-820.326-198.739c0,0-0.792,0.346-0.92,0.352
			 M-821.859-198.327c0,0,1.162-0.51,1.36-0.875 M-819.438-200.392c0,0,0.384,0.104,0.392,0.502 M-819.882-198.295
			c0,0-1.044-0.672-0.476-2.025 M-824.254-198.413c0,0,0.162-0.516,0.56-0.847 M-823.227-201.933
			c-0.024,0.046-0.348,0.691-0.444,1.181c-0.104,0.53-0.616,1.55-1.052,1.823 M-823.083-198.367c0,0,0.288-0.476,0.988-0.476
			c0.692,0,1.098-0.993,0.398-2.053c0,0-0.408,1.498-1.182,1.72c-0.772,0.215-1.244-0.484-1.244-0.484 M-822.835-202.005
			c0,0-0.928,2.575,0.396,3.208 M-822.527-200.72c0.42-0.934,0.096-2.117,0.096-2.117c0.22,0.02,0.412,0.216,0.412,0.216
			s0.436,0.894,0.322,1.725c0,0-0.738,0.288-1.471,0.17"/>
		<path fill="#F5BD21" stroke="#000000" stroke-width="0.1012" d="M-821.611-203.693c-0.422-0.372-0.708-0.418-1.152-0.286
			c-0.444,0.13-0.296,0.404-0.296,0.404l0.792,0.752c1.014,0.802,1.521-0.398,1.521-0.398
			C-821.191-203.215-821.191-203.321-821.611-203.693z"/>
		<path fill="#F5BD21" stroke="#000000" stroke-width="0.1012" d="M-823.844-202.803c0,0-0.548,0.194-1.038-0.086
			c0,0,0.288,0.628,0.914,0.588c0.568-0.032,0.53-0.28,0.496-0.372C-823.62-202.875-823.628-202.941-823.844-202.803z"/>
		<path fill="#F5BD21" stroke="#000000" stroke-width="0.1012" d="M-822.311-203.555c-0.092,0.032-0.188,0.156-0.188,0.156
			c-0.016-0.188-0.176-0.234-0.296-0.234c-0.116,0-0.2,0.02-0.252,0.032c-0.136,0.046-1.168,0.366-1.168,0.366
			c0.02,0.236,0.06,0.34,0.092,0.49c0.172-0.014,0.28-0.058,0.28-0.058c0.212-0.066,0.34,0.038,0.372,0.13
			c0.036,0.092,0.072,0.34-0.496,0.372c-0.044,0.006-0.084,0.006-0.124,0c0,0.092,0.016,0.21,0.028,0.236
			c0.312,0.162,0.788,0.202,1.152,0.248l0.448-1.052c0,0,0.212,0.006,0.256,0c0.056-0.006,0.134-0.066,0.134-0.066
			c0.186-0.19,0.232-0.358,0.174-0.49C-821.985-203.587-822.183-203.595-822.311-203.555z"/>
		<circle fill="none" stroke="#000000" stroke-width="0.1012" cx="-823.131" cy="-203.231" r="0.062"/>
		<path fill="#F5BD21" stroke="#000000" stroke-width="0.1012" d="M-818.138-203.425c-0.5-0.09-0.654,0.138-0.654,0.138
			s-0.176,0.234-0.104,0.306c0.078,0.092,0.402,0.412,0.936,0.328c0.542-0.08,0.798-0.798,0.798-0.798
			C-817.357-203.379-817.641-203.339-818.138-203.425z"/>
		<path id="path147" fill="none" stroke="#000000" stroke-width="0.1012" d="M-824.45-200.132c0,0,0.15-0.234,0.436-0.894"/>
	</g>
	<path fill="#FFFFFF" stroke="#000000" stroke-width="0.0495" d="M-400.983-94.505h-0.559v2.135h-2.197v0.561h2.197v2.45
		c0.089-0.007,0.184-0.01,0.277-0.01c0.098,0,0.19-0.007,0.281-0.013v-2.424h2.314c0.018-0.174,0.027-0.361,0.035-0.563h-2.352
		v-2.137H-400.983z"/>
	<path id="path152_1_" fill="none" stroke="#000000" stroke-width="0.1395" d="M-408.813-94.505h10.196"/>
	<path id="path154_1_" fill="none" stroke="#000000" stroke-width="0.1395" d="M-403.733-100.229v12.188"/>
	<path fill="none" stroke="#000000" stroke-width="0.1378" d="M-408.855-100.201v7.646c0.042,1.104,0.086,1.627,0.784,2.498
		c0,0,0.642,0.75,1.858,0.75c1.28,0,2.145,0.551,2.479,1.266c0.332-0.715,1.191-1.266,2.471-1.266c1.223,0,1.859-0.75,1.859-0.75
		c0.7-0.871,0.748-1.395,0.785-2.498v-7.646l0,0C-401.884-100.197-405.334-100.204-408.855-100.201z"/>
	<path fill="#FFFFFF" stroke="#000000" stroke-width="0.1378" d="M-399.584-109.22c-0.413-0.035-0.782,0.01-1.121,0.156
		c-0.338,0.125-0.703,0.173-1.146,0.198c-0.467,0.019-0.853-0.025-1.17-0.153c0.293,0.635,0.752,0.988,1.373,1.063
		c0.432,0.028,0.95-0.176,1.203-0.396c0.389-0.326,0.938-0.428,1.693-0.227C-398.56-108.831-398.89-109.166-399.584-109.22z"/>
	<path fill="#F5BD21" stroke="#000000" stroke-width="0.1378" stroke-miterlimit="40" d="M-398.847-108.553
		c-0.438,0.427-0.818,0.893-0.881,1.492c1.233-0.852,2.696-0.111,2.696-0.111C-396.592-108.493-398.815-108.553-398.847-108.553z"/>
	<path fill="#F5BD21" stroke="#000000" stroke-width="0.1378" stroke-miterlimit="40" d="M-397.315-106.797
		c-0.277-0.096-0.688-0.258-1.119-0.258c-0.428,0-0.846,0.096-1.275,0.396c-0.012,0.006-0.021,0.016-0.034,0.025
		c0.019,0.115,0.063,0.307,0.091,0.37c0,0,0.09-0.01,0.354-0.128c0.155-0.031,0.719-0.204,1.164-0.041
		c0.536,0.194,1.547,0.204,1.866-0.386C-396.271-106.822-396.819-106.621-397.315-106.797z"/>
	<path fill="#F5BD21" stroke="#000000" stroke-width="0.1378" stroke-miterlimit="40" d="M-398.955-106.429
		c-0.31-0.007-0.573,0.099-0.7,0.163c0.008,0.009,0.148,0.321,0.148,0.321l1.518-0.003
		C-398.3-106.311-398.646-106.42-398.955-106.429z"/>
	<path fill="#FFFFFF" stroke="#000000" stroke-width="0.1012" d="M-402.761-94.169c-0.223,0.158-0.114,0.427,0.045,0.437
		c0,0-0.006-0.224,0.191-0.255c0.176-0.029,0.293,0.079,0.299,0.223c0.008,0.147-0.117,0.243-0.244,0.291
		c0.127,0.051,0.252,0.144,0.244,0.291c-0.006,0.144-0.123,0.252-0.299,0.223c-0.197-0.031-0.191-0.258-0.191-0.258
		c-0.159,0.016-0.268,0.279-0.045,0.438c0.224,0.16,0.539,0.069,0.656,0.01c0.121-0.061,0.252-0.083,0.252-0.083v-1.242
		c0,0-0.131-0.025-0.252-0.084C-402.222-94.239-402.537-94.326-402.761-94.169z"/>
	<g id="use169" transform="translate(0,69.2333)">
		<path fill="#FFFFFF" stroke="#000000" stroke-width="0.1012" d="M-402.761-160.519c-0.223,0.159-0.114,0.428,0.045,0.438
			c0,0-0.006-0.224,0.191-0.256c0.176-0.024,0.293,0.08,0.299,0.228c0.008,0.144-0.117,0.239-0.244,0.287
			c0.127,0.051,0.252,0.146,0.244,0.29c-0.006,0.146-0.123,0.252-0.299,0.227c-0.197-0.031-0.191-0.258-0.191-0.258
			c-0.159,0.014-0.268,0.28-0.045,0.438c0.224,0.158,0.539,0.069,0.656,0.013c0.121-0.062,0.252-0.083,0.252-0.083v-1.247
			c0,0-0.131-0.022-0.252-0.083C-402.222-160.586-402.537-160.675-402.761-160.519z"/>
	</g>
	<path fill="#FFFFFF" stroke="#000000" stroke-width="0.1012" d="M-399.729-89.895c0.228-0.158,0.121-0.424-0.047-0.438
		c0,0,0.01,0.227-0.188,0.259c-0.174,0.024-0.297-0.08-0.301-0.228c-0.006-0.144,0.119-0.238,0.246-0.289
		c-0.127-0.049-0.252-0.145-0.246-0.291c0.004-0.144,0.128-0.248,0.301-0.224c0.195,0.035,0.188,0.255,0.188,0.255
		c0.168-0.009,0.273-0.277,0.047-0.434c-0.226-0.159-0.537-0.07-0.654-0.014c-0.117,0.062-0.248,0.084-0.248,0.084v1.246
		c0,0,0.131,0.022,0.248,0.084C-400.267-89.825-399.954-89.736-399.729-89.895z"/>
	<g id="use125_1_" transform="translate(0,69.2333)">
		<path fill="#FFFFFF" stroke="#000000" stroke-width="0.1012" d="M-399.729-162.011c0.228-0.16,0.121-0.428-0.045-0.438
			c0,0,0.008,0.224-0.188,0.255c-0.173,0.028-0.295-0.079-0.3-0.228c-0.008-0.14,0.119-0.237,0.246-0.287
			c-0.127-0.051-0.254-0.143-0.246-0.289c0.005-0.145,0.127-0.252,0.3-0.223c0.196,0.03,0.188,0.254,0.188,0.254
			c0.166-0.013,0.271-0.276,0.045-0.437c-0.224-0.16-0.535-0.07-0.654-0.011c-0.117,0.062-0.248,0.084-0.248,0.084v1.242
			c0,0,0.131,0.026,0.248,0.088C-400.265-161.945-399.952-161.852-399.729-162.011z"/>
	</g>
	<path fill="#FFFFFF" stroke="#000000" stroke-width="0.1012" d="M-404.762-95.164c0.224-0.16,0.115-0.425-0.045-0.438
		c0,0,0.007,0.224-0.191,0.255c-0.175,0.029-0.293-0.079-0.3-0.223c-0.006-0.144,0.118-0.242,0.246-0.29
		c-0.128-0.048-0.252-0.144-0.246-0.287c0.007-0.147,0.125-0.252,0.3-0.227c0.198,0.031,0.191,0.258,0.191,0.258
		c0.16-0.013,0.269-0.28,0.045-0.439c-0.224-0.156-0.539-0.067-0.657-0.01c-0.119,0.061-0.25,0.083-0.25,0.083v1.247
		c0,0,0.131,0.022,0.25,0.079C-405.301-95.094-404.985-95.007-404.762-95.164z"/>
	<g id="use169_1_" transform="translate(0,69.2333)">
		<path fill="#FFFFFF" stroke="#000000" stroke-width="0.1012" d="M-404.762-167.281c0.224-0.159,0.115-0.428-0.045-0.437
			c0,0,0.007,0.223-0.191,0.255c-0.175,0.025-0.293-0.08-0.3-0.227c-0.006-0.144,0.118-0.239,0.246-0.287
			c-0.128-0.051-0.252-0.146-0.246-0.29c0.007-0.146,0.125-0.252,0.3-0.227c0.198,0.032,0.191,0.259,0.191,0.259
			c0.16-0.014,0.269-0.281,0.045-0.438c-0.224-0.159-0.539-0.07-0.657-0.013c-0.119,0.061-0.25,0.083-0.25,0.083v1.247
			c0,0,0.131,0.022,0.25,0.083C-405.301-167.213-404.985-167.125-404.762-167.281z"/>
	</g>
	<g id="c_4_" transform="matrix(0.48810866,0,0,0.48810866,-5.1189134e-4,-0.01083295)">
		<path fill="none" stroke="#000000" stroke-width="0.1012" d="M-832.125-192.263c-0.422-0.374-0.71-0.418-1.154-0.288
			c-0.443,0.124-0.295,0.404-0.295,0.404l0.791,0.746c1.016,0.81,1.524-0.392,1.524-0.392
			C-831.703-191.787-831.703-191.891-832.125-192.263z"/>
		<path fill="#F5BD21" stroke="#000000" stroke-width="0.1012" d="M-827.828-186.611c-0.432-0.15-0.464-0.726-0.464-0.726
			c-1.326-0.162-1.266-1.128-1.266-1.128c0.554-0.068,1.1-0.568,1.074-1.064c-0.02-0.504-0.594-0.928-1.228-1.202
			c-0.638-0.268-0.71-0.614-0.428-0.85c0.288-0.242,0.692,0.014,0.692,0.014l0.216-0.072l-0.04-0.216
			c-0.306-0.19-0.542-0.248-0.686-0.242c-0.15,0.008-0.222,0.014-0.294,0.034c-0.285,0.052-0.711,0.436-0.547,0.992
			c0.164,0.556,1.123,0.814,1.492,1.182c0.37,0.364,0.098,0.672-0.146,0.724c-0.256,0.052-0.496,0.196-0.496,0.196
			c-0.411-0.064-0.927,0.072-0.927,0.072c-0.594-0.02-1.34-0.464-1.326-0.568c0.646-0.196,0.706-0.464,0.764-0.548
			c0,0,0.138-0.1,0-0.36c-0.13-0.24-0.602-0.698-0.654-0.744c-0.418,0.026-0.522-0.32-0.882-0.32l-0.461,0.896l-0.622,0.084
			c-0.218,0.268-0.29,0.568-0.454,0.86c-0.17-0.084-0.972-0.608-0.972-0.608c0.042-1.368-0.767-1.449-0.767-1.449
			c0.15,0.208,0.13,0.488,0.13,0.488c-0.28-0.228-0.636-0.124-0.636-0.124c0.254,0.176,0.356,0.464,0.356,0.464
			c-0.344-0.136-0.686,0.032-0.686,0.032c0.476,0.172,0.554,0.642,0.554,0.642c-0.186,0.044-0.392-0.046-0.392-0.046
			c0.23,0.62,0.856,0.476,0.856,0.476c0.386,0.308,0.452,0.798,0.452,0.798c0.419-0.118,0.661,0.222,0.661,0.222
			c-0.126,0.176-0.629,0.724-0.629,0.724c0.225,0.378,0.483,0.664,0.825,0.992c-0.104,0.372-0.646,0.756-0.646,0.756
			s-0.701-0.148-1.278,0.276c0,0,0.128,0.152,0.514,0.156c-0.144,0.084-0.314,0.144-0.462,0.496c0,0,0.406,0.008,0.642-0.032
			c-0.116,0.1-0.262,0.204-0.314,0.476c0,0,0.774-0.084,1.119-0.444c0,0,0.016,0.224,0.072,0.308c0,0,0.346-0.096,0.398-0.704
			c0.056-0.604,0.61-0.656,0.8-0.544c0.128-0.476,0.32-0.7,0.32-0.7c0.424,0.192,1.831-0.016,1.831-0.016
			c-0.02,0.312,0.43,0.64,0.43,0.64l-0.26,0.336c0,0-0.544-0.396-1.078,0.008c0,0,0.268,0.092,0.384,0.196
			c0,0-0.372-0.032-0.561,0.28c0,0,0.333,0.12,0.581,0.132c-0.098,0.052-0.346,0.144-0.398,0.456c0,0,0.548,0.014,0.908-0.228
			c0,0-0.078,0.184-0.072,0.306c0,0,0.392-0.11,0.502-0.294c0.106-0.18,0.412-0.2,0.478-0.16c-0.118-0.584,0.392-0.68,0.392-0.68
			c-0.444-0.544,0.058-0.904,0.058-0.904c0.581,0.408,1.521,0.244,1.521,0.244l0.176,0.52c0,0-0.586-0.28-1.225,0.296
			c0,0,0.255,0.124,0.523,0.104c0,0-0.308,0.208-0.406,0.424c0,0,0.118,0.152,0.63-0.044c0,0-0.238,0.32-0.25,0.462
			c0,0,0.276-0.118,0.59-0.154c0.318-0.048,0.614-0.16,0.718-0.484c0,0,0.16,0.312,0.232,0.372c0,0,0.338-0.32,0.154-0.72
			C-827.916-186.245-827.926-186.397-827.828-186.611z"/>
		<path id="path135_2_" fill="none" stroke="#000000" stroke-width="0.1012" d="M-830.841-187.311c0,0-0.79,0.346-0.92,0.354
			 M-832.373-186.899c0,0,1.162-0.516,1.362-0.882 M-829.952-188.964c0,0,0.384,0.104,0.392,0.496 M-830.398-186.867
			c0,0-1.043-0.672-0.475-2.031 M-834.766-186.983c0,0,0.162-0.524,0.56-0.854 M-833.742-190.506
			c-0.022,0.04-0.346,0.686-0.444,1.182c-0.104,0.53-0.614,1.551-1.052,1.825 M-833.598-186.939c0,0,0.287-0.482,0.989-0.482
			c0.692,0,1.098-0.992,0.398-2.047c0,0-0.408,1.499-1.182,1.715c-0.773,0.22-1.243-0.484-1.243-0.484 M-833.351-190.578
			c0,0-0.927,2.577,0.396,3.209 M-833.041-189.29c0.418-0.942,0.096-2.125,0.096-2.125c0.218,0.026,0.412,0.216,0.412,0.216
			s0.436,0.892,0.322,1.731c0,0-0.738,0.288-1.471,0.17"/>
		<path fill="#F5BD21" stroke="#000000" stroke-width="0.1012" d="M-832.125-192.263c-0.422-0.374-0.71-0.418-1.154-0.288
			c-0.443,0.124-0.295,0.404-0.295,0.404l0.791,0.746c1.016,0.81,1.524-0.392,1.524-0.392
			C-831.703-191.787-831.703-191.891-832.125-192.263z"/>
		<path fill="#F5BD21" stroke="#000000" stroke-width="0.1012" d="M-834.356-191.375c0,0-0.548,0.196-1.038-0.086
			c0,0,0.288,0.622,0.914,0.588c0.568-0.032,0.53-0.286,0.496-0.378C-834.134-191.453-834.14-191.519-834.356-191.375z"/>
		<path fill="#F5BD21" stroke="#000000" stroke-width="0.1012" d="M-832.825-192.133c-0.092,0.04-0.19,0.156-0.19,0.156
			c-0.016-0.182-0.176-0.234-0.292-0.228c-0.117,0-0.203,0.012-0.255,0.032c-0.136,0.04-1.166,0.366-1.166,0.366
			c0.02,0.236,0.06,0.334,0.092,0.49c0.17-0.012,0.28-0.058,0.28-0.058c0.21-0.066,0.34,0.038,0.372,0.124
			c0.034,0.092,0.072,0.346-0.496,0.378c-0.046,0-0.084,0-0.124-0.006c0,0.092,0.014,0.21,0.026,0.242
			c0.314,0.162,0.79,0.196,1.154,0.248l0.445-1.058c0,0,0.214,0.006,0.258,0c0.054,0,0.134-0.066,0.134-0.066
			c0.186-0.182,0.232-0.358,0.174-0.484C-832.499-192.159-832.697-192.173-832.825-192.133z"/>
		<circle fill="none" stroke="#000000" stroke-width="0.1012" cx="-833.646" cy="-191.806" r="0.059"/>
		<path fill="#F5BD21" stroke="#000000" stroke-width="0.1012" d="M-828.65-192.003c-0.5-0.084-0.654,0.144-0.654,0.144
			s-0.176,0.236-0.104,0.308c0.078,0.084,0.402,0.404,0.936,0.326c0.542-0.086,0.797-0.804,0.797-0.804
			C-827.87-191.957-828.154-191.911-828.65-192.003z"/>
		<path id="path147_1_" fill="none" stroke="#000000" stroke-width="0.1012" d="M-834.964-188.702c0,0,0.15-0.242,0.436-0.896"/>
	</g>
</g>
<g>
	<g>
		<g>
			<g>
				<defs>
					<circle id="SVGID_1_" cx="25" cy="25" r="24.5"/>
				</defs>
				<clipPath id="SVGID_2_">
					<use xlink:href="#SVGID_1_"  overflow="visible"/>
				</clipPath>
				
					<radialGradient id="circle50_2_" cx="750.7598" cy="1657.9609" r="27.4688" gradientTransform="matrix(1 0 0 1 -725.7598 -1632.9609)" gradientUnits="userSpaceOnUse">
					<stop  offset="0" style="stop-color:#000000;stop-opacity:0"/>
					<stop  offset="0.7576" style="stop-color:#000000;stop-opacity:0"/>
					<stop  offset="1" style="stop-color:#000000"/>
				</radialGradient>
				
					<circle id="circle50_1_" opacity="0.4" clip-path="url(#SVGID_2_)" fill="url(#circle50_2_)" enable-background="new    " cx="25" cy="25" r="27.469"/>
			</g>
		</g>
	</g>
	<g>
		<g>
			<g>
				<defs>
					<circle id="SVGID_3_" cx="25" cy="25" r="24.5"/>
				</defs>
				<clipPath id="SVGID_4_">
					<use xlink:href="#SVGID_3_"  overflow="visible"/>
				</clipPath>
				
					<radialGradient id="circle50_3_" cx="750.7598" cy="1657.9609" r="31.6777" gradientTransform="matrix(1 0 0 1 -725.7598 -1632.9609)" gradientUnits="userSpaceOnUse">
					<stop  offset="0" style="stop-color:#000000;stop-opacity:0"/>
					<stop  offset="0.5758" style="stop-color:#000000;stop-opacity:0"/>
					<stop  offset="1" style="stop-color:#000000"/>
				</radialGradient>
				
					<circle id="circle50_7_" opacity="0.6" clip-path="url(#SVGID_4_)" fill="url(#circle50_3_)" enable-background="new    " cx="25" cy="25" r="31.678"/>
			</g>
		</g>
	</g>
</g>
<linearGradient id="SVGID_5_" gradientUnits="userSpaceOnUse" x1="750.4824" y1="1663.666" x2="750.4824" y2="1635.6641" gradientTransform="matrix(1 0 0 1 -725.7598 -1632.9609)">
	<stop  offset="0.0727" style="stop-color:#FFFFFF;stop-opacity:0.05"/>
	<stop  offset="0.897" style="stop-color:#FFFFFF;stop-opacity:0.75"/>
	<stop  offset="1" style="stop-color:#FFFFFF;stop-opacity:0.75"/>
</linearGradient>
<ellipse fill="url(#SVGID_5_)" cx="24.723" cy="16.704" rx="17.306" ry="14.001"/>
</svg>
