<?xml version="1.0" encoding="utf-8"?>
<!-- Generator: Adobe Illustrator 15.0.0, SVG Export Plug-In . SVG Version: 6.00 Build 0)  -->
<!DOCTYPE svg PUBLIC "-//W3C//DTD SVG 1.1//EN" "http://www.w3.org/Graphics/SVG/1.1/DTD/svg11.dtd">
<svg version="1.1" id="Laag_1" xmlns="http://www.w3.org/2000/svg" xmlns:xlink="http://www.w3.org/1999/xlink" x="0px" y="0px"
	 width="50px" height="50px" viewBox="0 0 50 50" enable-background="new 0 0 50 50" xml:space="preserve">
<g id="Slovakia">
	<path id="circle50_181_" fill="#0B4EA2" d="M25,3.771c13.529,0,24.495,7.701,24.495,21.229c0,13.529-10.966,24.495-24.495,24.495
		C11.472,49.495,0.505,38.529,0.505,25C0.505,11.472,11.472,3.771,25,3.771z"/>
	<path id="_127602832_47_" fill="#EE1C25" d="M2.112,33.739h45.775C44.366,42.95,35.448,49.493,24.99,49.493
		C14.555,49.495,5.634,42.95,2.112,33.739z"/>
	<path id="_127603600_48_" fill="#FFFFFF" d="M47.889,16.261H2.112C5.634,7.05,14.555,0.505,25,0.505
		C35.448,0.505,44.366,7.05,47.889,16.261z"/>
	<path fill="#FFFFFF" d="M29.832,12.504h-0.654h-9.302h-9.302H9.92l-0.066,0.648C9.837,13.293,9.49,16.694,9.49,24.164
		c0,3.509,1.188,6.604,3.525,9.203c1.64,1.82,3.781,3.351,6.547,4.683l0.313,0.154l0.314-0.154c2.765-1.327,4.905-2.86,6.545-4.683
		c2.339-2.598,3.523-5.691,3.523-9.203c0-7.47-0.348-10.871-0.363-11.012L29.832,12.504z"/>
	<path fill="#EE1C25" d="M19.876,37.396c-3.976-1.916-9.661-5.715-9.661-13.232c0-7.517,0.359-10.937,0.359-10.937h9.302h9.302
		c0,0,0.359,3.419,0.359,10.937C29.537,31.682,23.852,35.48,19.876,37.396z"/>
	<path fill="#FFFFFF" d="M20.727,22.193c1.078,0.016,3.176,0.059,5.044-0.567c0,0-0.047,0.669-0.047,1.449
		c0,0.779,0.047,1.449,0.047,1.449c-1.715-0.574-3.83-0.587-5.044-0.57v4.151h-1.7v-4.151c-1.212-0.017-3.33-0.004-5.046,0.57
		c0,0,0.05-0.67,0.05-1.449c0-0.78-0.05-1.449-0.05-1.449c1.871,0.626,3.971,0.583,5.046,0.567v-2.609
		c-0.981-0.006-2.396,0.039-3.992,0.574c0,0,0.05-0.67,0.05-1.448c0-0.781-0.05-1.451-0.05-1.451
		c1.595,0.536,3.008,0.582,3.989,0.576c-0.052-1.65-0.533-3.733-0.533-3.733s0.99,0.076,1.386,0.076
		c0.397,0,1.386-0.076,1.386-0.076s-0.479,2.079-0.529,3.731c0.98,0.008,2.389-0.038,3.988-0.574c0,0-0.049,0.67-0.049,1.451
		c0,0.778,0.049,1.448,0.049,1.448c-1.6-0.535-3.012-0.58-3.994-0.574L20.727,22.193L20.727,22.193z"/>
	<path fill="#0B4EA2" d="M19.876,27.657c-2.001,0-3.074,2.776-3.074,2.776s-0.595-1.316-2.229-1.316
		c-1.105,0-1.92,0.982-2.438,1.895c2.01,3.196,5.22,5.172,7.741,6.387c2.521-1.215,5.731-3.188,7.743-6.387
		c-0.52-0.912-1.331-1.895-2.438-1.895c-1.634,0-2.229,1.316-2.229,1.316S21.878,27.657,19.876,27.657L19.876,27.657z"/>
</g>
<g>
	<g>
		<g>
			<g>
				<defs>
					<circle id="SVGID_1_" cx="25" cy="25" r="24.5"/>
				</defs>
				<clipPath id="SVGID_2_">
					<use xlink:href="#SVGID_1_"  overflow="visible"/>
				</clipPath>
				
					<radialGradient id="circle50_2_" cx="750.7598" cy="1657.9609" r="27.4688" gradientTransform="matrix(1 0 0 1 -725.7598 -1632.9609)" gradientUnits="userSpaceOnUse">
					<stop  offset="0" style="stop-color:#000000;stop-opacity:0"/>
					<stop  offset="0.7576" style="stop-color:#000000;stop-opacity:0"/>
					<stop  offset="1" style="stop-color:#000000"/>
				</radialGradient>
				
					<circle id="circle50_1_" opacity="0.4" clip-path="url(#SVGID_2_)" fill="url(#circle50_2_)" enable-background="new    " cx="25" cy="25" r="27.469"/>
			</g>
		</g>
	</g>
	<g>
		<g>
			<g>
				<defs>
					<circle id="SVGID_3_" cx="25" cy="25" r="24.5"/>
				</defs>
				<clipPath id="SVGID_4_">
					<use xlink:href="#SVGID_3_"  overflow="visible"/>
				</clipPath>
				
					<radialGradient id="circle50_3_" cx="750.7598" cy="1657.9609" r="31.6777" gradientTransform="matrix(1 0 0 1 -725.7598 -1632.9609)" gradientUnits="userSpaceOnUse">
					<stop  offset="0" style="stop-color:#000000;stop-opacity:0"/>
					<stop  offset="0.5758" style="stop-color:#000000;stop-opacity:0"/>
					<stop  offset="1" style="stop-color:#000000"/>
				</radialGradient>
				
					<circle id="circle50_7_" opacity="0.6" clip-path="url(#SVGID_4_)" fill="url(#circle50_3_)" enable-background="new    " cx="25" cy="25" r="31.678"/>
			</g>
		</g>
	</g>
</g>
<linearGradient id="SVGID_5_" gradientUnits="userSpaceOnUse" x1="750.4824" y1="1663.666" x2="750.4824" y2="1635.6641" gradientTransform="matrix(1 0 0 1 -725.7598 -1632.9609)">
	<stop  offset="0.0727" style="stop-color:#FFFFFF;stop-opacity:0.05"/>
	<stop  offset="0.897" style="stop-color:#FFFFFF;stop-opacity:0.75"/>
	<stop  offset="1" style="stop-color:#FFFFFF;stop-opacity:0.75"/>
</linearGradient>
<ellipse fill="url(#SVGID_5_)" cx="24.723" cy="16.704" rx="17.306" ry="14.001"/>
</svg>
