<?xml version="1.0" encoding="UTF-8"?><svg id="a" xmlns="http://www.w3.org/2000/svg" width="618.06" height="624.87" xmlns:xlink="http://www.w3.org/1999/xlink" viewBox="0 0 618.06 624.87"><defs><clipPath id="b"><circle cx="317.14" cy="300" r="300" fill="none"/></clipPath><radialGradient id="ae" cx="317.14" cy="324" fx="103.94" fy="69.45" r="505.72" gradientTransform="translate(-6.86 -17.14) rotate(90) scale(1 -1)" gradientUnits="userSpaceOnUse"><stop offset=".15" stop-color="#fff" stop-opacity=".3"/><stop offset=".49" stop-color="#989697" stop-opacity="0"/><stop offset=".69" stop-color="#000" stop-opacity=".5"/></radialGradient></defs><g clip-path="url(#b)"><g><g><g><rect x="17.14" width="600" height="600" fill="#c60b1e"/><rect x="17.14" y="150" width="600" height="300" fill="#ffc400"/><g id="c"><g id="d"><g id="e"><path d="M218.73,266.69s-.61,0-.95-.19-1.36-1.15-1.36-1.15l-.82-.59-.74-1.02s-.88-1.42-.48-2.51c.41-1.09,1.09-1.48,1.7-1.8,.61-.31,1.9-.71,1.9-.71,0,0,1.02-.44,1.36-.5,.34-.07,1.56-.38,1.56-.38,0,0,.34-.19,.67-.32,.35-.13,.82-.13,1.09-.19,.26-.07,.95-.29,1.36-.31,.62-.02,1.63,.12,1.97,.12s1.49,.06,1.97,.06,2.16-.13,2.64-.13,.82-.06,1.36,0c.54,.07,1.49,.38,1.76,.52s1.9,.71,2.51,.9,2.1,.44,2.78,.77c.67,.32,1.09,.86,1.43,1.32,.34,.44,.41,.94,.54,1.26,.13,.31,.13,1.01,0,1.33-.13,.31-.61,.97-.61,.97l-.74,1.22-.95,.77s-.68,.65-1.22,.58c-.54-.05-6.04-1.03-9.56-1.03s-9.17,1.03-9.17,1.03h.01Z" fill="#ad1519" stroke="#000" stroke-linejoin="round" stroke-width=".26"/><g><ellipse cx="227.93" cy="258.82" rx="1.66" ry="3" fill="#c8b100" stroke="#000" stroke-width=".26"/><ellipse cx="227.95" cy="258.82" rx=".77" ry="2.76" fill="#c8b100" stroke="#000" stroke-width=".26"/><ellipse cx="227.95" cy="255.65" rx="1.12" ry="1.04" fill="#c8b100"/><path d="M229.49,255.29v.7h-3.04v-.7h1.13v-1.58h-.74v-.68h.74v-.68h.72v.68h.74v.68h-.74v1.58h1.19" fill="#c8b100" stroke="#000" stroke-width=".3"/><path d="M228.27,254.64c.59,.15,.94,.73,.77,1.29-.17,.56-.78,.88-1.37,.72s-.94-.73-.77-1.29c.1-.35,.4-.63,.77-.72" fill="none" stroke="#000" stroke-width=".26"/><path d="M227.95,266.5h-5.77l-.13-1.42-.28-1.48-.28-1.84c-1.6-2.1-3.06-3.48-3.55-3.18,.12-.38,.26-.67,.56-.85,1.42-.84,4.33,1.18,6.53,4.49,.19,.3,.38,.6,.55,.9h4.76c.17-.3,.36-.6,.55-.9,2.18-3.31,5.11-5.33,6.52-4.49,.31,.18,.44,.47,.56,.85-.49-.29-1.94,1.08-3.55,3.18l-.28,1.84-.28,1.48-.12,1.42h-5.81Z" fill="#c8b100" stroke="#000" stroke-width=".26"/><path d="M218.2,258.53c1.09-.64,3.62,1.37,5.68,4.49m13.86-4.49c-1.09-.64-3.61,1.37-5.68,4.49" fill="none" stroke="#000" stroke-width=".26"/></g><g id="f"><path d="M219.43,269.1c-.24-.68-.7-1.3-.7-1.3,2.34-.68,5.59-1.12,9.2-1.13,3.61,.01,6.9,.44,9.23,1.13,0,0-.26,.46-.62,1.09-.2,.36-.47,.97-.46,.97-2.1-.65-4.82-.97-8.16-.98-3.35,.01-6.55,.42-8.23,1.03,.02,0-.12-.38-.28-.82h.01" fill="#c8b100" stroke="#000" stroke-width=".26"/><path d="M227.94,272.08c2.92-.01,6.13-.46,7.32-.76,.79-.24,1.26-.59,1.18-1.01-.05-.19-.22-.36-.44-.46-1.75-.56-4.88-.96-8.05-.96s-6.32,.4-8.06,.96c-.23,.1-.4,.26-.44,.46-.08,.42,.38,.77,1.18,1.01,1.19,.3,4.42,.74,7.33,.76Z" fill="#c8b100" stroke="#000" stroke-width=".26"/><path d="M237.31,266.5l-.71-.64s-.68,.41-1.54,.29c-.84-.13-1.12-1.16-1.12-1.16,0,0-.95,.8-1.73,.74-.78-.07-1.28-.74-1.28-.74,0,0-.85,.61-1.6,.55-.74-.07-1.45-1-1.45-1,0,0-.76,.96-1.5,1.03-.74,.06-1.36-.65-1.36-.65,0,0-.34,.71-1.28,.86s-1.76-.74-1.76-.74c0,0-.54,.88-1.19,1.1-.65,.22-1.49-.32-1.49-.32,0,0-.14,.32-.24,.52s-.37,.23-.37,.23l.22,.56c2.32-.67,5.47-1.09,9.04-1.09s6.8,.42,9.13,1.1l.24-.65h-.01Z" fill="#c8b100" stroke="#000" stroke-width=".26"/><path d="M227.97,263.39l.34,.06c-.06,.14-.07,.29-.07,.46,0,.7,.6,1.26,1.34,1.26,.59,0,1.09-.37,1.27-.88,.01,.01,.13-.46,.18-.46,.04,0,.04,.49,.06,.49,.08,.64,.66,1.07,1.32,1.07,.74,0,1.33-.56,1.33-1.27,0-.05,0-.1-.01-.14l.42-.42,.23,.53c-.08,.17-.12,.35-.12,.55,0,.67,.56,1.21,1.27,1.21,.44,0,.83-.22,1.06-.54l.28-.35v.43c0,.41,.17,.79,.59,.85,0,0,.46,.04,1.09-.46,.62-.49,.96-.9,.96-.9l.04,.5s-.61,1.01-1.16,1.32c-.3,.18-.77,.37-1.14,.3-.38-.06-.66-.37-.8-.73-.28,.17-.61,.26-.96,.26-.76,0-1.44-.42-1.7-1.03-.35,.37-.83,.6-1.39,.6-.61,0-1.16-.28-1.51-.7-.34,.32-.8,.52-1.31,.52-.66,0-1.26-.34-1.6-.83-.35,.49-.94,.83-1.61,.83-.5,0-.97-.19-1.31-.52-.35,.42-.9,.7-1.5,.7s-1.06-.23-1.4-.6c-.26,.61-.95,1.03-1.7,1.03-.35,0-.67-.1-.95-.26-.14,.36-.42,.67-.82,.73-.36,.07-.83-.12-1.13-.3-.56-.31-1.22-1.32-1.22-1.32l.08-.5s.35,.41,.97,.9,1.09,.46,1.09,.46c.41-.06,.59-.44,.59-.85v-.43l.26,.35c.23,.32,.61,.54,1.06,.54,.71,0,1.27-.54,1.27-1.21,0-.2-.02-.38-.12-.55l.23-.53,.42,.42s-.01,.1-.01,.14c0,.71,.59,1.27,1.33,1.27,.66,0,1.24-.43,1.33-1.07,.01,0,.01-.49,.05-.49,.06,0,.17,.47,.19,.46,.17,.5,.67,.88,1.27,.88,.73,0,1.33-.56,1.33-1.26,0-.17,0-.31-.06-.46l.35-.06h.01Z" fill="#c8b100" stroke="#000" stroke-width=".26"/><path d="M227.94,266.68c-3.61,.01-6.86,.44-9.2,1.13-.16,.05-.35-.07-.4-.2-.05-.16,.06-.34,.22-.38,2.34-.72,5.68-1.18,9.38-1.18s7.06,.46,9.4,1.18c.16,.05,.26,.23,.22,.38-.05,.13-.24,.25-.4,.2-2.34-.68-5.6-1.12-9.22-1.13Z" fill="#c8b100" stroke="#000" stroke-linejoin="round" stroke-width=".26"/><path d="M215.65,265.2s-.46-.58-.78-.88c-.24-.22-.82-.4-.82-.4,0-.1,.34-.34,.7-.34,.22,0,.42,.08,.54,.24l.05-.24s.29,.06,.42,.38c.14,.35,.06,.86,.06,.86,0,0-.06,.24-.17,.36h0Z" fill="#c8b100" stroke="#000" stroke-width=".26"/><path d="M217.92,264.26l-.13,.79-1.68,.18-.25-.14,.05-.28,1.27-1.04,.74,.49" fill="#c8b100" stroke="#000" stroke-width=".26"/><path d="M215.68,264.9c.14-.14,.43-.11,.64,.07,.22,.18,.29,.46,.14,.6-.14,.16-.43,.12-.64-.07-.22-.18-.29-.46-.14-.6Z" fill="#c8b100" stroke="#000" stroke-width=".26"/><path d="M218.76,265.06c-.07-.22,0-.44,.16-.5,.17-.04,.36,.11,.44,.32,.07,.23,0,.46-.17,.5-.16,.05-.35-.1-.43-.32Z" fill="#c8b100" stroke="#000" stroke-width=".26"/><path d="M219.54,264.05l.61,.58,1.46-.79,.11-.25-.2-.2-1.68-.14-.3,.82" fill="#c8b100" stroke="#000" stroke-width=".26"/><path d="M221.23,261.31l-.8,.77,1.03,1.37,.28,.11,.2-.22,.36-1.64-1.07-.38" fill="#c8b100" stroke="#000" stroke-width=".26"/><path d="M223.97,263.16l-.31,.76-1.68-.16-.22-.19,.12-.26,1.46-.77,.62,.62" fill="#c8b100" stroke="#000" stroke-width=".26"/><ellipse cx="221.75" cy="263.58" rx=".59" ry=".56" fill="#c8b100" stroke="#000" stroke-width=".26"/><path d="M224.58,263.94c-.04-.24,.08-.44,.25-.47s.34,.16,.36,.4c.04,.23-.08,.44-.25,.46-.17,.02-.34-.16-.36-.38Z" fill="#c8b100" stroke="#000" stroke-width=".26"/><path d="M225.67,263.09l.48,.68,1.61-.5,.17-.22-.18-.24-1.6-.47-.48,.74" fill="#c8b100" stroke="#000" stroke-width=".26"/><path d="M227.93,260.58l-1.03,.62,.77,1.66,.26,.17,.26-.17,.77-1.66-1.03-.62" fill="#c8b100" stroke="#000" stroke-width=".26"/><path d="M230.2,263.09l-.47,.68-1.61-.5-.17-.22,.17-.24,1.61-.47,.47,.74" fill="#c8b100" stroke="#000" stroke-width=".26"/><ellipse cx="227.94" cy="263.05" rx=".59" ry=".56" fill="#c8b100" stroke="#000" stroke-width=".26"/><path d="M231.34,263.94c.02-.24-.1-.44-.26-.47s-.34,.16-.36,.4c-.02,.23,.08,.44,.25,.46,.17,.02,.34-.16,.37-.38Z" fill="#c8b100" stroke="#000" stroke-width=".26"/><path d="M231.93,263.16l.31,.76,1.68-.16,.22-.19-.12-.26-1.46-.77-.62,.62" fill="#c8b100" stroke="#000" stroke-width=".26"/><path d="M234.66,261.31l.8,.77-1.03,1.37-.28,.11-.2-.22-.36-1.64,1.07-.38" fill="#c8b100" stroke="#000" stroke-width=".26"/><path d="M236.35,264.05l-.61,.58-1.46-.79-.12-.25,.23-.2,1.68-.14,.29,.82" fill="#c8b100" stroke="#000" stroke-width=".26"/><ellipse cx="234.16" cy="263.58" rx=".59" ry=".56" fill="#c8b100" stroke="#000" stroke-width=".26"/><path d="M237.15,265.06c.07-.22,0-.44-.16-.5-.17-.04-.36,.11-.44,.32-.07,.23,0,.46,.17,.5,.16,.05,.35-.1,.43-.32Z" fill="#c8b100" stroke="#000" stroke-width=".26"/><path d="M240.01,265.2s.46-.58,.79-.88c.23-.22,.8-.4,.8-.4,0-.1-.34-.34-.7-.34-.22,0-.42,.08-.54,.24l-.05-.24s-.29,.06-.43,.38c-.13,.35-.04,.86-.04,.86,0,0,.05,.24,.16,.36h0Z" fill="#c8b100" stroke="#000" stroke-width=".26"/><path d="M237.75,264.26l.13,.79,1.68,.18,.25-.14-.06-.28-1.26-1.04-.74,.49" fill="#c8b100" stroke="#000" stroke-width=".26"/><path d="M240.03,264.9c-.13-.14-.42-.11-.64,.07s-.29,.46-.14,.6c.14,.16,.43,.12,.65-.07,.22-.18,.28-.46,.13-.6Z" fill="#c8b100" stroke="#000" stroke-width=".26"/></g><g id="g"><path d="M218.8,269.16l.37-.6,.78,.16-.46,.67-.7-.23" fill="#ad1519" stroke="#000" stroke-width=".26"/><path d="M222.16,268.57l-.83,.13c-.22,.02-.42-.11-.46-.31-.02-.2,.12-.38,.32-.42l.84-.12,.85-.13c.22-.02,.41,.11,.44,.3,.02,.2-.12,.4-.32,.42l-.85,.13" fill="#058e6e" stroke="#000" stroke-width=".26"/><ellipse cx="224.97" cy="267.96" rx=".53" ry=".49" fill="#fff" stroke="#000" stroke-width=".26"/><path d="M227.98,268.18h-1.15c-.22,0-.4-.17-.4-.37s.17-.37,.38-.37h2.35c.23,0,.4,.17,.4,.37s-.18,.37-.4,.37h-1.19" fill="#ad1519" stroke="#000" stroke-width=".26"/><ellipse cx="230.93" cy="267.96" rx=".53" ry=".49" fill="#fff" stroke="#000" stroke-width=".26"/><path d="M233.74,268.57l.83,.13c.22,.02,.42-.11,.46-.31,.02-.2-.11-.38-.32-.42l-.84-.12-.85-.13c-.22-.02-.42,.11-.44,.3-.04,.2,.11,.4,.32,.42l.85,.13" fill="#058e6e" stroke="#000" stroke-width=".26"/><path d="M237.03,269.2l-.3-.64-.8,.07,.38,.71,.72-.14" fill="#ad1519" stroke="#000" stroke-width=".26"/><path d="M227.93,271.39c-2.92,0-5.56-.26-7.56-.78,2-.52,4.64-.83,7.56-.84,2.93,0,5.58,.32,7.6,.84-2.02,.52-4.67,.78-7.6,.78Z" fill="#ad1519" stroke="#000" stroke-linejoin="round" stroke-width=".26"/><path d="M229.3,271.3v-1.39m-.7,1.44v-1.48m-.5,1.5v-1.51" fill="none" stroke="#000" stroke-width="0"/><path d="M227.67,271.38v-1.52" fill="none" stroke="#000" stroke-width=".02"/><path d="M227.25,271.38v-1.52" fill="none" stroke="#000" stroke-width=".03"/><path d="M226.86,271.38v-1.52" fill="none" stroke="#000" stroke-width=".04"/><path d="M226.47,271.38v-1.52" fill="none" stroke="#000" stroke-width=".04"/><path d="M226.13,271.38v-1.52" fill="none" stroke="#000" stroke-width=".05"/><path d="M225.47,271.3v-1.38m.31,1.4v-1.45" fill="none" stroke="#000" stroke-width=".06"/><path d="M224.86,271.24v-1.27m.31,1.31v-1.36" fill="none" stroke="#000" stroke-width=".07"/><path d="M224.04,271.16v-1.12m.28,1.13v-1.18m.28,1.22v-1.22" fill="none" stroke="#000" stroke-width=".08"/><path d="M223.77,271.15v-1.08" fill="none" stroke="#000" stroke-width=".09"/><path d="M223.5,271.1v-1.02" fill="none" stroke="#000" stroke-width=".1"/><path d="M223.21,271.07v-.94" fill="none" stroke="#000" stroke-width=".11"/><path d="M222.63,270.98v-.74m.3,.79v-.84" fill="none" stroke="#000" stroke-width=".12"/><path d="M222.33,270.92v-.66" fill="none" stroke="#000" stroke-width=".12"/><path d="M222.05,270.88v-.55" fill="none" stroke="#000" stroke-width=".13"/><path d="M221.75,270.8v-.43" fill="none" stroke="#000" stroke-width=".14"/><path d="M221.45,270.77v-.32" fill="none" stroke="#000" stroke-width=".15"/><path d="M221.13,270.7v-.16" fill="none" stroke="#000" stroke-width=".18"/></g></g><g id="h"><g><path d="M246.67,396.82c-1.85,0-3.49-.4-4.72-1.04-1.2-.61-2.83-.98-4.63-.98s-3.48,.38-4.69,1c-1.21,.64-2.88,1.03-4.7,1.03s-3.5-.43-4.72-1.08c-1.2-.59-2.8-.95-4.55-.95s-3.43,.35-4.63,.97c-1.22,.65-2.9,1.06-4.74,1.06v2.89c1.84,0,3.52-.42,4.74-1.06,1.2-.62,2.81-.98,4.63-.98s3.35,.37,4.55,.96c1.21,.64,2.87,1.08,4.72,1.08s3.49-.4,4.7-1.03c1.21-.62,2.88-1.01,4.69-1.01s3.43,.38,4.63,1c1.22,.65,2.84,1.04,4.69,1.04l.02-2.89h0Z" fill="#005bbf" stroke="#000" stroke-width=".39"/><path d="M246.67,399.71c-1.85,0-3.49-.4-4.72-1.04-1.2-.61-2.83-1-4.63-1s-3.48,.38-4.69,1.01c-1.21,.64-2.88,1.03-4.7,1.03s-3.5-.44-4.72-1.08c-1.2-.59-2.8-.96-4.55-.96s-3.43,.36-4.63,.98c-1.22,.64-2.9,1.06-4.74,1.06v2.89c1.84,0,3.52-.42,4.74-1.06,1.2-.62,2.81-.98,4.63-.98s3.35,.37,4.55,.96c1.21,.65,2.87,1.08,4.72,1.08s3.49-.41,4.7-1.03,2.88-1.01,4.69-1.01,3.43,.38,4.63,1.01c1.22,.64,2.84,1.03,4.69,1.03l.02-2.89" fill="#ccc" stroke="#000" stroke-width=".39"/><path d="M246.67,402.6c-1.85,0-3.49-.4-4.72-1.03-1.2-.62-2.83-1.01-4.63-1.01s-3.48,.38-4.69,1.01-2.88,1.03-4.7,1.03-3.5-.43-4.72-1.08c-1.2-.59-2.8-.96-4.55-.96s-3.43,.36-4.63,.98c-1.22,.64-2.9,1.06-4.74,1.06v2.88c1.84,0,3.52-.41,4.74-1.06,1.2-.61,2.81-.96,4.63-.96s3.35,.36,4.55,.95c1.21,.65,2.87,1.07,4.72,1.07s3.49-.38,4.7-1.02c1.21-.62,2.88-1,4.69-1s3.43,.37,4.63,.98c1.22,.66,2.84,1.03,4.69,1.03l.02-2.88" fill="#005bbf" stroke="#000" stroke-width=".39"/><path d="M246.65,408.38c-1.85,0-3.47-.4-4.69-1.04-1.2-.61-2.83-.98-4.63-.98s-3.48,.37-4.69,1-2.88,1.03-4.7,1.03-3.5-.44-4.72-1.08c-1.2-.6-2.8-.95-4.55-.95s-3.43,.35-4.63,.97c-1.22,.64-2.9,1.06-4.74,1.06v-2.88c1.84,0,3.52-.43,4.74-1.08,1.2-.61,2.81-.96,4.63-.96s3.35,.36,4.55,.95c1.21,.65,2.87,1.07,4.72,1.07s3.49-.38,4.7-1.02c1.21-.62,2.88-1,4.69-1s3.43,.37,4.63,.98c1.22,.66,2.87,1.03,4.72,1.03l-.02,2.9" fill="#ccc" stroke="#000" stroke-width=".39"/><path d="M246.65,411.28c-1.85,0-3.47-.4-4.69-1.03-1.2-.62-2.83-1.01-4.63-1.01s-3.48,.38-4.69,1.01-2.88,1.03-4.7,1.03-3.5-.44-4.72-1.08c-1.2-.6-2.8-.96-4.55-.96s-3.43,.36-4.63,.98c-1.22,.64-2.9,1.06-4.74,1.06v-2.87c1.84,0,3.52-.44,4.74-1.08,1.2-.62,2.81-.97,4.63-.97s3.35,.36,4.55,.95c1.21,.64,2.87,1.08,4.72,1.08s3.49-.41,4.7-1.03,2.88-1,4.69-1,3.43,.37,4.63,.98c1.22,.65,2.86,1.04,4.72,1.04l-.02,2.89h0Z" fill="#005bbf" stroke="#000" stroke-width=".39"/></g><g><path d="M217.44,384.94c.06,.25,.16,.48,.16,.74,0,1.75-1.52,3.16-3.37,3.16h27.53c-1.86,0-3.37-1.4-3.37-3.16,0-.25,.05-.49,.11-.74-.16,.06-.35,.07-.53,.07h-20.03c-.16,0-.35-.02-.49-.07Z" fill="#c8b100" stroke="#000" stroke-linejoin="round" stroke-width=".39"/><path d="M217.93,383.12h20.03c.68,0,1.22,.42,1.22,.94s-.54,.95-1.22,.95h-20.03c-.67,0-1.22-.43-1.22-.95s.55-.94,1.22-.94Z" fill="#c8b100" stroke="#000" stroke-width=".39"/><path d="M214.26,395.83h27.44v-7h-27.44v7Z" fill="#c8b100" stroke="#000" stroke-width=".39"/></g><path d="M218.2,381.98h19.5v-95.56h-19.5v95.56Z" fill="#ccc" stroke="#000" stroke-width=".39"/><path d="M232.09,286.56v95.35m2.2-95.35v95.35" fill="none" stroke="#000" stroke-width=".39"/><g><path d="M214.63,278.84h26.75v-7.01h-26.75v7.01h0Z" fill="#c8b100" stroke="#000" stroke-width=".39"/><path d="M217.44,283.51c.17-.07,.29-.08,.49-.08h20.03c.2,0,.38,.04,.55,.1-.7-.23-1.19-.85-1.19-1.58s.54-1.37,1.24-1.6c-.17,.05-.4,.1-.59,.1h-20.04c-.2,0-.4-.01-.56-.07l.11,.02c.72,.22,1.13,.85,1.13,1.55s-.46,1.36-1.16,1.57h0Z" fill="#c8b100" stroke="#000" stroke-linejoin="round" stroke-width=".39"/><path d="M217.93,283.43h20.03c.68,0,1.22,.42,1.22,.94s-.54,.95-1.22,.95h-20.03c-.67,0-1.22-.42-1.22-.95s.55-.94,1.22-.94Z" fill="#c8b100" stroke="#000" stroke-width=".39"/><path d="M217.93,278.84h20.04c.68,0,1.24,.36,1.24,.79s-.55,.8-1.24,.8h-20.04c-.67,0-1.22-.36-1.22-.8s.55-.79,1.22-.79Z" fill="#c8b100" stroke="#000" stroke-width=".39"/></g></g><g id="i"><path d="M212.11,358.34c-2.71,1.56-4.56,3.17-4.26,3.97,.14,.73,1.01,1.28,2.24,2.1,1.94,1.36,3.12,3.77,2.2,4.88,1.61-1.3,2.63-3.23,2.63-5.39s-1.08-4.27-2.81-5.57Z" fill="#ad1519" stroke="#000" stroke-width=".39"/><path d="M257.62,322.16c-4.25-1.75-11.48-3.06-19.79-3.34-2.87,.02-6.05,.3-9.35,.84-11.66,1.96-20.56,6.61-19.85,10.4,.01,.07,.05,.24,.06,.31,0,0-4.37-9.85-4.44-10.22-.78-4.21,9.07-9.38,22.02-11.54,4.07-.68,8.03-.95,11.47-.91,8.28,0,15.48,1.07,19.82,2.68l.05,11.78" fill="#ad1519" stroke="#000" stroke-linejoin="round" stroke-width=".39"/><path d="M218.16,334.16c-5.41-.38-9.1-1.84-9.53-4.09-.34-1.8,1.5-3.8,4.76-5.62,1.45,.17,3.1,.36,4.8,.36l-.04,9.35" fill="#ad1519" stroke="#000" stroke-width=".39"/><path d="M237.73,326.86c3.38,.52,5.92,1.36,7.18,2.39l.12,.2c.6,1.24-2.36,3.86-7.33,6.8l.04-9.4" fill="#ad1519" stroke="#000" stroke-width=".39"/><path d="M206.04,352.6c-.52-1.54,4.76-4.63,12.22-7.37,3.41-1.21,6.22-2.48,9.71-4.02,10.36-4.58,18-9.84,17.06-11.75l-.11-.2c.55,.46,1.42,9.89,1.42,9.89,.94,1.75-6.06,6.94-15.6,11.5-3.05,1.46-9.49,3.84-12.53,4.91-5.45,1.88-10.85,5.45-10.36,6.77l-1.81-9.71h0s0-.01,0-.01Z" fill="#ad1519" stroke="#000" stroke-linejoin="round" stroke-width=".39"/></g><g id="j"><path d="M406.96,264.5s-.89,.94-1.54,1.07c-.64,.12-1.45-.59-1.45-.59,0,0-.58,.61-1.3,.77-.71,.17-1.69-.79-1.69-.79,0,0-.68,.96-1.28,1.19-.61,.22-1.36-.29-1.36-.29,0,0-.28,.47-.78,.73-.22,.11-.58-.06-.58-.06l-.72-.46-.82-.86-.74-.29s-.34-1.09-.37-1.28c-.02-.19-.1-.68-.1-.68-.16-.78,1.04-1.68,2.76-2.06,.98-.23,1.85-.22,2.47-.02,.68-.58,2.14-.98,3.84-.98,1.55,0,2.9,.32,3.65,.84,.73-.52,2.09-.84,3.64-.84,1.7,0,3.14,.41,3.83,.98,.64-.19,1.49-.2,2.48,.02,1.7,.38,2.92,1.28,2.76,2.06,0,0-.07,.49-.1,.68-.04,.19-.38,1.28-.38,1.28l-.74,.29-.82,.86-.7,.46s-.36,.17-.58,.06c-.52-.25-.79-.73-.79-.73,0,0-.74,.5-1.36,.29-.61-.23-1.28-1.19-1.28-1.19,0,0-.98,.96-1.7,.79-.71-.16-1.28-.77-1.28-.77,0,0-.82,.71-1.45,.59-.65-.13-1.52-1.07-1.52-1.07h0Z" fill="#ad1519" stroke="#000" stroke-width=".27"/><g><ellipse cx="406.92" cy="259.44" rx="1.66" ry="2.35" fill="#c8b100" stroke="#000" stroke-width=".26"/><ellipse cx="406.96" cy="259.44" rx=".76" ry="2.17" fill="#c8b100" stroke="#000" stroke-width=".26"/><ellipse cx="406.95" cy="256.74" rx="1.12" ry="1.06" fill="#c8b100"/><path d="M408.49,256.37v.7h-3.04v-.7h1.13v-1.56h-.74v-.7h.74v-.7h.73v.7h.73v.7h-.73v1.56h1.18" fill="#c8b100" stroke="#000" stroke-width=".3"/><path d="M407.27,255.74c.59,.17,.92,.76,.74,1.32-.18,.56-.81,.87-1.39,.7s-.92-.76-.74-1.32c.11-.35,.41-.62,.78-.71" fill="none" stroke="#000" stroke-width=".26"/></g><g><path d="M394.43,263.99c-.16-.4-.26-.84-.26-1.3,0-1.91,1.51-3.46,3.4-3.46,.6,0,1.15,.16,1.64,.44" fill="none" stroke="#000" stroke-linecap="round" stroke-width=".26"/><path d="M400.51,261.52c-.18-.31-.35-.65-.35-1.01,0-1.38,1.43-2.5,3.17-2.5,.74,0,1.44,.2,1.98,.54" fill="none" stroke="#000" stroke-width=".26"/><path d="M413.34,261.55c.18-.31,.3-.68,.3-1.04,0-1.38-1.42-2.5-3.17-2.5-.74,0-1.43,.2-1.97,.54" fill="none" stroke="#000" stroke-width=".26"/><path d="M419.39,263.99c.16-.4,.25-.84,.25-1.3,0-1.91-1.51-3.46-3.38-3.46-.6,0-1.16,.16-1.66,.44" fill="none" stroke="#000" stroke-linecap="round" stroke-width=".26"/><ellipse cx="393.42" cy="262.42" rx=".54" ry=".52" fill="none" stroke="#000" stroke-width=".21"/><ellipse cx="393.63" cy="260.52" rx=".54" ry=".52" fill="none" stroke="#000" stroke-width=".21"/><ellipse cx="394.85" cy="259.08" rx=".54" ry=".52" fill="none" stroke="#000" stroke-width=".21"/><ellipse cx="396.47" cy="258.3" rx=".54" ry=".52" fill="none" stroke="#000" stroke-width=".21"/><ellipse cx="398.2" cy="258.37" rx=".54" ry=".52" fill="none" stroke="#000" stroke-width=".21"/><ellipse cx="399.25" cy="260.5" rx=".54" ry=".52" fill="#fff" stroke="#000" stroke-width=".21"/><ellipse cx="399.55" cy="258.7" rx=".54" ry=".52" fill="none" stroke="#000" stroke-width=".21"/><ellipse cx="400.91" cy="257.57" rx=".54" ry=".52" fill="none" stroke="#000" stroke-width=".21"/><ellipse cx="402.61" cy="257.03" rx=".54" ry=".52" fill="none" stroke="#000" stroke-width=".21"/><ellipse cx="404.34" cy="257.09" rx=".54" ry=".52" fill="none" stroke="#000" stroke-width=".21"/><ellipse cx="409.47" cy="257.09" rx=".54" ry=".52" fill="none" stroke="#000" stroke-width=".21"/><ellipse cx="411.21" cy="257.03" rx=".54" ry=".52" fill="none" stroke="#000" stroke-width=".21"/><ellipse cx="412.9" cy="257.57" rx=".54" ry=".52" fill="none" stroke="#000" stroke-width=".21"/><ellipse cx="414.25" cy="258.7" rx=".54" ry=".52" fill="none" stroke="#000" stroke-width=".21"/><ellipse cx="414.55" cy="260.5" rx=".54" ry=".52" fill="#fff" stroke="#000" stroke-width=".21"/><ellipse cx="415.61" cy="258.37" rx=".54" ry=".52" fill="none" stroke="#000" stroke-width=".21"/><ellipse cx="417.35" cy="258.3" rx=".54" ry=".52" fill="none" stroke="#000" stroke-width=".21"/><ellipse cx="418.97" cy="259.08" rx=".54" ry=".52" fill="none" stroke="#000" stroke-width=".21"/><ellipse cx="420.19" cy="260.52" rx=".54" ry=".52" fill="none" stroke="#000" stroke-width=".21"/><ellipse cx="420.4" cy="262.42" rx=".54" ry=".52" fill="none" stroke="#000" stroke-width=".21"/></g><g id="k"><path d="M398.44,269.1c-.24-.68-.7-1.3-.7-1.3,2.34-.68,5.59-1.12,9.2-1.13,3.61,.01,6.9,.44,9.23,1.13,0,0-.26,.46-.62,1.09-.2,.36-.47,.97-.46,.97-2.1-.65-4.82-.97-8.16-.98-3.35,.01-6.55,.42-8.23,1.03,.02,0-.12-.38-.28-.82h.01" fill="#c8b100" stroke="#000" stroke-width=".26"/><path d="M406.95,272.08c2.92-.01,6.13-.46,7.32-.76,.79-.24,1.26-.59,1.18-1.01-.05-.19-.22-.36-.44-.46-1.75-.56-4.88-.96-8.05-.96s-6.32,.4-8.06,.96c-.23,.1-.4,.26-.44,.46-.08,.42,.38,.77,1.18,1.01,1.19,.3,4.42,.74,7.33,.76Z" fill="#c8b100" stroke="#000" stroke-width=".26"/><path d="M416.32,266.5l-.71-.64s-.68,.41-1.54,.29c-.84-.13-1.12-1.16-1.12-1.16,0,0-.95,.8-1.73,.74-.78-.07-1.28-.74-1.28-.74,0,0-.85,.61-1.6,.55-.74-.07-1.45-1-1.45-1,0,0-.76,.96-1.5,1.03-.74,.06-1.36-.65-1.36-.65,0,0-.34,.71-1.28,.86s-1.76-.74-1.76-.74c0,0-.54,.88-1.19,1.1-.65,.22-1.49-.32-1.49-.32,0,0-.14,.32-.24,.52s-.37,.23-.37,.23l.22,.56c2.32-.67,5.47-1.09,9.04-1.09s6.8,.42,9.13,1.1l.24-.65h-.01Z" fill="#c8b100" stroke="#000" stroke-width=".26"/><path d="M406.97,263.39l.34,.06c-.06,.14-.07,.29-.07,.46,0,.7,.6,1.26,1.34,1.26,.59,0,1.09-.37,1.27-.88,.01,.01,.13-.46,.18-.46,.04,0,.04,.49,.06,.49,.08,.64,.66,1.07,1.32,1.07,.74,0,1.33-.56,1.33-1.27,0-.05,0-.1-.01-.14l.42-.42,.23,.53c-.08,.17-.12,.35-.12,.55,0,.67,.56,1.21,1.27,1.21,.44,0,.83-.22,1.06-.54l.28-.35v.43c0,.41,.17,.79,.59,.85,0,0,.46,.04,1.09-.46,.62-.49,.96-.9,.96-.9l.04,.5s-.61,1.01-1.16,1.32c-.3,.18-.77,.37-1.14,.3-.38-.06-.66-.37-.8-.73-.28,.17-.61,.26-.96,.26-.76,0-1.44-.42-1.7-1.03-.35,.37-.83,.6-1.39,.6-.61,0-1.16-.28-1.51-.7-.34,.32-.8,.52-1.31,.52-.66,0-1.26-.34-1.6-.83-.35,.49-.94,.83-1.61,.83-.5,0-.97-.19-1.31-.52-.35,.42-.9,.7-1.5,.7s-1.06-.23-1.4-.6c-.26,.61-.95,1.03-1.7,1.03-.35,0-.67-.1-.95-.26-.14,.36-.42,.67-.82,.73-.36,.07-.83-.12-1.13-.3-.56-.31-1.22-1.32-1.22-1.32l.08-.5s.35,.41,.97,.9,1.09,.46,1.09,.46c.41-.06,.59-.44,.59-.85v-.43l.26,.35c.23,.32,.61,.54,1.06,.54,.71,0,1.27-.54,1.27-1.21,0-.2-.02-.38-.12-.55l.23-.53,.42,.42s-.01,.1-.01,.14c0,.71,.59,1.27,1.33,1.27,.66,0,1.24-.43,1.33-1.07,.01,0,.01-.49,.05-.49,.06,0,.17,.47,.19,.46,.17,.5,.67,.88,1.27,.88,.73,0,1.33-.56,1.33-1.26,0-.17,0-.31-.06-.46l.35-.06h.01Z" fill="#c8b100" stroke="#000" stroke-width=".26"/><path d="M406.95,266.68c-3.61,.01-6.86,.44-9.2,1.13-.16,.05-.35-.07-.4-.2-.05-.16,.06-.34,.22-.38,2.34-.72,5.68-1.18,9.38-1.18s7.06,.46,9.4,1.18c.16,.05,.26,.23,.22,.38-.05,.13-.24,.25-.4,.2-2.34-.68-5.6-1.12-9.22-1.13Z" fill="#c8b100" stroke="#000" stroke-linejoin="round" stroke-width=".26"/><path d="M394.66,265.2s-.46-.58-.78-.88c-.24-.22-.82-.4-.82-.4,0-.1,.34-.34,.7-.34,.22,0,.42,.08,.54,.24l.05-.24s.29,.06,.42,.38c.14,.35,.06,.86,.06,.86,0,0-.06,.24-.17,.36h0Z" fill="#c8b100" stroke="#000" stroke-width=".26"/><path d="M396.93,264.26l-.13,.79-1.68,.18-.25-.14,.05-.28,1.27-1.04,.74,.49" fill="#c8b100" stroke="#000" stroke-width=".26"/><path d="M394.68,264.9c.14-.14,.43-.11,.64,.07,.22,.18,.29,.46,.14,.6-.14,.16-.43,.12-.64-.07-.22-.18-.29-.46-.14-.6Z" fill="#c8b100" stroke="#000" stroke-width=".26"/><path d="M397.77,265.06c-.07-.22,0-.44,.16-.5,.17-.04,.36,.11,.44,.32,.07,.23,0,.46-.17,.5-.16,.05-.35-.1-.43-.32Z" fill="#c8b100" stroke="#000" stroke-width=".26"/><path d="M398.55,264.05l.61,.58,1.46-.79,.11-.25-.2-.2-1.68-.14-.3,.82" fill="#c8b100" stroke="#000" stroke-width=".26"/><path d="M400.24,261.31l-.8,.77,1.03,1.37,.28,.11,.2-.22,.36-1.64-1.07-.38" fill="#c8b100" stroke="#000" stroke-width=".26"/><path d="M402.97,263.16l-.31,.76-1.68-.16-.22-.19,.12-.26,1.46-.77,.62,.62" fill="#c8b100" stroke="#000" stroke-width=".26"/><ellipse cx="400.75" cy="263.58" rx=".59" ry=".56" fill="#c8b100" stroke="#000" stroke-width=".26"/><path d="M403.59,263.94c-.04-.24,.08-.44,.25-.47s.34,.16,.36,.4c.04,.23-.08,.44-.25,.46-.17,.02-.34-.16-.36-.38Z" fill="#c8b100" stroke="#000" stroke-width=".26"/><path d="M404.68,263.09l.48,.68,1.61-.5,.17-.22-.18-.24-1.6-.47-.48,.74" fill="#c8b100" stroke="#000" stroke-width=".26"/><path d="M406.93,260.58l-1.03,.62,.77,1.66,.26,.17,.26-.17,.77-1.66-1.03-.62" fill="#c8b100" stroke="#000" stroke-width=".26"/><path d="M409.2,263.09l-.47,.68-1.61-.5-.17-.22,.17-.24,1.61-.47,.47,.74" fill="#c8b100" stroke="#000" stroke-width=".26"/><ellipse cx="406.95" cy="263.05" rx=".59" ry=".56" fill="#c8b100" stroke="#000" stroke-width=".26"/><path d="M410.34,263.94c.02-.24-.1-.44-.26-.47s-.34,.16-.36,.4c-.02,.23,.08,.44,.25,.46,.17,.02,.34-.16,.37-.38Z" fill="#c8b100" stroke="#000" stroke-width=".26"/><path d="M410.93,263.16l.31,.76,1.68-.16,.22-.19-.12-.26-1.46-.77-.62,.62" fill="#c8b100" stroke="#000" stroke-width=".26"/><path d="M413.67,261.31l.8,.77-1.03,1.37-.28,.11-.2-.22-.36-1.64,1.07-.38" fill="#c8b100" stroke="#000" stroke-width=".26"/><path d="M415.36,264.05l-.61,.58-1.46-.79-.12-.25,.23-.2,1.68-.14,.29,.82" fill="#c8b100" stroke="#000" stroke-width=".26"/><ellipse cx="413.16" cy="263.58" rx=".59" ry=".56" fill="#c8b100" stroke="#000" stroke-width=".26"/><path d="M416.15,265.06c.07-.22,0-.44-.16-.5-.17-.04-.36,.11-.44,.32-.07,.23,0,.46,.17,.5,.16,.05,.35-.1,.43-.32Z" fill="#c8b100" stroke="#000" stroke-width=".26"/><path d="M419.02,265.2s.46-.58,.79-.88c.23-.22,.8-.4,.8-.4,0-.1-.34-.34-.7-.34-.22,0-.42,.08-.54,.24l-.05-.24s-.29,.06-.43,.38c-.13,.35-.04,.86-.04,.86,0,0,.05,.24,.16,.36h0Z" fill="#c8b100" stroke="#000" stroke-width=".26"/><path d="M416.75,264.26l.13,.79,1.68,.18,.25-.14-.06-.28-1.26-1.04-.74,.49" fill="#c8b100" stroke="#000" stroke-width=".26"/><path d="M419.03,264.9c-.13-.14-.42-.11-.64,.07s-.29,.46-.14,.6c.14,.16,.43,.12,.65-.07,.22-.18,.28-.46,.13-.6Z" fill="#c8b100" stroke="#000" stroke-width=".26"/></g><g id="l"><path d="M397.8,269.16l.37-.6,.78,.16-.46,.67-.7-.23" fill="#ad1519" stroke="#000" stroke-width=".26"/><path d="M401.16,268.57l-.83,.13c-.22,.02-.42-.11-.46-.31-.02-.2,.12-.38,.32-.42l.84-.12,.85-.13c.22-.02,.41,.11,.44,.3,.02,.2-.12,.4-.32,.42l-.85,.13" fill="#058e6e" stroke="#000" stroke-width=".26"/><ellipse cx="403.97" cy="267.96" rx=".53" ry=".49" fill="#fff" stroke="#000" stroke-width=".26"/><path d="M406.98,268.18h-1.15c-.22,0-.4-.17-.4-.37s.17-.37,.38-.37h2.35c.23,0,.4,.17,.4,.37s-.18,.37-.4,.37h-1.19" fill="#ad1519" stroke="#000" stroke-width=".26"/><ellipse cx="409.93" cy="267.96" rx=".53" ry=".49" fill="#fff" stroke="#000" stroke-width=".26"/><path d="M412.74,268.57l.83,.13c.22,.02,.42-.11,.46-.31,.02-.2-.11-.38-.32-.42l-.84-.12-.85-.13c-.22-.02-.42,.11-.44,.3-.04,.2,.11,.4,.32,.42l.85,.13" fill="#058e6e" stroke="#000" stroke-width=".26"/><path d="M416.03,269.2l-.3-.64-.8,.07,.38,.71,.72-.14" fill="#ad1519" stroke="#000" stroke-width=".26"/><path d="M406.93,271.39c-2.92,0-5.56-.26-7.56-.78,2-.52,4.64-.83,7.56-.84,2.93,0,5.58,.32,7.6,.84-2.02,.52-4.67,.78-7.6,.78Z" fill="#ad1519" stroke="#000" stroke-linejoin="round" stroke-width=".26"/><path d="M408.3,271.3v-1.39m-.7,1.44v-1.48m-.5,1.5v-1.51" fill="none" stroke="#000" stroke-width="0"/><path d="M406.67,271.38v-1.52" fill="none" stroke="#000" stroke-width=".02"/><path d="M406.25,271.38v-1.52" fill="none" stroke="#000" stroke-width=".03"/><path d="M405.87,271.38v-1.52" fill="none" stroke="#000" stroke-width=".04"/><path d="M405.47,271.38v-1.52" fill="none" stroke="#000" stroke-width=".04"/><path d="M405.13,271.38v-1.52" fill="none" stroke="#000" stroke-width=".05"/><path d="M404.47,271.3v-1.38m.31,1.4v-1.45" fill="none" stroke="#000" stroke-width=".06"/><path d="M403.86,271.24v-1.27m.31,1.31v-1.36" fill="none" stroke="#000" stroke-width=".07"/><path d="M403.05,271.16v-1.12m.28,1.13v-1.18m.28,1.22v-1.22" fill="none" stroke="#000" stroke-width=".08"/><path d="M402.77,271.15v-1.08" fill="none" stroke="#000" stroke-width=".09"/><path d="M402.51,271.1v-1.02" fill="none" stroke="#000" stroke-width=".1"/><path d="M402.22,271.07v-.94" fill="none" stroke="#000" stroke-width=".11"/><path d="M401.63,270.98v-.74m.3,.79v-.84" fill="none" stroke="#000" stroke-width=".12"/><path d="M401.33,270.92v-.66" fill="none" stroke="#000" stroke-width=".12"/><path d="M401.05,270.88v-.55" fill="none" stroke="#000" stroke-width=".13"/><path d="M400.75,270.8v-.43" fill="none" stroke="#000" stroke-width=".14"/><path d="M400.45,270.77v-.32" fill="none" stroke="#000" stroke-width=".15"/><path d="M400.13,270.7v-.16" fill="none" stroke="#000" stroke-width=".18"/></g></g><g id="m"><g id="n"><g><path d="M425.68,396.82c-1.85,0-3.49-.4-4.72-1.04-1.2-.61-2.83-.98-4.63-.98s-3.48,.38-4.69,1c-1.21,.64-2.88,1.03-4.7,1.03s-3.5-.43-4.72-1.08c-1.2-.59-2.8-.95-4.55-.95s-3.43,.35-4.63,.97c-1.22,.65-2.9,1.06-4.74,1.06v2.89c1.84,0,3.52-.42,4.74-1.06,1.2-.62,2.81-.98,4.63-.98s3.35,.37,4.55,.96c1.21,.64,2.87,1.08,4.72,1.08s3.49-.4,4.7-1.03c1.21-.62,2.88-1.01,4.69-1.01s3.43,.38,4.63,1c1.22,.65,2.84,1.04,4.69,1.04l.02-2.89h0Z" fill="#005bbf" stroke="#000" stroke-width=".39"/><path d="M425.68,399.71c-1.85,0-3.49-.4-4.72-1.04-1.2-.61-2.83-1-4.63-1s-3.48,.38-4.69,1.01c-1.21,.64-2.88,1.03-4.7,1.03s-3.5-.44-4.72-1.08c-1.2-.59-2.8-.96-4.55-.96s-3.43,.36-4.63,.98c-1.22,.64-2.9,1.06-4.74,1.06v2.89c1.84,0,3.52-.42,4.74-1.06,1.2-.62,2.81-.98,4.63-.98s3.35,.37,4.55,.96c1.21,.65,2.87,1.08,4.72,1.08s3.49-.41,4.7-1.03,2.88-1.01,4.69-1.01,3.43,.38,4.63,1.01c1.22,.64,2.84,1.03,4.69,1.03l.02-2.89" fill="#ccc" stroke="#000" stroke-width=".39"/><path d="M425.68,402.6c-1.85,0-3.49-.4-4.72-1.03-1.2-.62-2.83-1.01-4.63-1.01s-3.48,.38-4.69,1.01-2.88,1.03-4.7,1.03-3.5-.43-4.72-1.08c-1.2-.59-2.8-.96-4.55-.96s-3.43,.36-4.63,.98c-1.22,.64-2.9,1.06-4.74,1.06v2.88c1.84,0,3.52-.41,4.74-1.06,1.2-.61,2.81-.96,4.63-.96s3.35,.36,4.55,.95c1.21,.65,2.87,1.07,4.72,1.07s3.49-.38,4.7-1.02c1.21-.62,2.88-1,4.69-1s3.43,.37,4.63,.98c1.22,.66,2.84,1.03,4.69,1.03l.02-2.88" fill="#005bbf" stroke="#000" stroke-width=".39"/><path d="M425.65,408.38c-1.85,0-3.47-.4-4.69-1.04-1.2-.61-2.83-.98-4.63-.98s-3.48,.37-4.69,1-2.88,1.03-4.7,1.03-3.5-.44-4.72-1.08c-1.2-.6-2.8-.95-4.55-.95s-3.43,.35-4.63,.97c-1.22,.64-2.9,1.06-4.74,1.06v-2.88c1.84,0,3.52-.43,4.74-1.08,1.2-.61,2.81-.96,4.63-.96s3.35,.36,4.55,.95c1.21,.65,2.87,1.07,4.72,1.07s3.49-.38,4.7-1.02c1.21-.62,2.88-1,4.69-1s3.43,.37,4.63,.98c1.22,.66,2.87,1.03,4.72,1.03l-.02,2.9" fill="#ccc" stroke="#000" stroke-width=".39"/><path d="M425.65,411.28c-1.85,0-3.47-.4-4.69-1.03-1.2-.62-2.83-1.01-4.63-1.01s-3.48,.38-4.69,1.01-2.88,1.03-4.7,1.03-3.5-.44-4.72-1.08c-1.2-.6-2.8-.96-4.55-.96s-3.43,.36-4.63,.98c-1.22,.64-2.9,1.06-4.74,1.06v-2.87c1.84,0,3.52-.44,4.74-1.08,1.2-.62,2.81-.97,4.63-.97s3.35,.36,4.55,.95c1.21,.64,2.87,1.08,4.72,1.08s3.49-.41,4.7-1.03,2.88-1,4.69-1,3.43,.37,4.63,.98c1.22,.65,2.86,1.04,4.72,1.04l-.02,2.89h0Z" fill="#005bbf" stroke="#000" stroke-width=".39"/></g><g><path d="M396.45,384.94c.06,.25,.16,.48,.16,.74,0,1.75-1.52,3.16-3.37,3.16h27.53c-1.86,0-3.37-1.4-3.37-3.16,0-.25,.05-.49,.11-.74-.16,.06-.35,.07-.53,.07h-20.03c-.16,0-.35-.02-.49-.07Z" fill="#c8b100" stroke="#000" stroke-linejoin="round" stroke-width=".39"/><path d="M396.94,383.12h20.03c.68,0,1.22,.42,1.22,.94s-.54,.95-1.22,.95h-20.03c-.67,0-1.22-.43-1.22-.95s.55-.94,1.22-.94Z" fill="#c8b100" stroke="#000" stroke-width=".39"/><path d="M393.27,395.83h27.44v-7h-27.44v7Z" fill="#c8b100" stroke="#000" stroke-width=".39"/></g><path d="M397.2,381.98h19.5v-95.56h-19.5v95.56Z" fill="#ccc" stroke="#000" stroke-width=".39"/><path d="M411.1,286.56v95.35m2.2-95.35v95.35" fill="none" stroke="#000" stroke-width=".39"/><g><path d="M393.64,278.84h26.75v-7.01h-26.75v7.01h0Z" fill="#c8b100" stroke="#000" stroke-width=".39"/><path d="M396.45,283.51c.17-.07,.29-.08,.49-.08h20.03c.2,0,.38,.04,.55,.1-.7-.23-1.19-.85-1.19-1.58s.54-1.37,1.24-1.6c-.17,.05-.4,.1-.59,.1h-20.04c-.2,0-.4-.01-.56-.07l.11,.02c.72,.22,1.13,.85,1.13,1.55s-.46,1.36-1.16,1.57h0Z" fill="#c8b100" stroke="#000" stroke-linejoin="round" stroke-width=".39"/><path d="M396.94,283.43h20.03c.68,0,1.22,.42,1.22,.94s-.54,.95-1.22,.95h-20.03c-.67,0-1.22-.42-1.22-.95s.55-.94,1.22-.94Z" fill="#c8b100" stroke="#000" stroke-width=".39"/><path d="M396.94,278.84h20.04c.68,0,1.24,.36,1.24,.79s-.55,.8-1.24,.8h-20.04c-.67,0-1.22-.36-1.22-.8s.55-.79,1.22-.79Z" fill="#c8b100" stroke="#000" stroke-width=".39"/></g></g></g><g id="o"><g id="p"><path d="M422.85,358.34c2.71,1.56,4.56,3.17,4.26,3.97-.14,.73-1.01,1.28-2.24,2.1-1.94,1.36-3.12,3.77-2.2,4.88-1.61-1.3-2.63-3.23-2.63-5.39s1.08-4.27,2.81-5.57Z" fill="#ad1519" stroke="#000" stroke-width=".39"/><path d="M377.34,322.16c4.25-1.75,11.48-3.06,19.79-3.34,2.87,.02,6.05,.3,9.35,.84,11.66,1.96,20.56,6.61,19.85,10.4-.01,.07-.05,.24-.06,.31,0,0,4.37-9.85,4.44-10.22,.78-4.21-9.07-9.38-22.02-11.54-4.07-.68-8.03-.95-11.47-.91-8.28,0-15.48,1.07-19.82,2.68l-.05,11.78" fill="#ad1519" stroke="#000" stroke-linejoin="round" stroke-width=".39"/><path d="M416.8,334.16c5.41-.38,9.1-1.84,9.53-4.09,.34-1.8-1.5-3.8-4.76-5.62-1.45,.17-3.1,.36-4.8,.36l.04,9.35" fill="#ad1519" stroke="#000" stroke-width=".39"/><path d="M397.23,326.86c-3.38,.52-5.92,1.36-7.18,2.39l-.12,.2c-.6,1.24,2.36,3.86,7.33,6.8l-.04-9.4" fill="#ad1519" stroke="#000" stroke-width=".39"/><path d="M428.92,352.6c.52-1.54-4.76-4.63-12.22-7.37-3.41-1.21-6.22-2.48-9.71-4.02-10.36-4.58-18-9.84-17.06-11.75l.11-.2c-.55,.46-1.42,9.89-1.42,9.89-.94,1.75,6.06,6.94,15.6,11.5,3.05,1.46,9.49,3.84,12.53,4.91,5.45,1.88,10.85,5.45,10.36,6.77l1.81-9.71h0s0-.01,0-.01Z" fill="#ad1519" stroke="#000" stroke-linejoin="round" stroke-width=".39"/></g></g><g id="q"><path d="M216.84,317.58c2.39-.86,3.95-1.9,3.19-3.77-.49-1.2-1.72-1.43-3.56-.76l-3.25,1.19,2.93,7.24c.32-.14,.65-.29,.97-.41,.34-.12,.68-.22,1.02-.31l-1.3-3.17h0s0-.01,0-.01Zm-1.42-3.49l.83-.3c.68-.25,1.45,.12,1.8,.96,.25,.64,.19,1.36-.6,1.86-.25,.16-.55,.28-.84,.4l-1.19-2.92" fill="#c8b100"/><path d="M224.47,311.06c-.35,.1-.68,.19-1.03,.26-.35,.06-.71,.11-1.06,.14l1.69,7.54,5.26-1.06c-.06-.14-.14-.31-.17-.46-.04-.17-.04-.34-.05-.49-.92,.26-1.93,.55-3.13,.79l-1.51-6.73" fill="#c8b100"/><path d="M235.01,317.56c.98-2.74,2.18-5.35,3.37-8-.22,.04-.43,.07-.65,.08s-.44,.01-.65,0c-.64,1.93-1.42,3.85-2.24,5.76-.98-1.81-2.08-3.59-2.92-5.41-.41,.05-.83,.11-1.24,.14-.41,.02-.84,.01-1.25,.02,1.51,2.47,2.98,4.93,4.37,7.48,.19-.04,.38-.07,.6-.1,.19-.01,.4,.01,.6,.02" fill="#c8b100"/><path d="M246,311.76c.18-.37,.37-.72,.58-1.07-.29-.26-1.15-.66-2.17-.76-2.15-.22-3.37,.73-3.52,2.03-.31,2.71,3.97,2.48,3.77,4.28-.08,.77-.9,1.08-1.78,1-.97-.1-1.69-.64-1.81-1.43l-.26-.02c-.14,.47-.35,.92-.58,1.38,.64,.41,1.45,.64,2.22,.71,2.2,.23,3.86-.65,4.02-2.09,.28-2.58-4.04-2.72-3.88-4.25,.07-.64,.56-1.06,1.68-.95,.8,.08,1.3,.52,1.51,1.14l.22,.02" fill="#c8b100"/><path d="M389.5,317.98c.74-2.8,1.69-5.5,2.63-8.24-.2,.06-.42,.11-.64,.13-.2,.04-.43,.05-.65,.06-.44,1.97-1.06,3.95-1.7,5.93-1.15-1.73-2.4-3.41-3.4-5.16-.41,.08-.82,.18-1.22,.24s-.83,.08-1.25,.13c1.74,2.33,3.42,4.67,5.04,7.09,.19-.05,.38-.12,.6-.14,.19-.02,.4-.02,.59-.04" fill="#c8b100"/><path d="M396.91,309.79c-.35,.01-.71,.05-1.06,.04-.36,0-.72-.05-1.07-.07l-.14,7.69,5.39,.1c-.04-.16-.07-.34-.07-.49s.05-.32,.08-.48c-.97,.06-2.02,.12-3.25,.1l.12-6.88" fill="#c8b100"/><path d="M405.36,311.05c.86,.07,1.69,.23,2.52,.37-.01-.16-.04-.32-.02-.49,.01-.16,.07-.31,.12-.47l-7.28-.6c.01,.17,.04,.32,.02,.48-.01,.17-.07,.32-.12,.48,.74-.02,1.64-.02,2.65,.06l-.64,6.92c.35,0,.71,0,1.06,.04,.36,.02,.71,.08,1.06,.13l.64-6.92" fill="#c8b100"/><path d="M408.35,318.64c.35,.06,.71,.11,1.06,.18,.34,.07,.68,.18,1.02,.28l.86-3.53h.1c.19,.5,.46,1.09,.59,1.44l1.08,2.66c.43,.07,.85,.13,1.26,.22,.43,.1,.84,.22,1.25,.34l-.37-.8c-.58-1.2-1.19-2.41-1.69-3.62,1.34,.05,2.38-.43,2.64-1.51,.18-.74-.12-1.33-.82-1.84-.53-.37-1.54-.56-2.2-.72l-2.93-.64-1.85,7.55m3.77-6.5c.85,.19,1.91,.32,1.91,1.28-.01,.25-.04,.42-.07,.58-.28,1.13-1.13,1.51-2.56,1.09l.72-2.95" fill="#c8b100"/><path d="M422.22,320.95c-.06,.83-.22,1.64-.37,2.52,.36,.17,.73,.32,1.08,.53,.36,.19,.68,.41,1.03,.62l.72-8.68c-.17-.07-.32-.14-.49-.23-.16-.08-.3-.18-.44-.29l-7.66,4.86c.2,.1,.42,.19,.61,.3,.2,.11,.37,.23,.56,.34,.65-.54,1.32-.98,2.09-1.56l2.87,1.57h0Zm-2.17-1.98l2.56-1.64-.3,2.88-2.26-1.24" fill="#c8b100"/></g></g><g id="r"><path d="M316.72,219.26c7.97,0,15.07,1.19,19.69,3.01,2.64,1.2,6.19,2.08,10.08,2.6,2.96,.4,5.77,.47,8.22,.29,3.28-.07,8,.89,12.74,2.98,3.91,1.74,7.19,3.85,9.36,5.89l-1.88,1.68-.54,4.75-5.16,5.9-2.58,2.2-6.11,4.88-3.12,.25-.95,2.7-39.49-4.63-39.62,4.63-.95-2.7-3.13-.25-6.1-4.88-2.58-2.2-5.16-5.9-.53-4.75-1.9-1.68c2.18-2.04,5.45-4.15,9.36-5.89,4.74-2.09,9.47-3.05,12.74-2.98,2.45,.18,5.26,.11,8.22-.29,3.89-.53,7.44-1.4,10.08-2.6,4.63-1.82,11.33-3.01,19.3-3.01h0Z" fill="#ad1519" stroke="#000" stroke-width=".26"/><g><path d="M287.55,229.7l1.66,1.33,2.5-4.08c-2.7-1.66-4.56-4.54-4.56-7.81,0-.37,.02-.73,.07-1.09,.25-5.21,6.6-9.5,14.64-9.5,4.18,0,7.96,1.14,10.61,2.98,.07-.8,.14-1.5,.25-2.23-2.92-1.7-6.72-2.74-10.86-2.74-9.25,0-16.49,5.27-16.84,11.48-.04,.37-.06,.73-.06,1.1,0,3.31,1.51,6.31,3.91,8.39l-1.32,2.17" fill="#c8b100" stroke="#000" stroke-width=".39"/><path d="M287.65,229.75c-3.16-2.36-5.12-5.57-5.12-9.1,0-4.06,2.66-7.68,6.7-10.09-2.48,2-4,4.6-4.21,7.48-.04,.37-.06,.73-.06,1.1,0,3.31,1.51,6.31,3.91,8.39l-1.21,2.22" fill="#c8b100" stroke="#000" stroke-width=".39"/><path d="M259.79,233.87c-1.78-1.98-2.86-4.55-2.86-7.34,0-1.69,.4-3.3,1.09-4.74,2.56-5.26,10.58-9.08,20.11-9.08,2.59,0,5.08,.28,7.37,.8-.5,.55-.9,1.16-1.3,1.78-1.91-.37-3.95-.58-6.07-.58-8.72,0-16.03,3.4-18.14,7.98-.56,1.16-.88,2.47-.88,3.84,0,2.78,1.31,5.28,3.35,6.98l-3.16,5.16-1.69-1.34,2.17-3.46h0Z" fill="#c8b100" stroke="#000" stroke-width=".39"/><path d="M263.02,216.58c-2.29,1.45-4.03,3.23-4.99,5.21-.7,1.44-1.09,3.05-1.09,4.74,0,2.8,1.08,5.36,2.86,7.34l-1.92,3.11c-1.84-2.35-2.9-5.11-2.9-8.04,0-5.04,3.2-9.44,8.05-12.36h0Z" fill="#c8b100" stroke="#000" stroke-width=".39"/><path d="M317.19,205.52c2.11,0,3.94,1.39,4.37,3.28,.28,1.66,.46,3.54,.49,5.54,.01,.22-.01,.42-.01,.62,0,.24,.05,.49,.06,.73,.07,4.22,.67,7.94,1.52,10.22l-6.43,6.17-6.52-6.17c.86-2.28,1.46-6,1.55-10.22,0-.24,.05-.49,.05-.73,0-.2-.01-.41-.01-.62,.04-2,.22-3.89,.49-5.54,.43-1.88,2.33-3.28,4.44-3.28h0Z" fill="#c8b100" stroke="#000" stroke-width=".39"/><path d="M317.19,207.53c1.09,0,2.02,.7,2.24,1.67,.28,1.57,.44,3.36,.48,5.26,0,.19-.01,.38-.01,.58,0,.24,.04,.47,.05,.71,.06,3.98,.64,7.5,1.45,9.66l-4.25,4.02-4.25-4.02c.8-2.16,1.38-5.68,1.45-9.66,0-.24,.05-.47,.05-.71,0-.19-.01-.38-.01-.58,.04-1.9,.2-3.68,.48-5.26,.22-.97,1.22-1.67,2.32-1.67Z" fill="#c8b100" stroke="#000" stroke-width=".39"/><path d="M346.78,229.7l-1.67,1.33-2.5-4.08c2.71-1.66,4.57-4.54,4.57-7.81,0-.37-.02-.73-.07-1.09-.25-5.21-6.6-9.5-14.64-9.5-4.19,0-7.96,1.14-10.61,2.98-.07-.8-.14-1.5-.26-2.23,2.93-1.7,6.72-2.74,10.87-2.74,9.25,0,16.49,5.27,16.84,11.48,.04,.37,.06,.73,.06,1.1,0,3.31-1.52,6.31-3.92,8.39l1.33,2.17" fill="#c8b100" stroke="#000" stroke-width=".39"/><path d="M346.67,229.75c3.16-2.36,5.12-5.57,5.12-9.1,0-4.06-2.66-7.68-6.7-10.09,2.48,2,4,4.6,4.21,7.48,.04,.37,.06,.73,.06,1.1,0,3.31-1.52,6.31-3.92,8.39l1.22,2.22" fill="#c8b100" stroke="#000" stroke-width=".39"/><path d="M374.53,233.87c1.76-1.98,2.86-4.55,2.86-7.34,0-1.69-.4-3.3-1.09-4.74-2.57-5.26-10.58-9.08-20.11-9.08-2.59,0-5.08,.28-7.38,.8,.52,.55,.91,1.16,1.31,1.78,1.9-.37,3.95-.58,6.07-.58,8.72,0,16.02,3.4,18.13,7.98,.56,1.16,.88,2.47,.88,3.84,0,2.78-1.31,5.28-3.35,6.98l3.16,5.16,1.7-1.34-2.17-3.46Z" fill="#c8b100" stroke="#000" stroke-width=".39"/><path d="M371.31,216.58c2.29,1.45,4.03,3.23,4.99,5.21,.7,1.44,1.09,3.05,1.09,4.74,0,2.8-1.09,5.36-2.86,7.34l1.92,3.11c1.84-2.35,2.89-5.11,2.89-8.04,0-5.04-3.2-9.44-8.04-12.36h0Z" fill="#c8b100" stroke="#000" stroke-width=".39"/><ellipse cx="317.2" cy="200.76" rx="5.32" ry="5.04" fill="#005bbf" stroke="#000" stroke-width=".26"/><path d="M315.81,186.65v2.71h-2.9v2.76h2.9v7.93h-3.66c-.04,.25-.26,.44-.26,.71,0,.7,.14,1.37,.42,1.97,0,.02,.02,.02,.04,.04h9.74s.02-.01,.04-.04c.26-.6,.42-1.27,.42-1.97,0-.26-.23-.46-.26-.71h-3.55v-7.93h2.9v-2.76h-2.9v-2.71h-2.92Z" fill="#c8b100" stroke="#000" stroke-width=".26"/></g><g><ellipse cx="317.19" cy="226.73" rx="2.29" ry="2.16" fill="#fff" stroke="#000" stroke-width=".39"/><ellipse cx="317.19" cy="222.48" rx="2.29" ry="2.16" fill="#fff" stroke="#000" stroke-width=".39"/><ellipse cx="317.19" cy="217.92" rx="1.82" ry="1.73" fill="#fff" stroke="#000" stroke-width=".39"/><ellipse cx="317.19" cy="213.82" rx="1.32" ry="1.25" fill="#fff" stroke="#000" stroke-width=".39"/><ellipse cx="317.19" cy="210.22" rx="1.06" ry="1" fill="#fff" stroke="#000" stroke-width=".39"/><ellipse cx="255.87" cy="238.4" rx="1.32" ry="1.25" fill="#fff" stroke="#000" stroke-width=".39"/><ellipse cx="254.07" cy="235.22" rx="1.32" ry="1.25" fill="#fff" stroke="#000" stroke-width=".39"/><ellipse cx="252.87" cy="231.53" rx="1.32" ry="1.25" fill="#fff" stroke="#000" stroke-width=".39"/><ellipse cx="252.71" cy="227.57" rx="1.32" ry="1.25" fill="#fff" stroke="#000" stroke-width=".39"/><ellipse cx="253.68" cy="223.68" rx="1.32" ry="1.25" fill="#fff" stroke="#000" stroke-width=".39"/><ellipse cx="255.71" cy="220.14" rx="1.32" ry="1.25" fill="#fff" stroke="#000" stroke-width=".39"/><ellipse cx="258.41" cy="217.22" rx="1.32" ry="1.25" fill="#fff" stroke="#000" stroke-width=".39"/><ellipse cx="261.55" cy="214.81" rx="1.32" ry="1.25" fill="#fff" stroke="#000" stroke-width=".39"/><ellipse cx="265.3" cy="212.83" rx="1.32" ry="1.25" fill="#fff" stroke="#000" stroke-width=".39"/><ellipse cx="269.19" cy="211.43" rx="1.32" ry="1.25" fill="#fff" stroke="#000" stroke-width=".39"/><ellipse cx="273.53" cy="210.65" rx="1.32" ry="1.25" fill="#fff" stroke="#000" stroke-width=".39"/><ellipse cx="277.66" cy="210.43" rx="1.32" ry="1.25" fill="#fff" stroke="#000" stroke-width=".39"/><ellipse cx="281.7" cy="210.58" rx="1.32" ry="1.25" fill="#fff" stroke="#000" stroke-width=".39"/><ellipse cx="286.19" cy="228.38" rx="1.32" ry="1.25" fill="#fff" stroke="#000" stroke-width=".39"/><ellipse cx="283.95" cy="225.18" rx="1.32" ry="1.25" fill="#fff" stroke="#000" stroke-width=".39"/><ellipse cx="282.76" cy="221.7" rx="1.32" ry="1.25" fill="#fff" stroke="#000" stroke-width=".39"/><ellipse cx="282.9" cy="217.88" rx="1.32" ry="1.25" fill="#fff" stroke="#000" stroke-width=".39"/><ellipse cx="283.73" cy="214.04" rx="1.32" ry="1.25" fill="#fff" stroke="#000" stroke-width=".39"/><ellipse cx="285.75" cy="210.58" rx="1.32" ry="1.25" fill="#fff" stroke="#000" stroke-width=".39"/><ellipse cx="288.82" cy="208.16" rx="1.32" ry="1.25" fill="#fff" stroke="#000" stroke-width=".39"/><ellipse cx="292.41" cy="206.17" rx="1.32" ry="1.25" fill="#fff" stroke="#000" stroke-width=".39"/><ellipse cx="296.38" cy="204.98" rx="1.32" ry="1.25" fill="#fff" stroke="#000" stroke-width=".39"/><ellipse cx="300.49" cy="204.28" rx="1.32" ry="1.25" fill="#fff" stroke="#000" stroke-width=".39"/><ellipse cx="304.54" cy="204.34" rx="1.32" ry="1.25" fill="#fff" stroke="#000" stroke-width=".39"/><ellipse cx="308.73" cy="205.04" rx="1.32" ry="1.25" fill="#fff" stroke="#000" stroke-width=".39"/><ellipse cx="312.61" cy="206.39" rx="1.32" ry="1.25" fill="#fff" stroke="#000" stroke-width=".39"/><ellipse cx="321.7" cy="206.39" rx="1.32" ry="1.25" fill="#fff" stroke="#000" stroke-width=".39"/><ellipse cx="325.59" cy="205.04" rx="1.32" ry="1.25" fill="#fff" stroke="#000" stroke-width=".39"/><ellipse cx="329.79" cy="204.34" rx="1.32" ry="1.25" fill="#fff" stroke="#000" stroke-width=".39"/><ellipse cx="333.82" cy="204.28" rx="1.32" ry="1.25" fill="#fff" stroke="#000" stroke-width=".39"/><ellipse cx="337.95" cy="204.98" rx="1.32" ry="1.25" fill="#fff" stroke="#000" stroke-width=".39"/><ellipse cx="341.91" cy="206.17" rx="1.32" ry="1.25" fill="#fff" stroke="#000" stroke-width=".39"/><ellipse cx="345.51" cy="208.16" rx="1.32" ry="1.25" fill="#fff" stroke="#000" stroke-width=".39"/><ellipse cx="348.57" cy="210.58" rx="1.32" ry="1.25" fill="#fff" stroke="#000" stroke-width=".39"/><ellipse cx="350.59" cy="214.04" rx="1.32" ry="1.25" fill="#fff" stroke="#000" stroke-width=".39"/><ellipse cx="351.42" cy="217.88" rx="1.32" ry="1.25" fill="#fff" stroke="#000" stroke-width=".39"/><ellipse cx="351.57" cy="221.7" rx="1.32" ry="1.25" fill="#fff" stroke="#000" stroke-width=".39"/><ellipse cx="350.37" cy="225.18" rx="1.32" ry="1.25" fill="#fff" stroke="#000" stroke-width=".39"/><ellipse cx="348.13" cy="228.38" rx="1.32" ry="1.25" fill="#fff" stroke="#000" stroke-width=".39"/><ellipse cx="352.62" cy="210.58" rx="1.32" ry="1.25" fill="#fff" stroke="#000" stroke-width=".39"/><ellipse cx="356.67" cy="210.43" rx="1.32" ry="1.25" fill="#fff" stroke="#000" stroke-width=".39"/><ellipse cx="360.79" cy="210.65" rx="1.32" ry="1.25" fill="#fff" stroke="#000" stroke-width=".39"/><ellipse cx="365.14" cy="211.43" rx="1.32" ry="1.25" fill="#fff" stroke="#000" stroke-width=".39"/><ellipse cx="369.03" cy="212.83" rx="1.32" ry="1.25" fill="#fff" stroke="#000" stroke-width=".39"/><ellipse cx="372.77" cy="214.81" rx="1.32" ry="1.25" fill="#fff" stroke="#000" stroke-width=".39"/><ellipse cx="375.9" cy="217.22" rx="1.32" ry="1.25" fill="#fff" stroke="#000" stroke-width=".39"/><ellipse cx="378.6" cy="220.14" rx="1.32" ry="1.25" fill="#fff" stroke="#000" stroke-width=".39"/><ellipse cx="380.63" cy="223.68" rx="1.32" ry="1.25" fill="#fff" stroke="#000" stroke-width=".39"/><ellipse cx="381.6" cy="227.57" rx="1.32" ry="1.25" fill="#fff" stroke="#000" stroke-width=".39"/><ellipse cx="381.46" cy="231.53" rx="1.32" ry="1.25" fill="#fff" stroke="#000" stroke-width=".39"/><ellipse cx="380.26" cy="235.22" rx="1.32" ry="1.25" fill="#fff" stroke="#000" stroke-width=".39"/><ellipse cx="378.46" cy="238.4" rx="1.32" ry="1.25" fill="#fff" stroke="#000" stroke-width=".39"/></g><g><path d="M317.32,271.42c-14.71-.02-27.9-1.76-37.31-4.6-.68-.22-1.04-.84-1.01-1.5-.01-.62,.35-1.2,1.01-1.4,9.41-2.83,22.6-4.57,37.31-4.6,14.72,.02,27.9,1.76,37.31,4.6,.66,.2,1.01,.78,1,1.4,.04,.66-.32,1.28-1,1.5-9.41,2.83-22.58,4.57-37.31,4.6" fill="#c8b100" stroke="#000" stroke-width=".39"/><path d="M317.22,259.31c-14.89,.04-28.26,1.9-37.67,4.8,.78-.37,.71-1.34-.26-3.84-1.18-3.04-3-2.9-3-2.9,10.39-3.07,24.88-4.99,40.99-5.02,16.13,.02,30.72,1.94,41.12,5.02,0,0-1.84-.13-3.01,2.9-.97,2.5-1.04,3.47-.25,3.84-9.41-2.9-23.03-4.76-37.92-4.8" fill="#c8b100" stroke="#000" stroke-width=".39"/><path d="M317.28,252.36c-16.12,.02-30.6,1.94-40.99,5.02-.7,.2-1.43-.06-1.66-.72s.14-1.42,.84-1.62c10.45-3.2,25.3-5.22,41.81-5.26,16.52,.04,31.43,2.05,41.88,5.26,.7,.2,1.07,.96,.84,1.62s-.96,.92-1.66,.72c-10.4-3.07-24.94-4.99-41.06-5.02" fill="#c8b100" stroke="#000" stroke-width=".39"/><path d="M317.38,239.74l1.48,.26c-.23,.6-.29,1.26-.29,1.96,0,3.08,2.65,5.58,5.9,5.58,2.62,0,4.85-1.62,5.6-3.85,.1,.06,.56-2.02,.82-1.99,.2,.02,.18,2.16,.26,2.12,.37,2.81,2.95,4.72,5.84,4.72,3.25,0,5.89-2.5,5.89-5.58,0-.23-.01-.46-.05-.68l1.85-1.82,1,2.33c-.4,.73-.55,1.56-.55,2.44,0,2.95,2.52,5.33,5.63,5.33,1.96,0,3.67-.94,4.68-2.36l1.19-1.5v1.84c-.01,1.86,.78,3.52,2.58,3.82,0,0,2.08,.12,4.84-2.04,2.75-2.16,4.26-3.95,4.26-3.95l.24,2.16s-2.28,3.54-4.76,4.98c-1.37,.79-3.43,1.62-5.08,1.36-1.73-.29-2.98-1.68-3.61-3.29-1.24,.73-2.7,1.16-4.26,1.16-3.37,0-6.4-1.85-7.58-4.63-1.55,1.68-3.71,2.7-6.24,2.7-2.69,0-5.15-1.21-6.68-3.07-1.52,1.39-3.58,2.24-5.86,2.24-2.98,0-5.63-1.46-7.13-3.66-1.5,2.2-4.15,3.66-7.13,3.66-2.27,0-4.33-.85-5.84-2.24-1.54,1.86-4.01,3.07-6.7,3.07-2.53,0-4.68-1.02-6.23-2.7-1.2,2.78-4.22,4.63-7.58,4.63-1.57,0-3.02-.43-4.26-1.16-.65,1.61-1.88,3-3.62,3.29-1.63,.26-3.7-.56-5.06-1.36-2.5-1.44-4.78-4.98-4.78-4.98l.24-2.16s1.52,1.79,4.27,3.95c2.75,2.17,4.82,2.04,4.82,2.04,1.81-.3,2.59-1.96,2.59-3.82v-1.84s1.18,1.5,1.18,1.5c1.01,1.43,2.74,2.36,4.68,2.36,3.11,0,5.63-2.38,5.63-5.33,0-.88-.16-1.7-.55-2.44l1-2.33,1.85,1.82c-.02,.23-.05,.46-.05,.68,0,3.08,2.64,5.58,5.89,5.58,2.9,0,5.47-1.91,5.86-4.72,.07,.04,.06-2.1,.26-2.12,.24-.02,.72,2.05,.8,1.99,.77,2.23,2.99,3.85,5.62,3.85,3.25,0,5.89-2.5,5.89-5.58,0-.7-.04-1.36-.29-1.96l1.55-.26" fill="#c8b100" stroke="#000" stroke-width=".39"/><path d="M267.18,247.58c-.13-.44-.42-.9-.86-1.27-.95-.82-2.21-.95-2.83-.3-.08,.08-.16,.2-.2,.3,0,0-1.33-2.5-2.89-3.34-1.55-.84-4.19-.62-4.19-.62,0-1.92,1.56-3.47,3.59-3.47,1.19,0,2.3,.49,2.98,1.33l.28-1.28s1.63,.32,2.38,2.18-.07,4.56-.07,4.56c0,0,.41-1.15,1.02-1.93,.61-.77,2.17-1.61,2.99-1.99,.8-.37,1.64-.95,1.64-.95,0,0,.04,.22,.06,.73,.04,.61-.01,1-.01,1,1.49-.2,3.23,.05,4.6,.58-.59,1.14-1.69,2.21-3.14,2.76,0,0,.53,.43,1,.9,.41,.41,.53,.59,.53,.59,0,0-1.02,.16-1.52,.23-.52,.06-2.21,.34-3.23,.26-.74-.05-1.58-.17-2.09-.26" fill="#c8b100" stroke="#000" stroke-width=".39"/><path d="M263.49,246.01c.62-.65,1.88-.52,2.83,.3,.96,.8,1.22,1.99,.61,2.63-.61,.65-1.88,.5-2.83-.3-.95-.82-1.22-1.99-.61-2.63" fill="#ad1519" stroke="#000" stroke-width=".39"/><path d="M276.81,247.09c-.34-1-.04-1.98,.68-2.2,.72-.23,1.58,.4,1.92,1.39s.04,1.98-.68,2.21c-.72,.22-1.57-.41-1.92-1.4" fill="#fff" stroke="#000" stroke-width=".39"/><path d="M288.48,242.23c-.4-.32-.71-.77-.8-1.3s.01-1.04,.28-1.48c0,0-1.06-.53-2.2-.83-.86-.23-2.39-.24-2.84-.24-.46-.02-1.38-.04-1.38-.04,0,0,.08,.2,.34,.66,.32,.55,.6,.9,.6,.9-1.52,.35-2.82,1.34-3.64,2.51,1.19,.82,2.76,1.32,4.32,1.16,0,0-.14,.41-.24,1.03-.07,.52-.07,.73-.07,.73,0,0,.85-.31,1.28-.47,.42-.16,1.85-.66,2.58-1.15,.96-.65,1.78-1.5,1.78-1.5" fill="#c8b100" stroke="#000" stroke-width=".39"/><path d="M287.95,229.98c1.27,.8,2.38,2.15,2.76,3.64,0,0,.16-.3,.85-.71,.71-.4,1.31-.38,1.31-.38,0,0-.2,1.16-.3,1.58-.11,.41-.11,1.66-.38,2.78-.28,1.12-.76,2.02-.76,2.02-.5-.41-1.19-.61-1.9-.49-.7,.12-1.27,.53-1.58,1.08,0,0-.79-.7-1.45-1.66-.66-.97-1.12-2.14-1.36-2.5-.25-.36-.86-1.38-.86-1.38,0,0,.56-.22,1.37-.06,.8,.14,1.06,.38,1.06,.38-.17-1.54,.34-3.14,1.25-4.31" fill="#c8b100" stroke="#000" stroke-width=".39"/><path d="M291.9,241.66c.26-.42,.38-.95,.29-1.48s-.38-.97-.79-1.28c0,0,.8-.85,1.76-1.51,.72-.49,2.16-.98,2.58-1.14,.43-.16,1.28-.48,1.28-.48,0,0,0,.22-.07,.73-.1,.62-.24,1.04-.24,1.04,1.56-.17,3.14,.35,4.33,1.18-.83,1.16-2.12,2.15-3.65,2.5,0,0,.28,.34,.6,.89,.25,.47,.34,.67,.34,.67,0,0-.92-.02-1.38-.04-.46,0-1.98-.01-2.84-.24-1.14-.3-2.21-.83-2.21-.83" fill="#c8b100" stroke="#000" stroke-width=".39"/><ellipse cx="289.98" cy="240.54" rx="2.6" ry="2.47" fill="#ad1519" stroke="#000" stroke-width=".39"/><path d="M302.45,242.12c-.13-1.04,.37-1.96,1.12-2.04,.76-.08,1.48,.68,1.61,1.73,.13,1.03-.36,1.96-1.12,2.04-.74,.08-1.46-.68-1.61-1.73" fill="#fff" stroke="#000" stroke-width=".39"/><path d="M315.34,239.8c-.38-.43-.64-.98-.64-1.6s.23-1.16,.61-1.58c0,0-1.07-.8-2.27-1.34-.92-.42-2.62-.71-3.12-.8-.52-.1-1.54-.29-1.54-.29,0,0,.05,.24,.24,.8,.24,.67,.48,1.12,.48,1.12-1.76,.1-3.42,.97-4.57,2.11,1.15,1.13,2.81,1.99,4.57,2.1,0,0-.24,.43-.48,1.12-.19,.55-.24,.8-.24,.8,0,0,1.02-.19,1.54-.29,.5-.1,2.2-.38,3.12-.8,1.2-.55,2.29-1.33,2.29-1.33" fill="#c8b100" stroke="#000" stroke-width=".39"/><path d="M317.27,226.03c1.26,1.14,2.22,2.83,2.34,4.58,0,0,.23-.32,1.09-.64,.88-.31,1.54-.19,1.54-.19,0,0-.47,1.26-.66,1.7-.2,.44-.47,1.84-1.01,3.04-.53,1.2-1.26,2.11-1.26,2.11-.48-.54-1.2-.9-2-.9s-1.52,.36-2,.9c0,0-.73-.91-1.26-2.11-.54-1.2-.8-2.59-1.01-3.04s-.67-1.7-.67-1.7c0,0,.67-.12,1.54,.19s1.1,.64,1.1,.64c.12-1.75,1.03-3.44,2.27-4.58" fill="#c8b100" stroke="#000" stroke-width=".39"/><path d="M319.25,239.8c.4-.43,.64-.98,.64-1.6s-.23-1.16-.61-1.58c0,0,1.07-.8,2.28-1.34,.91-.42,2.6-.71,3.12-.8,.5-.1,1.51-.29,1.51-.29,0,0-.02,.24-.23,.8-.24,.67-.48,1.12-.48,1.12,1.76,.1,3.43,.97,4.57,2.11-1.14,1.13-2.8,1.99-4.57,2.1,0,0,.24,.43,.48,1.12,.19,.55,.23,.8,.23,.8l-1.51-.29c-.52-.1-2.21-.38-3.12-.8-1.21-.55-2.3-1.33-2.3-1.33" fill="#c8b100" stroke="#000" stroke-width=".39"/><ellipse cx="317.31" cy="238.2" rx="2.6" ry="2.47" fill="#ad1519" stroke="#000" stroke-width=".39"/><path d="M332.23,242.12c.13-1.04-.36-1.96-1.12-2.04s-1.48,.68-1.61,1.73c-.13,1.03,.37,1.96,1.12,2.04,.76,.08,1.48-.68,1.61-1.73" fill="#fff" stroke="#000" stroke-width=".39"/><path d="M342.79,241.66c-.26-.42-.38-.95-.3-1.48,.11-.53,.4-.97,.8-1.28,0,0-.8-.85-1.76-1.51-.73-.49-2.16-.98-2.59-1.14-.42-.16-1.27-.48-1.27-.48,0,0-.01,.22,.07,.73,.1,.62,.23,1.04,.23,1.04-1.55-.17-3.13,.35-4.32,1.18,.82,1.16,2.12,2.15,3.64,2.5,0,0-.28,.34-.59,.89-.26,.47-.34,.67-.34,.67l1.37-.04c.46,0,1.99-.01,2.84-.24,1.14-.3,2.21-.83,2.21-.83" fill="#c8b100" stroke="#000" stroke-width=".39"/><path d="M346.74,229.98c-1.27,.8-2.38,2.15-2.77,3.64,0,0-.14-.3-.85-.71-.7-.4-1.31-.38-1.31-.38,0,0,.2,1.16,.31,1.58,.11,.41,.11,1.66,.37,2.78,.28,1.12,.77,2.02,.77,2.02,.5-.41,1.19-.61,1.88-.49,.71,.12,1.27,.53,1.6,1.08,0,0,.79-.7,1.45-1.66,.65-.97,1.1-2.14,1.34-2.5,.25-.36,.86-1.38,.86-1.38,0,0-.56-.22-1.37-.06-.8,.14-1.06,.38-1.06,.38,.18-1.54-.34-3.14-1.24-4.31" fill="#c8b100" stroke="#000" stroke-width=".39"/><path d="M346.2,242.23c.41-.32,.72-.77,.8-1.3,.11-.53,0-1.04-.26-1.48,0,0,1.06-.53,2.2-.83,.86-.23,2.39-.24,2.83-.24,.47-.02,1.38-.04,1.38-.04,0,0-.07,.2-.34,.66-.31,.55-.59,.9-.59,.9,1.51,.35,2.81,1.34,3.64,2.51-1.19,.82-2.77,1.32-4.32,1.16,0,0,.13,.41,.23,1.03,.07,.52,.07,.73,.07,.73,0,0-.85-.31-1.27-.47-.43-.16-1.86-.66-2.59-1.15-.95-.65-1.78-1.5-1.78-1.5" fill="#c8b100" stroke="#000" stroke-width=".39"/><ellipse cx="344.71" cy="240.54" rx="2.6" ry="2.47" fill="#ad1519" stroke="#000" stroke-width=".39"/><path d="M357.89,247.09c.34-1,.04-1.98-.68-2.2-.72-.23-1.58,.4-1.93,1.39-.34,1-.04,1.98,.68,2.21,.72,.22,1.58-.41,1.93-1.4" fill="#fff" stroke="#000" stroke-width=".39"/><path d="M367.5,247.58c.13-.44,.43-.9,.86-1.27,.95-.82,2.22-.95,2.83-.3,.08,.08,.17,.2,.22,.3,0,0,1.32-2.5,2.88-3.34s4.2-.62,4.2-.62c0-1.92-1.57-3.47-3.6-3.47-1.19,0-2.3,.49-2.96,1.33l-.28-1.28s-1.63,.32-2.38,2.18,.06,4.56,.06,4.56c0,0-.4-1.15-1.01-1.93-.61-.77-2.17-1.61-2.99-1.99-.82-.37-1.64-.95-1.64-.95,0,0-.04,.22-.07,.73-.02,.61,.02,1,.02,1-1.5-.2-3.24,.05-4.6,.58,.58,1.14,1.68,2.21,3.13,2.76,0,0-.52,.43-1,.9-.4,.41-.52,.59-.52,.59,0,0,1.02,.16,1.52,.23,.52,.06,2.21,.34,3.22,.26,.76-.05,1.58-.17,2.09-.26" fill="#c8b100" stroke="#000" stroke-width=".39"/><path d="M371.2,246.01c-.61-.65-1.88-.52-2.83,.3-.95,.8-1.22,1.99-.61,2.63,.61,.65,1.88,.5,2.83-.3,.95-.82,1.22-1.99,.61-2.63" fill="#ad1519" stroke="#000" stroke-width=".39"/></g><g><path d="M317.28,269.48c-13.27-.01-25.28-1.55-34.42-3.91,9.13-2.36,21.14-3.8,34.42-3.83,13.28,.02,25.36,1.46,34.49,3.83-9.13,2.36-21.2,3.9-34.49,3.91h0Z" fill="#ad1519" stroke="#000" stroke-linejoin="round" stroke-width=".39"/><path d="M326.79,269.14v-7.21m-3.62,7.45l.05-7.64m-2.69,7.74v-7.79" fill="none" stroke="#000" stroke-width=".05"/><path d="M318.28,269.57v-7.88" fill="none" stroke="#000" stroke-width=".09"/><path d="M316.13,269.57v-7.88" fill="none" stroke="#000" stroke-width=".14"/><path d="M314.11,269.57v-7.88" fill="none" stroke="#000" stroke-width=".18"/><path d="M312.11,269.57v-7.88" fill="none" stroke="#000" stroke-width=".23"/><path d="M310.32,269.57v-7.88" fill="none" stroke="#000" stroke-width=".28"/><path d="M306.91,269.14l-.05-7.16m1.67,7.26v-7.5" fill="none" stroke="#000" stroke-width=".33"/><path d="M303.77,268.81v-6.6m1.6,6.79l-.05-7.03" fill="none" stroke="#000" stroke-width=".37"/><path d="M299.56,268.44v-5.81m1.38,5.9v-6.1m1.43,6.29v-6.34" fill="none" stroke="#000" stroke-width=".42"/><path d="M298.08,268.39v-5.62" fill="none" stroke="#000" stroke-width=".46"/><path d="M296.7,268.1v-5.23" fill="none" stroke="#000" stroke-width=".51"/><path d="M295.23,267.97v-4.87" fill="none" stroke="#000" stroke-width=".56"/><path d="M292.2,267.54l-.05-3.86m1.6,4.06v-4.34" fill="none" stroke="#000" stroke-width=".6"/><path d="M290.65,267.22v-3.41" fill="none" stroke="#000" stroke-width=".63"/><path d="M289.23,266.94v-2.83" fill="none" stroke="#000" stroke-width=".68"/><path d="M287.68,266.56v-2.22" fill="none" stroke="#000" stroke-width=".73"/><path d="M286.08,266.38v-1.66" fill="none" stroke="#000" stroke-width=".77"/><path d="M284.4,265.99v-.8" fill="none" stroke="#000" stroke-width=".91"/><path d="M281.28,265.99c9.3-2.62,21.95-4.22,36-4.25,14.06,.02,26.77,1.63,36.07,4.25" fill="none" stroke="#000" stroke-width=".39"/><path d="M277.2,260.59l1.46-1.91,4.04,.52-3.23,2.35-2.28-.96" fill="#ad1519" stroke="#000" stroke-width=".39"/><path d="M285.97,258.34c0-.7,.59-1.25,1.32-1.25s1.32,.55,1.32,1.25-.59,1.25-1.32,1.25-1.32-.56-1.32-1.25" fill="#fff" stroke="#000" stroke-width=".39"/><path d="M297.51,258.08l-2.83,.32c-.73,.08-1.4-.4-1.49-1.08-.1-.68,.42-1.31,1.15-1.38l2.84-.34,2.9-.34c.72-.08,1.38,.4,1.46,1.08s-.43,1.31-1.15,1.39l-2.89,.34" fill="#058e6e" stroke="#000" stroke-width=".39"/><path d="M305.79,256.02c0-.7,.59-1.25,1.32-1.25s1.32,.55,1.32,1.25-.6,1.25-1.32,1.25-1.32-.56-1.32-1.25" fill="#fff" stroke="#000" stroke-width=".39"/><path d="M317.32,256.99h-3.95c-.72,0-1.33-.55-1.33-1.24s.59-1.25,1.32-1.25h7.97c.73,0,1.32,.55,1.32,1.25s-.61,1.24-1.33,1.24h-4" fill="#ad1519" stroke="#000" stroke-width=".39"/><path d="M326.21,256.02c0-.7,.6-1.25,1.32-1.25s1.32,.55,1.32,1.25-.59,1.25-1.32,1.25-1.32-.56-1.32-1.25" fill="#fff" stroke="#000" stroke-width=".39"/><path d="M337.13,258.08l2.83,.32c.72,.08,1.4-.4,1.49-1.08s-.43-1.31-1.15-1.38l-2.84-.34-2.9-.34c-.73-.08-1.38,.4-1.46,1.08-.1,.68,.43,1.31,1.15,1.39l2.89,.34" fill="#058e6e" stroke="#000" stroke-width=".39"/><path d="M346.02,258.34c0-.7,.59-1.25,1.32-1.25s1.32,.55,1.32,1.25-.59,1.25-1.32,1.25-1.32-.56-1.32-1.25" fill="#fff" stroke="#000" stroke-width=".39"/><path d="M357.42,260.59l-1.45-1.91-4.04,.52,3.23,2.35,2.27-.96" fill="#ad1519" stroke="#000" stroke-width=".39"/></g></g><g id="s"><g id="t"><path d="M317.73,413.2c-15.7,0-31.26-3.84-44.34-10.25-9.64-4.78-16.03-14.4-16.03-25.43v-39.96h120.5v39.96c0,11.03-6.38,20.65-16.03,25.43-13.08,6.41-28.39,10.25-44.1,10.25h0Z" fill="#ccc" stroke="#000" stroke-width=".52"/><path d="M320.63,395.46c2.51,.76,3.78,2.63,3.78,4.81,0,2.86-2.76,5.02-6.36,5.02s-6.5-2.16-6.5-5.02c0-2.15,1.2-4.56,3.7-4.73,0,0-.07-.23-.29-.6-.26-.28-.77-.79-.77-.79,0,0,.95-.18,1.5,.02,.55,.22,.92,.56,.92,.56,0,0,.25-.52,.62-.91,.36-.4,.84-.64,.84-.64,0,0,.55,.46,.73,.77,.18,.32,.3,.71,.3,.71,0,0,.5-.42,.95-.59,.44-.18,1.01-.31,1.01-.31,0,0-.16,.55-.26,.83s-.17,.86-.17,.86" fill="#ffd691" stroke="#000" stroke-width=".52"/><path d="M317.52,408.38s-4.78-3.22-6.84-3.65c-2.65-.56-5.63-.11-6.91-.18,.04,.04,1.55,1.12,2.21,1.78s2.87,1.98,4.12,2.29c3.86,.97,7.43-.24,7.43-.24" fill="#058e6e" stroke="#000" stroke-width=".52"/><path d="M318.89,408.67s3.05-3.19,6.25-3.62c3.78-.53,6.26,.31,7.73,.7,.04,0-1.21,.59-1.87,1.04-.66,.44-2.36,1.88-4.97,1.91-2.62,.04-5.5-.28-5.96-.2-.48,.07-1.18,.18-1.18,.18" fill="#058e6e" stroke="#000" stroke-width=".52"/><path d="M317.97,404.74c-1.2-1.12-1.94-2.7-1.94-4.46s.74-3.34,1.96-4.45c1.19,1.12,1.93,2.7,1.93,4.45s-.74,3.35-1.94,4.46" fill="#ad1519" stroke="#000" stroke-width=".52"/><path d="M316.75,411.25s.73-1.82,.8-3.4c.07-1.31-.18-2.6-.18-2.6h.96s.47,1.39,.47,2.6-.22,2.84-.22,2.84c0,0-.66,.1-.88,.2-.23,.11-.96,.35-.96,.35" fill="#058e6e" stroke="#000" stroke-width=".52"/></g><g id="u"><path d="M317.52,377.48c0,15.79-13.39,28.58-30.06,28.58s-30.18-12.79-30.18-28.58v-40.02h60.24v40.02" fill="#ad1519" stroke="#000" stroke-width=".52"/><path d="M257.17,376.94c.18,8.42,3.54,14.7,6.88,18.8v-59.36h-6.79l-.08,40.56h0Z" fill="#c8b100" stroke="#000" stroke-width=".52"/><path d="M270.43,401.08c1.88,1,4.46,2.66,7.24,3.32l-.18-68.35h-7.06v65.03Z" fill="#c8b100" stroke="#000" stroke-width=".52"/><path d="M283.87,405.9c2.76,.28,4.81,.23,7.04,0v-69.85h-7.04v69.85Z" fill="#c8b100" stroke="#000" stroke-width=".52"/><path d="M297.12,404.4c2.76-.55,5.88-2.27,7.24-3.16v-65.2h-7.06l-.18,68.35h0Z" fill="#c8b100" stroke="#000" stroke-width=".52"/><path d="M310.91,395.09c2.94-2.62,5.7-8.54,6.71-15.31l.17-43.73h-7.04l.17,59.04Z" fill="#c8b100" stroke="#000" stroke-width=".52"/></g><g id="v"><path d="M377.92,337.46v40.02c0,15.79-13.54,28.58-30.2,28.58s-30.19-12.79-30.19-28.58v-40.02h60.4" fill="#ad1519" stroke="#000" stroke-width=".52"/><path id="w" d="M344.39,367.37c.06-.17,.14-.32,.23-.48l-5.11-5.69-2,.86-3.67-4.07,1.2-1.75-6.41-7.19c-.08,.02-.24,.02-.32,.05l.04,4.82,2.1,.6v5.35l-2.1,.58-.04,4.9c1.01,.31,1.78,1.06,2.09,2h3.85s.61-1.99,.61-1.99h5.66l.6,2h3.28Zm-8.38-22.2v1.93h3.31v-1.93h-3.31Zm-8.76,24.44c.77,0,1.39-.59,1.39-1.32s-.62-1.33-1.39-1.33-1.4,.6-1.4,1.33,.62,1.32,1.4,1.32Zm19.19-11.68l-2.11-.58v-5.35l2.11-.6v-2.3c-1.03-.3-1.82-1.04-2.16-2h-3.22l-.61,2h-5.65l-.61-2h-3.71c-.1,.26-.2,.5-.35,.73l6.46,7.15,2-.85,3.67,4.08-1.2,1.74,5.02,5.57c.11-.05,.22-.1,.34-.14l.02-7.44Zm-8.7-1.67l-1.55,1.25,2.12,2.38,1.55-1.26-2.12-2.36Zm9.61,43.42c-1.49-.08-2.71-1.08-3.02-2.42-2-.28-3.9-.79-5.68-1.56l1.01-1.72c1.55,.66,3.19,1.09,4.9,1.33,.37-.79,1.03-1.39,1.9-1.68v-6.74s-2.1-.59-2.1-.59v-5.35l2.11-.58v-9.17c-.08-.02-.16-.06-.24-.11l-4.78,5.3,1.2,1.73-3.67,4.08-2-.85-3.96,4.4c.68,1.04,.66,2.4-.13,3.42,1.13,1.26,2.44,2.38,3.89,3.3l-1.01,1.73c-1.7-1.07-3.24-2.39-4.55-3.86-1.04,.31-2.23,.13-3.12-.6-1.38-1.12-1.55-3.07-.36-4.37l.17-.19c-.83-1.87-1.39-3.89-1.58-6h2.05c.17,1.81,.61,3.53,1.31,5.14,.59-.07,1.2-.01,1.75,.19l3.98-4.42-1.2-1.74,3.67-4.08,2,.86,4.79-5.32c-.11-.17-.18-.35-.25-.55h-3.31s-.6,2.02-.6,2.02h-5.66l-.61-2h-3.89c-.32,.9-1.08,1.62-2.03,1.93v4.85s-2.06-.01-2.06-.01v-4.81c-1.32-.4-2.29-1.57-2.29-2.96s.98-2.58,2.3-2.98v-4.86s-2.1-.58-2.1-.58v-5.35l2.11-.6v-4.86c-1.3-.42-2.21-1.58-2.21-2.94,0-1.72,1.46-3.1,3.28-3.1,1.46,0,2.7,.89,3.13,2.14h3.71l.61-2h5.65l.61,2h3.22c.43-1.24,1.64-2.12,3.07-2.14l.09,10.04h-1.02v3.13h1.01l-.03,25.91h-.94v3.13h.94l-.05,14.44Zm-7.1-21.97l-1.55-1.25-2.14,2.38,1.55,1.25,2.14-2.38Zm-11.95-22.13h-2.03v3.13s2.03,0,2.03,0v-3.13Zm10.99,13.69v-1.92h-3.42v1.92h3.42Zm-12.72,11.63l-2.11-.47-.3-5.34,2.1-.7v3.07c0,1.19,.11,2.3,.31,3.43h0Zm1.75-6.62l2.1,.49s.11,3.44,.06,2.66c-.05-.89,.23,2.69,.23,2.69l-2.11,.7c-.22-1.08-.29-2.21-.29-3.35v-3.19Zm12.98,20.32l.47-2.04c-1.82-.58-3.52-1.42-5-2.51l-1.51,1.33c1.78,1.38,3.83,2.5,6.05,3.22h0Zm-1.02,1.73l-1.56,1.46c-1.76-.65-3.43-1.51-4.94-2.53l.46-2.12c1.8,1.36,3.85,2.44,6.05,3.19h0Z" fill="#c8b100" stroke="#c8b100" stroke-width=".26"/><path id="x" d="M350.4,367.37c-.06-.17-.14-.32-.23-.48l5.11-5.69,2,.86,3.67-4.07-1.2-1.75,6.41-7.19c.08,.02,.24,.02,.32,.05l-.04,4.82-2.1,.6v5.35l2.1,.58,.04,4.9c-1.01,.31-1.78,1.06-2.09,2h-3.85s-.61-1.99-.61-1.99h-5.66l-.6,2h-3.28Zm8.38-22.2v1.93h-3.31v-1.93h3.31Zm8.76,24.44c-.77,0-1.39-.59-1.39-1.32s.62-1.33,1.39-1.33,1.4,.6,1.4,1.33-.62,1.32-1.4,1.32Zm-19.19-11.68l2.11-.58v-5.35l-2.11-.6v-2.3c1.03-.3,1.82-1.04,2.16-2h3.22l.61,2h5.65l.61-2h3.71c.1,.26,.2,.5,.35,.73l-6.46,7.15-2-.85-3.67,4.08,1.2,1.74-5.02,5.57c-.11-.05-.22-.1-.34-.14l-.02-7.44Zm8.7-1.67l1.55,1.25-2.12,2.38-1.55-1.26,2.12-2.36Zm-9.61,43.42c1.49-.08,2.71-1.08,3.02-2.42,2-.28,3.9-.79,5.68-1.56l-1.01-1.72c-1.55,.66-3.19,1.09-4.9,1.33-.37-.79-1.03-1.39-1.9-1.68v-6.74s2.1-.59,2.1-.59v-5.35l-2.11-.58v-9.17c.08-.02,.16-.06,.24-.11l4.78,5.3-1.2,1.73,3.67,4.08,2-.85,3.96,4.4c-.68,1.04-.66,2.4,.13,3.42-1.13,1.26-2.44,2.38-3.89,3.3l1.01,1.73c1.7-1.07,3.24-2.39,4.55-3.86,1.04,.31,2.23,.13,3.12-.6,1.38-1.12,1.55-3.07,.36-4.37l-.17-.19c.83-1.87,1.39-3.89,1.58-6h-2.05c-.17,1.81-.61,3.53-1.31,5.14-.59-.07-1.2-.01-1.75,.19l-3.98-4.42,1.2-1.74-3.67-4.08-2,.86-4.79-5.32c.11-.17,.18-.35,.25-.55h3.31s.6,2.02,.6,2.02h5.66l.61-2h3.89c.32,.9,1.08,1.62,2.03,1.93v4.85s2.06-.01,2.06-.01v-4.81c1.32-.4,2.29-1.57,2.29-2.96s-.98-2.58-2.3-2.98v-4.86s2.1-.58,2.1-.58v-5.35l-2.11-.6v-4.86c1.3-.42,2.21-1.58,2.21-2.94,0-1.72-1.46-3.1-3.28-3.1-1.46,0-2.7,.89-3.13,2.14h-3.71l-.61-2h-5.65l-.61,2h-3.22c-.43-1.24-1.64-2.12-3.07-2.14l-.09,10.04h1.02v3.13h-1.01l.03,25.91h.94v3.13h-.94l.05,14.44Zm7.1-21.97l1.55-1.25,2.14,2.38-1.55,1.25-2.14-2.38Zm11.95-22.13h2.03v3.13s-2.03,0-2.03,0v-3.13Zm-10.99,13.69v-1.92h3.42v1.92h-3.42Zm12.72,11.63l2.11-.47,.3-5.34-2.1-.7v3.07c0,1.19-.11,2.3-.31,3.43h0Zm-1.75-6.62l-2.1,.49s-.11,3.44-.06,2.66c.05-.89-.23,2.69-.23,2.69l2.11,.7c.22-1.08,.29-2.21,.29-3.35v-3.19Zm-12.98,20.32l-.47-2.04c1.82-.58,3.52-1.42,5-2.51l1.51,1.33c-1.78,1.38-3.83,2.5-6.05,3.22h0Zm1.02,1.73l1.56,1.46c1.76-.65,3.43-1.51,4.94-2.53l-.46-2.12c-1.8,1.36-3.85,2.44-6.05,3.19h0Z" fill="#c8b100" stroke="#c8b100" stroke-width=".26"/><path d="M344.25,368.33c0-1.73,1.48-3.12,3.29-3.12s3.28,1.39,3.28,3.12-1.46,3.1-3.28,3.1-3.29-1.38-3.29-3.1" fill="#058e6e"/></g><g id="y"><path d="M257.28,337.5h60.22v-66.86h-60.22v66.86Z" fill="#ad1519" stroke="#000" stroke-width=".52"/><path d="M277.95,286.09h-1.1v-1.1h-1.94v4.43h1.94v3.06h-4.16v8.87h2.22v17.75h-4.44v9.16h34.1v-9.16h-4.43v-17.75h2.22v-8.87h-4.16v-3.06h1.94v-4.43h-1.94v1.1h-1.12v-1.1h-1.93v1.1h-1.39v-1.1h-1.94v4.43h1.94v3.06h-4.15v-9.71h2.21v-4.44h-2.21v1.12h-1.12v-1.12h-1.94v1.12h-1.1v-1.12h-2.22v4.44h2.22v9.71h-4.16v-3.06h1.94v-4.43h-1.94v1.1h-1.1v-1.1h-2.22v1.1h0Zm-7.49,42.16h34.1m-34.1-2.22h34.1m-34.1-2.22h34.1m-34.1-2.22h34.1m-34.1-2.5h34.1m-29.66-1.94h25.24m-25.24-2.22h25.24m-25.24-2.5h25.24m-25.24-2.21h25.24m-25.24-2.22h25.24m-25.24-2.22h25.24m-25.24-2.22h25.24m-27.46-2.22h29.68m-29.68-2.22h29.68m-29.68-2.22h29.68m-29.68-2.21h29.68m-25.51-2.22h21.35m-12.76-2.22h4.16m-4.16-2.22h4.16m-4.16-2.22h4.16m-4.16-2.22h4.16m-6.38-2.77h8.59m-14.96,9.43h4.43m-6.37-2.77h8.32m-8.32,40.76v-2.22m0-2.22v-2.22m-2.22,2.22v2.22m4.16,0v-2.22m2.21,4.44v-2.22m0-2.22v-2.22m0-2.5v-1.94m0-2.22v-2.5m-2.21,9.16v-2.5m-4.16,2.5v-2.5m8.59,0v2.5m1.94-2.5v-1.94m-6.37-2.22v2.22m4.43-2.22v2.22m4.16-2.22v2.22m-2.22-2.22v-2.5m2.22-2.21v2.21m0-6.65v2.22m-2.22-4.44v2.22m2.22-4.44v2.22m-4.16-2.22v2.22m-4.43-2.22v2.22m-1.94-4.44v2.22m4.15-2.22v2.22m4.16-2.22v2.22m2.22-4.44v2.22m-4.16-2.22v2.22m-4.43-2.22v2.22m-1.94-4.43v2.21m8.32-2.21v2.21m-4.16-6.65v2.22m19.14-2.22h-4.44m6.38-2.77h-8.33m8.33,40.76v-2.22m0-2.22v-2.22m2.22,2.22v2.22m-4.16,0v-2.22m-2.22,4.44v-2.22m0-2.22v-2.22m0-2.5v-1.94m0-2.22v-2.5m2.22,9.16v-2.5m4.16,2.5v-2.5m-8.6,0v2.5m-1.94-2.5v-1.94m6.38-2.22v2.22m-4.44-2.22v2.22m-4.15-2.22v2.22m2.21-2.22v-2.5m-2.21-2.21v2.21m0-6.65v2.22m2.21-4.44v2.22m-2.21-4.44v2.22m4.15-2.22v2.22m4.44-2.22v2.22m1.94-4.44v2.22m-4.16-2.22v2.22m-4.16-2.22v2.22m-2.21-4.44v2.22m4.15-2.22v2.22m4.44-2.22v2.22m1.94-4.43v2.21m-8.33-2.21v2.21m4.16-6.65v2.22m-8.59,22.45v-2.5m0-6.65v-2.22m0,6.66v-2.22m0-6.66v-2.22m0-2.22v-2.21m0-4.44v-2.22m0-2.22v-2.22m-10.54,5.82h4.43m4.16-6.65h4.16m4.15,6.65h4.44" fill="#c8b100" stroke="#000" stroke-width=".46"/><path d="M293.2,328.25v-5.83c0-1.1-.55-4.44-5.82-4.44-4.99,0-5.54,3.34-5.54,4.44v5.83h11.36Z" fill="#c8b100" stroke="#000" stroke-width=".46"/><path d="M283.77,322.69l-2.77-.28c0-1.1,.28-2.77,1.12-3.32l2.5,1.94c-.28,.28-.84,1.1-.84,1.66Z" fill="#c8b100" stroke="#000" stroke-width=".46"/><path d="M288.48,319.92l1.39-2.5c-.55-.28-1.67-.55-2.5-.55-.55,0-1.67,.28-2.22,.55l1.38,2.5h1.94Z" fill="#c8b100" stroke="#000" stroke-width=".46"/><path d="M291.25,322.69l2.77-.28c0-1.1-.28-2.77-1.1-3.32l-2.5,1.94c.28,.28,.83,1.1,.83,1.66Z" fill="#c8b100" stroke="#000" stroke-width=".46"/><path d="M283.21,313v-6.11c0-1.66-1.1-3.05-3.05-3.05s-3.05,1.39-3.05,3.05v6.11h6.1Z" fill="#c8b100" stroke="#000" stroke-width=".46"/><path d="M291.81,313v-6.11c0-1.66,1.12-3.05,3.06-3.05s3.05,1.39,3.05,3.05v6.11h-6.11Z" fill="#c8b100" stroke="#000" stroke-width=".46"/><path d="M281.27,298.02l.28-5.54h-5.27l.56,5.54h4.43Z" fill="#c8b100" stroke="#000" stroke-width=".46"/><path d="M289.6,298.02l.55-5.54h-5.27l.28,5.54h4.44Z" fill="#c8b100" stroke="#000" stroke-width=".46"/><path d="M293.75,298.02l-.55-5.54h5.54l-.55,5.54h-4.44Z" fill="#c8b100" stroke="#000" stroke-width=".46"/><g><path d="M291.25,328.25v-4.99c0-.84-.55-3.34-3.88-3.34-3.05,0-3.61,2.5-3.61,3.34v4.99h7.49Z" fill="#0039f0"/><path d="M282.66,312.43v-5.27c0-1.38-.83-2.77-2.5-2.77s-2.5,1.39-2.5,2.77v5.27h4.99Z" fill="#0039f0"/><path d="M292.37,312.43v-5.27c0-1.38,.83-2.77,2.5-2.77s2.5,1.39,2.5,2.77v5.27h-4.99Z" fill="#0039f0"/></g></g><g id="z"><path d="M317.47,337.5h60.38v-66.86h-60.38v66.86Z" fill="#ccc" stroke="#000" stroke-width=".52"/><path d="M348.25,287.11l.06-.74,.11-.41s-1.93,.16-2.95-.13-1.93-.71-2.88-1.5c-.95-.82-1.32-1.32-2-1.42-1.63-.26-2.88,.48-2.88,.48,0,0,1.22,.44,2.14,1.57s1.91,1.69,2.34,1.84c.71,.22,3.19,.06,3.86,.08,.68,.04,2.21,.23,2.21,.23h0Z" fill="#db4446" stroke="#000" stroke-width=".39"/><g><path d="M357.29,284.4s.01,.86,.1,1.68c.07,.8-.26,1.49-.13,1.93s.19,.79,.36,1.12c.17,.31,.25,1.13,.25,1.13,0,0-.46-.34-.89-.65-.42-.32-.72-.53-.72-.53,0,0,.08,.86,.12,1.24,.05,.37,.26,1.07,.61,1.49,.35,.4,1.04,1.07,1.26,1.6,.22,.54,.17,1.73,.17,1.73,0,0-.55-.9-1.04-1.07-.47-.17-1.51-.74-1.51-.74,0,0,.95,.95,.95,1.86s-.38,1.92-.38,1.92c0,0-.43-.82-1-1.34-.56-.54-1.36-1.08-1.36-1.08,0,0,.62,1.4,.62,2.34s-.18,2.96-.18,2.96c0,0-.47-.77-.95-1.15-.48-.37-1.04-.7-1.22-.94-.17-.25,.58,.77,.65,1.39,.08,.61,.38,2.82,2.3,5.63,1.13,1.64,2.87,4.52,6.6,3.58,3.73-.94,2.35-5.96,1.56-8.3-.78-2.34-1.18-4.93-1.13-5.84,.05-.9,.7-3.56,.61-4.07-.08-.49-.29-2.4,.17-3.94,.48-1.6,.88-2.22,1.14-2.88,.25-.66,.47-1.03,.55-1.61s.08-1.64,.08-1.64c0,0,.7,1.27,.88,1.73,.17,.46,.17,1.8,.17,1.8,0,0,.13-1.34,1.18-2s2.26-1.36,2.56-1.73,.4-.61,.4-.61c0,0-.1,2.3-.74,3.2-.43,.59-2.12,2.51-2.12,2.51,0,0,.88-.34,1.48-.36,.61-.05,1.04,0,1.04,0,0,0-.74,.58-1.69,1.97-.96,1.39-.56,1.51-1.26,2.66s-1.26,1.2-2.14,1.9c-1.3,1.04-.6,5.21-.43,5.83,.18,.61,2.44,5.71,2.48,6.95,.04,1.24,.25,4-1.92,5.76-1.39,1.14-3.68,1.15-4.21,1.48-.52,.34-1.55,1.36-1.55,3.49s.77,2.47,1.38,3.01c.61,.53,1.39,.24,1.56,.66,.18,.41,.26,.65,.53,.9,.25,.24,.43,.53,.35,.98-.1,.46-1.09,1.48-1.44,2.22-.35,.73-1.04,2.68-1.04,2.96s-.08,1.19,.22,1.64c0,0,1.09,1.27,.35,1.51-.48,.17-.94-.3-1.16-.24-.65,.17-1,.56-1.18,.54-.43-.08-.43-.3-.48-.91-.04-.61-.01-.86-.2-.86-.26,0-.4,.22-.44,.54s-.05,1.07-.35,1.07-.73-.54-1-.66-1-.24-1.04-.58c-.04-.32,.43-1.02,.91-1.15,.48-.12,.91-.36,.61-.61-.31-.24-.61-.24-.91,0-.3,.25-.95,.05-.91-.32,.05-.37,.13-.83,.08-1.03-.04-.2-.56-.61,.12-.98,.71-.37,1.01,.32,1.7,.2s1.03-.37,1.3-.78,.22-1.27-.26-1.8c-.47-.54-.95-.62-1.13-.96-.17-.32-.43-1.1-.43-1.1,0,0,.13,1.44,.05,1.64s-.05,1.07-.05,1.07c0,0-.47-.54-.86-.95-.38-.41-.78-1.64-.78-1.64,0,0-.04,1.15-.04,1.61s.52,.86,.35,1.03c-.18,.16-1-.86-1.22-1.03-.22-.17-.91-.7-1.21-1.27s-.53-1.39-.61-1.69c-.08-.29-.23-1.57-.08-1.9,.22-.48,.56-1.36,.56-1.36h-1.69c-.91,0-1.56-.28-1.91,.34s-.18,1.85,.25,3.46c.44,1.6,.7,2.38,.58,2.66-.13,.29-.7,.95-.91,1.07-.23,.13-.83,.08-1.09-.04-.25-.12-.68-.32-1.51-.32s-1.34,.04-1.64-.04c-.31-.08-1.06-.46-1.4-.37s-.95,.38-.78,.86c.26,.73-.25,.9-.61,.86-.35-.05-.64-.17-1.08-.29-.43-.13-1.08,0-1-.5,.08-.49,.26-.53,.48-.89,.22-.38,.3-.62,.05-.65-.3-.02-.61-.06-.84,.13-.24,.19-.61,.61-.91,.46-.31-.17-.55-.52-.55-1.3s-.82-1.44-.06-1.4c.74,.04,1.69,.58,1.86,.16s.07-.61-.34-.94-.91-.52-.37-.92c.54-.42,.67-.42,.89-.65,.2-.22,.49-.95,.88-.77,.74,.36,.02,.88,.78,1.7,.74,.83,1.21,1.13,2.47,1,1.25-.13,1.6-.29,1.6-.65s-.11-.98-.14-1.25c-.02-.25,.18-1.19,.18-1.19,0,0-.58,.36-.76,.71-.16,.35-.5,.96-.5,.96,0,0-.13-.72-.1-1.31,.02-.35,.14-.95,.13-1.07-.04-.32-.28-1.13-.28-1.13,0,0-.19,.88-.34,1.13-.13,.25-.19,1.28-.19,1.28,0,0-.8-.7-.58-1.86,.16-.9-.14-2.09,.13-2.47,.26-.4,.9-1.97,2.47-2.03,1.56-.06,2.77,.06,3.32,.04,.54-.04,2.47-.4,2.47-.4,0,0-3.56-1.82-4.37-2.38-.82-.54-2.08-1.96-2.48-2.59-.41-.65-.78-1.9-.78-1.9,0,0-.64,.02-1.22,.35-.58,.32-1.15,.8-1.49,1.19s-.88,1.26-.88,1.26c0,0,.1-1.13,.1-1.48s-.07-1.03-.07-1.03c0,0-.4,1.54-1.21,2.11-.82,.59-1.76,1.38-1.76,1.38,0,0,.1-.85,.1-1.06,0-.19,.2-1.19,.2-1.19,0,0-.58,.86-1.45,1.03-.89,.16-2.17,.13-2.28,.67-.1,.54,.24,1.28,.04,1.67s-.65,.65-.65,.65c0,0-.5-.42-.95-.46-.43-.04-.85,.19-.85,.19,0,0-.37-.48-.23-.8,.13-.31,.8-.79,.65-1-.18-.19-.72,.07-1.06,.23-.34,.17-1.06,.32-.98-.23,.06-.54,.24-.86,.06-1.25-.17-.38-.06-.64,.22-.73,.26-.1,1.34,.02,1.45-.23,.1-.25-.26-.58-.98-.73-.71-.17-1.06-.59-.68-.94,.38-.36,.48-.46,.65-.77,.17-.32,.24-.91,.89-.61,.64,.29,.5,1,1.19,1.21,.67,.23,2.27-.1,2.6-.29s1.43-1,1.8-1.19c.37-.18,1.93-1.34,1.93-1.34,0,0-.91-.64-1.26-.96-.34-.32-.94-1.09-1.25-1.26-.3-.16-1.8-.73-2.3-.77-.5-.02-2.06-.58-2.06-.58,0,0,.71-.23,.95-.42,.23-.19,.77-.67,1.04-.64,.26,.02,.34,.02,.34,.02,0,0-1.45-.06-1.76-.16-.3-.1-1.19-.65-1.52-.65s-1.01,.13-1.01,.13c0,0,.91-.58,1.66-.71,.74-.12,1.32-.1,1.32-.1,0,0-1.15-.32-1.43-.7-.26-.4-.54-.96-.74-1.22-.2-.25-.34-.67-.71-.71s-1.02,.46-1.39,.42-.65-.26-.68-.8c-.02-.55,0-.36-.12-.65-.14-.29-.68-.96-.18-1.12,.52-.17,1.6,.1,1.7-.1,.1-.19-.58-.78-1.02-1-.44-.23-1.15-.61-.78-.94,.37-.31,.74-.44,.95-.73s.44-1.09,.89-.84c.43,.25,1.04,1.51,1.39,1.42,.34-.1,.36-1,.3-1.38-.07-.38,0-1.06,.34-1s.61,.52,1.15,.55c.54,.02,1.36-.13,1.28,.25-.06,.38-.37,.85-.74,1.27-.36,.43-.54,1.26-.3,1.8,.24,.55,.85,1.43,1.39,1.78s1.56,.61,2.21,1.02c.64,.42,2.14,1.61,2.64,1.74s1.02,.38,1.02,.38c0,0,.58-.25,1.36-.25s2.57,.12,3.25-.17,1.56-.77,1.3-1.38c-.28-.61-1.76-1.15-1.63-1.63s.68-.52,1.6-.55c.91-.02,2.16,.17,2.4-1.13,.24-1.27,.31-2.02-.97-2.3-1.3-.29-2.24-.32-2.48-1.25-.24-.94-.47-1.16-.2-1.42,.28-.25,.74-.38,1.69-.44,.96-.07,2.04-.07,2.35-.3,.3-.22,.36-.83,.73-1.09,.37-.25,1.84-.48,1.84-.48,0,0,1.75,.85,3.36,2.05,1.45,1.08,2.76,2.68,2.76,2.68" fill="#ed72aa" stroke="#000" stroke-width=".39"/><path d="M339.94,292.07s-.96,.28-1.32,.8c-.44,.64-.41,1.28-.41,1.28,0,0,.82-.67,1.87-.4,1.04,.29,1.15,.4,1.6,.36s1.52-.42,1.52-.42c0,0-.89,1.03-.78,1.74,.1,.7,.23,1.02,.2,1.38-.07,.86-.72,1.93-.72,1.93,0,0,.37-.23,1.26-.42,.88-.19,1.63-.61,2.1-.97,.47-.35,1.08-1.22,1.08-1.22,0,0-.19,1.2,0,1.7,.2,.53,.28,2,.28,2,0,0,.56-.5,1.02-.74,.23-.13,.84-.46,1.08-.84,.17-.26,.38-1.27,.38-1.27,0,0,.13,1.08,.47,1.61,.34,.5,.84,2.09,.84,2.09,0,0,.35-1.03,.72-1.45s.82-.96,.84-1.28c.04-.32-.1-1.02-.1-1.02l.47,1.02m-13.69,.73s.58-1,1.12-1.32c.55-.31,1.3-.89,1.5-.96,.19-.06,1.08-.55,1.08-.55m1.19,6.2s1.31-.66,1.69-.9c.82-.48,1.39-1.34,1.39-1.34" fill="none" stroke="#000" stroke-width=".39"/><path d="M356.22,289.08s-.41-.58-.5-.78c-.11-.18-.28-.58-.28-.58" fill="none" stroke="#000" stroke-width=".26"/><path d="M351.13,308.89s2.45,1.51,2.38,2.77c-.07,1.25-1.36,2.89-1.36,2.89" fill="none" stroke="#000" stroke-width=".39"/></g><path d="M344.8,283.49s-.2-.58-.24-.74c-.04-.16-.14-.35-.14-.35,0,0,1.06,0,1.02,.32-.02,.32-.34,.32-.41,.44-.06,.13-.23,.32-.23,.32h0Z" stroke="#000" stroke-width=".26"/><path d="M349.61,281.82l-.07-.52s.92,0,1.36,.31c.68,.48,1.12,1.22,1.09,1.26-.12,.11-.65-.32-1.02-.44,0,0-.28,.06-.54,.06s-.41-.13-.44-.25c-.04-.14,.04-.36,.04-.36l-.41-.06Z" stroke="#000" stroke-width=".05"/><g><path d="M344.83,288.17l.4-.64,.41,.59-.8,.05" stroke="#000" stroke-width=".26"/><path d="M345.81,288.14l.48-.64,.52,.58-1,.06" stroke="#000" stroke-width=".26"/><path d="M345.37,284.2l.98,.35-.89,.46-.1-.8" stroke="#000" stroke-width=".26"/><path d="M346.56,284.52l.88,.22-.71,.55-.17-.77" stroke="#000" stroke-width=".26"/></g><g><path d="M331.39,283.3s.58,.41,1.02,.48c.44,.06,.91,.06,.98,.06,.06,0,.2-.65,.13-1.09-.24-1.44-1.56-1.76-1.56-1.76,0,0,.4,.88,.2,1.28-.28,.58-.78,1.03-.78,1.03h0Z" fill="#db4446" stroke="#000" stroke-width=".39"/><path d="M328.65,284.54s-.52-.92-1.6-.8c-1.08,.13-1.8,.97-1.8,.97,0,0,1.2-.04,1.5,.16,.44,.29,.58,1.03,.58,1.03,0,0,.65-.38,.85-.65,.19-.25,.47-.71,.47-.71h0Z" fill="#db4446" stroke="#000" stroke-width=".39"/><path d="M327.33,288.3s-.92,.13-1.43,.71c-.52,.59-.43,1.68-.43,1.68,0,0,.6-.65,1.14-.65s1.39,.19,1.39,.19c0,0-.26-.67-.26-.96s-.41-.97-.41-.97h0Z" fill="#db4446" stroke="#000" stroke-width=".39"/><path d="M330.41,300.44s-.5-.54-1.39-.38c-.89,.17-1.46,1.16-1.46,1.16,0,0,.76-.2,1.2-.1,.43,.1,.74,.54,.74,.54,0,0,.41-.35,.54-.54s.37-.68,.37-.68h0Z" fill="#db4446" stroke="#000" stroke-width=".39"/><path d="M329.39,304.01s-.74-.12-1.39,.4c-.64,.52-.67,1.5-.67,1.5,0,0,.61-.52,1.09-.44,.47,.06,1.04,.32,1.04,.32,0,0,.1-.61,.13-.77,.11-.46-.2-1.01-.2-1.01h0Z" fill="#db4446" stroke="#000" stroke-width=".39"/><path d="M331.13,307.3s-.06,.95,.4,1.54c.48,.61,1.36,.71,1.36,.71,0,0-.29-.64-.34-.96-.07-.48,.41-.9,.41-.9,0,0-.44-.46-.88-.46s-.95,.07-.95,.07h0Z" fill="#db4446" stroke="#000" stroke-width=".39"/><path d="M339.94,315.74s-.61-.77-1.45-.74c-.85,.04-1.74,.83-1.74,.83,0,0,1.06-.08,1.33,.26,.28,.36,.54,.8,.54,.8,0,0,.48-.25,.68-.42,.2-.16,.64-.73,.64-.73h0Z" fill="#db4446" stroke="#000" stroke-width=".39"/><path d="M337.33,319.12s-1.12-.17-1.67,.42c-.54,.58-.5,1.63-.5,1.63,0,0,.67-.73,1.28-.67s1.3,.38,1.3,.38c0,0-.11-.64-.18-.94-.06-.29-.23-.83-.23-.83h0Z" fill="#db4446" stroke="#000" stroke-width=".39"/><path d="M339.75,322.68s-.55,.77-.14,1.38,1.26,.9,1.26,.9c0,0-.31-.44-.17-.96,.11-.41,.8-.96,.8-.96l-1.75-.36h0Z" fill="#db4446" stroke="#000" stroke-width=".39"/><path d="M354.63,324.13s-.97-.23-1.52,.1c-.54,.31-.98,1.67-.98,1.67,0,0,.89-.74,1.54-.65,.64,.1,1.12,.36,1.12,.36,0,0,.1-.55,.02-.94-.04-.23-.17-.54-.17-.54h0Z" fill="#db4446" stroke="#000" stroke-width=".39"/><path d="M355.11,327.72s-.74,.77-.48,1.42c.28,.65,.74,1.32,.74,1.32,0,0-.02-.96,.28-1.22,.44-.38,1.26-.44,1.26-.44,0,0-.65-.58-.85-.65-.2-.06-.95-.42-.95-.42Z" fill="#db4446" stroke="#000" stroke-width=".39"/><path d="M358.84,328.85s-.37,.94,.34,1.54c.71,.62,1.33,.68,1.33,.68,0,0-.55-.97-.38-1.48,.18-.54,.65-.86,.65-.86,0,0-.89-.3-1.02-.26-.13,.02-.91,.38-.91,.38h0Z" fill="#db4446" stroke="#000" stroke-width=".39"/></g><g><path d="M356.59,279.25l-.35,.02s-.17,.29-.31,.42c-.31,.3-.78,.34-1.03,.08-.13-.13-.19-.31-.17-.49-.2,.11-.42,.11-.61-.01-.31-.18-.38-.6-.17-.95,.04-.07,.07-.17,.13-.22l-.02-.38-.42,.1-.12,.23c-.26,.3-.65,.37-.84,.2-.1-.08-.17-.31-.16-.32,0,.01-.11,.11-.2,.13-.65,.16-.9-1.26-.92-1.62l-.2,.3s.19,.84,.1,1.56c-.1,.71-.35,1.43-.35,1.43,.89,.23,2.23,.96,3.56,1.98s2.38,2.14,2.81,2.9c0,0,.7-.38,1.42-.61s1.63-.24,1.63-.24l.26-.25c-.38,.06-1.9,.12-1.87-.52,0-.1,.08-.22,.1-.22-.01,.01-.25-.01-.36-.07-.22-.16-.22-.52,.02-.83l.22-.16v-.41s-.4,.06-.4,.06c-.04,.05-.13,.11-.18,.16-.32,.28-.78,.3-1.03,.04-.16-.14-.2-.35-.13-.55-.19,.05-.38,.04-.54-.06-.31-.18-.37-.62-.13-.96,.11-.17,.34-.37,.37-.38l-.08-.36h-.01Z" fill="#c8b100" stroke="#000" stroke-width=".26"/><g><path d="M353.89,280.08c.06-.08,.18-.07,.28,0s.12,.19,.07,.25c-.06,.07-.18,.07-.29-.01-.08-.06-.12-.18-.06-.24h0Z" stroke="#000" stroke-width=".05"/><path d="M355.03,281.03l-.4-.3c-.07-.05-.08-.14-.05-.19,.05-.05,.14-.05,.22,0l.4,.31,.4,.3c.06,.05,.1,.14,.05,.19s-.14,.05-.22,0l-.4-.31" stroke="#000" stroke-width=".05"/><path d="M352.95,279.6l-.31-.18c-.08-.05-.12-.14-.08-.2s.13-.07,.2-.02l.31,.19,.31,.18c.07,.04,.11,.13,.08,.19-.04,.06-.13,.07-.2,.02l-.31-.18" stroke="#000" stroke-width=".05"/><path d="M351.7,278.75c.06-.07,.19-.07,.29,0,.1,.08,.12,.19,.06,.26-.06,.06-.18,.06-.28-.01s-.12-.18-.07-.25h0Z" stroke="#000" stroke-width=".05"/><path d="M356.29,281.9c.06-.06,.04-.17-.06-.25-.1-.07-.23-.07-.29,0-.05,.06-.02,.18,.07,.25s.22,.07,.28,0h0Z" stroke="#000" stroke-width=".05"/><path d="M356.98,282.7l.26,.25c.06,.06,.16,.08,.22,.04,.05-.05,.05-.13-.01-.19l-.25-.25-.26-.25c-.06-.06-.17-.08-.22-.04-.06,.04-.05,.13,.01,.19l.25,.25" stroke="#000" stroke-width=".05"/><path d="M358.12,283.67c.06-.07,.04-.18-.06-.25-.1-.08-.22-.08-.28-.01s-.04,.18,.06,.26c.1,.06,.22,.07,.28,0Z" stroke="#000" stroke-width=".05"/></g><path d="M354.82,276.43h-.71s-.13,1.06-.13,1.06l.07,.17h.18s.91-.62,.91-.62l-.32-.6" fill="#c8b100" stroke="#000" stroke-width=".26"/><path d="M354.82,276.43h-.71s-.13,1.06-.13,1.06l.07,.17h.18s.91-.62,.91-.62l-.32-.6" fill="#c8b100" stroke="#000" stroke-width=".26"/><path d="M352.9,277.01l-.02,.65,1.1,.14,.18-.08-.02-.18-.64-.85-.6,.32" fill="#c8b100" stroke="#000" stroke-width=".26"/><path d="M355.18,278.3l-.59,.32-.65-.85v-.18s.16-.07,.16-.07l1.12,.13-.04,.65" fill="#c8b100" stroke="#000" stroke-width=".26"/><path d="M353.75,277.5c.1-.16,.31-.2,.47-.11,.17,.08,.22,.29,.12,.44s-.31,.2-.47,.11c-.17-.1-.22-.29-.12-.44Z" fill="#c8b100" stroke="#000" stroke-width=".26"/><path d="M351.17,276.42s-.16-.55-.31-.85c-.1-.23-.47-.52-.47-.52,.04-.06,.5-.23,1.04,.11,.46,.37-.04,1.04-.04,1.04,0,0-.11,.17-.23,.22h0Z" fill="#c8b100" stroke="#000" stroke-width=".26"/><path d="M352.41,276.79l-.5,.44-.82-.72,.07-.1,.04-.18,1.1-.08,.11,.64" fill="#c8b100" stroke="#000" stroke-width=".26"/><path d="M351.03,276.35c.06-.18,.22-.28,.34-.24,.13,.05,.18,.22,.12,.4s-.22,.28-.35,.24c-.13-.05-.18-.22-.11-.4Z" fill="#c8b100" stroke="#000" stroke-width=".26"/><path d="M357.54,278.12l-.71-.07-.3,1.02,.06,.17h.18s1-.48,1-.48l-.23-.64" fill="#c8b100" stroke="#000" stroke-width=".26"/><path d="M355.55,278.44l-.12,.65,1.08,.28,.18-.05v-.17s-.5-.95-.5-.95l-.64,.24" fill="#c8b100" stroke="#000" stroke-width=".26"/><path d="M357.61,280.03l-.64,.24-.5-.94v-.18s.19-.04,.19-.04l1.07,.28-.12,.64" fill="#c8b100" stroke="#000" stroke-width=".26"/><path d="M356.32,279.05c.12-.14,.34-.16,.48-.05,.16,.11,.18,.31,.06,.46s-.34,.16-.49,.05c-.14-.11-.17-.31-.05-.46h0Z" fill="#c8b100" stroke="#000" stroke-width=".26"/><path d="M359.91,280.33l.13,.66-1.04,.36-.19-.05v-.17s.42-.97,.42-.97l.68,.17" fill="#c8b100" stroke="#000" stroke-width=".26"/><path d="M359.73,282.24l-.67,.16-.37-1,.05-.18,.18-.02,1.02,.42-.2,.62" fill="#c8b100" stroke="#000" stroke-width=".26"/><path d="M357.9,280.39l-.22,.62,1.02,.41,.19-.02,.04-.17-.36-1-.67,.16" fill="#c8b100" stroke="#000" stroke-width=".26"/><path d="M359.03,281.56c.14-.13,.14-.34,.02-.47-.13-.13-.35-.13-.49-.02-.13,.13-.14,.34-.01,.47,.12,.13,.35,.14,.48,.02h0Z" fill="#c8b100" stroke="#000" stroke-width=".26"/><path d="M360.69,283.72s.6,.04,.95,.11c.24,.05,.62,.32,.62,.32,.07-.05,.14-.5-.34-.95-.47-.34-1.06,.26-1.06,.26,0,0-.14,.14-.18,.25h0Z" fill="#c8b100" stroke="#000" stroke-width=".26"/><path d="M360.04,282.65l-.35,.55,.91,.61,.11-.1,.16-.05-.14-1.06-.68,.04" fill="#c8b100" stroke="#000" stroke-width=".26"/><path d="M360.78,283.84c.17-.08,.25-.26,.18-.37s-.26-.12-.43-.02-.24,.26-.17,.37c.06,.11,.25,.12,.42,.02Z" fill="#c8b100" stroke="#000" stroke-width=".26"/></g></g><g id="aa"><ellipse cx="317.65" cy="337.21" rx="19.51" ry="21.96" fill="#ad1519" stroke="#000" stroke-width=".61"/><ellipse cx="317.67" cy="337.16" rx="13.73" ry="16.1" fill="#005bbf" stroke="#000" stroke-width=".61"/><g id="ab"><path d="M311.17,326.09s-1.62,1.78-1.62,3.43,.68,3.05,.68,3.05c-.25-.66-.91-1.13-1.69-1.13-1,0-1.8,.76-1.8,1.7,0,.26,.17,.7,.29,.92l.59,1.19c.19-.44,.65-.68,1.18-.68,.71,0,1.3,.54,1.3,1.21,0,.11-.01,.2-.05,.3h-1.46v1.25h1.31l-.97,1.93,1.28-.5,.97,1.09,1.01-1.09,1.28,.5-.96-1.93h1.3v-1.24h-1.46c-.02-.11-.02-.2-.02-.31,0-.67,.56-1.21,1.27-1.21,.53,0,.98,.24,1.18,.68l.59-1.19c.12-.23,.29-.66,.29-.92,0-.95-.8-1.7-1.79-1.7-.79,0-1.45,.47-1.69,1.13,0,0,.68-1.38,.68-3.05s-1.67-3.43-1.67-3.43h0Z" fill="#c8b100" stroke="#000" stroke-linejoin="round" stroke-width=".34"/><path d="M308.58,337.33h5.23v-1.24h-5.23v1.24Z" fill="#c8b100" stroke="#000" stroke-width=".34"/></g><g id="ac"><path d="M323.93,326.09s-1.62,1.78-1.62,3.43,.68,3.05,.68,3.05c-.25-.66-.91-1.13-1.69-1.13-1,0-1.8,.76-1.8,1.7,0,.26,.17,.7,.29,.92l.59,1.19c.19-.44,.65-.68,1.18-.68,.71,0,1.3,.54,1.3,1.21,0,.11-.01,.2-.05,.3h-1.46v1.25h1.31l-.97,1.93,1.28-.5,.97,1.09,1.01-1.09,1.28,.5-.96-1.93h1.3v-1.24h-1.46c-.02-.11-.02-.2-.02-.31,0-.67,.56-1.21,1.27-1.21,.53,0,.98,.24,1.18,.68l.59-1.19c.12-.23,.29-.66,.29-.92,0-.95-.8-1.7-1.79-1.7-.79,0-1.45,.47-1.69,1.13,0,0,.68-1.38,.68-3.05s-1.67-3.43-1.67-3.43h0Z" fill="#c8b100" stroke="#000" stroke-linejoin="round" stroke-width=".34"/><path d="M321.34,337.33h5.23v-1.24h-5.23v1.24Z" fill="#c8b100" stroke="#000" stroke-width=".34"/></g><g id="ad"><path d="M317.55,337.06s-1.62,1.78-1.62,3.43,.68,3.05,.68,3.05c-.25-.66-.91-1.13-1.69-1.13-1,0-1.8,.76-1.8,1.7,0,.26,.17,.7,.29,.92l.59,1.19c.19-.44,.65-.68,1.18-.68,.71,0,1.3,.54,1.3,1.21,0,.11-.01,.2-.05,.3h-1.46v1.25h1.31l-.97,1.93,1.28-.5,.97,1.09,1.01-1.09,1.28,.5-.96-1.93h1.3v-1.24h-1.46c-.02-.11-.02-.2-.02-.31,0-.67,.56-1.21,1.27-1.21,.53,0,.98,.24,1.18,.68l.59-1.19c.12-.23,.29-.66,.29-.92,0-.95-.8-1.7-1.79-1.7-.79,0-1.45,.47-1.69,1.13,0,0,.68-1.38,.68-3.05s-1.67-3.43-1.67-3.43h0Z" fill="#c8b100" stroke="#000" stroke-linejoin="round" stroke-width=".34"/><path d="M314.95,348.3h5.23v-1.24h-5.23v1.24Z" fill="#c8b100" stroke="#000" stroke-width=".34"/></g></g></g></g></g><path d="M17.14,300c0-80.14,31.2-155.47,87.87-212.13C161.68,31.21,237,0,317.14,0s155.47,31.21,212.13,87.87,87.87,132,87.87,212.13-31.2,155.47-87.87,212.13c-56.67,56.66-132,87.87-212.13,87.87s-155.47-31.2-212.13-87.87c-56.66-56.67-87.87-132-87.87-212.13Z" fill="url(#ae)"/><path d="M317.14,2c40.23,0,79.26,7.88,115.99,23.42,35.49,15.01,67.35,36.5,94.72,63.86,27.37,27.37,48.86,59.24,63.86,94.72,15.54,36.74,23.42,75.76,23.42,115.99s-7.88,79.26-23.42,115.99c-15.01,35.49-36.5,67.35-63.86,94.72-27.37,27.37-59.24,48.86-94.72,63.86-36.74,15.54-75.76,23.42-115.99,23.42s-79.26-7.88-115.99-23.42c-35.49-15.01-67.35-36.5-94.72-63.86-27.37-27.37-48.86-59.24-63.86-94.72-15.54-36.74-23.42-75.76-23.42-115.99s7.88-79.26,23.42-115.99c15.01-35.49,36.5-67.35,63.86-94.72,27.37-27.37,59.24-48.86,94.72-63.86C237.89,9.88,276.91,2,317.14,2m0-2C151.46,0,17.14,134.31,17.14,300s134.31,300,300,300,300-134.31,300-300S482.83,0,317.14,0h0Z"/></g><g><path d="M119.56,90.36s-33.35,45.61-30.9,95.15c0,0,53.46,5.89,90.73,3.92l89.26-90.24s-17.66-38.25-45.61-60.81c0,0-58.6,19.05-103.48,51.99h0Z" stroke="#000" stroke-miterlimit="10"/><path d="M220.85,321.7s-37.39,38.62-56.55,101.04c0,0,28.12,53.46,88.37,93.62,0,0,60.25-11.43,115.56-50.37,0,0-.31-82.5-20.08-123.6l-127.31-20.7h0Z" stroke="#000" stroke-miterlimit="10"/><path d="M16.73,287.16h15.97s7.48,62.43,37.7,113.57c0,0-2.26,29.74,5.63,56.06l-8.7,20.85L.53,368.82l16.21-81.66h-.01Z" stroke="#000" stroke-miterlimit="10"/><path d="M475.26,87.69s54.79,38.07,87.73,93.93c0,0,.14,30.35-20.54,86.43,0,0-33.24-2.12-101.85-24.4,0,0-24.4-56.23-41.38-112.11,0,0,30.77-32.18,76.03-43.85h.01Z" stroke="#000" stroke-miterlimit="10"/><path d="M563.22,391.58s-43.28,55.56-84.8,92.99c0,0,1.17,29.83-14.62,59.66l43.28,1.17,100.01-126.91s-11.11-14.62-43.86-26.9h-.01Z" stroke="#000" stroke-miterlimit="10"/><path d="M32.71,287.16s13.59-62.14,55.96-101.65" fill="none" stroke="#000" stroke-miterlimit="10" stroke-width="2"/><path d="M179.4,189.43s-2.08,78.21,41.46,132.27" fill="none" stroke="#000" stroke-miterlimit="10" stroke-width="2"/><path d="M70.41,400.73s4.44,26.1,93.9,22.01" fill="none" stroke="#000" stroke-miterlimit="10" stroke-width="2"/><line x1="119.56" y1="90.36" x2="92.91" y2="90.76" fill="none" stroke="#000" stroke-miterlimit="10" stroke-width="2"/><path d="M373.36,2.38c-111.02,5.39-150.31,35.99-150.31,35.99" fill="none" stroke="#000" stroke-miterlimit="10" stroke-width="2"/><path d="M268.66,99.19s75.85,3.24,130.57,32.36" fill="none" stroke="#000" stroke-miterlimit="10" stroke-width="2"/><path d="M348.16,342.4s58.46-46.21,92.45-98.75" fill="none" stroke="#000" stroke-miterlimit="10" stroke-width="2"/><path d="M251.99,572.42s22,23.76,100.91,25.52l-19.1,26.33-180.31-65.68v-11.34s69.24,31.13,98.5,25.16h0Z" stroke="#000" stroke-miterlimit="10"/><path d="M76.04,456.79s35.76,73.36,77.45,90.47" fill="none" stroke="#000" stroke-miterlimit="10" stroke-width="2"/><path d="M368.24,466s48.13,23.68,110.18,18.57" fill="none" stroke="#000" stroke-miterlimit="10" stroke-width="2"/><path d="M372.17,596.25s63.6-14.98,91.63-52.02" fill="none" stroke="#000" stroke-miterlimit="10" stroke-width="2"/><path d="M542.46,268.05s19.96,56.76,20.77,123.53" fill="none" stroke="#000" stroke-miterlimit="10" stroke-width="2"/><path d="M475.26,87.69s-10.28-32.39-43.38-69.91" fill="none" stroke="#000" stroke-miterlimit="10" stroke-width="2"/><path d="M562.99,181.63s32.07,5.19,54.15,57.88" fill="none" stroke="#000" stroke-miterlimit="10" stroke-width="2"/><path d="M251.99,572.42s-4.3-29.03,.69-56.05" fill="none" stroke="#000" stroke-miterlimit="10" stroke-width="2"/></g></g></g></svg>