<?xml version="1.0" encoding="UTF-8" standalone="no"?>
<svg
   xmlns:dc="http://purl.org/dc/elements/1.1/"
   xmlns:cc="http://creativecommons.org/ns#"
   xmlns:rdf="http://www.w3.org/1999/02/22-rdf-syntax-ns#"
   xmlns:svg="http://www.w3.org/2000/svg"
   xmlns="http://www.w3.org/2000/svg"
   xmlns:sodipodi="http://sodipodi.sourceforge.net/DTD/sodipodi-0.dtd"
   xmlns:inkscape="http://www.inkscape.org/namespaces/inkscape"
   width="500"
   height="500"
   id="svg2"
   version="1.1"
   inkscape:version="0.48.4 r9939"
   sodipodi:docname="Flag_of_Turkey.svg">
  <metadata
     id="metadata16">
    <rdf:RDF>
      <cc:Work
         rdf:about="">
        <dc:format>image/svg+xml</dc:format>
        <dc:type
           rdf:resource="http://purl.org/dc/dcmitype/StillImage" />
      </cc:Work>
    </rdf:RDF>
  </metadata>
  <defs
     id="defs14" />
  <sodipodi:namedview
     pagecolor="#ffffff"
     bordercolor="#666666"
     borderopacity="1"
     objecttolerance="10"
     gridtolerance="10"
     guidetolerance="10"
     inkscape:pageopacity="0"
     inkscape:pageshadow="2"
     inkscape:window-width="1280"
     inkscape:window-height="738"
     id="namedview12"
     showgrid="false"
     inkscape:zoom="1.042"
     inkscape:cx="250"
     inkscape:cy="250"
     inkscape:window-x="-8"
     inkscape:window-y="-8"
     inkscape:window-maximized="1"
     inkscape:current-layer="svg2" />
  <g
     id="g3772"
     transform="matrix(0.6662446,0,0,0.6662446,-149.74676,-16.497837)">
    <path
       transform="matrix(1.1438758,0,0,1.1438758,31.794532,-136.58974)"
       d="m 821.4971,469.0979 c 0,179.36003 -145.40004,324.76007 -324.76007,324.76007 -179.36003,0 -324.76007,-145.40004 -324.76007,-324.76007 0,-179.36003 145.40004,-324.76007 324.76007,-324.76007 179.36003,0 324.76007,145.40004 324.76007,324.76007 z"
       sodipodi:ry="324.76007"
       sodipodi:rx="324.76007"
       sodipodi:cy="469.0979"
       sodipodi:cx="496.73703"
       id="path2993"
       style="fill:#e30a17;fill-opacity:1;stroke:none"
       sodipodi:type="arc" />
    <g
       transform="translate(105.3825,0)"
       id="g3768">
      <path
         inkscape:connector-curvature="0"
         style="fill:#ffffff"
         d="m 425,200 c -110.45695,0 -200,89.54305 -200,200 0,110.45695 89.54305,200 200,200 71.16891,0 133.64618,-37.1674 169.09375,-93.15625 C 564.80158,539.47697 522.30342,560 475,560 386.63444,560 315,488.36556 315,400 c 0,-88.36556 71.63444,-160 160,-160 47.30342,0 89.80158,20.52303 119.09375,53.15625 C 558.64618,237.1674 496.16891,200 425,200 z"
         id="circle6" />
      <polygon
         style="fill:#ffffff"
         points="764.235,341.221 583.334,400 764.235,458.779 652.431,304.894 652.431,495.106 "
         id="polygon10" />
    </g>
  </g>
</svg>
