<svg width="600" height="600" viewBox="0 0 600 600" fill="none" xmlns="http://www.w3.org/2000/svg">
<path fill-rule="evenodd" clip-rule="evenodd" d="M300 583C456.297 583 583 456.297 583 300C583 143.703 456.297 17 300 17C143.703 17 17 143.703 17 300C17 456.297 143.703 583 300 583ZM300 600C465.685 600 600 465.685 600 300C600 134.315 465.685 0 300 0C134.315 0 0 134.315 0 300C0 465.685 134.315 600 300 600Z" fill="#030712"/>
<path fill-rule="evenodd" clip-rule="evenodd" d="M534.783 300.422C534.783 430.089 429.667 535.205 300 535.205C170.333 535.205 65.2174 430.089 65.2174 300.422C65.2174 170.755 170.333 65.6397 300 65.6397C429.667 65.6397 534.783 170.755 534.783 300.422ZM204.043 455.817C265.813 482.659 348.757 463.908 397.826 378.683C395.71 399.843 388.446 438.508 357.991 473.631C430.415 449.393 482.609 381.003 482.609 300.422C482.609 234.771 447.963 177.21 395.957 145.028C334.187 118.186 251.243 136.937 202.174 222.161C204.29 201.002 211.555 162.337 242.009 127.214C169.585 151.452 117.391 219.842 117.391 300.422C117.391 366.074 152.037 423.634 204.043 455.817Z" fill="#030712"/>
</svg>
