<svg xmlns="http://www.w3.org/2000/svg" viewBox="0 0 253.17 253.17"><defs><style>.cls-1{fill:#007ab8;}.cls-2{fill:#7a502d;}.cls-3{fill:#ea9523;}.cls-4{fill:#ab7228;}.cls-5{fill:#654b41;}.cls-6{fill:#94612b;}.cls-7{fill:#fee447;}.cls-8{fill:#967a5d;}.cls-9{fill:#f6bb27;}.cls-10{fill:#c28223;}.cls-11{fill:#cdae96;}.cls-12{fill:#fefecb;}.cls-13{fill:#fefedd;}.cls-14{fill:#dec092;}.cls-15{fill:#fefefe;}.cls-16{fill:#fcdfb4;}.cls-17{fill:#eccda9;}</style></defs><g id="katman_2" data-name="katman 2"><g id="Layer_1" data-name="Layer 1"><circle class="cls-1" cx="126.58" cy="126.58" r="126.58"/><path class="cls-2" d="M214.72,177c1.29,4,3,7.88,3.36,12.12,0,.4.28.94-.3,1.23a6.91,6.91,0,0,0-.91.15L181.15,202l-23.37,7.49-34.84,11.2L106.62,226c-1.74.55-3.28,0-3.56-1.35-.36-1.71-.65-3.42-1-5.14-1.11-6.31-2.23-12.61-3.29-18.92-.59-3.49-1.39-6.94-1.69-10.47,4.36-.15,8.74.29,13.1-.28a32.19,32.19,0,0,1,4.17,0c.47,0,1,0,1,.63-2.1.93-4.19,1.89-6.3,2.8-2.41,1.05-2.13,1-1.5,3.7a7.27,7.27,0,0,0,0,1.24c.84,4.55,1.85,9.08,2.55,13.66.15,1,.73,1.62,2,1.16,1.67-.61,3.38-1.13,5.09-1.64,6.59-2,13.11-4.17,19.69-6.17,11.56-3.51,23.06-7.24,34.59-10.88l11.37-3.58,17.47-5.58a17.37,17.37,0,0,0,4.7-1.3,1.52,1.52,0,0,0,1-2.2,15.2,15.2,0,0,1-1.27-4.23c2.3,0,4.61,0,6.91,0C212.72,177.34,213.76,177.59,214.72,177Z"/><path class="cls-3" d="M51.52,70.31q8.38-4.43,16.95-8.45c5.45-2.57,10.8-5.37,16.2-8.06,1-.48,1.9-.93,2.86-1.39,1.58.39,3.15.84,4.74,1.18,2.66.57,5.33,1.07,8,1.6-.14.77-.86.85-1.38,1.09-5.58,2.66-11.17,5.28-16.76,7.92s-11.25,5.34-16.87,8c-.89.43-1.69,1-1.63,2.2-.84.9-.36,1.81,0,2.72a9,9,0,0,0,.71,3.11,38.14,38.14,0,0,0,1.17,6.26c1,4.77,1.88,9.55,2.9,14.3.16.72.46,1.79,1.79,1.16,2.72-1.28,5.48-2.44,8.2-3.69q12.76-5.88,25.51-11.79c2-.93,4.74.09,5.3,2.18,1.64,6.17,3.17,12.36,4.74,18.55-2.49-.1-5-.26-7.47-.27a1.68,1.68,0,0,1-1.88-1.56c-.39-1.7-.84-3.39-1.32-5.07-.3-1.06-.69-2.09-2.1-2.08l-.28,0c-.48-.43-1-.25-1.43,0-3.2,1.67-6.39,3.35-9.6,5-2,1-4,2.66-6.09,2.89a36.4,36.4,0,0,1-6.91-.12c-4.39-.38-8.77-.88-13.16-1.18-3.11-.22-3.28-.28-4.07-3.34Q55.59,85.88,51.52,70.31Z"/><path class="cls-4" d="M150.12,125.87c1,4.52,2.12,9,3.14,13.56s1.93,8.87,2.89,13.3c.49,2.22,1,4.42,1.45,6.65.21,1.15.74,1.44,1.8,1.13l19.06-5.66c7.7-2.29,15.39-4.63,23.11-6.86a9.73,9.73,0,0,1,3-.44A1.67,1.67,0,0,1,206.4,149c1.48,5.08,3,10.12,4.56,15.18a1.79,1.79,0,0,1,0,.46c-3.51.28-7-.45-10.54,0q-.86-2.31-1.72-4.62a1.42,1.42,0,0,0-2.15-.93c-3.44,1.36-6.91,2.63-10.35,4a4,4,0,0,1-1.64.34c-.38-.19-.79-.44-1.18-.29-1.85.72-3.75,0-5.63.24-5.88.59-11.81.13-17.71.88a69,69,0,0,1-12,.42,18.3,18.3,0,0,1-.95-3.86c-.87-3.77-1.35-7.63-2.45-11.35-.45-2.66-.94-5.31-1.56-8-1.17-5.06-2.42-10.13-3.11-15.3a21.12,21.12,0,0,1,2.89-.33C145.28,125.91,147.7,125.87,150.12,125.87Z"/><path class="cls-5" d="M97.13,190.07c.3,3.53,1.1,7,1.69,10.47,1.06,6.31,2.18,12.61,3.29,18.92.3,1.72.59,3.43,1,5.14.28,1.34,1.82,1.9,3.56,1.35l16.32-5.23,34.84-11.2L181.15,202l35.72-11.49a6.91,6.91,0,0,1,.91-.15c-4.36,3.49-9.44,5.43-14.69,7.1Q158.51,211.7,114,226c-5.06,1.62-10.11,3.25-15.18,4.82-3.75,1.17-4,.48-4.65-2.87-1.7-8.67-3-17.41-4.53-26.12-.53-3.11-1.09-6.21-1.59-9.32-.38-2.33-.11-2.78,2-3.75l6.77-3A5.83,5.83,0,0,0,97.13,190.07Z"/><path class="cls-3" d="M175.86,59.2c-3.54,2-7.05,4.11-10.62,6.1q-12.17,6.81-24.39,13.52A1.51,1.51,0,0,0,140,80.7q2.89,12.61,5.79,25.22c.36,1.57.62,3.16.93,4.74-.51,0-1,.42-1.5.26-2-.54-4.09-.19-6.13-.5-1.06-.16-1.42-.57-1.59-1.45-.34-1.81-.61-3.64-1-5.44-2.15-9.29-3.92-18.67-5.84-28-.11-.5-.21-1-.87-1.12a1.53,1.53,0,0,1,0-.3c2.39-2.33,5.49-3.53,8.3-5.17L157,58.3a2.08,2.08,0,0,0,1.56-1l1.8-.68a20.34,20.34,0,0,0,5.82.93A44.33,44.33,0,0,1,175.86,59.2Z"/><path class="cls-6" d="M97.13,190.07a5.83,5.83,0,0,1-.32-4.36c4.51-1.83,9.19-3.12,13.8-4.64a6.92,6.92,0,0,0,2.22-.9,67.67,67.67,0,0,0,7.64-2.4c.8-.26.84-.78.63-1.59-1.93-7.45-3.79-14.92-5.67-22.39a2.6,2.6,0,0,1,.88-.2c3.3.46,6.61.06,9.92.21,1.73,4.94,2.59,10.12,4.06,15.15.94,3.21,1.71,6.48,2.87,9.63.07,2.27.22,4.58-2.45,5.66l-.37.27h0c-2.63.67-5,2-7.53,3s-4.77,2.32-7.37,2.93c-.08-.66-.57-.63-1-.63a32.19,32.19,0,0,0-4.17,0C105.87,190.36,101.49,189.92,97.13,190.07Z"/><path class="cls-7" d="M121.26,36c.16-.53.68-.56,1.08-.75,5.51-2.68,10.95-5.51,16.49-8.13,6.51-3.08,12.9-6.41,19.34-9.63,1.8-.9,2.13-.82,2.83,1,3,7.76,6,15.53,9.06,23.29l-9.29-.94c-1.09-2.82-2.12-5.67-3.28-8.47-.75-1.81-1.88-2.42-3.51-2a19.1,19.1,0,0,0-3.43,1.35c-4.49,2.29-9,4.42-13.7,6.34a1,1,0,0,0-1-.63c-1.59.1-3.13-.41-4.73-.35a32.39,32.39,0,0,1-6.07,0C123.77,37,122.32,37.12,121.26,36Z"/><path class="cls-8" d="M67.12,116.4a115.32,115.32,0,0,1-10.49,5.54c-1.56.76-2.56.06-3-1.61q-5.51-21.48-11-43c-.37-1.46-.31-2.47,1.37-3.16,2.34-.94,4.55-2.2,6.81-3.33a17.3,17.3,0,0,0,.6,3.64l10.86,41.55c.39,1.49,1,1.74,2.43,1.19C65.51,117,66.15,116.21,67.12,116.4Z"/><path class="cls-5" d="M115.43,153.79c1.88,7.47,3.74,14.94,5.67,22.39.21.81.17,1.33-.63,1.59a67.67,67.67,0,0,1-7.64,2.4q-2.91-11.29-5.83-22.58-3.07-12-6.14-24a2.87,2.87,0,0,1,1.47-.31c2.6,0,5.2,0,7.8,0,.1.29.23.57.31.86Q112.95,144,115.43,153.79Z"/><path class="cls-8" d="M110.13,133.35c-2.6,0-5.2,0-7.8,0a2.87,2.87,0,0,0-1.47.31c-1.45-4.46-2.43-9-3.65-13.55q-2.07-7.69-4-15.42c-.28-1.13-.62-1.25-1.62-.73-7.36,3.84-14.75,7.62-22.13,11.42a4.22,4.22,0,0,1-1.7.69c0-.53.42-.65.78-.84l22.78-12c3.18-1.67,6.25-3.56,9.56-5l.28,0c.42,1.37.9,2.73,1.25,4.11q3.13,12.21,6.23,24.41Z"/><path class="cls-9" d="M121.26,36c1.06,1.1,2.51.93,3.83,1.12a32.39,32.39,0,0,0,6.07,0c1.6-.06,3.14.45,4.73.35a1,1,0,0,1,1,.63,3.43,3.43,0,0,1-1.44.86c-3.07,1.46-6.16,2.87-9.23,4.33-7.44,3.54-14.86,7.12-22.32,10.62-1.13.53-2.23,1.31-3.59,1.28-2.67-.53-5.34-1-8-1.6-1.59-.34-3.16-.79-4.74-1.18q11-5.44,21.94-10.89c3.53-1.74,7.09-3.44,10.65-5.15C120.47,36.21,120.81,35.91,121.26,36Z"/><path class="cls-10" d="M100.87,98.22c-3.31,1.42-6.38,3.31-9.56,5l-22.78,12c-.36.19-.79.31-.78.84h0c-.31-.07-.58-.08-.6.35v0c-1-.19-1.61.56-2.4.86-1.46.55-2,.3-2.43-1.19L51.43,74.52a17.3,17.3,0,0,1-.6-3.64c0-.44.32-.55.69-.57q4,15.57,8.09,31.15c.79,3.06,1,3.12,4.07,3.34,4.39.3,8.77.8,13.16,1.18a36.4,36.4,0,0,0,6.91.12c2.11-.23,4.08-1.85,6.09-2.89,3.21-1.65,6.4-3.33,9.6-5C99.91,98,100.39,97.79,100.87,98.22Z"/><path class="cls-10" d="M129.75,74.4c.66.09.76.62.87,1.12,1.92,9.34,3.69,18.72,5.84,28,.42,1.8.69,3.63,1,5.44.17.88.53,1.29,1.59,1.45,2,.31,4.12,0,6.13.5.55.16,1-.22,1.5-.26l3.15,13.75c.11.49.17,1,.26,1.46-2.42,0-4.84,0-7.26,0a21.12,21.12,0,0,0-2.89.33c-.16-.8-.33-1.6-.48-2.41-1.28-6.72-3.09-13.33-4.28-20.08A80.75,80.75,0,0,0,132.81,93c-.81-4.9-1.89-9.75-3.09-14.57Z"/><path class="cls-9" d="M160.77,40.84l9.29.94c2,5,4,9.95,6,14.94a2.51,2.51,0,0,1-.21,2.48,44.33,44.33,0,0,0-9.66-1.61,20.34,20.34,0,0,1-5.82-.93l.34-.59a5.94,5.94,0,0,0,1.88-.62,2.09,2.09,0,0,0,2.31-1.61,4.09,4.09,0,0,0-.38-3.11Q162.64,45.8,160.77,40.84Z"/><path class="cls-6" d="M200.46,164.64c3.51-.47,7,.26,10.54,0A121.45,121.45,0,0,1,214.72,177c-1,.55-2,.3-3,.31-2.3,0-4.61,0-6.91,0Q202.63,171,200.46,164.64Z"/><path class="cls-8" d="M67.13,116.38c0-.43.29-.42.6-.35A.52.52,0,0,1,67.13,116.38Z"/><path class="cls-11" d="M130.71,184.24c2.67-1.08,2.52-3.39,2.45-5.66,3.73-.83,7.55-1.27,11.11-2.78,1,3.15,2.49,4.12,6.17,4,.3.63.73.65,1.4.51,3.41-.75,6.78-1.67,10.15-2.57,6.84-1.82,13.77-3.34,20.55-5.39,4.18-1.26,8.38-2.45,12.57-3.67.64,1.81,1.32,3.62,1.92,5.45a98.18,98.18,0,0,1,3.38,11l-17.47,5.58-11.37,3.58c-11.53,3.64-23,7.37-34.59,10.88-6.58,2-13.1,4.18-19.69,6.17-1.71.51-3.42,1-5.09,1.64-1.23.46-1.81-.18-2-1.16-.7-4.58-1.71-9.11-2.55-13.66a7.27,7.27,0,0,1,0-1.24c5.56-2.31,11.08-4.74,16.7-6.9,2.8-1.08,4.45-3.16,6-5.48h0Z"/><path class="cls-8" d="M200.41,185.1a98.18,98.18,0,0,0-3.38-11c-.6-1.83-1.28-3.64-1.92-5.45-.21-1.23-.87-2.32-1.15-3.51s-.84-1.43-2-1c-7.56,2.86-15.16,5.64-22.73,8.48-6.26,2.35-12.51,4.74-18.77,7.12-3.68.14-5.18-.83-6.17-4q-1.71-8.2-3.4-16.4c-.72-3.5-1.41-7-2.11-10.52,1.86,1.19,3.86,1,5.88.56,1.1,3.72,1.58,7.58,2.45,11.35a18.3,18.3,0,0,0,.95,3.86c.47,2.3.91,4.6,1.41,6.9a4.29,4.29,0,0,0,5.83,3c4.71-1.89,9.49-3.61,14.27-5.32,5.07-1.82,10.09-3.73,15-5.81a4,4,0,0,0,1.64-.34c3.44-1.34,6.91-2.61,10.35-4a1.42,1.42,0,0,1,2.15.93q.87,2.31,1.72,4.62,2.16,6.36,4.34,12.73a15.2,15.2,0,0,0,1.27,4.23,1.52,1.52,0,0,1-1,2.2A17.37,17.37,0,0,1,200.41,185.1Z"/><path class="cls-8" d="M130.34,184.51c-1.55,2.32-3.2,4.4-6,5.48-5.62,2.16-11.14,4.59-16.7,6.9-.63-2.67-.91-2.65,1.5-3.7,2.11-.91,4.2-1.87,6.3-2.8,2.6-.61,4.89-2,7.37-2.93S127.71,185.18,130.34,184.51Z"/><path class="cls-12" d="M113.92,107.24c-1.57-6.19-3.1-12.38-4.74-18.55-.56-2.09-3.3-3.11-5.3-2.18Q91.13,92.41,78.37,98.3c-2.72,1.25-5.48,2.41-8.2,3.69-1.33.63-1.63-.44-1.79-1.16-1-4.75-1.94-9.53-2.9-14.3a38.14,38.14,0,0,1-1.17-6.26c1.41,0,2.67.72,4,.94,3.14.51,6.31.78,9.48,1,3.89.27,7.75.78,11.63,1.16,2.71.27,5.42.46,8.13.73,3.56.36,7.13.75,10.7,1.14s6.92.83,10.39,1.11c2.22.18,4.48.92,6.67-.19a3.23,3.23,0,0,0,.63,2.18,14,14,0,0,0,.23,2.12c1.23,5.53,2.35,11.09,3.61,16.61.27,1.21.12,2.58,1,3.62.08,2.75,1,5.35,1.36,8l-14.93,0c-.08-.12-.21-.23-.24-.36Q115.46,112.83,113.92,107.24Z"/><path class="cls-13" d="M125.35,86.16c-2.19,1.11-4.45.37-6.67.19-3.47-.28-6.93-.74-10.39-1.11s-7.14-.78-10.7-1.14c-2.71-.27-5.42-.46-8.13-.73-3.88-.38-7.74-.89-11.63-1.16-3.17-.22-6.34-.49-9.48-1-1.37-.22-2.63-.93-4-.94a9,9,0,0,1-.71-3.11l10.57-5,5-2.43A83.64,83.64,0,0,0,86.9,66a11,11,0,0,0,2.71-1c2.72-1.29,5.32-2.85,8.15-3.92a2.11,2.11,0,0,1-.29.7c-2.54,2.71-1.11,4.28,1.75,4.66,3,.41,6.13.57,9.19.84l7.66.68,12.55,1.18c3.14.31,6.26-.64,9.4-.18-2.81,1.64-5.91,2.84-8.3,5.17-1.63,1.25-2.94,2.84-4.45,4.23a1.8,1.8,0,0,0-.63,2,31.68,31.68,0,0,1,.42,4.26c0,.35-.07.71.26,1ZM75.9,76.82c-2,.11-3.42-.12-4.78.33-.58.2-1.4.22-1.44.93s.81.94,1.4,1.23c1.27.62,2.65.27,4,.45,3.14.45,6.3.77,9.45,1.13,3.46.4,6.92.9,10.39,1.14s6.62.71,9.94,1c3.72.37,7.43.8,11.16,1.16,1.83.18,3.68.26,5.53.39.81,0,1.46-.21,1.63-1.08s-.59-1.12-1.18-1.38a9.64,9.64,0,0,0-3-.64c-3.21-.33-6.42-.63-9.63-1-4.48-.48-9-1-13.44-1.5q-4.66-.51-9.32-1.05C82.81,77.56,79.06,77,75.9,76.82Z"/><path class="cls-10" d="M113.92,107.24q1.55,5.58,3.1,11.15c0,.13.16.24.24.36a6.25,6.25,0,0,0,.34,2.1,33.74,33.74,0,0,1,1.27,5.32,3.59,3.59,0,0,1-1,.3,83.38,83.38,0,0,0-9.22.31q-3.12-12.19-6.23-24.41c-.35-1.38-.83-2.74-1.25-4.11,1.41,0,1.8,1,2.1,2.08.48,1.68.93,3.37,1.32,5.07a1.68,1.68,0,0,0,1.88,1.56C108.94,107,111.43,107.14,113.92,107.24Z"/><path class="cls-10" d="M160.77,40.84q1.88,4.95,3.76,9.89a4.09,4.09,0,0,1,.38,3.11,2.09,2.09,0,0,1-2.31,1.61c.29-.63,1.74-.68.92-1.85a4.6,4.6,0,0,0-.22-1.36c-1.13-3-2.22-6.06-3.32-9.09-1.3-3.57-2.59-7.13-3.9-10.69-.54-1.45-1-1.6-2.39-.92l-6.94,3.31c-3.76,1.78-7.55,3.47-11.26,5.36s-7.33,3.21-10.76,5.29c-1.25.54-2.56,1-3.75,1.65-2.08,1.14-4.46,1.68-6.36,3.18-3.88,1.78-7.81,3.46-11.63,5.36-5.15,2.54-10.47,4.72-15.49,7.51a62.9,62.9,0,0,0-8,3.8,34.55,34.55,0,0,0-5,2.4c-3.8,1.26-7.13,3.56-10.84,5-.06-1.18.74-1.77,1.63-2.2q8.43-4,16.87-8c5.59-2.64,11.18-5.26,16.76-7.92.52-.24,1.24-.32,1.38-1.09,1.36,0,2.46-.75,3.59-1.28,7.46-3.5,14.88-7.08,22.32-10.62,3.07-1.46,6.16-2.87,9.23-4.33a3.43,3.43,0,0,0,1.44-.86c4.66-1.92,9.21-4.05,13.7-6.34A19.1,19.1,0,0,1,154,30.41c1.63-.46,2.76.15,3.51,2C158.65,35.17,159.68,38,160.77,40.84Z"/><path class="cls-14" d="M63.63,74.44c3.71-1.48,7-3.78,10.84-5l-.3,2.78-10.57,5C63.27,76.25,62.79,75.34,63.63,74.44Z"/><path class="cls-14" d="M132.19,118.73c-.36-2.69-1.28-5.29-1.36-8,1,.08,1.81-.19,2.07-1.2.34-1.39.93-2.85.75-4.2-.37-2.79-.46-5.6-.75-8.4-.14-1.27-.61-2.6-.09-3.91a80.75,80.75,0,0,1,2.4,10.71c1.19,6.75,3,13.36,4.28,20.08.15.81.32,1.61.48,2.41.69,5.17,1.94,10.24,3.11,15.3.62,2.65,1.11,5.3,1.56,8-2,.46-4,.63-5.88-.56-.35-1.37-.69-2.74-1-4.11-1-4.87-2-9.75-3.07-14.61C133.81,126.35,133.26,122.49,132.19,118.73Z"/><path class="cls-6" d="M184.6,163.4c-5,2.08-10,4-15,5.81-4.78,1.71-9.56,3.43-14.27,5.32a4.29,4.29,0,0,1-5.83-3c-.5-2.3-.94-4.6-1.41-6.9a69,69,0,0,0,12-.42c5.9-.75,11.83-.29,17.71-.88,1.88-.19,3.78.48,5.63-.24C183.81,163,184.22,163.21,184.6,163.4Z"/><path class="cls-15" d="M138,68.93c-3.14-.46-6.26.49-9.4.18l-12.55-1.18-7.66-.68c-3.06-.27-6.14-.43-9.19-.84-2.86-.38-4.29-2-1.75-4.66a2.11,2.11,0,0,0,.29-.7c3-1.47,6.1-3,9.16-4.41,2.41-1.14,4.85-2.23,7.27-3.34.25.33.53.15.83.07,4.57-1.19,9.12-2.47,13.76-3.35a36.16,36.16,0,0,1,13.32-.22,65.85,65.85,0,0,0,7.78,1,5.69,5.69,0,0,1,4.67,2.56,34.43,34.43,0,0,1,2.47,5Z"/><path class="cls-13" d="M157,58.3a34.43,34.43,0,0,0-2.47-5,5.69,5.69,0,0,0-4.67-2.56,65.85,65.85,0,0,1-7.78-1,36.16,36.16,0,0,0-13.32.22c-4.64.88-9.19,2.16-13.76,3.35-.3.08-.58.26-.83-.07a4.29,4.29,0,0,1,1.71-1A46.07,46.07,0,0,0,121,49.87l10.86-5.25L149,36.53a3,3,0,0,1,1.73-.57l.65,1.82c1.55,4.34,3,8.69,4.67,13a61.29,61.29,0,0,0,2.51,6.57A2.08,2.08,0,0,1,157,58.3Z"/><path class="cls-16" d="M158.58,57.34a61.29,61.29,0,0,1-2.51-6.57c-1.62-4.3-3.12-8.65-4.67-13,2.11.33,2.61,2.17,3.35,3.69a65.52,65.52,0,0,1,3.54,8.47C159,52,159.9,54,160.72,56.07l-.34.59Z"/><path class="cls-17" d="M125.35,86.16l0-.61c0-.35.09-.71-.26-1a31.68,31.68,0,0,0-.42-4.26,1.8,1.8,0,0,1,.63-2c1.51-1.39,2.82-3,4.45-4.23a1.53,1.53,0,0,0,0,.3l0,4a2.91,2.91,0,0,0-2.51,3c-.12,2.32.85,4.84-1.22,6.82,0,0,0,.1,0,.15A3.23,3.23,0,0,1,125.35,86.16Z"/><path class="cls-17" d="M137.72,144.77c.35,1.37.69,2.74,1,4.11.7,3.51,1.39,7,2.11,10.52q1.68,8.21,3.4,16.4c-3.56,1.51-7.38,1.95-11.11,2.78-1.16-3.15-1.93-6.42-2.87-9.63-1.47-5-2.33-10.21-4.06-15.15a79.44,79.44,0,0,1-2.16-9Z"/><path class="cls-4" d="M124.07,144.81a79.44,79.44,0,0,0,2.16,9c-3.31-.15-6.62.25-9.92-.21a2.6,2.6,0,0,0-.88.2q-2.49-9.79-5-19.58c-.08-.29-.21-.57-.31-.86l-1.5-6.57a83.38,83.38,0,0,1,9.22-.31,3.59,3.59,0,0,0,1-.3c1.13,4,2.22,8.08,3.39,12.1C122.9,140.44,123.06,142.75,124.07,144.81Z"/><path class="cls-8" d="M130.71,184.24l-.37.27Z"/><path class="cls-14" d="M126,88.34s0-.13,0-.15c2.07-2,1.1-4.5,1.22-6.82a2.91,2.91,0,0,1,2.51-3c1.2,4.82,2.28,9.67,3.09,14.57-.52,1.31-.05,2.64.09,3.91.29,2.8.38,5.61.75,8.4.18,1.35-.41,2.81-.75,4.2-.26,1-1.1,1.28-2.07,1.2-.89-1-.74-2.41-1-3.62-1.26-5.52-2.38-11.08-3.61-16.61A14,14,0,0,1,126,88.34Z"/><path class="cls-17" d="M160.72,56.07c-.82-2-1.75-4-2.43-6.13a65.52,65.52,0,0,0-3.54-8.47c-.74-1.52-1.24-3.36-3.35-3.69-.22-.6-.43-1.21-.65-1.82,2-.24,3.34.92,4.33,2.41a28.18,28.18,0,0,1,3.23,6.89,33.11,33.11,0,0,0,2.61,6.56c.58,1,1.21,2,2.6,1.78.82,1.17-.63,1.22-.92,1.85A5.94,5.94,0,0,1,160.72,56.07Z"/><path class="cls-14" d="M150.44,179.78c6.26-2.38,12.51-4.77,18.77-7.12,7.57-2.84,15.17-5.62,22.73-8.48,1.18-.46,1.71-.34,2,1s.94,2.28,1.15,3.51c-4.19,1.22-8.39,2.41-12.57,3.67-6.78,2-13.71,3.57-20.55,5.39-3.37.9-6.74,1.82-10.15,2.57C151.17,180.43,150.74,180.41,150.44,179.78Z"/><path class="cls-16" d="M124.07,144.81c-1-2.06-1.17-4.37-1.81-6.54-1.17-4-2.26-8.06-3.39-12.1a33.74,33.74,0,0,0-1.27-5.32,6.25,6.25,0,0,1-.34-2.1l14.93,0c1.07,3.76,1.62,7.62,2.46,11.43,1.07,4.86,2,9.74,3.07,14.61Z"/><path class="cls-15" d="M75.9,76.82c3.16.19,6.91.74,10.68,1.17q4.65.54,9.32,1.05c4.48.49,9,1,13.44,1.5,3.21.35,6.42.65,9.63,1a9.64,9.64,0,0,1,3,.64c.59.26,1.35.49,1.18,1.38s-.82,1.13-1.63,1.08c-1.85-.13-3.7-.21-5.53-.39-3.73-.36-7.44-.79-11.16-1.16-3.32-.33-6.61-.8-9.94-1S88,81.29,84.5,80.89c-3.15-.36-6.31-.68-9.45-1.13-1.32-.18-2.7.17-4-.45-.59-.29-1.45-.45-1.4-1.23s.86-.73,1.44-.93C72.48,76.7,73.88,76.93,75.9,76.82Z"/><path class="cls-12" d="M121,49.87a46.07,46.07,0,0,1-5.12,2.43,4.29,4.29,0,0,0-1.71,1c-2.42,1.11-4.86,2.2-7.27,3.34-3.06,1.45-6.11,2.94-9.16,4.41-2.83,1.07-5.43,2.63-8.15,3.92a11,11,0,0,1-2.71,1c-.34-1.05.69-1.81.6-2.81,5-2.79,10.34-5,15.49-7.51,3.82-1.9,7.75-3.58,11.63-5.36,1.83.27,3.48-.6,5.23-.84C120.34,49.42,120.86,49,121,49.87Z"/><path class="cls-16" d="M87.5,63.2c.09,1-.94,1.76-.6,2.81a83.64,83.64,0,0,1-7.75,3.74l.3-2.75A62.9,62.9,0,0,1,87.5,63.2Z"/><path class="cls-17" d="M79.45,67l-.3,2.75-5,2.43.3-2.78A34.55,34.55,0,0,1,79.45,67Z"/><path class="cls-12" d="M125.06,84.59c.35.25.3.61.26,1C125,85.3,125.05,84.94,125.06,84.59Z"/><path class="cls-14" d="M163.52,53.6c-1.39.18-2-.79-2.6-1.78a33.11,33.11,0,0,1-2.61-6.56,28.18,28.18,0,0,0-3.23-6.89c-1-1.49-2.31-2.65-4.33-2.41a3,3,0,0,0-1.73.57l-17.14,8.09c-1.14-.67-2.14.12-3.21.28-1.31.2-2.55.9-3.94.6,3.43-2.08,7.2-3.48,10.76-5.29s7.5-3.58,11.26-5.36l6.94-3.31c1.41-.68,1.85-.53,2.39.92,1.31,3.56,2.6,7.12,3.9,10.69,1.1,3,2.19,6.07,3.32,9.09A4.6,4.6,0,0,1,163.52,53.6Z"/><path class="cls-16" d="M124.73,45.5c1.39.3,2.63-.4,3.94-.6,1.07-.16,2.07-.95,3.21-.28L121,49.87c-.16-.85-.68-.45-1.17-.38-1.75.24-3.4,1.11-5.23.84,1.9-1.5,4.28-2,6.36-3.18C122.17,46.49,123.48,46,124.73,45.5Z"/></g></g></svg>