<svg width="282" height="280" viewBox="0 0 282 280" fill="none" xmlns="http://www.w3.org/2000/svg">
<g clip-path="url(#clip0_1_34)">
<path d="M140.587 279.21C218.231 279.21 281.173 216.707 281.173 139.605C281.173 62.5034 218.231 0 140.587 0C62.9435 0 0.000976562 62.5034 0.000976562 139.605C0.000976562 216.707 62.9435 279.21 140.587 279.21Z" fill="#FF1256"/>
<mask id="path-2-outside-1_1_34" maskUnits="userSpaceOnUse" x="61.0619" y="34.4732" width="188.301" height="197.494" fill="black">
<rect fill="white" x="61.0619" y="34.4732" width="188.301" height="197.494"/>
<path d="M111.993 217.27L75.7588 82.0402L93.3386 77.3297L113.734 153.445L165.783 57.9182L175.442 55.33L140.401 120.831L222.882 187.557L202.79 192.941L132.406 135.811L116.839 165.036L129.573 212.559L111.993 217.27Z"/>
</mask>
<path d="M111.993 217.27L100.402 220.376L103.508 231.967L115.099 228.861L111.993 217.27ZM75.7588 82.0402L72.653 70.4491L61.0619 73.5549L64.1677 85.146L75.7588 82.0402ZM93.3386 77.3297L104.93 74.2238L101.824 62.6327L90.2328 65.7386L93.3386 77.3297ZM113.734 153.445L102.142 156.55L109.911 185.542L124.271 159.186L113.734 153.445ZM165.783 57.9182L162.677 46.3271L157.707 47.6588L155.246 52.1768L165.783 57.9182ZM175.442 55.33L186.023 60.9906L199.087 36.5712L172.337 43.7389L175.442 55.33ZM140.401 120.831L129.82 115.171L125.14 123.92L132.854 130.161L140.401 120.831ZM222.882 187.557L225.988 199.148L248.75 193.049L230.429 178.228L222.882 187.557ZM202.79 192.941L195.228 202.258L199.982 206.117L205.896 204.532L202.79 192.941ZM132.406 135.811L139.968 126.494L128.661 117.316L121.815 130.17L132.406 135.811ZM116.839 165.036L106.248 159.394L104.024 163.571L105.248 168.142L116.839 165.036ZM129.573 212.559L132.679 224.15L144.27 221.045L141.164 209.453L129.573 212.559ZM123.585 214.164L87.3499 78.9343L64.1677 85.146L100.402 220.376L123.585 214.164ZM78.8646 93.6313L96.4445 88.9208L90.2328 65.7386L72.653 70.4491L78.8646 93.6313ZM81.7475 80.4355L102.142 156.55L125.325 150.339L104.93 74.2238L81.7475 80.4355ZM124.271 159.186L176.32 63.6597L155.246 52.1768L103.196 147.703L124.271 159.186ZM168.889 69.5093L178.548 66.9212L172.337 43.7389L162.677 46.3271L168.889 69.5093ZM164.861 49.6695L129.82 115.171L150.982 126.492L186.023 60.9906L164.861 49.6695ZM132.854 130.161L215.334 196.887L230.429 178.228L147.949 111.502L132.854 130.161ZM219.776 175.966L199.685 181.35L205.896 204.532L225.988 199.148L219.776 175.966ZM210.353 183.624L139.968 126.494L124.843 145.128L195.228 202.258L210.353 183.624ZM121.815 130.17L106.248 159.394L127.431 170.677L142.997 141.452L121.815 130.17ZM105.248 168.142L117.982 215.665L141.164 209.453L128.431 161.93L105.248 168.142ZM126.467 200.968L108.888 205.679L115.099 228.861L132.679 224.15L126.467 200.968Z" fill="white" mask="url(#path-2-outside-1_1_34)"/>
</g>
<defs>
<clipPath id="clip0_1_34">
<rect width="281.171" height="279.213" fill="white"/>
</clipPath>
</defs>
</svg>
